<?xml version="1.0" encoding="UTF-8"?>
<!DOCTYPE svg PUBLIC "-//W3C//DTD SVG 1.1//EN" "http://www.w3.org/Graphics/SVG/1.1/DTD/svg11.dtd">
<svg xmlns="http://www.w3.org/2000/svg" version="1.1" width="619px" height="403px" style="shape-rendering:geometricPrecision; text-rendering:geometricPrecision; image-rendering:optimizeQuality; fill-rule:evenodd; clip-rule:evenodd" xmlns:xlink="http://www.w3.org/1999/xlink">
<g><path style="opacity:0.999" fill="#177ffe" d="M 295.5,-0.5 C 304.5,-0.5 313.5,-0.5 322.5,-0.5C 392.023,6.67119 445.523,39.6712 483,98.5C 511.978,150.038 518.311,204.372 502,261.5C 482.98,316.053 447.813,356.553 396.5,383C 372.571,394.152 347.571,400.652 321.5,402.5C 314.167,402.5 306.833,402.5 299.5,402.5C 218.355,395.507 159.855,355.507 124,282.5C 108.202,244.901 103.535,205.901 110,165.5C 127.469,85.7672 174.969,32.9339 252.5,7C 266.805,3.50841 281.139,1.00841 295.5,-0.5 Z"/></g>
<g><path style="opacity:1" fill="#00d4fe" d="M 303.5,6.5 C 357.037,6.59292 403.37,24.4262 442.5,60C 496.656,114.422 514.489,179.255 496,254.5C 472.273,326.892 423.439,372.392 349.5,391C 264.923,405.02 197.423,377.52 147,308.5C 104.554,238.243 103.887,167.577 145,96.5C 183.26,40.7218 236.093,10.7218 303.5,6.5 Z"/></g>
<g><path style="opacity:1" fill="#cdc6c5" d="M 384.5,65.5 C 383.069,65.8807 382.236,66.8807 382,68.5C 380.94,63.6035 379.773,63.9368 378.5,69.5C 377.833,68.8333 377.167,68.1667 376.5,67.5C 375.575,68.6405 374.741,68.6405 374,67.5C 373.333,70.1667 372.667,70.1667 372,67.5C 371.51,69.5454 371.677,71.5454 372.5,73.5C 366.12,70.644 359.953,67.3106 354,63.5C 349.457,75.0738 344.624,86.4072 339.5,97.5C 338.852,95.5018 338.019,93.5018 337,91.5C 336.415,93.1293 335.581,94.6293 334.5,96C 335.627,97.0567 336.127,98.2234 336,99.5C 335.667,99.1667 335.333,98.8333 335,98.5C 332.418,99.2839 330.751,100.951 330,103.5C 329.035,101.74 327.868,101.406 326.5,102.5C 327.665,103.584 328.998,104.417 330.5,105C 328.333,105.833 326.833,107.333 326,109.5C 324.568,107.069 323.068,107.069 321.5,109.5C 329.205,90.2187 337.205,71.052 345.5,52C 348.12,49.729 351.12,49.0623 354.5,50C 364.749,54.9562 374.749,60.1228 384.5,65.5 Z"/></g>
<g><path style="opacity:1" fill="#fefefe" d="M 372.5,73.5 C 380.372,77.4362 388.372,81.4362 396.5,85.5C 406.993,91.0826 417.66,96.0826 428.5,100.5C 434.852,104.526 441.519,108.192 448.5,111.5C 437.114,124.878 425.781,138.211 414.5,151.5C 393.822,175.51 373.155,199.51 352.5,223.5C 344.124,231.933 336.458,240.933 329.5,250.5C 305.768,277.498 281.935,304.498 258,331.5C 250.333,324.334 242.5,317.334 234.5,310.5C 225.479,299.479 215.479,289.479 204.5,280.5C 198.548,273.881 192.215,267.548 185.5,261.5C 179.146,253.146 171.812,245.812 163.5,239.5C 162.416,237.568 161.083,235.735 159.5,234C 168.119,219.932 176.619,205.766 185,191.5C 189.991,198.322 195.158,204.989 200.5,211.5C 205.428,220.361 211.094,228.695 217.5,236.5C 223.688,246.223 230.355,255.557 237.5,264.5C 242.449,271.798 247.449,279.131 252.5,286.5C 255.915,289.096 259.249,288.929 262.5,286C 269.993,269.728 276.659,253.228 282.5,236.5C 288.89,223.355 294.556,209.688 299.5,195.5C 308.277,176.261 316.277,156.594 323.5,136.5C 329.61,123.929 334.944,110.929 339.5,97.5C 344.624,86.4072 349.457,75.0738 354,63.5C 359.953,67.3106 366.12,70.644 372.5,73.5 Z"/></g>
<g><path style="opacity:1" fill="#bdb7b6" d="M 384.5,65.5 C 394.5,69.9383 404.167,74.9383 413.5,80.5C 414.303,81.4232 414.47,82.4232 414,83.5C 413.259,82.3595 412.425,82.3595 411.5,83.5C 410.719,82.2713 410.219,80.938 410,79.5C 408.178,81.9036 406.844,84.5703 406,87.5C 404.883,86.0506 404.216,84.3839 404,82.5C 403.077,83.7588 402.243,85.0921 401.5,86.5C 400.481,85.3128 399.314,84.3128 398,83.5C 397.283,84.0442 396.783,84.7109 396.5,85.5C 388.372,81.4362 380.372,77.4362 372.5,73.5C 371.677,71.5454 371.51,69.5454 372,67.5C 372.667,70.1667 373.333,70.1667 374,67.5C 374.741,68.6405 375.575,68.6405 376.5,67.5C 377.167,68.1667 377.833,68.8333 378.5,69.5C 379.773,63.9368 380.94,63.6035 382,68.5C 382.236,66.8807 383.069,65.8807 384.5,65.5 Z"/></g>
<g><path style="opacity:1" fill="#a9a4a3" d="M 413.5,80.5 C 423.56,84.3636 433.227,89.0303 442.5,94.5C 442.062,94.4346 441.728,94.6012 441.5,95C 442.167,95.3333 442.833,95.6667 443.5,96C 442.033,97.0975 441.199,98.5975 441,100.5C 440.517,99.552 440.351,98.552 440.5,97.5C 439.448,97.3505 438.448,97.5172 437.5,98C 439.56,99.4926 439.893,101.326 438.5,103.5C 437.749,102.624 437.249,101.624 437,100.5C 435.927,101.28 434.76,101.113 433.5,100C 434.654,99.0862 434.487,98.2529 433,97.5C 431.729,98.8825 430.229,99.8825 428.5,100.5C 417.66,96.0826 406.993,91.0826 396.5,85.5C 396.783,84.7109 397.283,84.0442 398,83.5C 399.314,84.3128 400.481,85.3128 401.5,86.5C 402.243,85.0921 403.077,83.7588 404,82.5C 404.216,84.3839 404.883,86.0506 406,87.5C 406.844,84.5703 408.178,81.9036 410,79.5C 410.219,80.938 410.719,82.2713 411.5,83.5C 412.425,82.3595 413.259,82.3595 414,83.5C 414.47,82.4232 414.303,81.4232 413.5,80.5 Z"/></g>
<g><path style="opacity:1" fill="#bbb5b4" d="M 339.5,97.5 C 334.944,110.929 329.61,123.929 323.5,136.5C 321.882,138.785 319.882,140.785 317.5,142.5C 316.833,141.833 316.167,141.167 315.5,140.5C 314.056,143.055 312.889,145.721 312,148.5C 310.732,148.384 309.398,148.051 308,147.5C 307.5,148.667 306.667,149.5 305.5,150C 306.269,152.543 305.269,154.376 302.5,155.5C 308.888,140.138 315.221,124.805 321.5,109.5C 323.068,107.069 324.568,107.069 326,109.5C 326.833,107.333 328.333,105.833 330.5,105C 328.998,104.417 327.665,103.584 326.5,102.5C 327.868,101.406 329.035,101.74 330,103.5C 330.751,100.951 332.418,99.2839 335,98.5C 335.333,98.8333 335.667,99.1667 336,99.5C 336.127,98.2234 335.627,97.0567 334.5,96C 335.581,94.6293 336.415,93.1293 337,91.5C 338.019,93.5018 338.852,95.5018 339.5,97.5 Z"/></g>
<g><path style="opacity:1" fill="#928c8b" d="M 442.5,94.5 C 448.972,97.2364 455.306,100.236 461.5,103.5C 465.214,107.779 465.214,112.113 461.5,116.5C 455.449,123.212 449.449,129.879 443.5,136.5C 440.641,138.564 437.641,140.564 434.5,142.5C 432.678,145.488 430.345,147.988 427.5,150C 424.204,151.224 421.371,153.058 419,155.5C 418.257,153.355 417.424,153.189 416.5,155C 417.893,156.301 418.393,157.801 418,159.5C 416.68,157.417 415.346,157.751 414,160.5C 413.097,159.299 411.931,158.465 410.5,158C 413.64,157 414.973,154.833 414.5,151.5C 425.781,138.211 437.114,124.878 448.5,111.5C 441.519,108.192 434.852,104.526 428.5,100.5C 430.229,99.8825 431.729,98.8825 433,97.5C 434.487,98.2529 434.654,99.0862 433.5,100C 434.76,101.113 435.927,101.28 437,100.5C 437.249,101.624 437.749,102.624 438.5,103.5C 439.893,101.326 439.56,99.4926 437.5,98C 438.448,97.5172 439.448,97.3505 440.5,97.5C 440.351,98.552 440.517,99.552 441,100.5C 441.199,98.5975 442.033,97.0975 443.5,96C 442.833,95.6667 442.167,95.3333 441.5,95C 441.728,94.6012 442.062,94.4346 442.5,94.5 Z"/></g>
<g><path style="opacity:1" fill="#a7a1a0" d="M 323.5,136.5 C 316.277,156.594 308.277,176.261 299.5,195.5C 298.548,194.548 297.548,193.548 296.5,192.5C 295.167,196.5 293.833,196.5 292.5,192.5C 291.854,195.31 290.188,197.144 287.5,198C 288.672,198.419 289.672,199.085 290.5,200C 289.54,201.419 288.707,202.919 288,204.5C 286.97,202.654 285.804,200.987 284.5,199.5C 290.545,184.758 296.545,170.091 302.5,155.5C 305.269,154.376 306.269,152.543 305.5,150C 306.667,149.5 307.5,148.667 308,147.5C 309.398,148.051 310.732,148.384 312,148.5C 312.889,145.721 314.056,143.055 315.5,140.5C 316.167,141.167 316.833,141.833 317.5,142.5C 319.882,140.785 321.882,138.785 323.5,136.5 Z"/></g>
<g><path style="opacity:1" fill="#7f7978" d="M 443.5,136.5 C 419.531,165.435 394.865,193.768 369.5,221.5C 369.649,220.448 369.483,219.448 369,218.5C 368.417,220.002 367.584,221.335 366.5,222.5C 365.808,221.975 365.308,221.308 365,220.5C 363.242,224.592 360.242,227.259 356,228.5C 354.613,226.953 353.447,225.287 352.5,223.5C 373.155,199.51 393.822,175.51 414.5,151.5C 414.973,154.833 413.64,157 410.5,158C 411.931,158.465 413.097,159.299 414,160.5C 415.346,157.751 416.68,157.417 418,159.5C 418.393,157.801 417.893,156.301 416.5,155C 417.424,153.189 418.257,153.355 419,155.5C 421.371,153.058 424.204,151.224 427.5,150C 430.345,147.988 432.678,145.488 434.5,142.5C 437.641,140.564 440.641,138.564 443.5,136.5 Z"/></g>
<g><path style="opacity:1" fill="#948e8d" d="M 299.5,195.5 C 294.556,209.688 288.89,223.355 282.5,236.5C 281.849,237.091 281.182,237.757 280.5,238.5C 279.833,237.167 279.167,235.833 278.5,234.5C 276.972,235.861 275.305,237.028 273.5,238C 273.5,239.333 273.5,240.667 273.5,242C 275.452,243.504 276.618,245.338 277,247.5C 275.853,246.542 274.853,246.875 274,248.5C 273.583,245.578 272.583,242.911 271,240.5C 270.333,243.167 269.667,243.167 269,240.5C 268.845,242.856 268.845,245.189 269,247.5C 268.1,248.77 266.934,249.77 265.5,250.5C 266.326,251.451 266.492,252.451 266,253.5C 264.812,252.437 264.312,251.103 264.5,249.5C 271.167,232.833 277.833,216.167 284.5,199.5C 285.804,200.987 286.97,202.654 288,204.5C 288.707,202.919 289.54,201.419 290.5,200C 289.672,199.085 288.672,198.419 287.5,198C 290.188,197.144 291.854,195.31 292.5,192.5C 293.833,196.5 295.167,196.5 296.5,192.5C 297.548,193.548 298.548,194.548 299.5,195.5 Z"/></g>
<g><path style="opacity:1" fill="#bfb9b8" d="M 211.5,206.5 C 211.631,207.376 211.298,208.043 210.5,208.5C 209.167,204.5 207.833,204.5 206.5,208.5C 206.678,207.044 205.844,205.711 204,204.5C 202.461,205.546 202.295,206.879 203.5,208.5C 204.189,210.353 205.522,211.519 207.5,212C 205.076,213.804 202.743,213.638 200.5,211.5C 195.158,204.989 189.991,198.322 185,191.5C 176.619,205.766 168.119,219.932 159.5,234C 161.083,235.735 162.416,237.568 163.5,239.5C 162.739,240.391 161.739,241.058 160.5,241.5C 159.833,239.833 159.167,238.167 158.5,236.5C 157.833,238.5 157.167,240.5 156.5,242.5C 155.833,241.833 155.167,241.167 154.5,240.5C 153.943,242.332 152.943,243.665 151.5,244.5C 146.926,241.35 145.093,237.017 146,231.5C 156.734,211.839 168.568,193.006 181.5,175C 185.295,174.021 188.628,174.854 191.5,177.5C 198.192,187.185 204.859,196.851 211.5,206.5 Z"/></g>
<g><path style="opacity:1" fill="#a9a4a3" d="M 211.5,206.5 C 217.857,214.868 223.857,223.535 229.5,232.5C 230.608,234.695 230.441,236.695 229,238.5C 227.957,236.299 227.123,233.966 226.5,231.5C 225.065,238.252 223.898,237.919 223,230.5C 221.865,230.727 220.698,231.06 219.5,231.5C 221.857,237.314 221.357,237.647 218,232.5C 218.355,233.959 218.189,235.293 217.5,236.5C 211.094,228.695 205.428,220.361 200.5,211.5C 202.743,213.638 205.076,213.804 207.5,212C 205.522,211.519 204.189,210.353 203.5,208.5C 202.295,206.879 202.461,205.546 204,204.5C 205.844,205.711 206.678,207.044 206.5,208.5C 207.833,204.5 209.167,204.5 210.5,208.5C 211.298,208.043 211.631,207.376 211.5,206.5 Z"/></g>
<g><path style="opacity:1" fill="#a9a4a3" d="M 163.5,239.5 C 171.812,245.812 179.146,253.146 185.5,261.5C 183.911,262.872 182.578,264.539 181.5,266.5C 180.833,265.5 180.167,264.5 179.5,263.5C 178.702,265.078 178.202,266.744 178,268.5C 177.167,267.5 176.333,266.5 175.5,265.5C 174.702,265.957 174.369,266.624 174.5,267.5C 166.5,260.167 158.833,252.5 151.5,244.5C 152.943,243.665 153.943,242.332 154.5,240.5C 155.167,241.167 155.833,241.833 156.5,242.5C 157.167,240.5 157.833,238.5 158.5,236.5C 159.167,238.167 159.833,239.833 160.5,241.5C 161.739,241.058 162.739,240.391 163.5,239.5 Z"/></g>
<g><path style="opacity:1" fill="#948e8d" d="M 229.5,232.5 C 236.904,241.636 243.571,251.303 249.5,261.5C 246.214,258.417 243.881,259.084 242.5,263.5C 244.062,265.363 243.729,266.696 241.5,267.5C 240.269,266.349 240.269,265.183 241.5,264C 240.667,263.167 239.833,262.333 239,261.5C 238.768,262.737 238.268,263.737 237.5,264.5C 230.355,255.557 223.688,246.223 217.5,236.5C 218.189,235.293 218.355,233.959 218,232.5C 221.357,237.647 221.857,237.314 219.5,231.5C 220.698,231.06 221.865,230.727 223,230.5C 223.898,237.919 225.065,238.252 226.5,231.5C 227.123,233.966 227.957,236.299 229,238.5C 230.441,236.695 230.608,234.695 229.5,232.5 Z"/></g>
<g><path style="opacity:1" fill="#817b7a" d="M 282.5,236.5 C 276.659,253.228 269.993,269.728 262.5,286C 259.249,288.929 255.915,289.096 252.5,286.5C 247.449,279.131 242.449,271.798 237.5,264.5C 238.268,263.737 238.768,262.737 239,261.5C 239.833,262.333 240.667,263.167 241.5,264C 240.269,265.183 240.269,266.349 241.5,267.5C 243.729,266.696 244.062,265.363 242.5,263.5C 243.881,259.084 246.214,258.417 249.5,261.5C 251.303,263.481 252.97,265.648 254.5,268C 255.167,268.667 255.833,268.667 256.5,268C 258.578,261.473 261.244,255.306 264.5,249.5C 264.312,251.103 264.812,252.437 266,253.5C 266.492,252.451 266.326,251.451 265.5,250.5C 266.934,249.77 268.1,248.77 269,247.5C 268.845,245.189 268.845,242.856 269,240.5C 269.667,243.167 270.333,243.167 271,240.5C 272.583,242.911 273.583,245.578 274,248.5C 274.853,246.875 275.853,246.542 277,247.5C 276.618,245.338 275.452,243.504 273.5,242C 273.5,240.667 273.5,239.333 273.5,238C 275.305,237.028 276.972,235.861 278.5,234.5C 279.167,235.833 279.833,237.167 280.5,238.5C 281.182,237.757 281.849,237.091 282.5,236.5 Z"/></g>
<g><path style="opacity:1" fill="#726c6b" d="M 369.5,221.5 C 360.963,232.586 351.963,243.253 342.5,253.5C 341.284,253.264 340.117,253.264 339,253.5C 337.216,255.066 335.216,256.399 333,257.5C 331.374,259.629 329.54,261.629 327.5,263.5C 326.859,261.704 325.859,260.204 324.5,259C 327.167,258.333 327.167,257.667 324.5,257C 327.632,255.97 329.298,253.803 329.5,250.5C 336.458,240.933 344.124,231.933 352.5,223.5C 353.447,225.287 354.613,226.953 356,228.5C 360.242,227.259 363.242,224.592 365,220.5C 365.308,221.308 365.808,221.975 366.5,222.5C 367.584,221.335 368.417,220.002 369,218.5C 369.483,219.448 369.649,220.448 369.5,221.5 Z"/></g>
<g><path style="opacity:1" fill="#696261" d="M 329.5,250.5 C 329.298,253.803 327.632,255.97 324.5,257C 327.167,257.667 327.167,258.333 324.5,259C 325.859,260.204 326.859,261.704 327.5,263.5C 329.54,261.629 331.374,259.629 333,257.5C 335.216,256.399 337.216,255.066 339,253.5C 340.117,253.264 341.284,253.264 342.5,253.5C 316.043,284.461 289.376,315.295 262.5,346C 258.634,348.12 254.967,347.786 251.5,345C 242.966,335.967 234.299,327.133 225.5,318.5C 226.066,316.922 227.066,315.588 228.5,314.5C 229.167,315.167 229.833,315.833 230.5,316.5C 232.467,314.882 233.801,312.882 234.5,310.5C 242.5,317.334 250.333,324.334 258,331.5C 281.935,304.498 305.768,277.498 329.5,250.5 Z"/></g>
<g><path style="opacity:1" fill="#938d8c" d="M 185.5,261.5 C 192.215,267.548 198.548,273.881 204.5,280.5C 205.666,282.166 205.666,283.833 204.5,285.5C 203.137,284.121 202.137,284.287 201.5,286C 203.391,287.957 204.558,290.124 205,292.5C 204.667,292.167 204.333,291.833 204,291.5C 203.667,292.5 203.333,293.5 203,294.5C 201.647,292.566 200.147,290.733 198.5,289C 197.563,288.308 196.897,288.475 196.5,289.5C 188.833,282.5 181.5,275.167 174.5,267.5C 174.369,266.624 174.702,265.957 175.5,265.5C 176.333,266.5 177.167,267.5 178,268.5C 178.202,266.744 178.702,265.078 179.5,263.5C 180.167,264.5 180.833,265.5 181.5,266.5C 182.578,264.539 183.911,262.872 185.5,261.5 Z"/></g>
<g><path style="opacity:1" fill="#807a79" d="M 204.5,280.5 C 215.479,289.479 225.479,299.479 234.5,310.5C 233.801,312.882 232.467,314.882 230.5,316.5C 229.833,315.833 229.167,315.167 228.5,314.5C 227.066,315.588 226.066,316.922 225.5,318.5C 215.5,309.167 205.833,299.5 196.5,289.5C 196.897,288.475 197.563,288.308 198.5,289C 200.147,290.733 201.647,292.566 203,294.5C 203.333,293.5 203.667,292.5 204,291.5C 204.333,291.833 204.667,292.167 205,292.5C 204.558,290.124 203.391,287.957 201.5,286C 202.137,284.287 203.137,284.121 204.5,285.5C 205.666,283.833 205.666,282.166 204.5,280.5 Z"/></g>
</svg>
