<?xml version="1.0" encoding="UTF-8"?>
<svg version="1.1" xmlns="http://www.w3.org/2000/svg" width="515" height="485">
<path d="M0 0 C3.40362909 1.16638397 5.1867509 2.90827736 7.76953125 5.40625 C8.74254951 6.32919249 9.7178683 7.24971485 10.6953125 8.16796875 C11.43322021 8.862854 11.43322021 8.862854 12.18603516 9.57177734 C14.3593938 11.5603241 16.65304307 13.38440786 18.95703125 15.21875 C24.01289692 19.29373445 28.72640348 23.65856994 33.45019531 28.10644531 C37.76298539 32.14540745 42.24273636 35.89557577 46.85546875 39.58984375 C51.27697109 43.26204387 55.44318628 47.20143129 59.64453125 51.12109375 C62.60672365 53.88291341 65.63474465 56.55927434 68.69921875 59.20703125 C70.98118415 61.20031428 73.21681699 63.24118027 75.45703125 65.28125 C78.83394107 68.33483867 82.27670257 71.25054205 85.83203125 74.09375 C91.1643251 78.40031264 96.11649048 83.04219489 101.09204102 87.74829102 C105.53242664 91.92664701 110.12564587 95.81869774 114.890625 99.625 C119.30406735 103.28095792 123.4553317 107.21280445 127.64453125 111.12109375 C130.60672365 113.88291341 133.63474465 116.55927434 136.69921875 119.20703125 C138.98118415 121.20031428 141.21681699 123.24118027 143.45703125 125.28125 C146.87682453 128.37261801 150.36411649 131.33084032 153.95703125 134.21875 C158.98018599 138.27315347 163.71327014 142.58117573 168.40551758 147.0090332 C171.28880842 149.78029244 171.28880842 149.78029244 174.64453125 151.90625 C174.64453125 152.56625 174.64453125 153.22625 174.64453125 153.90625 C175.24265625 154.195 175.84078125 154.48375 176.45703125 154.78125 C178.64453125 155.90625 178.64453125 155.90625 181.64453125 157.90625 C181.94522742 160.97480606 182.04850667 163.84237353 182.02548218 166.91400146 C182.03016215 167.85886107 182.03484212 168.80372067 182.03966391 169.77721238 C182.05168995 172.96326872 182.04212689 176.14890093 182.03271484 179.33496094 C182.03677727 181.61120862 182.04211729 183.88745434 182.04864502 186.16369629 C182.06236659 192.36217897 182.0569992 198.5605125 182.04750776 204.75899792 C182.03993249 211.23714295 182.04695117 217.71527489 182.05166626 224.19342041 C182.05748212 235.7766163 182.04813276 247.35974392 182.03288825 258.94292906 C182.019497 269.44278077 182.02180149 279.94253292 182.03564453 290.44238281 C182.05170616 302.63074677 182.0576704 314.81903979 182.04880774 327.0074141 C182.04412769 333.46081574 182.04351522 339.91414883 182.05341721 346.36754608 C182.06208012 352.43811874 182.05607704 358.50850344 182.03873444 364.57905579 C182.03476531 366.80831337 182.03591088 369.03758676 182.04252243 371.26683807 C182.05071138 374.30829405 182.04044775 377.34914651 182.02548218 380.39056396 C182.03217434 381.27442268 182.03886651 382.1582814 182.04576147 383.06892371 C181.98841947 389.0709248 181.05733189 393.49344936 176.64453125 397.90625 C174.49311638 398.15234566 174.49311638 398.15234566 171.77243042 398.14675903 C170.22851624 398.15088303 170.22851624 398.15088303 168.65341187 398.15509033 C167.51981232 398.14789978 166.38621277 398.14070923 165.21826172 398.13330078 C163.43292023 398.13373886 163.43292023 398.13373886 161.61151123 398.13418579 C158.34307083 398.13302915 155.0748005 398.12298158 151.8063941 398.10903788 C148.39243143 398.09655636 144.97846561 398.09536206 141.56448364 398.09298706 C135.09756224 398.08676469 128.63070825 398.07034367 122.16381657 398.05028808 C114.80237198 398.02795259 107.44092421 398.01694158 100.07945418 398.00689721 C84.93444227 397.98597807 69.78949349 397.95078743 54.64453125 397.90625 C54.63866501 396.61221252 54.63279877 395.31817505 54.62675476 393.98492432 C54.56958873 381.80107881 54.49685915 369.61741283 54.40881634 357.43375015 C54.36405278 351.16971366 54.32480976 344.9057431 54.2980957 338.64160156 C54.27212261 332.59849388 54.23176253 326.55563915 54.18134499 320.51268768 C54.1646357 318.20500582 54.1531468 315.89728016 54.14691734 313.5895462 C54.13732055 310.36183533 54.10931367 307.13477761 54.0769043 303.90722656 C54.07833939 302.94913086 54.07977448 301.99103516 54.08125305 301.00390625 C54.0687149 300.12333557 54.05617676 299.24276489 54.04325867 298.33551025 C54.03634522 297.19064337 54.03634522 297.19064337 54.02929211 296.02264786 C53.52832707 293.26706263 52.58290956 291.91271192 50.64453125 289.90625 C47.96622134 288.87983269 45.44064357 288.77808819 42.59059143 288.76580811 C41.79297394 288.76009796 40.99535645 288.75438782 40.17356873 288.74850464 C39.30748489 288.74738678 38.44140106 288.74626892 37.54907227 288.74511719 C36.62993042 288.74015228 35.71078857 288.73518738 34.76379395 288.73007202 C31.72533417 288.71547493 28.68692657 288.70865332 25.6484375 288.703125 C23.53620909 288.69737259 21.4239807 288.69161486 19.31175232 288.68585205 C14.88418332 288.67534978 10.45663244 288.6695017 6.02905273 288.66601562 C0.35503874 288.66052523 -5.31873597 288.63648221 -10.99267483 288.60804367 C-15.35497236 288.58942588 -19.71721207 288.5842122 -24.07954597 288.58267975 C-26.17153294 288.57965197 -28.26351886 288.57161924 -30.35546684 288.55849457 C-33.28070224 288.54144837 -36.20535038 288.54331064 -39.13061523 288.54980469 C-39.99467484 288.5405899 -40.85873444 288.53137512 -41.74897766 288.5218811 C-46.40894797 288.55430349 -49.64018339 288.77266541 -53.35546875 291.90625 C-55.09188256 294.7766029 -55.6092981 296.92448891 -55.63394165 300.25958252 C-55.64510513 301.12332489 -55.65626862 301.98706726 -55.66777039 302.87698364 C-55.66993057 303.81637787 -55.67209076 304.75577209 -55.67431641 305.72363281 C-55.68436203 306.71908112 -55.69440765 307.71452942 -55.70475769 308.74014282 C-55.7356442 312.02988102 -55.75264019 315.31953762 -55.76953125 318.609375 C-55.78823848 320.89053044 -55.80781155 323.17167894 -55.82821655 325.45281982 C-55.87959067 331.4565827 -55.91918824 337.46036803 -55.95635986 343.4642334 C-55.99636635 349.59079567 -56.047474 355.71726413 -56.09765625 361.84375 C-56.1944781 373.86451749 -56.27886293 385.88533788 -56.35546875 397.90625 C-71.78472336 397.99971427 -87.21395679 398.07023943 -102.64342785 398.11349869 C-109.80771031 398.13411915 -116.97181681 398.16222959 -124.13598633 398.20800781 C-130.38069362 398.24789174 -136.62527349 398.27368658 -142.87010461 398.28260398 C-146.17641932 398.28781624 -149.48228471 398.30215611 -152.78850365 398.32917023 C-156.48056163 398.35814136 -160.17186059 398.36220846 -163.86401367 398.36035156 C-164.95877518 398.37473267 -166.05353668 398.38911377 -167.18147278 398.40393066 C-174.59739815 398.36348299 -174.59739815 398.36348299 -178.51118469 396.00286865 C-182.0948255 391.92891479 -181.51210592 388.00794596 -181.52282715 382.8225708 C-181.52862053 381.86954409 -181.53441392 380.91651739 -181.54038286 379.93461108 C-181.55851111 376.7210608 -181.56933405 373.50752818 -181.58007812 370.29394531 C-181.59124847 367.99799436 -181.60276164 365.70204505 -181.61459351 363.40609741 C-181.65120527 355.84887982 -181.67637459 348.29164531 -181.69921875 340.734375 C-181.70316462 339.44996993 -181.70711048 338.16556486 -181.71117592 336.84223843 C-181.7475928 324.73598105 -181.77920124 312.62971996 -181.80028534 300.52342606 C-181.80525472 297.71874222 -181.81029903 294.91405854 -181.81542969 292.109375 C-181.81670036 291.41227601 -181.81797103 290.71517702 -181.81928021 289.99695382 C-181.84064115 278.70396686 -181.88963669 267.41127085 -181.94967383 256.11843029 C-182.01079245 244.52666815 -182.04491541 232.93507206 -182.05475855 221.34315181 C-182.06102735 214.83365306 -182.07925053 208.32468929 -182.12614441 201.81534576 C-182.16971022 195.69207926 -182.18032978 189.56964214 -182.1655159 183.4462471 C-182.16584542 181.19760028 -182.17818905 178.94891865 -182.20336533 176.70041275 C-182.23591258 173.63188636 -182.22536877 170.56641942 -182.20397949 167.49786377 C-182.22368726 166.60622316 -182.24339503 165.71458254 -182.26370001 164.79592252 C-182.20024488 161.19534172 -182.11267344 158.84929184 -179.81069279 155.98234701 C-175.2293737 151.90625 -175.2293737 151.90625 -172.35546875 151.90625 C-172.35546875 151.24625 -172.35546875 150.58625 -172.35546875 149.90625 C-170.88478461 148.59761629 -169.34945557 147.3615644 -167.79296875 146.15625 C-162.18421315 141.67940368 -156.95219835 136.8943825 -151.74780273 131.95605469 C-148.71485974 129.0843299 -145.66024766 126.24322347 -142.52734375 123.48046875 C-141.9662793 122.98506592 -141.40521484 122.48966309 -140.82714844 121.97924805 C-139.35546875 120.90625 -139.35546875 120.90625 -137.35546875 120.90625 C-137.35546875 120.24625 -137.35546875 119.58625 -137.35546875 118.90625 C-135.86437641 117.57643907 -134.30840161 116.3192627 -132.73046875 115.09375 C-128.07581445 111.37840255 -123.68456028 107.49460528 -119.35546875 103.40625 C-115.31831955 99.6030515 -111.25699862 95.93094768 -106.91796875 92.46875 C-100.91296768 87.66297252 -95.37986098 82.39409835 -89.78515625 77.125 C-85.58737953 73.17308983 -81.2725637 69.38279227 -76.87792969 65.65185547 C-69.17754428 59.11220663 -61.63137959 52.45533783 -54.234375 45.57421875 C-49.66407695 41.3387865 -44.96382212 37.27098809 -40.21484375 33.23828125 C-33.63441255 27.64099506 -27.16874667 21.95734718 -20.84472656 16.07128906 C-17.30338878 12.77523874 -13.73574621 9.52302611 -10.05859375 6.37890625 C-8.91928767 5.39377232 -7.80421258 4.37993161 -6.71484375 3.33984375 C-2.98298142 -0.11872563 -2.98298142 -0.11872563 0 0 Z " fill="#404040" transform="translate(257.35546875,87.09375)"/>
<path d="M0 0 C2.4921875 1.72265625 2.4921875 1.72265625 4.875 4.0625 C6.17824219 5.30773437 6.17824219 5.30773437 7.5078125 6.578125 C8.33023437 7.37734375 9.15265625 8.1765625 10 9 C11.24044318 10.11489225 12.4898114 11.21997598 13.75 12.3125 C14.38808594 12.869375 15.02617187 13.42625 15.68359375 14 C17.52477237 15.58968542 19.37149453 17.17199556 21.22265625 18.75 C27.76054119 24.3255285 34.21661915 29.95853917 40.55078125 35.765625 C43.32576456 38.29718872 46.14770423 40.7685614 48.984375 43.23046875 C51.28607764 45.25114956 53.54764379 47.31312618 55.8125 49.375 C59.23229328 52.46636801 62.71958524 55.42459032 66.3125 58.3125 C71.76376101 62.72138108 76.87713498 67.4352398 82 72.21484375 C84.9621924 74.97666341 87.9902134 77.65302434 91.0546875 80.30078125 C93.3366529 82.29406428 95.57228574 84.33493027 97.8125 86.375 C101.18940982 89.42858867 104.63217132 92.34429205 108.1875 95.1875 C113.51979385 99.49406264 118.47195923 104.13594489 123.44750977 108.84204102 C127.88789539 113.02039701 132.48111462 116.91244774 137.24609375 120.71875 C141.66444211 124.3787719 145.82016149 128.31563258 150.015625 132.2265625 C154.62148226 136.51981799 159.3810007 140.62329422 164.17578125 144.703125 C165.36745686 145.71843394 166.5588541 146.73406967 167.75 147.75 C168.35360352 148.26473877 168.95720703 148.77947754 169.57910156 149.30981445 C174.0394106 153.13200194 178.37258653 157.07213406 182.67529297 161.06982422 C185.81503117 163.96748224 189.04166489 166.70346573 192.375 169.375 C198.10027069 173.98173011 203.42180063 178.96812867 208.77734375 183.9921875 C211.82137013 186.84546778 214.92966877 189.61188009 218.08984375 192.3359375 C220.36204511 194.31540126 222.58459872 196.3458317 224.8125 198.375 C228.21083552 201.44746773 231.67590523 204.38442622 235.25 207.25 C242.14897512 212.82262983 248.55659556 218.91403989 255 225 C254.1422762 229.47010664 251.58734069 231.8890338 248.5 235.0625 C243.72280767 240.09040921 239.25206531 245.22609199 234.9375 250.66015625 C234.298125 251.43230469 233.65875 252.20445312 233 253 C232.360625 253.78246094 231.72125 254.56492188 231.0625 255.37109375 C229 257 229 257 226.55078125 257.0078125 C223.43373177 255.77626768 221.61211947 254.18602663 219.1875 251.875 C218.31351562 251.05773437 217.43953125 250.24046875 216.5390625 249.3984375 C215.70117188 248.60695312 214.86328125 247.81546875 214 247 C212.69497517 245.82497764 211.38306381 244.65753124 210.0625 243.5 C209.43472656 242.94957031 208.80695313 242.39914063 208.16015625 241.83203125 C204.55329634 238.77304879 200.83688738 235.84814072 197.125 232.91796875 C196.42375 232.28503906 195.7225 231.65210938 195 231 C195 230.34 195 229.68 195 229 C194.45859375 228.77699219 193.9171875 228.55398437 193.359375 228.32421875 C190.25018923 226.5791625 187.82164735 224.24671551 185.25 221.8125 C184.16985004 220.8066693 183.08912149 219.80145959 182.0078125 218.796875 C181.22712402 218.06887695 181.22712402 218.06887695 180.43066406 217.32617188 C176.34549393 213.53937253 172.10080839 209.9329661 167.85546875 206.328125 C161.27281046 200.72991027 154.80502059 195.04514387 148.48046875 189.15625 C145.02286368 185.93710045 141.51970949 182.78755757 137.9453125 179.69921875 C135.6633471 177.70593572 133.42771426 175.66506973 131.1875 173.625 C127.81059018 170.57141133 124.36782868 167.65570795 120.8125 164.8125 C114.74183338 159.90595269 109.10931085 154.56799383 103.4296875 149.21875 C99.23191078 145.26683983 94.91709495 141.47654227 90.52246094 137.74560547 C82.82207553 131.20595663 75.27591084 124.54908783 67.87890625 117.66796875 C63.3086082 113.4325365 58.60835337 109.36473809 53.859375 105.33203125 C46.71889643 99.2583712 39.74233219 93.05272228 32.87890625 86.66796875 C28.2724016 82.39898276 23.52855405 78.30510615 18.75390625 74.2265625 C17.54418158 73.19281277 16.33454847 72.15895589 15.125 71.125 C14.52421631 70.61163086 13.92343262 70.09826172 13.30444336 69.56933594 C8.12428916 65.13140651 3.03907545 60.59786608 -2 56 C-5.50827915 57.52079073 -7.95271646 59.5995673 -10.75 62.1875 C-13.80776819 64.99045417 -16.86719183 67.78107908 -20 70.5 C-22.97391711 73.08653312 -25.89780743 75.72194125 -28.8125 78.375 C-32.21083552 81.44746773 -35.67590523 84.38442622 -39.25 87.25 C-44.31650542 91.34327839 -49.04873364 95.71941804 -53.78564453 100.18237305 C-58.26281972 104.37717602 -62.88356671 108.28774811 -67.6953125 112.09765625 C-70.05543485 113.97463585 -70.05543485 113.97463585 -72.1796875 116.24609375 C-74 118 -74 118 -76 118 C-76 118.66 -76 119.32 -76 120 C-77.51151546 121.35097374 -79.08813313 122.62927345 -80.6875 123.875 C-85.18677102 127.46977839 -89.47875404 131.19499116 -93.6875 135.125 C-97.75458341 138.91924793 -101.84523982 142.663748 -106.0546875 146.30078125 C-108.3366529 148.29406428 -110.57228574 150.33493027 -112.8125 152.375 C-116.23229328 155.46636801 -119.71958524 158.42459032 -123.3125 161.3125 C-128.76376101 165.72138108 -133.87713498 170.4352398 -139 175.21484375 C-141.9621924 177.97666341 -144.9902134 180.65302434 -148.0546875 183.30078125 C-150.3366529 185.29406428 -152.57228574 187.33493027 -154.8125 189.375 C-158.18940982 192.42858867 -161.63217132 195.34429205 -165.1875 198.1875 C-170.51979385 202.49406264 -175.47195923 207.13594489 -180.44750977 211.84204102 C-184.88789539 216.02039701 -189.48111462 219.91244774 -194.24609375 223.71875 C-198.6595361 227.37470792 -202.81080045 231.30655445 -207 235.21484375 C-209.95339665 237.96846264 -212.9721223 240.63726917 -216.02734375 243.27734375 C-219.29578568 246.1315673 -222.49518795 249.06249603 -225.703125 251.984375 C-227.73812959 253.77019535 -229.80900749 255.41203295 -232 257 C-237.40177127 254.68495517 -240.65243419 250.29540418 -244.3671875 245.91796875 C-246.04121363 243.95158878 -247.73560626 242.00479577 -249.4375 240.0625 C-250.01371094 239.39863281 -250.58992187 238.73476562 -251.18359375 238.05078125 C-252.44229749 236.62966413 -253.72836204 235.23249375 -255.03515625 233.85546875 C-255.68355469 233.16066406 -256.33195312 232.46585938 -257 231.75 C-257.8971875 230.81414062 -257.8971875 230.81414062 -258.8125 229.859375 C-260 228 -260 228 -259.8671875 225.96484375 C-256.9953622 219.4579603 -249.47339578 214.91489412 -244.1015625 210.59375 C-239.27286665 206.62564479 -234.77883432 202.28154905 -230.22265625 198.0078125 C-227.18339485 195.15899861 -224.07949665 192.39729583 -220.92578125 189.67578125 C-218.56956532 187.62544325 -216.25442483 185.5321112 -213.9375 183.4375 C-212.29257615 181.95732199 -210.64679352 180.4780976 -209 179 C-207.95005859 178.05640625 -207.95005859 178.05640625 -206.87890625 177.09375 C-202.23481722 173 -202.23481722 173 -200 173 C-200 172.34 -200 171.68 -200 171 C-198.52931586 169.69136629 -196.99398682 168.4553144 -195.4375 167.25 C-189.8287444 162.77315368 -184.5967296 157.9881325 -179.39233398 153.04980469 C-176.35939099 150.1780799 -173.30477891 147.33697347 -170.171875 144.57421875 C-169.61081055 144.07881592 -169.04974609 143.58341309 -168.47167969 143.07299805 C-167 142 -167 142 -165 142 C-165 141.34 -165 140.68 -165 140 C-163.52931586 138.69136629 -161.99398682 137.4553144 -160.4375 136.25 C-155.57402406 132.36923413 -151.01347525 128.28102898 -146.5 124 C-141.43806524 119.21032828 -136.26875927 114.69828166 -130.8203125 110.34765625 C-126.10592358 106.4233519 -121.68094284 102.18973138 -117.20703125 97.99609375 C-112.54808681 93.63009707 -107.72929197 89.46824167 -102.86328125 85.3359375 C-95.7219317 79.26049086 -88.74367368 73.05397021 -81.87890625 66.66796875 C-77.3086082 62.4325365 -72.60835337 58.36473809 -67.859375 54.33203125 C-60.71889643 48.2583712 -53.74233219 42.05272228 -46.87890625 35.66796875 C-42.3086082 31.4325365 -37.60835337 27.36473809 -32.859375 23.33203125 C-31.67672072 22.32594693 -30.49444129 21.31942183 -29.3125 20.3125 C-28.71727539 19.80541504 -28.12205078 19.29833008 -27.50878906 18.77587891 C-22.61633475 14.58253401 -17.86616816 10.25019225 -13.17504883 5.83325195 C-6.15468811 -0.74812625 -6.15468811 -0.74812625 0 0 Z " fill="#464646" transform="translate(260,0)"/>
<path d="" fill="#FEFEFE" transform="translate(0,0)"/>
<path d="" fill="#FEFEFE" transform="translate(0,0)"/>
<path d="" fill="#FEFEFE" transform="translate(0,0)"/>
</svg>
