<?xml version="1.0" encoding="UTF-8"?>
<svg version="1.1" xmlns="http://www.w3.org/2000/svg" width="500" height="500">
<path d="M0 0 C1.26470768 -0.0001808 1.26470768 -0.0001808 2.55496502 -0.00036526 C5.27389384 0.00037886 7.99275342 0.00798426 10.71166992 0.01586914 C12.39440884 0.01734011 14.07714822 0.01835987 15.7598877 0.0189209 C21.98731168 0.02415581 28.21472586 0.03811706 34.44213867 0.05102539 C55.32495117 0.08196289 55.32495117 0.08196289 76.62963867 0.11352539 C76.62963867 30.47352539 76.62963867 60.83352539 76.62963867 92.11352539 C88.83963867 92.11352539 101.04963867 92.11352539 113.62963867 92.11352539 C116.62963867 94.11352539 116.62963867 94.11352539 117.17651367 96.74633789 C116.3945373 101.56107812 113.92472979 104.27991413 110.87963867 107.98852539 C109.67819061 109.50211276 108.47769111 111.01645349 107.27807617 112.53149414 C106.66673828 113.29510254 106.05540039 114.05871094 105.42553711 114.84545898 C102.70988824 118.27509166 100.10935066 121.78690222 97.50463867 125.30102539 C91.09380081 133.88479767 84.51213765 142.32936802 77.76635742 150.65258789 C71.57554908 158.3033952 65.65154466 166.10182023 59.85009766 174.05224609 C55.22026502 180.37309648 50.39313003 186.50342847 45.46166992 192.59008789 C41.77143436 197.15242246 38.23101944 201.82697345 34.68823242 206.50415039 C30.46295773 211.85990655 30.46295773 211.85990655 26.75463867 212.98852539 C22.80797642 213.14639188 21.70555243 212.58926085 18.62963867 210.11352539 C13.83394764 205.28075427 9.78556749 199.78680977 5.66943359 194.37890625 C2.43212355 190.12989909 -0.88982737 185.95705187 -4.24536133 181.80102539 C-8.41388099 176.62686543 -12.46467117 171.38028871 -16.43286133 166.05102539 C-22.92319876 157.33740886 -29.55188151 148.74250196 -36.45629883 140.35180664 C-43.03392555 132.35415866 -49.34899556 124.22491231 -55.43798828 115.84716797 C-55.98028076 115.10104248 -56.52257324 114.35491699 -57.08129883 113.58618164 C-57.61287598 112.85359131 -58.14445313 112.12100098 -58.69213867 111.36621094 C-61.04515283 108.20774983 -63.52029517 105.15004862 -66.01098633 102.09936523 C-67.37036133 100.11352539 -67.37036133 100.11352539 -67.99536133 96.67602539 C-67.37036133 94.11352539 -67.37036133 94.11352539 -64.37036133 92.11352539 C-61.75626988 91.94206724 -59.25166459 91.88119107 -56.63989258 91.91821289 C-55.88947189 91.92104279 -55.13905121 91.92387268 -54.3658905 91.92678833 C-51.97138458 91.93797477 -49.57725402 91.96307612 -47.18286133 91.98852539 C-45.55851778 91.9985572 -43.93416835 92.0076827 -42.30981445 92.01586914 C-38.32985233 92.03790902 -34.35017045 92.07242799 -30.37036133 92.11352539 C-30.37702316 91.25876617 -30.383685 90.40400696 -30.39054871 89.52334595 C-30.45088422 81.43261218 -30.49644918 73.34195495 -30.52579784 65.25104713 C-30.54139398 61.09231523 -30.56252029 56.93377063 -30.59667969 52.77514648 C-30.62949083 48.75509193 -30.64725975 44.73521652 -30.65499306 40.7150383 C-30.66049781 39.18817707 -30.67124634 37.66132465 -30.6875515 36.13454056 C-30.80575201 24.5982462 -30.57958727 14.43504663 -22.26879883 5.73852539 C-15.88556073 0.27468373 -8.05331812 -0.0372298 0 0 Z " fill="#060606" transform="translate(225.370361328125,104.886474609375)"/>
<path d="M0 0 C13.9084307 13.9084307 1 39.33050868 1 59 C70.96 59 140.92 59 213 59 C213 39.86 213 20.72 213 1 C214.75166903 -0.75166903 217.03698169 -0.16484817 219.37133789 -0.19091797 C236.13713396 -0.16476519 236.13713396 -0.16476519 243.5546875 6.26953125 C247.10601399 10.52152485 247.25872948 14.90728534 247.29052734 20.28125 C247.29724457 20.99571289 247.30396179 21.71017578 247.31088257 22.44628906 C247.32981217 24.7975976 247.33378372 27.14862011 247.3359375 29.5 C247.34236736 31.13997514 247.34909586 32.77994913 247.35610962 34.41992188 C247.36806861 37.85289165 247.37179171 41.28576087 247.37060547 44.71875 C247.37040199 49.11383189 247.39773937 53.50826924 247.43214989 57.90319824 C247.4544012 61.28844151 247.45844361 64.67352898 247.45738602 68.05883789 C247.45974329 69.6791405 247.46857398 71.29944732 247.48405075 72.91967773 C247.50368237 75.18649378 247.49788594 77.45191067 247.48583984 79.71875 C247.48868988 81.00716797 247.49153992 82.29558594 247.49447632 83.62304688 C246.911571 87.60391282 245.89893484 89.24762014 243 92 C240.10535371 92.97523959 237.43865588 93.12595017 234.39878941 93.12863445 C233.47429227 93.1318589 232.54979514 93.13508335 231.59728295 93.1384055 C230.58513456 93.1368569 229.57298617 93.1353083 228.53016663 93.13371277 C226.91324509 93.1371111 226.91324509 93.1371111 225.26365846 93.14057809 C221.63938457 93.14692539 218.01514799 93.14608826 214.39086914 93.14526367 C211.79743908 93.14825468 209.20400947 93.15165707 206.61058044 93.15544128 C200.29011537 93.1637488 193.96965962 93.16649616 187.64918954 93.16705366 C182.51250295 93.16752872 177.37581945 93.16958298 172.23913383 93.17275429 C157.67898568 93.18156072 143.11884491 93.18617362 128.55869407 93.18542381 C127.77370247 93.18538386 126.98871087 93.1853439 126.17993164 93.18530273 C125.3939829 93.18526185 124.60803416 93.18522097 123.79826879 93.18517885 C111.05636458 93.18477227 98.3144899 93.19434504 85.57259423 93.2084411 C72.49254781 93.22279722 59.4125158 93.22971172 46.3324613 93.22884732 C38.9876658 93.22851512 31.64290128 93.23127269 24.29811287 93.24202538 C17.39283612 93.25206979 10.4876259 93.25180286 3.58234596 93.24450874 C1.04466405 93.24345981 -1.49302189 93.24584399 -4.03069687 93.2518692 C-7.4882702 93.25954834 -10.94561483 93.25497132 -14.40318298 93.24723816 C-15.41310065 93.25238172 -16.42301831 93.25752529 -17.46353954 93.26282471 C-27.64233638 93.21233398 -27.64233638 93.21233398 -31.78823853 89.32199097 C-33.48091214 86.07847075 -33.38141444 83.49997483 -33.38818359 79.84814453 C-33.39344055 79.13543396 -33.39869751 78.42272339 -33.40411377 77.68841553 C-33.41729881 75.33632374 -33.40857954 72.98491099 -33.3984375 70.6328125 C-33.40045912 68.99380361 -33.4033713 67.35479561 -33.40713501 65.71578979 C-33.4115567 62.28097976 -33.40513409 58.84640389 -33.39111328 55.41162109 C-33.37404834 51.01780543 -33.38384623 46.62454063 -33.40183067 42.23074532 C-33.41269585 38.84544766 -33.40920921 35.46027953 -33.4014473 32.07497787 C-33.39945143 30.45552378 -33.40188294 28.83605777 -33.40888596 27.21661758 C-33.41654266 24.94764548 -33.40483718 22.67955159 -33.38818359 20.41064453 C-33.38579681 19.12143097 -33.38341003 17.83221741 -33.38095093 16.50393677 C-32.80494799 11.20593712 -31.00600243 8.02939783 -27.3125 4.25 C-19.63826372 -1.52890432 -9.13182324 -0.46250695 0 0 Z " fill="#0D0D0D" transform="translate(143,302)"/>
<path d="M0 0 C0.66 0.33 1.32 0.66 2 1 C1.04882866 2.1725131 0.08882991 3.33787015 -0.875 4.5 C-1.40867188 5.1496875 -1.94234375 5.799375 -2.4921875 6.46875 C-2.98976562 6.9740625 -3.48734375 7.479375 -4 8 C-4.66 8 -5.32 8 -6 8 C-4.55746343 4.63408134 -2.66735273 2.48952921 0 0 Z " fill="#5B5B5B" transform="translate(205,109)"/>
</svg>
