<?xml version="1.0" encoding="UTF-8"?>
<svg version="1.1" xmlns="http://www.w3.org/2000/svg" width="480" height="480">
<path d="M0 0 C0.89115509 -0.00974854 1.78231018 -0.01949707 2.70046997 -0.02954102 C22.63293108 -0.20264286 41.86559565 0.06369901 61.4453125 4.23828125 C62.77079102 4.51115967 62.77079102 4.51115967 64.12304688 4.78955078 C105.34784078 13.49342708 143.65278781 33.55407357 174.4453125 62.23828125 C175.83675916 63.45166344 177.23239889 64.66025928 178.6328125 65.86328125 C185.12642006 71.55168147 190.72060083 77.62806502 196.12890625 84.36328125 C197.62026628 86.21427785 199.13192996 88.04918974 200.66796875 89.86328125 C211.37655764 102.55494215 219.73850793 116.5738543 227.4453125 131.23828125 C227.79303711 131.88893555 228.14076172 132.53958984 228.49902344 133.20996094 C239.66788692 154.35997462 246.75126165 178.69014258 250.4453125 202.23828125 C250.62787598 203.39384521 250.81043945 204.54940918 250.99853516 205.73999023 C252.59889448 217.01019653 252.84338733 228.17891835 252.8203125 239.55078125 C252.82010101 240.5157251 252.81988953 241.48066895 252.81967163 242.47485352 C252.78499013 258.37903396 251.77974437 273.64042906 248.4453125 289.23828125 C248.25807617 290.13788574 248.07083984 291.03749023 247.87792969 291.96435547 C239.09310187 333.05883929 219.05872878 371.5217512 190.4453125 402.23828125 C189.23193031 403.62972791 188.02333447 405.02536764 186.8203125 406.42578125 C181.13191228 412.91938881 175.05552873 418.51356958 168.3203125 423.921875 C166.4693159 425.41323503 164.63440401 426.92489871 162.8203125 428.4609375 C140.04522516 447.67741745 112.71551546 461.23344669 84.4453125 470.23828125 C83.32237793 470.59599609 83.32237793 470.59599609 82.17675781 470.9609375 C63.76037917 476.70323819 44.2040745 480.30028826 24.890625 480.4765625 C23.99960587 480.48635635 23.10858673 480.49615021 22.19056702 480.50624084 C-6.13867663 480.75336839 -32.28931609 478.47245345 -59.5546875 470.23828125 C-60.38983887 469.98739746 -61.22499023 469.73651367 -62.08544922 469.47802734 C-94.70030802 459.43324512 -124.63778334 441.44916314 -149.5546875 418.23828125 C-150.94613416 417.02489906 -152.34177389 415.81630322 -153.7421875 414.61328125 C-160.23579506 408.92488103 -165.82997583 402.84849748 -171.23828125 396.11328125 C-172.72964128 394.26228465 -174.24130496 392.42737276 -175.77734375 390.61328125 C-194.9938237 367.83819391 -208.54985294 340.50848421 -217.5546875 312.23828125 C-217.79316406 311.4896582 -218.03164062 310.74103516 -218.27734375 309.96972656 C-224.01964444 291.55334792 -227.61669451 271.99704325 -227.79296875 252.68359375 C-227.8027626 251.79257462 -227.81255646 250.90155548 -227.82264709 249.98353577 C-228.06977464 221.65429212 -225.7888597 195.50365266 -217.5546875 168.23828125 C-217.17836182 166.9855542 -217.17836182 166.9855542 -216.79443359 165.70751953 C-206.74965137 133.09266073 -188.76556939 103.15518541 -165.5546875 78.23828125 C-164.34130531 76.84683459 -163.13270947 75.45119486 -161.9296875 74.05078125 C-156.23633276 67.55151785 -150.15601857 61.95058308 -143.41015625 56.54296875 C-141.61883177 55.0971665 -139.84698544 53.62651966 -138.10546875 52.12109375 C-101.18580685 20.47566927 -48.67503438 0.44395476 0 0 Z " fill="#1977F3" transform="translate(227.5546875,-0.23828125)"/>
<path d="M0 0 C1.60416646 0.01117879 3.20833313 0.0223274 4.8125 0.03344727 C20.64953361 0.2142122 36.57519631 1.32753926 52.125 4.4375 C52.125 24.2375 52.125 44.0375 52.125 64.4375 C31.8125 64.6875 31.8125 64.6875 25.47143555 64.73535156 C11.76026536 64.92928642 1.49275183 66.1047018 -8.7734375 75.99609375 C-14.25570918 82.36490379 -15.94503011 89.70933642 -16.08032227 97.9621582 C-16.10050415 99.05790161 -16.12068604 100.15364502 -16.14147949 101.28259277 C-16.15795532 102.42296997 -16.17443115 103.56334717 -16.19140625 104.73828125 C-16.21938293 106.3230426 -16.21938293 106.3230426 -16.2479248 107.93981934 C-16.31608752 111.87646329 -16.37632226 115.8132413 -16.4375 119.75 C-16.581875 128.556875 -16.72625 137.36375 -16.875 146.4375 C4.905 146.4375 26.685 146.4375 49.125 146.4375 C47.99965563 158.8162881 47.99965563 158.8162881 47.20117188 163.99462891 C46.93584656 165.73034653 46.93584656 165.73034653 46.66516113 167.50112915 C46.47659546 168.70989716 46.28802979 169.91866516 46.09375 171.1640625 C45.89777222 172.43349701 45.70179443 173.70293152 45.49987793 175.01083374 C45.08861767 177.67180633 44.6748466 180.33237286 44.25927734 182.99267578 C43.72615606 186.40715885 43.19998821 189.82267333 42.67568207 193.23851967 C42.17309761 196.50597222 41.66438272 199.77246891 41.15625 203.0390625 C40.96768433 204.26807281 40.77911865 205.49708313 40.58483887 206.76333618 C40.40795532 207.88895966 40.23107178 209.01458313 40.04882812 210.17431641 C39.89418091 211.16928131 39.73953369 212.16424622 39.5802002 213.18936157 C39.125 215.4375 39.125 215.4375 38.125 216.4375 C19.975 216.4375 1.825 216.4375 -16.875 216.4375 C-16.875 271.8775 -16.875 327.3175 -16.875 384.4375 C-35.31934579 386.74304322 -35.31934579 386.74304322 -43.5 386.703125 C-44.41604004 386.70503845 -45.33208008 386.7069519 -46.27587891 386.70892334 C-48.18457316 386.71026531 -50.09327718 386.70671072 -52.00195312 386.69824219 C-54.8713086 386.6875138 -57.74003826 386.69820665 -60.609375 386.7109375 C-62.48958467 386.70961555 -64.36979397 386.70705243 -66.25 386.703125 C-67.49450928 386.70919769 -67.49450928 386.70919769 -68.76416016 386.71539307 C-77.01913661 386.65254505 -84.49112501 385.48548437 -92.875 384.4375 C-92.875 328.9975 -92.875 273.5575 -92.875 216.4375 C-112.675 216.4375 -132.475 216.4375 -152.875 216.4375 C-153.875 215.4375 -153.875 215.4375 -153.99525452 212.69773865 C-153.99303391 211.47418167 -153.99081329 210.25062469 -153.98852539 208.98999023 C-153.98867142 208.31684784 -153.98881744 207.64370544 -153.9889679 206.95016479 C-153.98826878 204.71544216 -153.98047652 202.4808019 -153.97265625 200.24609375 C-153.97079206 198.70052638 -153.96936816 197.15495843 -153.96836853 195.60939026 C-153.9645434 191.53392923 -153.95471317 187.45850363 -153.94366455 183.38305664 C-153.93165566 178.49722272 -153.92704817 173.61137698 -153.92121124 168.72553253 C-153.9115014 161.29616369 -153.89234484 153.86687263 -153.875 146.4375 C-133.745 146.4375 -113.615 146.4375 -92.875 146.4375 C-92.95376241 127.41205045 -92.95376241 127.41205045 -93.05517578 108.38671875 C-93.1464445 82.93352813 -93.1464445 82.93352813 -90.875 70.4375 C-90.67173096 69.23697998 -90.67173096 69.23697998 -90.46435547 68.01220703 C-87.68426977 53.0284419 -81.31577071 38.61163353 -70.875 27.4375 C-70.12605469 26.59832031 -69.37710938 25.75914063 -68.60546875 24.89453125 C-50.56665362 5.63175775 -25.45778214 -0.39760894 0 0 Z " fill="#FCFDFD" transform="translate(294.875,93.5625)"/>
</svg>
