<?xml version="1.0" encoding="UTF-8"?>
<svg version="1.1" xmlns="http://www.w3.org/2000/svg" width="670" height="373">
<path d="M0 0 C0.95667068 -0.00095673 1.91334137 -0.00191345 2.89900208 -0.00289917 C4.91517198 -0.00357655 6.93134411 -0.00175323 8.94750977 0.00244141 C11.99305269 0.00776621 15.03844616 0.0024966 18.08398438 -0.00390625 C28.04791213 -0.00696464 37.9126312 0.0914119 47.83203125 1.1328125 C47.88101563 2.29039063 47.93 3.44796875 47.98046875 4.640625 C48.05554603 6.1797092 48.13109168 7.7187706 48.20703125 9.2578125 C48.2534375 10.39863281 48.2534375 10.39863281 48.30078125 11.5625 C48.53485556 16.08793659 49.17552792 19.86413084 50.83203125 24.1328125 C51.26515625 25.4940625 51.26515625 25.4940625 51.70703125 26.8828125 C53.06521331 29.59917662 54.06013208 30.04085222 56.83203125 31.1328125 C57.82203125 31.7928125 58.81203125 32.4528125 59.83203125 33.1328125 C63.6513396 34.15782346 67.32619511 34.29708908 71.26953125 34.3203125 C72.36136719 34.33449219 73.45320312 34.34867188 74.578125 34.36328125 C79.86170614 33.98905401 84.62721121 32.36728945 88.83203125 29.1328125 C93.69406151 23.29801186 94.59341649 18.05738548 94.64453125 10.6328125 C94.70640625 7.4978125 94.76828125 4.3628125 94.83203125 1.1328125 C108.03203125 1.1328125 121.23203125 1.1328125 134.83203125 1.1328125 C134.83203125 1.7928125 134.83203125 2.4528125 134.83203125 3.1328125 C135.61578125 3.3596875 136.39953125 3.5865625 137.20703125 3.8203125 C139.83203125 5.1328125 139.83203125 5.1328125 141.14453125 7.7578125 C141.37140625 8.5415625 141.59828125 9.3253125 141.83203125 10.1328125 C142.49203125 10.1328125 143.15203125 10.1328125 143.83203125 10.1328125 C143.99558531 38.66171267 144.11900859 67.19054252 144.19471645 95.71981716 C144.23080401 108.96660984 144.28000077 122.21311114 144.36010742 135.4597168 C144.42989876 147.00606849 144.47504398 158.55220915 144.49065071 170.09876591 C144.499773 176.21215602 144.5211974 182.32494243 144.57214165 188.43813896 C144.61972263 194.19449234 144.63429813 199.94999445 144.62378502 205.7065258 C144.62570775 207.81685515 144.63959197 209.92721353 144.66646957 212.03737259 C144.88358787 229.96561673 144.88358787 229.96561673 140.53236389 235.77137756 C138.72596836 237.61700535 138.72596836 237.61700535 136.83203125 239.1328125 C136.26120221 239.68956256 135.69037317 240.24631262 135.10224628 240.81993389 C131.77457996 242.74434275 128.54597822 242.53984176 124.80825806 242.50030518 C123.58531495 242.50520844 123.58531495 242.50520844 122.33766592 242.51021075 C119.60073609 242.51750316 116.86433871 242.50332175 114.12744141 242.48925781 C112.16569935 242.49004868 110.20395745 242.49214592 108.24221802 242.49545288 C102.90169361 242.5005983 97.56136118 242.48701756 92.22086763 242.46992588 C86.60813658 242.45486535 80.99540779 242.45606287 75.38265991 242.45526123 C65.92841335 242.45156311 56.47423912 242.43658758 47.02001953 242.4140625 C34.974542 242.38541772 22.9291234 242.37485845 10.88361549 242.3703804 C0.45267016 242.36635754 -9.97826292 242.35384635 -20.40919924 242.34003353 C-23.71891915 242.33598035 -27.02863865 242.33303127 -30.33835983 242.33023834 C-43.94877624 242.3165816 -57.55814893 242.26376688 -71.16796875 242.1328125 C-71.97508332 242.12576735 -72.7821979 242.11872219 -73.61377048 242.11146355 C-78.6207859 242.0654649 -83.62532831 241.98032694 -88.63134766 241.87011719 C-90.40521882 241.85014112 -90.40521882 241.85014112 -92.21492577 241.82976151 C-98.94192908 241.6352831 -103.39302809 240.64094225 -109.16796875 237.1328125 C-109.16796875 236.4728125 -109.16796875 235.8128125 -109.16796875 235.1328125 C-110.15796875 234.8028125 -111.14796875 234.4728125 -112.16796875 234.1328125 C-115.43932114 229.19702699 -115.60153241 224.97073194 -115.56910706 219.2649231 C-115.57590373 218.38339376 -115.58270039 217.50186443 -115.58970302 216.59362209 C-115.60866255 213.64579023 -115.60623899 210.69837429 -115.60375977 207.75048828 C-115.61273801 205.63452623 -115.62294641 203.51856909 -115.6342926 201.40261841 C-115.66078868 195.65879179 -115.66782587 189.91509926 -115.66973996 184.17121744 C-115.67187267 180.58204536 -115.67827786 176.99290736 -115.68623161 173.40374374 C-115.71398288 160.88063136 -115.72623729 148.35761477 -115.72387695 135.83447266 C-115.72207429 124.16343998 -115.75373798 112.49282315 -115.80110794 100.82189572 C-115.84033922 90.79878283 -115.85642847 80.77580585 -115.85451072 70.75261676 C-115.85374596 64.76745602 -115.86228907 58.78266494 -115.89404488 52.79758072 C-115.92309753 47.16836319 -115.92332016 41.53986853 -115.90149498 35.91062546 C-115.89835864 33.84667149 -115.90543944 31.78267244 -115.92357635 29.71879578 C-115.94676797 26.8965726 -115.93279032 24.07683954 -115.90968323 21.25466919 C-115.92511392 20.44161981 -115.94054461 19.62857043 -115.95644289 18.79088318 C-115.84443466 12.58301472 -113.6421053 8.45843312 -109.16796875 4.1328125 C-108.17796875 3.8028125 -107.18796875 3.4728125 -106.16796875 3.1328125 C-105.83796875 2.4728125 -105.50796875 1.8128125 -105.16796875 1.1328125 C-91.96796875 1.1328125 -78.76796875 1.1328125 -65.16796875 1.1328125 C-65.16796875 6.7428125 -65.16796875 12.3528125 -65.16796875 18.1328125 C-64.67296875 20.6078125 -64.67296875 20.6078125 -64.16796875 23.1328125 C-63.50796875 23.4628125 -62.84796875 23.7928125 -62.16796875 24.1328125 C-62.49796875 24.7928125 -62.82796875 25.4528125 -63.16796875 26.1328125 C-62.50796875 26.1328125 -61.84796875 26.1328125 -61.16796875 26.1328125 C-61.16796875 27.1228125 -61.16796875 28.1128125 -61.16796875 29.1328125 C-60.40484375 29.2359375 -59.64171875 29.3390625 -58.85546875 29.4453125 C-55.9021836 30.20080405 -55.20929041 31.00273773 -53.16796875 33.1328125 C-46.76577008 35.35705053 -37.33023756 35.48459176 -31.10546875 32.7578125 C-30.13609375 32.2215625 -29.16671875 31.6853125 -28.16796875 31.1328125 C-27.21921875 30.8646875 -26.27046875 30.5965625 -25.29296875 30.3203125 C-24.59171875 29.9284375 -23.89046875 29.5365625 -23.16796875 29.1328125 C-22.42132228 26.15301014 -22.42132228 26.15301014 -22.16796875 23.1328125 C-21.50796875 22.4728125 -20.84796875 21.8128125 -20.16796875 21.1328125 C-19.0120127 16.94534257 -18.8575381 12.63854967 -18.60546875 8.3203125 C-18.54069336 7.28100586 -18.54069336 7.28100586 -18.47460938 6.22070312 C-18.36935422 4.52492564 -18.26824012 2.82889198 -18.16796875 1.1328125 C-12.07102372 0.2417852 -6.15695332 -0.01381338 0 0 Z M-88.16796875 53.1328125 C-88.16796875 78.9553125 -88.16796875 104.7778125 -88.16796875 131.3828125 C-88.16796875 158.96614583 -88.16796875 186.54947917 -88.16796875 214.1328125 C-84.44943827 215.37232266 -81.01053121 215.26757824 -77.13850403 215.25306702 C-76.31106318 215.25392144 -75.48362233 215.25477587 -74.63110751 215.25565618 C-71.84885783 215.25730786 -69.06666798 215.25179468 -66.28442383 215.24633789 C-64.29385886 215.24605593 -62.30329379 215.24621393 -60.31272888 215.2467804 C-54.89984695 215.24706801 -49.48698706 215.24117711 -44.07411027 215.23420644 C-38.42063905 215.22796689 -32.76716737 215.22736862 -27.11369324 215.22618103 C-16.40399975 215.22306949 -5.69431643 215.21485848 5.01537257 215.20483154 C19.48452948 215.19157805 33.95368916 215.18616906 48.42285061 215.18032932 C71.22591845 215.17091849 94.02896481 215.15099837 116.83203125 215.1328125 C117.32703125 134.9428125 117.32703125 134.9428125 117.83203125 53.1328125 C49.85203125 53.1328125 -18.12796875 53.1328125 -88.16796875 53.1328125 Z " fill="#070707" transform="translate(322.16796875,95.8671875)"/>
<path d="M0 0 C1.82349976 0.02018188 1.82349976 0.02018188 3.68383789 0.04077148 C4.66206261 0.04426857 4.66206261 0.04426857 5.66004944 0.0478363 C7.03782243 0.05756845 8.41555568 0.07934453 9.79296875 0.11230469 C11.89586999 0.16161611 13.99642695 0.17377906 16.09985352 0.17944336 C27.49165893 0.29919226 27.49165893 0.29919226 30.96899414 2.59936523 C35.78543108 8.66450805 35.18751772 17.2939627 35.28149414 24.72436523 C35.31049805 25.49651367 35.33950195 26.26866211 35.36938477 27.06420898 C35.42812043 32.36849104 34.56592671 35.43858918 30.96899414 39.59936523 C25.73998016 41.3423699 20.13794998 40.9038678 14.6628418 40.94946289 C13.20011534 40.96606628 11.73747145 40.99341446 10.27514648 41.03149414 C8.16225303 41.08618303 6.05124921 41.10811426 3.93774414 41.12280273 C2.67381836 41.14262207 1.40989258 41.16244141 0.10766602 41.18286133 C-3.03100586 40.59936523 -3.03100586 40.59936523 -4.94165039 38.49633789 C-6.23054372 35.06872511 -6.4191069 32.38642487 -6.42944336 28.72436523 C-6.43331055 27.40952148 -6.43717773 26.09467773 -6.44116211 24.73999023 C-6.43487793 24.06000977 -6.42859375 23.3800293 -6.42211914 22.67944336 C-6.40605111 20.60520632 -6.42199317 18.53291727 -6.44116211 16.45874023 C-6.43729492 15.14389648 -6.43342773 13.82905273 -6.42944336 12.47436523 C-6.42605957 11.27553711 -6.42267578 10.07670898 -6.41918945 8.84155273 C-5.83544671 3.96601589 -5.1204599 1.01254362 0 0 Z " fill="#0B0B0B" transform="translate(380.031005859375,235.400634765625)"/>
<path d="M0 0 C1.16273438 0.00580078 2.32546875 0.01160156 3.5234375 0.01757812 C9.08987692 0.09718967 13.79152861 0.27897932 19 2.4375 C23.72288504 10.58516717 22.90901976 24.31393409 21.3125 33.3125 C19.63286754 37.31162491 18.68952594 39.05015969 15 41.4375 C10.63759053 42.00311792 6.38049923 41.69228414 2 41.4375 C0.51570386 41.41059132 -0.96868871 41.38864405 -2.453125 41.37109375 C-3.96879792 41.33257067 -5.48442573 41.29222658 -7 41.25 C-7.71768555 41.24468262 -8.43537109 41.23936523 -9.17480469 41.23388672 C-12.85226274 41.0755397 -14.78279436 40.607331 -17.7043457 38.32299805 C-21.54958204 33.48976947 -20.56042577 28.45910021 -20.27954102 22.51757812 C-20.18774454 20.44302649 -20.15475169 18.37315687 -20.12695312 16.296875 C-19.71789549 5.17050745 -19.71789549 5.17050745 -16.73828125 2.02734375 C-11.80732518 -0.9136694 -5.52104718 -0.15608282 0 0 Z " fill="#0A0A0A" transform="translate(393,178.5625)"/>
<path d="M0 0 C1.22396484 -0.020625 2.44792969 -0.04125 3.70898438 -0.0625 C5.48692383 -0.07023438 5.48692383 -0.07023438 7.30078125 -0.078125 C8.38141846 -0.0874707 9.46205566 -0.09681641 10.57543945 -0.10644531 C14.23579664 0.31280012 16.60114338 1.24580619 19.6875 3.25 C21.19465571 6.38488387 20.81673934 9.96989269 20.8203125 13.40625 C20.82224609 15.18708984 20.82224609 15.18708984 20.82421875 17.00390625 C20.82035156 18.24011719 20.81648438 19.47632813 20.8125 20.75 C20.81830078 22.60431641 20.81830078 22.60431641 20.82421875 24.49609375 C20.82292969 25.68332031 20.82164062 26.87054688 20.8203125 28.09375 C20.81918457 29.17849609 20.81805664 30.26324219 20.81689453 31.38085938 C20.60409383 36.09941382 20.60409383 36.09941382 19.6875 38.25 C15.10825443 41.66160222 8.6951355 40.58354275 3.27026367 40.56567383 C1.2597016 40.56251524 -0.7493854 40.58598616 -2.75976562 40.61132812 C-4.03400391 40.61197266 -5.30824219 40.61261719 -6.62109375 40.61328125 C-7.78439209 40.61626221 -8.94769043 40.61924316 -10.14624023 40.62231445 C-13.65460824 40.20977214 -15.53446917 39.4068248 -18.3125 37.25 C-20.11395765 31.84562705 -19.53985608 26.03031834 -19.5625 20.375 C-19.583125 19.09496094 -19.60375 17.81492188 -19.625 16.49609375 C-19.63273437 14.64564453 -19.63273437 14.64564453 -19.640625 12.7578125 C-19.6499707 11.63004395 -19.65931641 10.50227539 -19.66894531 9.34033203 C-19.26844146 5.86801848 -18.44147614 4.00320143 -16.3125 1.25 C-11.06544645 -0.49901785 -5.49186732 0.02291859 0 0 Z " fill="#090909" transform="translate(336.3125,235.75)"/>
<path d="M0 0 C1.17626953 -0.00064453 2.35253906 -0.00128906 3.56445312 -0.00195312 C4.77939453 0.01802734 5.99433594 0.03800781 7.24609375 0.05859375 C9.07430664 0.04795898 9.07430664 0.04795898 10.93945312 0.03710938 C21.28527072 0.11088646 21.28527072 0.11088646 25.68359375 3.49609375 C29.19090294 8.38938245 28.0111031 15.19702166 27.99609375 20.93359375 C28.01220703 22.16142578 28.02832031 23.38925781 28.04492188 24.65429688 C28.04556641 25.83830078 28.04621094 27.02230469 28.046875 28.2421875 C28.04985596 29.32169678 28.05283691 30.40120605 28.0559082 31.51342773 C27.63420359 34.89176563 26.69324803 36.77235844 24.68359375 39.49609375 C21.73074655 40.97251735 18.99910392 40.71882314 15.70703125 40.8125 C15.02178375 40.8332811 14.33653625 40.85406219 13.63052368 40.87547302 C11.43998306 40.9408956 9.24932186 40.99981929 7.05859375 41.05859375 C5.57420625 41.10178593 4.08983097 41.14540045 2.60546875 41.18945312 C-1.03502709 41.29656928 -4.67565876 41.39785737 -8.31640625 41.49609375 C-13.12671211 35.23886323 -12.99752625 29.0786229 -12.94775391 21.37036133 C-12.94138425 19.30144762 -12.98858829 17.2381395 -13.0390625 15.16992188 C-13.04035156 13.86087891 -13.04164063 12.55183594 -13.04296875 11.203125 C-13.04893066 10.01178955 -13.05489258 8.8204541 -13.06103516 7.59301758 C-12.31640625 4.49609375 -12.31640625 4.49609375 -9.66577148 2.10791016 C-6.10398481 0.39387009 -3.92265197 -0.00680656 0 0 Z " fill="#070707" transform="translate(329.31640625,178.50390625)"/>
<path d="M0 0 C1.17498047 0.00966797 2.34996094 0.01933594 3.56054688 0.02929688 C14.19902019 0.16903696 14.19902019 0.16903696 16.8125 1.3125 C19.74786306 5.00670109 20.1886817 7.88708803 20.17578125 12.53125 C20.17513672 13.71074219 20.17449219 14.89023438 20.17382812 16.10546875 C20.15771484 17.32878906 20.14160156 18.55210937 20.125 19.8125 C20.12822266 21.03582031 20.13144531 22.25914062 20.13476562 23.51953125 C20.0663625 34.89932316 20.0663625 34.89932316 16.62304688 40.11376953 C13.75870477 42.01019883 11.2313321 41.59540424 7.84375 41.4921875 C6.82867371 41.4631987 6.82867371 41.4631987 5.79309082 41.43362427 C4.36391866 41.38877982 2.93497188 41.33617455 1.50634766 41.27636719 C-0.67925761 41.18783388 -2.86406171 41.13127956 -5.05078125 41.078125 C-6.44017114 41.03056373 -7.82949901 40.9811466 -9.21875 40.9296875 C-10.48267578 40.88440918 -11.74660156 40.83913086 -13.04882812 40.79248047 C-16.1875 40.3125 -16.1875 40.3125 -18.06054688 38.96142578 C-20.57886355 35.2766964 -20.30336206 31.77180852 -20.28515625 27.45703125 C-20.2837413 26.79539474 -20.28232635 26.13375824 -20.28086853 25.45207214 C-20.27527996 23.34300172 -20.26272965 21.23403823 -20.25 19.125 C-20.24498352 17.69336091 -20.24042087 16.26172015 -20.23632812 14.83007812 C-20.2253143 11.32418412 -20.20805755 7.8183525 -20.1875 4.3125 C-13.70190006 -0.48779076 -7.86939144 -0.19618981 0 0 Z " fill="#0A0A0A" transform="translate(280.1875,178.6875)"/>
<path d="M0 0 C1.27552734 -0.02449219 2.55105469 -0.04898438 3.86523438 -0.07421875 C5.70891602 -0.08001953 5.70891602 -0.08001953 7.58984375 -0.0859375 C8.71124756 -0.09415527 9.83265137 -0.10237305 10.98803711 -0.11083984 C14.86889614 0.50243018 16.4642228 1.42733719 19.0625 4.375 C19.70947266 7.703125 19.70947266 7.703125 19.7265625 11.625 C19.73134613 12.32012695 19.73612976 13.01525391 19.74105835 13.73144531 C19.74445227 15.19728872 19.73528481 16.66320833 19.71435547 18.12890625 C19.68757283 20.36890886 19.71410999 22.60390266 19.74609375 24.84375 C19.74278955 26.27084436 19.73638308 27.69793561 19.7265625 29.125 C19.71810303 31.06632812 19.71810303 31.06632812 19.70947266 33.046875 C19.0625 36.375 19.0625 36.375 16.92333984 38.79931641 C13.54517713 40.65992932 11.46643945 40.86424869 7.625 40.8359375 C6.40039062 40.83207031 5.17578125 40.82820313 3.9140625 40.82421875 C2.00753906 40.78748047 2.00753906 40.78748047 0.0625 40.75 C-1.84402344 40.74806641 -1.84402344 40.74806641 -3.7890625 40.74609375 C-14.83868696 40.6414131 -14.83868696 40.6414131 -18.9375 38.375 C-22.49707951 33.58075222 -21.26482908 26.60517372 -21.25 20.9375 C-21.27416992 19.09575195 -21.27416992 19.09575195 -21.29882812 17.21679688 C-21.29947266 16.03279297 -21.30011719 14.84878906 -21.30078125 13.62890625 C-21.30525269 12.00964233 -21.30525269 12.00964233 -21.30981445 10.35766602 C-20.88171129 6.92806842 -20.04472726 5.10054582 -17.9375 2.375 C-12.96051524 -1.21342161 -5.84081037 0.00588495 0 0 Z " fill="#0B0B0B" transform="translate(280.9375,235.625)"/>
<path d="M0 0 C3.41311667 2.52570633 4.66637768 3.99913304 6 8 C7.03037744 19.10517903 7.12486846 30.23276813 6.8125 41.375 C6.79461426 42.43799316 6.77672852 43.50098633 6.75830078 44.59619141 C6.53306267 50.63895289 6.06435217 54.41243832 2 59 C-1.0774905 60.91303463 -2.85809708 61.00253398 -6.5 60.9375 C-10.70133973 59.81214114 -12.32340248 58.38510863 -15 55 C-15.8125 52.6875 -15.8125 52.6875 -16 51 C-16.66 51 -17.32 51 -18 51 C-18.02496844 46.48340204 -18.04298537 41.96684209 -18.05493164 37.45019531 C-18.05991896 35.91796162 -18.06671122 34.38573258 -18.07543945 32.85351562 C-18.21068235 8.47797284 -18.21068235 8.47797284 -14 2 C-9.55223754 -0.96517497 -5.21478117 -0.76239491 0 0 Z " fill="#090909" transform="translate(399,58)"/>
<path d="M0 0 C1.29550781 -0.03867187 1.29550781 -0.03867187 2.6171875 -0.078125 C5.61600276 0.31424335 6.93847842 1.19704422 9.125 3.25 C9.875 5.4375 9.875 5.4375 10.125 7.25 C10.785 7.25 11.445 7.25 12.125 7.25 C12.27410307 13.35137409 12.38257224 19.45167163 12.45458984 25.55444336 C12.48463246 27.6272226 12.52547967 29.6998761 12.57763672 31.7722168 C12.65100631 34.76382575 12.68458173 37.75374451 12.7109375 40.74609375 C12.74190521 41.66208847 12.77287292 42.57808319 12.80477905 43.52183533 C12.80794783 49.67662585 11.34045586 53.46458583 7.86245728 58.52845764 C5.26596791 61.10116345 2.82226131 61.48084822 -0.75 61.53515625 C-3.72116151 61.13645259 -5.62228344 60.21204346 -7.875 58.25 C-7.875 57.59 -7.875 56.93 -7.875 56.25 C-8.535 56.25 -9.195 56.25 -9.875 56.25 C-11.67076114 50.11085809 -12.14533015 44.65767739 -12.0703125 38.28125 C-12.0674826 37.36033569 -12.06465271 36.43942139 -12.06173706 35.49060059 C-12.05062775 32.57692948 -12.02554078 29.66357669 -12 26.75 C-11.98995823 24.7630253 -11.98083448 22.77604574 -11.97265625 20.7890625 C-11.95071879 15.94258748 -11.91625361 11.09634753 -11.875 6.25 C-10.885 5.92 -9.895 5.59 -8.875 5.25 C-8.17562468 3.93352881 -7.50770867 2.59977849 -6.875 1.25 C-4.43545342 0.03022671 -2.72194151 0.04846187 0 0 Z " fill="#0B0B0B" transform="translate(279.875,57.75)"/>
<path d="M0 0 C1.41702513 0.14230808 2.8336096 0.28900746 4.25 0.4375 C5.43335938 0.55931641 5.43335938 0.55931641 6.640625 0.68359375 C9 1 9 1 11.109375 1.53515625 C13.16105106 2.11937855 13.16105106 2.11937855 16 2 C16.66 2.33 17.32 2.66 18 3 C18.33 2.34 18.66 1.68 19 1 C19.99 2.32 20.98 3.64 22 5 C19.08308475 5.05401695 16.16717276 5.09368066 13.25 5.125 C12.425 5.14175781 11.6 5.15851563 10.75 5.17578125 C9.95078125 5.18222656 9.1515625 5.18867188 8.328125 5.1953125 C7.5949707 5.20578613 6.86181641 5.21625977 6.10644531 5.22705078 C3.70103924 4.96777544 2.08748506 4.19225925 0 3 C0 2.01 0 1.02 0 0 Z " fill="#444443" transform="translate(217,332)"/>
<path d="M0 0 C1.29550781 -0.03867187 1.29550781 -0.03867187 2.6171875 -0.078125 C5.125 0.25 5.125 0.25 9.125 3.25 C4.175 4.735 4.175 4.735 -0.875 6.25 C-1.535 5.59 -2.195 4.93 -2.875 4.25 C-5.97426819 4.57198966 -5.97426819 4.57198966 -8.875 5.25 C-6.73747324 0.51690503 -5.0928911 0.09067462 0 0 Z M-10.875 5.25 C-10.215 5.58 -9.555 5.91 -8.875 6.25 C-9.865 6.91 -10.855 7.57 -11.875 8.25 C-11.545 7.26 -11.215 6.27 -10.875 5.25 Z " fill="#5A5A5A" transform="translate(279.875,57.75)"/>
<path d="M0 0 C0.9590625 -0.01675781 1.918125 -0.03351562 2.90625 -0.05078125 C5.84780511 0.36121367 6.70423739 1.01319585 8.5 3.3125 C7.84 3.3125 7.18 3.3125 6.5 3.3125 C6.17 3.9725 5.84 4.6325 5.5 5.3125 C5.5 4.6525 5.5 3.9925 5.5 3.3125 C3.72925083 3.28544271 1.95838289 3.26607805 0.1875 3.25 C-0.79863281 3.23839844 -1.78476562 3.22679687 -2.80078125 3.21484375 C-5.59963849 3.18920138 -5.59963849 3.18920138 -8.5 4.3125 C-8.5 3.6525 -8.5 2.9925 -8.5 2.3125 C-5.16602694 0.08985129 -3.90485109 0.01574537 0 0 Z " fill="#525251" transform="translate(393.5,57.6875)"/>
<path d="M0 0 C2 0.75 2 0.75 5 2.75 C0.05 4.235 0.05 4.235 -5 5.75 C-5 4.43 -5 3.11 -5 1.75 C-2 -0.25 -2 -0.25 0 0 Z " fill="#474746" transform="translate(284,58.25)"/>
<path d="M0 0 C0.33 0.66 0.66 1.32 1 2 C1.61875 1.79375 2.2375 1.5875 2.875 1.375 C3.57625 1.25125 4.2775 1.1275 5 1 C5.66 1.66 6.32 2.32 7 3 C5 5 5 5 1.375 5.125 C0.26125 5.08375 -0.8525 5.0425 -2 5 C-1.34 4.34 -0.68 3.68 0 3 C0 2.01 0 1.02 0 0 Z " fill="#7D7D7C" transform="translate(450,333)"/>
<path d="M0 0 C0.33 0 0.66 0 1 0 C1.33 3.96 1.66 7.92 2 12 C1.34 12 0.68 12 0 12 C-0.1953125 9.94921875 -0.390625 7.8984375 -0.5859375 5.84765625 C-0.72257812 5.23792969 -0.85921875 4.62820313 -1 4 C-1.66 3.67 -2.32 3.34 -3 3 C-2.34 3 -1.68 3 -1 3 C-0.67 2.01 -0.34 1.02 0 0 Z " fill="#464645" transform="translate(464,308)"/>
<path d="" fill="#E6E6E6" transform="translate(0,0)"/>
</svg>
