<?xml version="1.0" encoding="UTF-8"?>
<svg version="1.1" xmlns="http://www.w3.org/2000/svg" width="360" height="360">
<path d="M0 0 C47.409068 -1.00817174 92.56756007 12.14979577 127.97265625 44.69628906 C129.86369246 46.41692285 131.8235337 48.04890609 133.78613281 49.68701172 C164.81009564 77.10819176 185.60994737 120.84325764 188.47363281 162.06201172 C188.6676481 168.02057024 188.7192844 173.97556402 188.72363281 179.93701172 C188.72430756 180.7662616 188.7249823 181.59551147 188.72567749 182.44989014 C188.70999566 194.57003923 188.32093578 206.2294577 185.47363281 218.06201172 C185.29670898 218.83561035 185.11978516 219.60920898 184.9375 220.40625 C176.92092536 255.01320735 159.87928212 283.48913571 135.47363281 309.06201172 C134.57257813 310.04234375 134.57257813 310.04234375 133.65332031 311.04248047 C119.82344099 325.67157393 101.59288897 336.66618585 83.47363281 345.06201172 C82.3225 345.60728516 81.17136719 346.15255859 79.98535156 346.71435547 C70.74429408 350.90320851 61.28177655 353.59354199 51.47363281 356.06201172 C50.25804687 356.37267578 49.04246094 356.68333984 47.79003906 357.00341797 C23.7952295 362.85374256 -6.53031283 362.89341154 -30.52636719 357.06201172 C-31.37215332 356.85801758 -32.21793945 356.65402344 -33.08935547 356.44384766 C-66.54579642 348.1025031 -94.48933941 331.59751621 -119.52636719 308.06201172 C-120.55697266 307.13001953 -120.55697266 307.13001953 -121.60839844 306.17919922 C-152.5649155 277.11265898 -170.02966793 231.15056522 -171.62695312 189.43505859 C-172.58644221 156.29122568 -166.55371991 124.3043557 -150.52636719 95.06201172 C-149.88174056 93.84852071 -149.23720827 92.63497959 -148.59277344 91.42138672 C-142.37718892 79.93668168 -134.57007097 70.02164159 -125.72167969 60.44873047 C-124.27181877 58.87245819 -122.84896616 57.27085844 -121.45605469 55.64404297 C-106.50650713 38.29484479 -87.25048867 25.51104417 -66.52636719 16.06201172 C-64.77066406 15.24796875 -64.77066406 15.24796875 -62.97949219 14.41748047 C-43.03894026 5.50739222 -21.83547323 0.53596929 0 0 Z M-20.17546082 104.86042786 C-22.20997442 108.17609237 -22.07863569 111.41537176 -22.02246094 115.18701172 C-22.02391617 115.97092285 -22.0253714 116.75483398 -22.02687073 117.5625 C-22.02521384 119.216672 -22.0136759 120.87085974 -21.99291992 122.52490234 C-21.96396391 125.05356478 -21.9723142 127.58012977 -21.98535156 130.10888672 C-21.97911371 131.71827188 -21.9707224 133.32765044 -21.95996094 134.93701172 C-21.96289658 135.69127441 -21.96583221 136.44553711 -21.96885681 137.22265625 C-21.89333102 141.43555044 -21.54003181 144.00888422 -18.52636719 147.06201172 C-15.06136719 146.56701172 -15.06136719 146.56701172 -11.52636719 146.06201172 C-8.30424103 137.31716465 -8.30424103 137.31716465 -8.52636719 116.06201172 C23.15363281 116.06201172 54.83363281 116.06201172 87.47363281 116.06201172 C87.47363281 158.30201172 87.47363281 200.54201172 87.47363281 244.06201172 C55.79363281 244.06201172 24.11363281 244.06201172 -8.52636719 244.06201172 C-8.85636719 235.48201172 -9.18636719 226.90201172 -9.52636719 218.06201172 C-11.17636719 216.41201172 -12.82636719 214.76201172 -14.52636719 213.06201172 C-17.22265298 212.8842286 -17.22265298 212.8842286 -19.52636719 214.06201172 C-22.08805977 217.9045506 -21.84999859 221.10375081 -21.86230469 225.56201172 C-21.86896149 226.39410156 -21.87561829 227.22619141 -21.88247681 228.08349609 C-21.89259724 229.84193715 -21.89729401 231.60041657 -21.89697266 233.35888672 C-21.90135129 236.05223543 -21.93769018 238.7439524 -21.97558594 241.43701172 C-21.98145311 243.14533944 -21.98542317 244.85367496 -21.98730469 246.56201172 C-22.00167572 247.36832031 -22.01604675 248.17462891 -22.03085327 249.00537109 C-22.05533088 251.53997711 -22.05533088 251.53997711 -21.52636719 255.06201172 C-18.78757453 257.74379483 -16.82168053 258.4366664 -13.03704834 258.42950439 C-11.69567055 258.43785812 -11.69567055 258.43785812 -10.32719421 258.44638062 C-9.35361465 258.43716583 -8.3800351 258.42795105 -7.37695312 258.41845703 C-5.8299044 258.42152359 -5.8299044 258.42152359 -4.25160217 258.4246521 C-0.83780252 258.42766305 2.57551543 258.40916774 5.98925781 258.39013672 C8.36334107 258.38707851 10.73742612 258.38520286 13.11151123 258.38446045 C18.09150036 258.3798548 23.07132803 258.36542249 28.05126953 258.34326172 C34.42441254 258.31504086 40.79742804 258.30405629 47.17062759 258.29957962 C52.0760627 258.29541408 56.98147222 258.28558615 61.88689423 258.27370453 C64.2359573 258.26801891 66.5850228 258.26325462 68.93408966 258.25943756 C72.22498335 258.25253321 75.51577873 258.23887952 78.80664062 258.22314453 C80.25486458 258.22146774 80.25486458 258.22146774 81.73234558 258.21975708 C84.31540979 258.20346866 86.89204162 258.14856388 89.47363281 258.06201172 C90.24315025 258.04306602 91.01266769 258.02412033 91.80550385 258.00460052 C94.20371044 257.90493624 94.20371044 257.90493624 97.47363281 257.06201172 C100.29621644 253.43374555 100.84859581 250.68887431 100.84785461 246.15493774 C100.85486893 244.97178482 100.86188324 243.7886319 100.86911011 242.56962585 C100.86146637 241.28014542 100.85382263 239.99066498 100.84594727 238.66210938 C100.8483766 237.2835818 100.8520973 235.90505599 100.85700989 234.52653503 C100.86640499 230.78878266 100.85700424 227.05129281 100.84367776 223.31356096 C100.83234506 219.39705914 100.83647229 215.48056991 100.83842468 211.5640564 C100.83930729 204.98520634 100.82823595 198.40645939 100.80981445 191.82763672 C100.78866491 184.23126719 100.78513342 176.63504888 100.79137641 169.03865588 C100.79708071 161.72212462 100.79141072 154.40564639 100.78020287 147.08912277 C100.77556918 143.98004547 100.77467771 140.87100073 100.77678871 137.76192093 C100.77867896 134.09618544 100.77051139 130.43060277 100.75472832 126.76490211 C100.74849379 124.7850961 100.75198264 122.80526687 100.75579834 120.82545471 C100.72532489 112.24729892 100.72532489 112.24729892 98.47363281 104.06201172 C96.08369987 102.86704525 94.6006487 102.92852021 91.93215942 102.9148407 C90.97597717 102.90768539 90.01979492 102.90053009 89.03463745 102.89315796 C87.45587326 102.8891246 87.45587326 102.8891246 85.84521484 102.88500977 C84.18655396 102.87515297 84.18655396 102.87515297 82.49438477 102.86509705 C78.82340433 102.84533377 75.15246481 102.83369586 71.48144531 102.82373047 C70.23055996 102.81965494 68.97967461 102.81557941 67.69088364 102.81138039 C61.75565302 102.79266237 55.82043548 102.77809809 49.8851825 102.76976842 C43.03213558 102.759992 36.17941132 102.73366172 29.32647812 102.69326752 C23.39232975 102.65948822 17.45826063 102.64762509 11.52401352 102.64356422 C8.99857263 102.63868074 6.47313563 102.6270171 3.94775772 102.60852623 C0.41852081 102.58428757 -3.10986624 102.58507202 -6.63916016 102.59204102 C-8.21185165 102.57282593 -8.21185165 102.57282593 -9.8163147 102.55322266 C-15.33145456 102.52301257 -15.33145456 102.52301257 -20.17546082 104.86042786 Z M-40.27270508 135.00854492 C-40.96147736 135.65111237 -41.65024963 136.29367981 -42.3598938 136.95571899 C-43.43229813 137.99833389 -43.43229813 137.99833389 -44.52636719 139.06201172 C-45.24041718 139.74621185 -45.95446716 140.43041199 -46.69015503 141.13534546 C-49.00679491 143.37812433 -51.29879154 145.64366012 -53.58496094 147.91748047 C-54.82959862 149.15356804 -54.82959862 149.15356804 -56.09938049 150.41462708 C-57.8377375 152.14359969 -59.57469325 153.87398222 -61.31030273 155.60571289 C-63.97356467 158.25917351 -66.64730194 160.90178704 -69.32128906 163.54443359 C-71.01400209 165.23062453 -72.70608223 166.9174511 -74.39746094 168.60498047 C-75.19840683 169.39357956 -75.99935272 170.18217865 -76.8245697 170.99467468 C-77.55946121 171.73256729 -78.29435272 172.4704599 -79.05151367 173.23071289 C-79.70022934 173.87578293 -80.34894501 174.52085297 -81.01731873 175.18547058 C-82.65481321 177.2217377 -83.27936844 178.46865713 -83.52636719 181.06201172 C-81.33874164 185.17474775 -78.77208176 187.85245928 -75.11230469 190.69482422 C-72.70308007 192.77174199 -70.79522935 195.22035485 -68.82324219 197.70654297 C-68.39527344 198.15384766 -67.96730469 198.60115234 -67.52636719 199.06201172 C-66.86636719 199.06201172 -66.20636719 199.06201172 -65.52636719 199.06201172 C-65.19636719 200.05201172 -64.86636719 201.04201172 -64.52636719 202.06201172 C-63.07010147 203.53826375 -63.07010147 203.53826375 -61.21386719 204.99951172 C-57.4414814 208.20094182 -53.89832892 211.56667522 -50.40136719 215.06201172 C-49.8806665 215.58053711 -49.35996582 216.0990625 -48.82348633 216.63330078 C-46.08785251 219.38768675 -43.5445111 222.19510436 -41.15136719 225.24951172 C-38.75195983 228.24950563 -38.75195983 228.24950563 -35.40136719 229.18701172 C-31.95939122 229.03736059 -30.95186699 228.46170155 -28.52636719 226.06201172 C-27.88473046 223.46295761 -27.88473046 223.46295761 -27.91699219 220.51904297 C-27.88476562 219.44589844 -27.85253906 218.37275391 -27.81933594 217.26708984 C-27.80515625 216.14753906 -27.79097656 215.02798828 -27.77636719 213.87451172 C-27.74671875 212.74335938 -27.71707031 211.61220703 -27.68652344 210.44677734 C-27.6157641 207.65178338 -27.56309743 204.85762644 -27.52636719 202.06201172 C-26.89853836 202.06645294 -26.27070953 202.07089417 -25.62385559 202.07546997 C-19.08641843 202.11973446 -12.54902388 202.14989118 -6.01147461 202.171875 C-3.57200389 202.18192932 -1.13254521 202.19557464 1.30688477 202.21289062 C4.81432061 202.23716354 8.32159702 202.24850062 11.82910156 202.25732422 C12.91885788 202.26764679 14.0086142 202.27796936 15.13139343 202.28860474 C16.15207413 202.2887558 17.17275482 202.28890686 18.22436523 202.2890625 C19.1192717 202.29350372 20.01417816 202.29794495 20.936203 202.30252075 C23.81566926 202.02959196 25.91307288 201.4065789 28.47363281 200.06201172 C29.54117039 196.85939897 29.60285803 194.54458162 29.60644531 191.17919922 C29.60773438 190.01130859 29.60902344 188.84341797 29.61035156 187.64013672 C29.60648437 186.41810547 29.60261719 185.19607422 29.59863281 183.93701172 C29.6025 182.73818359 29.60636719 181.53935547 29.61035156 180.30419922 C29.61561042 170.63721101 29.61561042 170.63721101 28.47363281 161.06201172 C25.19484319 158.87615197 24.18384523 158.80197671 20.37548828 158.7590332 C19.33786346 158.7423912 18.30023865 158.72574921 17.23117065 158.70860291 C16.11235504 158.70018875 14.99353943 158.6917746 13.84082031 158.68310547 C12.69324249 158.66611099 11.54566467 158.64911652 10.36331177 158.63160706 C6.69180823 158.57839256 3.02031665 158.53813325 -0.65136719 158.49951172 C-4.33013472 158.4556541 -8.00881228 158.40901998 -11.68746948 158.35670471 C-13.97884391 158.32462857 -16.27029818 158.29777627 -18.5617981 158.276474 C-19.59311859 158.26298416 -20.62443909 158.24949432 -21.68701172 158.2355957 C-22.59951691 158.22608383 -23.51202209 158.21657196 -24.45217896 158.20677185 C-26.52636719 158.06201172 -26.52636719 158.06201172 -27.52636719 157.06201172 C-27.64707855 155.54826128 -27.70589997 154.02946147 -27.73730469 152.51123047 C-27.76566406 151.58503906 -27.79402344 150.65884766 -27.82324219 149.70458984 C-27.87501085 147.74644037 -27.91937393 145.78808005 -27.95605469 143.82958984 C-27.98699219 142.89953125 -28.01792969 141.96947266 -28.04980469 141.01123047 C-28.07953369 139.73252075 -28.07953369 139.73252075 -28.10986328 138.42797852 C-28.62584539 135.49692186 -29.3655731 134.11124468 -31.52636719 132.06201172 C-35.5859311 131.56708976 -37.33482801 132.23137576 -40.27270508 135.00854492 Z " fill="#D01C22" transform="translate(171.5263671875,-0.06201171875)"/>
<path d="M0 0 C1.32 0.33 2.64 0.66 4 1 C4.33 5.29 4.66 9.58 5 14 C9.64630565 15.91837183 9.64630565 15.91837183 14.18847656 16.21118164 C14.97990051 16.20780289 15.77132446 16.20442413 16.58673096 16.20094299 C17.42951599 16.18748337 18.27230103 16.17402374 19.140625 16.16015625 C20.02224304 16.15495468 20.90386108 16.14975311 21.81219482 16.14439392 C24.62496665 16.12663268 27.43736902 16.09550758 30.25 16.0625 C33.04831375 16.03472457 35.84656866 16.0099813 38.6449585 15.99131775 C40.38251549 15.97923299 42.12004694 15.96180676 43.85748291 15.93800354 C55.17757658 15.84605383 55.17757658 15.84605383 60 17 C61.48619895 19.97239791 61.13177009 22.69619578 61.125 26 C61.12886719 27.8871875 61.12886719 27.8871875 61.1328125 29.8125 C61 33 61 33 60 35 C57.05690137 35.98103288 55.0503097 36.15221687 51.9777832 36.20532227 C50.95695145 36.22526749 49.93611969 36.24521271 48.88435364 36.26576233 C47.23423531 36.29083107 47.23423531 36.29083107 45.55078125 36.31640625 C44.4230278 36.33718735 43.29527435 36.35796844 42.13334656 36.37937927 C38.5264604 36.44482847 34.91950071 36.50373844 31.3125 36.5625 C28.86913298 36.60568961 26.42577344 36.64930404 23.98242188 36.69335938 C17.98835926 36.80050516 11.99422329 36.90228029 6 37 C4.62453772 41.54711648 3.88960269 45.2529155 4 50 C3.67 50.66 3.34 51.32 3 52 C-1.23834214 51.51909319 -3.57827262 48.88928331 -6.45703125 46.01171875 C-7.21786263 45.26230766 -7.21786263 45.26230766 -7.99406433 44.49775696 C-9.06101306 43.44159245 -10.12403452 42.38144771 -11.18334961 41.31762695 C-12.81050453 39.68949667 -14.45783269 38.08387331 -16.10742188 36.47851562 C-17.14192285 35.44921944 -18.17517075 34.41866198 -19.20703125 33.38671875 C-19.70274124 32.90740402 -20.19845123 32.42808929 -20.70918274 31.93424988 C-22.06567383 30.54956055 -22.06567383 30.54956055 -24 28 C-23.83058075 24.37755946 -21.92472522 22.40197841 -19.5625 19.75 C-18.94503906 19.04359375 -18.32757813 18.3371875 -17.69140625 17.609375 C-16 16 -16 16 -14 16 C-14 15.34 -14 14.68 -14 14 C-12.625 12.375 -12.625 12.375 -11 11 C-10.34 11 -9.68 11 -9 11 C-8.73960938 10.41863281 -8.47921875 9.83726562 -8.2109375 9.23828125 C-6.91871022 6.84974503 -5.50719402 5.13955712 -3.625 3.1875 C-3.03976563 2.56230469 -2.45453125 1.93710938 -1.8515625 1.29296875 C-0.93503906 0.65294922 -0.93503906 0.65294922 0 0 Z " fill="#CA2026" transform="translate(128,154)"/>
<path d="M0 0 C0.99 0.66 1.98 1.32 3 2 C2.34 2.763125 1.68 3.52625 1 4.3125 C-1.29850538 6.84277939 -1.29850538 6.84277939 -1 10 C-1.31088368 11.67099977 -1.64080332 13.33871537 -2 15 C-4.475 14.01 -4.475 14.01 -7 13 C-7 13.99 -7 14.98 -7 16 C-7.66 16 -8.32 16 -9 16 C-9 18.64 -9 21.28 -9 24 C-10.9375 23.6875 -10.9375 23.6875 -13 23 C-13.495 21.515 -13.495 21.515 -14 20 C-15.65 23.3 -17.3 26.6 -19 30 C-19.66 30 -20.32 30 -21 30 C-21 30.66 -21 31.32 -21 32 C-22.65 32.66 -24.3 33.32 -26 34 C-26.08004482 37.5219721 -26.04005702 40.61981469 -25 44 C-25.804375 44.28875 -26.60875 44.5775 -27.4375 44.875 C-30.1326468 45.73262568 -30.1326468 45.73262568 -31 48 C-31.515625 48.433125 -32.03125 48.86625 -32.5625 49.3125 C-34.26545111 50.97323686 -34.26545111 50.97323686 -34.1875 53.6875 C-34.0946875 54.8321875 -34.0946875 54.8321875 -34 56 C-35.32 56 -36.64 56 -38 56 C-37.67 57.65 -37.34 59.3 -37 61 C-36.34 61 -35.68 61 -35 61 C-35 61.66 -35 62.32 -35 63 C-36.32 63 -37.64 63 -39 63 C-41.09844526 64.79866737 -41.90799973 66.18349758 -42.21875 68.94140625 C-42.26680874 72.20339347 -42.03401094 74.89796718 -41 78 C-41.99 78.99 -41.99 78.99 -43 80 C-44.32 80 -45.64 80 -47 80 C-48.11811318 86.27940351 -49.14608293 92.35647983 -48.9375 98.75 C-48.83209055 103.28260637 -49.65651225 106.70543302 -51.265625 110.91796875 C-52.326423 113.92544394 -52.66347842 116.83669712 -53 120 C-52.34 120 -51.68 120 -51 120 C-51.309375 120.556875 -51.61875 121.11375 -51.9375 121.6875 C-55.34682213 129.10778933 -54.0107822 136.72484019 -52.4375 144.44921875 C-52 147 -52 147 -52 151 C-51.01 150.67 -50.02 150.34 -49 150 C-49.01047363 150.73637695 -49.02094727 151.47275391 -49.03173828 152.23144531 C-49.07333702 155.57092876 -49.09933864 158.91035765 -49.125 162.25 C-49.14175781 163.40886719 -49.15851562 164.56773437 -49.17578125 165.76171875 C-49.18222656 166.87675781 -49.18867187 167.99179688 -49.1953125 169.140625 C-49.20578613 170.16704102 -49.21625977 171.19345703 -49.22705078 172.25097656 C-48.99544116 175.05519632 -48.33834593 176.57273014 -47 179 C-46.875 181.75 -46.875 181.75 -47 184 C-46.01 184.33 -45.02 184.66 -44 185 C-43.814375 186.2065625 -43.814375 186.2065625 -43.625 187.4375 C-43.41875 188.283125 -43.2125 189.12875 -43 190 C-42.34 190.33 -41.68 190.66 -41 191 C-41.20625 191.721875 -41.4125 192.44375 -41.625 193.1875 C-42.23494031 196.00575208 -42.23494031 196.00575208 -41 198.5 C-39.81469839 201.46325404 -40.13775778 202.98215223 -41 206 C-56.28353934 190.71646066 -57.10406395 153.49176683 -57.25 133.0625 C-57.08585504 102.7777549 -50.61135394 73.65881543 -36 47 C-35.35537337 45.78650899 -34.71084108 44.57296787 -34.06640625 43.359375 C-27.31215539 30.87936148 -18.60505426 20.38880001 -9 10 C-7.31008187 8.12717914 -5.62252569 6.25222393 -3.9375 4.375 C-2.625 2.91666667 -1.3125 1.45833333 0 0 Z " fill="#A22427" transform="translate(57,48)"/>
<path d="M0 0 C0.89250458 0.00202423 1.78500916 0.00404846 2.70455933 0.00613403 C4.10688309 0.00350555 4.10688309 0.00350555 5.53753662 0.00082397 C8.6440107 -0.00359617 11.75042837 -0.00065598 14.85690308 0.00271606 C17.00542207 0.00204307 19.15394099 0.00107309 21.30245972 -0.00018311 C25.81182579 -0.0016603 30.3211721 0.00049517 34.83053589 0.00515747 C40.62488885 0.01085477 46.41919549 0.00757588 52.21354675 0.00158501 C56.65203198 -0.00202002 61.09050614 -0.00088229 65.5289917 0.0017128 C67.66613775 0.00238223 69.80328479 0.00155309 71.94042969 -0.00076675 C74.92172934 -0.00329233 77.90295288 0.00054597 80.88424683 0.00613403 C81.7767514 0.0041098 82.66925598 0.00208557 83.58880615 0 C89.68014075 0.02126624 89.68014075 0.02126624 90.79440308 1.13552856 C90.89269107 2.7907868 90.92072284 4.45025529 90.92138672 6.10842896 C90.92561646 7.72384079 90.92561646 7.72384079 90.92993164 9.37188721 C90.92689529 11.15947952 90.92689529 11.15947952 90.92379761 12.98318481 C90.92642609 14.85367996 90.92642609 14.85367996 90.92910767 16.76196289 C90.93276597 20.19163461 90.93189268 23.62124635 90.92872858 27.05091476 C90.92620469 30.63258701 90.9285426 34.21425661 90.93011475 37.79592896 C90.93193636 43.8118028 90.92953036 49.82766439 90.92477417 55.84353638 C90.91933156 62.80825184 90.92109423 69.77293803 90.92660058 76.73765278 C90.93113195 82.70706846 90.93178214 88.6764753 90.92916191 94.64589214 C90.92759927 98.21569486 90.92740501 101.7854838 90.93069839 105.35528564 C90.93411132 109.3328262 90.92938697 113.31033371 90.92379761 117.28787231 C90.92582184 118.47960052 90.92784607 119.67132874 90.92993164 120.89916992 C90.92711182 121.97611115 90.92429199 123.05305237 90.92138672 124.16262817 C90.92082118 125.57517128 90.92082118 125.57517128 90.92024422 127.01625061 C90.79440308 129.13552856 90.79440308 129.13552856 89.79440308 130.13552856 C86.81678938 130.23614127 83.8623314 130.27167749 80.88424683 130.2649231 C79.48192307 130.26755157 79.48192307 130.26755157 78.05126953 130.27023315 C74.94479545 130.2746533 71.83837779 130.27171311 68.73190308 130.26834106 C66.58338408 130.26901406 64.43486517 130.26998404 62.28634644 130.27124023 C57.77698036 130.27271743 53.26763405 130.27056196 48.75827026 130.26589966 C42.9639173 130.26020236 37.16961066 130.26348125 31.3752594 130.26947212 C26.93677417 130.27307715 22.49830001 130.27193942 18.05981445 130.26934433 C15.9226684 130.2686749 13.78552136 130.26950404 11.64837646 130.27182388 C8.66707681 130.27434946 5.68585328 130.27051116 2.70455933 130.2649231 C1.36580246 130.26795944 1.36580246 130.26795944 0 130.27105713 C-6.0913346 130.24979089 -6.0913346 130.24979089 -7.20559692 129.13552856 C-7.31498869 127.2562872 -7.36146478 125.37331454 -7.38137817 123.49099731 C-7.40522583 122.33921997 -7.42907349 121.18744263 -7.4536438 120.00076294 C-7.49640412 117.56083334 -7.52776732 115.12067578 -7.5473938 112.68045044 C-7.57510864 111.52480591 -7.60282349 110.36916138 -7.63137817 109.17849731 C-7.64596069 108.11655151 -7.66054321 107.05460571 -7.67556763 105.96047974 C-8.32849744 102.48049313 -9.41054253 101.25206294 -12.20559692 99.13552856 C-14.88535288 99.12098904 -14.88535288 99.12098904 -17.20559692 100.13552856 C-18.787905 103.30014472 -18.44717505 106.72632223 -18.52200317 110.20584106 C-18.54278427 111.00206879 -18.56356537 111.79829651 -18.5849762 112.61865234 C-18.65043841 115.16585542 -18.70934108 117.71316282 -18.76809692 120.26052856 C-18.81128532 121.98579983 -18.85489971 123.7110605 -18.8989563 125.43630981 C-19.00611637 129.66927541 -19.10739315 133.90234609 -19.20559692 138.13552856 C-19.53559692 138.13552856 -19.86559692 138.13552856 -20.20559692 138.13552856 C-20.23033674 132.93940578 -20.24847585 127.74331739 -20.26052856 122.54714966 C-20.26555379 120.77989098 -20.27237502 119.01263645 -20.28103638 117.24539185 C-20.2931812 114.70355199 -20.29884338 112.16176717 -20.30325317 109.61990356 C-20.30841446 108.83121887 -20.31357574 108.04253418 -20.31889343 107.22994995 C-20.31925451 103.69016453 -20.1595558 100.54052062 -19.20559692 97.13552856 C-18.56622192 97.03240356 -17.92684692 96.92927856 -17.26809692 96.82302856 C-16.58747192 96.59615356 -15.90684692 96.36927856 -15.20559692 96.13552856 C-14.87559692 95.14552856 -14.54559692 94.15552856 -14.20559692 93.13552856 C-11.23559692 93.46552856 -8.26559692 93.79552856 -5.20559692 94.13552856 C-4.87559692 95.45552856 -4.54559692 96.77552856 -4.20559692 98.13552856 C-5.19559692 97.80552856 -6.18559692 97.47552856 -7.20559692 97.13552856 C-6.54559692 98.45552856 -5.88559692 99.77552856 -5.20559692 101.13552856 C-5.20559692 110.04552856 -5.20559692 118.95552856 -5.20559692 128.13552856 C25.48440308 128.13552856 56.17440308 128.13552856 87.79440308 128.13552856 C88.12440308 86.55552856 88.45440308 44.97552856 88.79440308 2.13552856 C57.77440308 2.13552856 26.75440308 2.13552856 -5.20559692 2.13552856 C-5.20559692 11.37552856 -5.20559692 20.61552856 -5.20559692 30.13552856 C-6.19559692 30.79552856 -7.18559692 31.45552856 -8.20559692 32.13552856 C-8.08762675 27.73876869 -7.96339966 23.34224457 -7.83328247 18.9458313 C-7.78987879 17.44913587 -7.74820779 15.95238918 -7.70828247 14.45559692 C-7.65071076 12.30838544 -7.58697977 10.16143335 -7.52200317 8.01443481 C-7.48534546 6.72094116 -7.44868774 5.42744751 -7.41091919 4.09475708 C-7.04569423 -1.16908559 -4.71887457 0.01647467 0 0 Z " fill="#C52E32" transform="translate(169.20559692382813,114.86447143554688)"/>
<path d="M0 0 C0.99 0 1.98 0 3 0 C4.66480391 3.64789782 5.24954728 6.48280519 5.24723816 10.48274231 C5.25143265 11.57189438 5.25562714 12.66104645 5.25994873 13.78320312 C5.25151947 15.56078003 5.25151947 15.56078003 5.24291992 17.37426758 C5.24481827 18.63011154 5.24671661 19.88595551 5.24867249 21.17985535 C5.25351133 24.61805194 5.24587587 28.05611832 5.23571944 31.49429917 C5.22691617 35.09936254 5.22869687 38.70442209 5.2290802 42.30949402 C5.22814414 48.36626351 5.21947028 54.42298286 5.20581055 60.47973633 C5.19010696 67.46825641 5.18481178 74.45672151 5.1855461 81.44525796 C5.1862235 88.9003169 5.1792691 96.35535483 5.1700995 103.8104074 C5.16797496 105.95077772 5.16725923 108.09114461 5.16686058 110.23151588 C5.1656624 114.23355284 5.15592201 118.23552589 5.14526367 122.23754883 C5.14571686 123.4165274 5.14617004 124.59550598 5.14663696 125.81021118 C5.12400284 131.63519825 4.88300601 137.24002771 4 143 C4.99 143.33 5.98 143.66 7 144 C6.01 146.31 5.02 148.62 4 151 C3.34 150.01 2.68 149.02 2 148 C1.01 149.98 1.01 149.98 0 152 C-0.66 151.67 -1.32 151.34 -2 151 C-1.6749605 150.4650227 -1.349921 149.93004539 -1.01503181 149.37885666 C0.24986506 146.41440933 0.24600859 144.16103155 0.24050903 140.93829346 C0.24325836 139.69591415 0.24600769 138.45353485 0.24884033 137.17350769 C0.24176253 135.7995901 0.23449292 134.42567348 0.22705078 133.05175781 C0.22648655 131.60291044 0.22680346 130.15406249 0.22793579 128.70521545 C0.22850983 124.77370943 0.21674721 120.84232534 0.20278788 116.91084766 C0.1902891 112.80155365 0.18911069 108.69225687 0.18673706 104.58294678 C0.18051978 96.802165 0.16410561 89.0214394 0.14403808 81.24068236 C0.12168679 72.38224125 0.11068759 63.52379747 0.10064721 54.66533518 C0.0797396 36.44352493 0.0445588 18.22176698 0 0 Z " fill="#EB4E53" transform="translate(271,105)"/>
<path d="M0 0 C0.66 0.33 1.32 0.66 2 1 C2 6.28 2 11.56 2 17 C1.67 17 1.34 17 1 17 C0.67 14.69 0.34 12.38 0 10 C-0.33 16.6 -0.66 23.2 -1 30 C16.82 30 34.64 30 53 30 C53.495 31.485 53.495 31.485 54 33 C46.20355403 32.9079047 38.40742473 32.80062262 30.61132812 32.68261719 C27.95740542 32.64425819 25.30342949 32.60941774 22.64941406 32.578125 C18.8416029 32.53262464 15.03416042 32.47460551 11.2265625 32.4140625 C10.03382721 32.40251129 8.84109192 32.39096008 7.61221313 32.37905884 C6.51122284 32.35918915 5.41023254 32.33931946 4.27587891 32.31884766 C3.30325104 32.30552399 2.33062317 32.29220032 1.32852173 32.2784729 C-1 32 -1 32 -3 30 C-3.28710938 27.92456055 -3.28710938 27.92456055 -3.34375 25.38671875 C-3.37339844 24.46826172 -3.40304688 23.54980469 -3.43359375 22.60351562 C-3.45550781 21.64123047 -3.47742188 20.67894531 -3.5 19.6875 C-3.49260741 11.58636361 -3.49260741 11.58636361 -6 4 C-8.31 4.33 -10.62 4.66 -13 5 C-13 4.34 -13 3.68 -13 3 C-9.10435434 1.10782925 -7.15794989 1.12464213 -3 2 C-2.01 1.34 -1.02 0.68 0 0 Z " fill="#C9595C" transform="translate(146,127)"/>
<path d="M0 0 C-0.165 0.598125 -0.33 1.19625 -0.5 1.8125 C-1.1114124 4.11344336 -1.1114124 4.11344336 -1 7 C-5.90797465 22.20460188 -23.2206343 38.59455688 -35 49 C-36.485 49.495 -36.485 49.495 -38 50 C-37.85769192 48.58297487 -37.71099254 47.1663904 -37.5625 45.75 C-37.48128906 44.96109375 -37.40007812 44.1721875 -37.31640625 43.359375 C-37 41 -37 41 -36 37 C-32.7 37.33 -29.4 37.66 -26 38 C-25.62875 36.6078125 -25.62875 36.6078125 -25.25 35.1875 C-23.93025251 31.82214391 -23.09484051 30.74084779 -20 29 C-19.34 29 -18.68 29 -18 29 C-17.67 27.68 -17.34 26.36 -17 25 C-16.34 25 -15.68 25 -15 25 C-15 24.34 -15 23.68 -15 23 C-14.34 23 -13.68 23 -13 23 C-12.896875 22.360625 -12.79375 21.72125 -12.6875 21.0625 C-12.460625 20.381875 -12.23375 19.70125 -12 19 C-11.01 18.67 -10.02 18.34 -9 18 C-8.86722656 17.03578125 -8.73445313 16.0715625 -8.59765625 15.078125 C-8.42105469 13.81484375 -8.24445313 12.5515625 -8.0625 11.25 C-7.88847656 9.99703125 -7.71445312 8.7440625 -7.53515625 7.453125 C-6.68671393 1.97850446 -6.68671393 1.97850446 -6 0 C-3.50907189 -1.24546405 -2.58919267 -0.7767578 0 0 Z " fill="#E32D34" transform="translate(335,267)"/>
<path d="M0 0 C1.34111343 0.00539291 1.34111343 0.00539291 2.70932007 0.01089478 C3.64580887 0.01074875 4.58229767 0.01060272 5.54716492 0.01045227 C8.65845007 0.01115179 11.76967617 0.01894602 14.88095093 0.02676392 C17.0318651 0.02862796 19.18277971 0.03005192 21.33369446 0.03105164 C27.00711225 0.03487792 32.68050463 0.04470914 38.35391235 0.05575562 C44.13831234 0.06596736 49.92271641 0.07054875 55.7071228 0.07559204 C67.06585796 0.08633131 78.42457421 0.10340906 89.78329468 0.12442017 C89.78329468 0.45442017 89.78329468 0.78442017 89.78329468 1.12442017 C80.70006845 1.29704282 71.61673415 1.4634316 62.53329468 1.62442017 C61.52838297 1.64223604 61.52838297 1.64223604 60.50317001 1.66041183 C38.59522273 2.046826 16.69475522 2.27123441 -5.21670532 2.12442017 C-5.20099487 2.96214966 -5.18528442 3.79987915 -5.1690979 4.66299438 C-5.11800525 7.76778894 -5.08037298 10.87236948 -5.0519104 13.97744751 C-5.02938281 15.98361391 -4.99126962 17.98958543 -4.95303345 19.99551392 C-4.94336548 21.25234985 -4.93369751 22.50918579 -4.92373657 23.80410767 C-4.90802612 24.96668091 -4.89231567 26.12925415 -4.87612915 27.32705688 C-4.98851929 28.25018677 -5.10090942 29.17331665 -5.21670532 30.12442017 C-6.20670532 30.78442017 -7.19670532 31.44442017 -8.21670532 32.12442017 C-8.09873515 27.72766029 -7.97450806 23.33113618 -7.84439087 18.9347229 C-7.80098719 17.43802747 -7.75931619 15.94128078 -7.71939087 14.44448853 C-7.66181916 12.29727704 -7.59808816 10.15032495 -7.53311157 8.00332642 C-7.49645386 6.70983276 -7.45979614 5.41633911 -7.42202759 4.08364868 C-7.05637094 -1.18641574 -4.72154652 0.0080216 0 0 Z " fill="#C64A4C" transform="translate(169.21670532226563,114.87557983398438)"/>
<path d="M0 0 C0.33 0 0.66 0 1 0 C1 3.96 1 7.92 1 12 C0.34 12 -0.32 12 -1 12 C-2.11811318 18.27940351 -3.14608293 24.35647983 -2.9375 30.75 C-2.84768386 35.19589918 -3.60008498 38.51634291 -5.13671875 42.66015625 C-9.17355426 53.60162444 -9.65028187 64.47136082 -10 76 C-10.33 76 -10.66 76 -11 76 C-11.49641885 49.37667511 -8.40060998 25.27068741 0 0 Z " fill="#A32F31" transform="translate(11,116)"/>
<path d="M0 0 C17.82 0 35.64 0 54 0 C54 0.66 54 1.32 54 2 C48.34588952 3.23657644 42.8786085 3.03469602 37.1328125 2.87890625 C36.09808807 2.85529526 35.06336365 2.83168427 33.99728394 2.80735779 C30.70637161 2.7310479 27.41571423 2.64688345 24.125 2.5625 C21.88803313 2.50924659 19.65105398 2.45650644 17.4140625 2.40429688 C11.94254821 2.2754771 6.47124906 2.13961468 1 2 C1 5.96 1 9.92 1 14 C2.32 14 3.64 14 5 14 C5 25.22 5 36.44 5 48 C4.67 48 4.34 48 4 48 C3.67 39.42 3.34 30.84 3 22 C2.34 22.66 1.68 23.32 1 24 C-2.58081307 16.83837387 0 8.00694143 0 0 Z " fill="#BE1B22" transform="translate(144,202)"/>
<path d="M0 0 C4.02784682 1.65394676 6.97232018 4.46011355 10.125 7.375 C10.66253906 7.85710938 11.20007813 8.33921875 11.75390625 8.8359375 C14.46485535 11.32379104 16.78542439 13.47623125 18 17 C18 17.99 18 18.98 18 20 C17.34 20 16.68 20 16 20 C15.67 20.66 15.34 21.32 15 22 C13.02 21.67 11.04 21.34 9 21 C9 18.03 9 15.06 9 12 C8.01 12.66 7.02 13.32 6 14 C3.8125 13.625 3.8125 13.625 2 13 C1.375 11.125 1.375 11.125 1 9 C1.66 8.34 2.32 7.68 3 7 C1.02 5.35 -0.96 3.7 -3 2 C-2.01 1.34 -1.02 0.68 0 0 Z " fill="#E41A21" transform="translate(295,42)"/>
<path d="M0 0 C0.99 0 1.98 0 3 0 C3.33 0.99 3.66 1.98 4 3 C4.33 2.34 4.66 1.68 5 1 C5.2475 1.53625 5.495 2.0725 5.75 2.625 C7.29696975 5.56424252 9.13014369 8.25754408 11 11 C11.66 10.34 12.32 9.68 13 9 C14.32 9 15.64 9 17 9 C16.67 11.97 16.34 14.94 16 18 C16.99 18 17.98 18 19 18 C19 18.99 19 19.98 19 21 C19.99 21 20.98 21 22 21 C22.268125 21.61875 22.53625 22.2375 22.8125 22.875 C23.95556848 25.2995233 23.95556848 25.2995233 27 27 C28.09568361 28.17832641 29.15742446 29.38890936 30.1875 30.625 C30.71730469 31.25664062 31.24710938 31.88828125 31.79296875 32.5390625 C32.19128906 33.02117187 32.58960938 33.50328125 33 34 C31.21459961 34.67529297 31.21459961 34.67529297 29 35 C27.28344727 33.91455078 27.28344727 33.91455078 25.56640625 32.1953125 C24.92316406 31.55674316 24.27992187 30.91817383 23.6171875 30.26025391 C22.93914063 29.55562012 22.26109375 28.85098633 21.5625 28.125 C20.86253906 27.41134277 20.16257812 26.69768555 19.44140625 25.96240234 C0 5.73294996 0 5.73294996 0 0 Z " fill="#B14144" transform="translate(31,281)"/>
<path d="M0 0 C0.33 0 0.66 0 1 0 C1.33 4.29 1.66 8.58 2 13 C6.64630565 14.91837183 6.64630565 14.91837183 11.18847656 15.21118164 C11.97990051 15.20780289 12.77132446 15.20442413 13.58673096 15.20094299 C14.42951599 15.18748337 15.27230103 15.17402374 16.140625 15.16015625 C17.02224304 15.15495468 17.90386108 15.14975311 18.81219482 15.14439392 C21.62496665 15.12663268 24.43736902 15.09550758 27.25 15.0625 C30.04831375 15.03472457 32.84656866 15.0099813 35.6449585 14.99131775 C37.38251549 14.97923299 39.12004694 14.96180676 40.85748291 14.93800354 C52.17757658 14.84605383 52.17757658 14.84605383 57 16 C58.50156874 19.00313748 58.09281204 21.79067522 58.0625 25.125 C58.05347656 26.40632813 58.04445312 27.68765625 58.03515625 29.0078125 C58.02355469 29.99523437 58.01195312 30.98265625 58 32 C57.01 32.495 57.01 32.495 56 33 C56 28.05 56 23.1 56 18 C54.48124268 17.97494385 52.96248535 17.9498877 51.39770508 17.92407227 C45.76008748 17.82986291 40.1225892 17.7296751 34.48510742 17.62768555 C32.0456827 17.58438791 29.60622868 17.54270917 27.16674805 17.50268555 C23.65925266 17.44485792 20.15190403 17.38119915 16.64453125 17.31640625 C15.55477493 17.29969376 14.46501862 17.28298126 13.34223938 17.26576233 C12.32155869 17.24581711 11.30087799 17.22587189 10.24926758 17.20532227 C9.35436111 17.18977798 8.45945465 17.1742337 7.53742981 17.15821838 C5 17 5 17 0 16 C0 10.72 0 5.44 0 0 Z " fill="#D8888A" transform="translate(131,155)"/>
<path d="M0 0 C0.33 0 0.66 0 1 0 C1.01981934 1.13542236 1.03963867 2.27084473 1.06005859 3.44067383 C1.13609684 7.65086144 1.22481686 11.86070263 1.31738281 16.07055664 C1.35567995 17.89307824 1.39053155 19.71567563 1.421875 21.53833008 C1.46750979 24.15733941 1.52550622 26.77582674 1.5859375 29.39453125 C1.59748871 30.21025101 1.60903992 31.02597076 1.62094116 31.8664093 C1.72197274 35.73364504 1.8077319 37.71159785 4 41 C5.96361864 41.57748803 5.96361864 41.57748803 8.125 41.6875 C9.40375 41.790625 10.6825 41.89375 12 42 C11.34 42.66 10.68 43.32 10 44 C7.27130593 43.96712417 4.7033382 43.43602229 2 43 C2 43.99 2 44.98 2 46 C1.01 46.495 1.01 46.495 0 47 C0 47.66 0 48.32 0 49 C5.94 48.505 5.94 48.505 12 48 C12 48.66 12 49.32 12 50 C13.32 50.33 14.64 50.66 16 51 C9.73 51 3.46 51 -3 51 C-3 44.4 -3 37.8 -3 31 C-2.34 30.67 -1.68 30.34 -1 30 C-0.67 20.1 -0.34 10.2 0 0 Z " fill="#B4161A" transform="translate(148,106)"/>
<path d="M0 0 C2.97 0.33 5.94 0.66 9 1 C9.33 2.32 9.66 3.64 10 5 C9.01 4.67 8.02 4.34 7 4 C7.33 4.33 7.66 4.66 8 5 C8.08790975 7.29151417 8.10694038 9.58572524 8.09765625 11.87890625 C8.0962413 12.5655687 8.09482635 13.25223114 8.09336853 13.95970154 C8.08775479 16.16067801 8.07520007 18.36155409 8.0625 20.5625 C8.05748676 22.05143083 8.05292355 23.54036324 8.04882812 25.02929688 C8.03778093 28.68623075 8.02050713 32.34310558 8 36 C7.67 36 7.34 36 7 36 C6.98598145 34.84999512 6.98598145 34.84999512 6.97167969 33.67675781 C6.91797227 30.20051897 6.83432424 26.72562526 6.75 23.25 C6.73582031 22.0434375 6.72164062 20.836875 6.70703125 19.59375 C6.67480469 18.43359375 6.64257812 17.2734375 6.609375 16.078125 C6.58842773 15.00981445 6.56748047 13.94150391 6.54589844 12.84082031 C5.87662356 9.35795698 4.80077458 8.12016453 2 6 C-0.67975596 5.98546047 -0.67975596 5.98546047 -3 7 C-4.58230808 10.16461615 -4.24157813 13.59079367 -4.31640625 17.0703125 C-4.33718735 17.86654022 -4.35796844 18.66276794 -4.37937927 19.48312378 C-4.44484149 22.03032685 -4.50374415 24.57763425 -4.5625 27.125 C-4.6056884 28.85027127 -4.64930279 30.57553193 -4.69335938 32.30078125 C-4.80051945 36.53374685 -4.90179623 40.76681753 -5 45 C-5.33 45 -5.66 45 -6 45 C-6.02473982 39.80387722 -6.04287892 34.60778882 -6.05493164 29.41162109 C-6.05995687 27.64436241 -6.06677809 25.87710788 -6.07543945 24.10986328 C-6.08758428 21.56802343 -6.09324645 19.0262386 -6.09765625 16.484375 C-6.10281754 15.69569031 -6.10797882 14.90700562 -6.11329651 14.09442139 C-6.11365758 10.55463597 -5.95395888 7.40499206 -5 4 C-4.0409375 3.8453125 -4.0409375 3.8453125 -3.0625 3.6875 C-2.381875 3.460625 -1.70125 3.23375 -1 3 C-0.67 2.01 -0.34 1.02 0 0 Z " fill="#D14045" transform="translate(155,208)"/>
<path d="M0 0 C3.625 0.375 3.625 0.375 7 1 C7 1.66 7 2.32 7 3 C7.66 3 8.32 3 9 3 C9 3.66 9 4.32 9 5 C9.66 5 10.32 5 11 5 C11.33 3.35 11.66 1.7 12 0 C12.66 0 13.32 0 14 0 C14.19448477 2.12437212 14.38038289 4.24953191 14.5625 6.375 C14.66691406 7.55835938 14.77132812 8.74171875 14.87890625 9.9609375 C15 13 15 13 14 15 C10.83145253 14.42308522 9.21773541 13.58353113 6.984375 11.27734375 C6.45585938 10.73916016 5.92734375 10.20097656 5.3828125 9.64648438 C4.84398438 9.08251953 4.30515625 8.51855469 3.75 7.9375 C3.19570312 7.36966797 2.64140625 6.80183594 2.0703125 6.21679688 C0.70665786 4.81787531 -0.64760417 3.40980886 -2 2 C-1.34 1.34 -0.68 0.68 0 0 Z " fill="#BA181C" transform="translate(117,191)"/>
<path d="M0 0 C15.51 0 31.02 0 47 0 C47 0.66 47 1.32 47 2 C46.15928955 1.99476318 45.3185791 1.98952637 44.45239258 1.98413086 C41.26717391 1.96686384 38.08197946 1.95444226 34.89672852 1.94506836 C33.53050948 1.94010727 32.16429556 1.93333628 30.7980957 1.92456055 C21.81133999 1.86837267 12.94846226 2.15299477 4 3 C4.33 5.97 4.66 8.94 5 12 C4.34 12 3.68 12 3 12 C2.67 12.99 2.34 13.98 2 15 C2 14.01 2 13.02 2 12 C1.34 12 0.68 12 0 12 C0 8.04 0 4.08 0 0 Z " fill="#D41D21" transform="translate(145,204)"/>
<path d="M0 0 C0.99 0.66 1.98 1.32 3 2 C2.01 3.1446875 2.01 3.1446875 1 4.3125 C-1.29850538 6.84277939 -1.29850538 6.84277939 -1 10 C-1.31088368 11.67099977 -1.64080332 13.33871537 -2 15 C-4.475 14.01 -4.475 14.01 -7 13 C-7 13.99 -7 14.98 -7 16 C-7.66 16 -8.32 16 -9 16 C-9 18.64 -9 21.28 -9 24 C-10.32 23.67 -11.64 23.34 -13 23 C-11.40951135 12.82087266 -7.08221466 7.24553617 0 0 Z " fill="#B11B1F" transform="translate(57,48)"/>
<path d="M0 0 C0.68191406 -0.01611328 1.36382812 -0.03222656 2.06640625 -0.04882812 C7.11230243 -0.05363374 10.60524327 1.0762235 15.125 3.3125 C14.795 4.9625 14.465 6.6125 14.125 8.3125 C12.805 7.6525 11.485 6.9925 10.125 6.3125 C10.125 5.9825 10.125 5.6525 10.125 5.3125 C1.215 4.9825 -7.695 4.6525 -16.875 4.3125 C-10.959888 1.354944 -6.64551206 -0.03105379 0 0 Z " fill="#E3191F" transform="translate(256.875,96.6875)"/>
<path d="M0 0 C1.32 0.33 2.64 0.66 4 1 C4 2.65 4 4.3 4 6 C4.99 6.33 5.98 6.66 7 7 C7.12375 7.804375 7.2475 8.60875 7.375 9.4375 C7.684375 10.7059375 7.684375 10.7059375 8 12 C8.66 12.33 9.32 12.66 10 13 C9.79375 13.721875 9.5875 14.44375 9.375 15.1875 C8.76505969 18.00575208 8.76505969 18.00575208 10 20.5 C11.18530161 23.46325404 10.86224222 24.98215223 10 28 C7.270712 25.270712 6.3137529 22.05304917 5 18.5 C4.7323584 17.78328125 4.4647168 17.0665625 4.18896484 16.328125 C2.23812764 10.9684438 0.78927614 5.66101505 0 0 Z " fill="#9E181C" transform="translate(6,226)"/>
<path d="M0 0 C0 5.28 0 10.56 0 16 C-2 14 -2 14 -2.1953125 11.8359375 C-2.17210937 11.02382812 -2.14890625 10.21171875 -2.125 9.375 C-2.10695312 8.55773437 -2.08890625 7.74046875 -2.0703125 6.8984375 C-2.04710937 6.27195313 -2.02390625 5.64546875 -2 5 C-2.70125 5.721875 -3.4025 6.44375 -4.125 7.1875 C-6.92221154 9.99263565 -9.95182409 12.47066255 -13 15 C-14.35099103 16.31543863 -15.69205669 17.64175118 -17 19 C-17.66 18.67 -18.32 18.34 -19 18 C-19 17.34 -19 16.68 -19 16 C-18.34 16 -17.68 16 -17 16 C-17 15.34 -17 14.68 -17 14 C-15.625 12.375 -15.625 12.375 -14 11 C-13.34 11 -12.68 11 -12 11 C-11.74089844 10.41734375 -11.48179688 9.8346875 -11.21484375 9.234375 C-9.91113752 6.83656162 -8.48254467 5.18243206 -6.5625 3.25 C-5.96566406 2.63640625 -5.36882812 2.0228125 -4.75390625 1.390625 C-3 0 -3 0 0 0 Z " fill="#B84447" transform="translate(131,154)"/>
<path d="M0 0 C0.66 0.33 1.32 0.66 2 1 C2 6.28 2 11.56 2 17 C1.67 17 1.34 17 1 17 C0.67 14.69 0.34 12.38 0 10 C-0.33 10 -0.66 10 -1 10 C-1.33 16.6 -1.66 23.2 -2 30 C-2.33 30 -2.66 30 -3 30 C-3.01981934 29.39003174 -3.03963867 28.78006348 -3.06005859 28.15161133 C-3.15567876 25.37149467 -3.26520705 22.59209154 -3.375 19.8125 C-3.4059375 18.85279297 -3.436875 17.89308594 -3.46875 16.90429688 C-3.50742188 15.97294922 -3.54609375 15.04160156 -3.5859375 14.08203125 C-3.6173584 13.22843018 -3.6487793 12.3748291 -3.68115234 11.49536133 C-4.03349578 8.73785578 -4.87071247 6.53000031 -6 4 C-8.31 4.33 -10.62 4.66 -13 5 C-13 4.34 -13 3.68 -13 3 C-9.10435434 1.10782925 -7.15794989 1.12464213 -3 2 C-2.01 1.34 -1.02 0.68 0 0 Z " fill="#D15256" transform="translate(146,127)"/>
<path d="M0 0 C1.65 0 3.3 0 5 0 C5.33 1.65 5.66 3.3 6 5 C6.66 5 7.32 5 8 5 C6.26017005 10.81261371 4.1889511 15.83169994 1 21 C0 19 0 19 0 16 C-0.33 15.01 -0.66 14.02 -1 13 C-0.34 13 0.32 13 1 13 C0.34 11.35 -0.32 9.7 -1 8 C-0.34 8 0.32 8 1 8 C0.67 5.36 0.34 2.72 0 0 Z " fill="#EB1A23" transform="translate(337,248)"/>
<path d="M0 0 C3.91939465 3.80411834 7.49102731 7.81576108 11 12 C10.67 12.66 10.34 13.32 10 14 C9.01 13.34 8.02 12.68 7 12 C4.75354124 11.58256635 4.75354124 11.58256635 2.375 11.4375 C-1.90158172 11.09841828 -1.90158172 11.09841828 -3 10 C-3.23529412 4.47058824 -3.23529412 4.47058824 -2 2 C-1.34 2 -0.68 2 0 2 C0 1.34 0 0.68 0 0 Z " fill="#E5272D" transform="translate(315,61)"/>
<path d="M0 0 C0.66 0.33 1.32 0.66 2 1 C2 2.65 2 4.3 2 6 C2.66 6 3.32 6 4 6 C4 6.66 4 7.32 4 8 C2.68 8 1.36 8 0 8 C-2.09844526 9.79866737 -2.90799973 11.18349758 -3.21875 13.94140625 C-3.26680874 17.20339347 -3.03401094 19.89796718 -2 23 C-2.66 23.66 -3.32 24.32 -4 25 C-4.99 24.67 -5.98 24.34 -7 24 C-6.74289451 15.79833493 -6.11499141 8.26723011 -2 1 C-1.34 0.67 -0.68 0.34 0 0 Z " fill="#A12E31" transform="translate(18,103)"/>
<path d="M0 0 C3.98647616 2.16408706 6.86428856 4.7939658 10 8 C11.40097176 9.4037144 12.80344854 10.80592755 14.20703125 12.20703125 C18.47135417 16.47135417 22.73567708 20.73567708 27 25 C26.67 25.66 26.34 26.32 26 27 C25.53625977 26.51007568 25.07251953 26.02015137 24.59472656 25.51538086 C22.49290474 23.30983345 20.37194275 21.12368842 18.25 18.9375 C17.52039063 18.16599609 16.79078125 17.39449219 16.0390625 16.59960938 C15.33007812 15.87451172 14.62109375 15.14941406 13.890625 14.40234375 C13.24125977 13.72679443 12.59189453 13.05124512 11.92285156 12.35522461 C10.09152536 10.72594882 10.09152536 10.72594882 7.86621094 11.36547852 C6.94243652 11.67956665 6.94243652 11.67956665 6 12 C4.25 10.75 4.25 10.75 3 9 C3 8.01 3 7.02 3 6 C2.505 5.505 2.01 5.01 1.5 4.5 C1.005 4.005 0.51 3.51 0 3 C0 2.01 0 1.02 0 0 Z " fill="#D9787A" transform="translate(101,196)"/>
<path d="M0 0 C0.33 0 0.66 0 1 0 C1 3.96 1 7.92 1 12 C0.34 12 -0.32 12 -1 12 C-1.18175781 13.06927734 -1.18175781 13.06927734 -1.3671875 14.16015625 C-3.33154424 25.38721055 -3.33154424 25.38721055 -5 30 C-5.99 30.66 -6.98 31.32 -8 32 C-7.45155523 24.59213333 -5.68770898 18.00003708 -3.4375 10.9375 C-2.9434668 9.35291992 -2.9434668 9.35291992 -2.43945312 7.73632812 C-1.6335717 5.15517166 -0.82030684 2.57660074 0 0 Z " fill="#941F23" transform="translate(11,116)"/>
<path d="M0 0 C3.23861303 1.44424635 5.61969163 3.25772247 8.25 5.625 C8.95640625 6.25664063 9.6628125 6.88828125 10.390625 7.5390625 C10.92171875 8.02117188 11.4528125 8.50328125 12 9 C11.01 9 10.02 9 9 9 C8.67 9.33 8.34 9.66 8 10 C8.66 10.66 9.32 11.32 10 12 C7.64561267 13.42944945 6.51967567 14.08661261 3.75 13.625 C3.1725 13.41875 2.595 13.2125 2 13 C1.375 11.125 1.375 11.125 1 9 C1.66 8.34 2.32 7.68 3 7 C1.02 5.35 -0.96 3.7 -3 2 C-2.01 1.34 -1.02 0.68 0 0 Z " fill="#E83139" transform="translate(295,42)"/>
<path d="M0 0 C0.33 0.66 0.66 1.32 1 2 C1.66 2 2.32 2 3 2 C2.5359375 2.8353125 2.5359375 2.8353125 2.0625 3.6875 C-0.90481687 10.1457779 -0.33044651 16.64854626 1.125 23.4375 C2.15793169 28.63085098 1.69272162 32.01587523 0 37 C-2.31465281 33.52802079 -2.25699485 32.1437291 -2.265625 28.046875 C-2.26820312 26.86996094 -2.27078125 25.69304687 -2.2734375 24.48046875 C-2.26570312 23.24941406 -2.25796875 22.01835937 -2.25 20.75 C-2.25773438 19.53441406 -2.26546875 18.31882813 -2.2734375 17.06640625 C-2.26023011 11.01081848 -2.12462107 5.69938032 0 0 Z " fill="#93181B" transform="translate(3,166)"/>
<path d="M0 0 C0.99 0.33 1.98 0.66 3 1 C-4.02882 8.497408 -12.36279229 14.49221537 -21 20 C-21.66 19.67 -22.32 19.34 -23 19 C-22.01 17.515 -22.01 17.515 -21 16 C-20.01 16 -19.02 16 -18 16 C-17.67 15.01 -17.34 14.02 -17 13 C-15.68 13 -14.36 13 -13 13 C-13.33 12.01 -13.66 11.02 -14 10 C-13.34 9.67 -12.68 9.34 -12 9 C-12 8.34 -12 7.68 -12 7 C-11.01 7.33 -10.02 7.66 -9 8 C-8.34 7.67 -7.68 7.34 -7 7 C-7 6.01 -7 5.02 -7 4 C-6.1028125 3.8453125 -6.1028125 3.8453125 -5.1875 3.6875 C-2.71756736 2.91123545 -1.67748765 1.92911079 0 0 Z " fill="#D8474B" transform="translate(294,316)"/>
<path d="M0 0 C2.31 0 4.62 0 7 0 C5.515 1.98 5.515 1.98 4 4 C4.99 4.33 5.98 4.66 7 5 C6.67 5.99 6.34 6.98 6 8 C6.66 8 7.32 8 8 8 C8 8.66 8 9.32 8 10 C9.98 9.34 11.96 8.68 14 8 C16 10 16 10 16.125 13.625 C16.08375 14.73875 16.0425 15.8525 16 17 C11.73878485 16.52653165 9.81626862 14.03860562 7 11 C6.34 10.34 5.68 9.68 5 9 C5 8.01 5 7.02 5 6 C4.01 6 3.02 6 2 6 C2 5.01 2 4.02 2 3 C1.01 3 0.02 3 -1 3 C-0.67 2.01 -0.34 1.02 0 0 Z " fill="#B41A1E" transform="translate(48,296)"/>
<path d="M0 0 C1.485 0.99 1.485 0.99 3 2 C3.99 1.67 4.98 1.34 6 1 C6 1.99 6 2.98 6 4 C6.99 4 7.98 4 9 4 C9.268125 4.61875 9.53625 5.2375 9.8125 5.875 C10.95556848 8.2995233 10.95556848 8.2995233 14 10 C15.09568361 11.17832641 16.15742446 12.38890936 17.1875 13.625 C17.71730469 14.25664062 18.24710938 14.88828125 18.79296875 15.5390625 C19.19128906 16.02117187 19.58960937 16.50328125 20 17 C18.24316406 17.70825195 18.24316406 17.70825195 16 18 C14.07714844 16.67651367 14.07714844 16.67651367 12.109375 14.66796875 C11.40039062 13.95189453 10.69140625 13.23582031 9.9609375 12.49804688 C9.23132812 11.73556641 8.50171875 10.97308594 7.75 10.1875 C7.00492188 9.43662109 6.25984375 8.68574219 5.4921875 7.91210938 C0 2.29418498 0 2.29418498 0 0 Z " fill="#BC595B" transform="translate(44,298)"/>
<path d="M0 0 C0.33 0 0.66 0 1 0 C1 3.96 1 7.92 1 12 C2.32 12 3.64 12 5 12 C5 23.22 5 34.44 5 46 C4.67 46 4.34 46 4 46 C3.67 37.42 3.34 28.84 3 20 C2.34 20.66 1.68 21.32 1 22 C-0.20029908 19.59940183 -0.11459743 18.10639351 -0.09765625 15.4296875 C-0.09443359 14.53378906 -0.09121094 13.63789063 -0.08789062 12.71484375 C-0.07951172 11.77769531 -0.07113281 10.84054688 -0.0625 9.875 C-0.05798828 8.93011719 -0.05347656 7.98523438 -0.04882812 7.01171875 C-0.03702357 4.67441613 -0.02055759 2.33723939 0 0 Z " fill="#A81316" transform="translate(144,204)"/>
<path d="M0 0 C0.598125 0.20625 1.19625 0.4125 1.8125 0.625 C1.6475 1.223125 1.4825 1.82125 1.3125 2.4375 C0.7010876 4.73844336 0.7010876 4.73844336 0.8125 7.625 C-0.42264246 11.63921299 -2.18540678 13.75104491 -5.1875 16.625 C-5.26826963 14.16601345 -5.32787143 11.70966258 -5.375 9.25 C-5.40013672 8.55132812 -5.42527344 7.85265625 -5.45117188 7.1328125 C-5.48046875 5.1015625 -5.48046875 5.1015625 -5.1875 1.625 C-2.1875 -0.375 -2.1875 -0.375 0 0 Z " fill="#E83138" transform="translate(333.1875,266.375)"/>
<path d="M0 0 C-0.14154136 2.56280208 -0.28808562 5.12515485 -0.4375 7.6875 C-0.49647461 8.7693457 -0.49647461 8.7693457 -0.55664062 9.87304688 C-0.78185678 13.66707282 -1.12839305 17.28651492 -2 21 C-2.99 19.68 -3.98 18.36 -5 17 C-5.66 17.33 -6.32 17.66 -7 18 C-6.85831863 16.56208484 -6.71148957 15.1246763 -6.5625 13.6875 C-6.48128906 12.88699219 -6.40007812 12.08648437 -6.31640625 11.26171875 C-6 9 -6 9 -5 6 C-4.34 6 -3.68 6 -3 6 C-3 4.35 -3 2.7 -3 1 C-1 0 -1 0 0 0 Z " fill="#E52C34" transform="translate(360,192)"/>
<path d="M0 0 C0 0.66 0 1.32 0 2 C-0.99 2.495 -0.99 2.495 -2 3 C-2.33 3.99 -2.66 4.98 -3 6 C-6.44444444 9 -6.44444444 9 -9 9 C-9.144375 9.61875 -9.28875 10.2375 -9.4375 10.875 C-10 13 -10 13 -11 15 C-11.99 15 -12.98 15 -14 15 C-14.625 11.625 -14.625 11.625 -15 8 C-13 6 -13 6 -9.375 5.875 C-7.704375 5.936875 -7.704375 5.936875 -6 6 C-6 4.35 -6 2.7 -6 1 C-4 0 -4 0 0 0 Z " fill="#EB1B22" transform="translate(320,290)"/>
<path d="M0 0 C0.81984375 0.42152344 1.6396875 0.84304687 2.484375 1.27734375 C3.56203125 1.82519531 4.6396875 2.37304688 5.75 2.9375 C6.81734375 3.48277344 7.8846875 4.02804688 8.984375 4.58984375 C11.38445885 5.71216275 13.41856752 6.50501659 16 7 C16 7.66 16 8.32 16 9 C17.65 9.66 19.3 10.32 21 11 C21 11.66 21 12.32 21 13 C18.61435923 12.42415568 16.33317216 11.77772405 14 11 C12.33378384 10.96125079 10.66605828 10.9549714 9 11 C8.67 9.02 8.34 7.04 8 5 C7.05125 5.04125 6.1025 5.0825 5.125 5.125 C2 5 2 5 0 3 C0 2.01 0 1.02 0 0 Z " fill="#E61B23" transform="translate(256,19)"/>
<path d="M0 0 C0.8125 1.609375 0.8125 1.609375 1 4 C-0.59091589 6.2779023 -2.14279049 8.2108912 -4 10.25 C-4.50313721 10.82194092 -5.00627441 11.39388184 -5.5246582 11.9831543 C-6.53538417 13.13002349 -7.55136777 14.27228225 -8.57275391 15.40966797 C-10.46901317 17.52260551 -12.32697384 19.66809975 -14.1875 21.8125 C-15.12383903 22.87602326 -16.06080493 23.93899806 -17 25 C-18 22 -18 22 -17.3125 20 C-15.8051337 17.70306088 -14.32222861 16.45139288 -12 15 C-11.34 15 -10.68 15 -10 15 C-9.67 13.68 -9.34 12.36 -9 11 C-8.34 11 -7.68 11 -7 11 C-7 10.34 -7 9.68 -7 9 C-6.34 9 -5.68 9 -5 9 C-4.896875 8.360625 -4.79375 7.72125 -4.6875 7.0625 C-4.460625 6.381875 -4.23375 5.70125 -4 5 C-3.01 4.67 -2.02 4.34 -1 4 C-0.26676204 1.98491642 -0.26676204 1.98491642 0 0 Z " fill="#D9424B" transform="translate(327,281)"/>
<path d="M0 0 C0 0.66 0 1.32 0 2 C-0.99 2.495 -0.99 2.495 -2 3 C-1.01 4.32 -0.02 5.64 1 7 C-0.95825873 7.02694851 -2.91662226 7.04637218 -4.875 7.0625 C-5.96554688 7.07410156 -7.05609375 7.08570313 -8.1796875 7.09765625 C-11 7 -11 7 -13 6 C-13 5.01 -13 4.02 -13 3 C-11.5903653 2.29819469 -10.17192359 1.61406042 -8.75 0.9375 C-7.96109375 0.55464844 -7.1721875 0.17179687 -6.359375 -0.22265625 C-3.74006478 -1.08564091 -2.55144824 -0.93045933 0 0 Z M-3 7 C-1 8 -1 8 -1 8 Z " fill="#B71C23" transform="translate(111,16)"/>
<path d="M0 0 C2.375 0.3125 2.375 0.3125 5 1 C5.66 1.99 6.32 2.98 7 4 C5.68 4.33 4.36 4.66 3 5 C3 4.34 3 3.68 3 3 C2.34 3 1.68 3 1 3 C1.33 3.99 1.66 4.98 2 6 C1.01 6.495 1.01 6.495 0 7 C0 7.66 0 8.32 0 9 C-0.639375 9.12375 -1.27875 9.2475 -1.9375 9.375 C-2.618125 9.58125 -3.29875 9.7875 -4 10 C-4.33 10.66 -4.66 11.32 -5 12 C-7.9375 13.6875 -7.9375 13.6875 -11 15 C-11.66 14.67 -12.32 14.34 -13 14 C-12.02973714 11.57685649 -11.4624197 10.26508136 -9.16015625 8.9453125 C-8.46792969 8.67460937 -7.77570313 8.40390625 -7.0625 8.125 C-3.68110956 6.59079381 -3.06348195 6.10315818 -1 2.75 C-0.67 1.8425 -0.34 0.935 0 0 Z " fill="#E51922" transform="translate(281,320)"/>
<path d="M0 0 C0.33 0 0.66 0 1 0 C0.67 3.63 0.34 7.26 0 11 C-0.33 11 -0.66 11 -1 11 C-1.33 12.65 -1.66 14.3 -2 16 C-2.66 16 -3.32 16 -4 16 C-4.33 17.65 -4.66 19.3 -5 21 C-5.33 21 -5.66 21 -6 21 C-6.14952346 17.26191361 -6.15098773 14.41941037 -4.875 10.875 C-3.82656877 7.43015454 -4.34878445 6.11896271 -6 3 C-5.195625 2.87625 -4.39125 2.7525 -3.5625 2.625 C-2.716875 2.41875 -1.87125 2.2125 -1 2 C-0.67 1.34 -0.34 0.68 0 0 Z " fill="#EA1820" transform="translate(350,229)"/>
<path d="M0 0 C0.66 0.33 1.32 0.66 2 1 C1.01 2.485 1.01 2.485 0 4 C-0.66 4 -1.32 4 -2 4 C-2.33 5.65 -2.66 7.3 -3 9 C-7.75 10 -7.75 10 -10 10 C-10.33 11.32 -10.66 12.64 -11 14 C-11 13.34 -11 12.68 -11 12 C-11.78375 12.515625 -12.5675 13.03125 -13.375 13.5625 C-14.24125 14.036875 -15.1075 14.51125 -16 15 C-16.66 14.67 -17.32 14.34 -18 14 C-12.13142165 9.12897384 -6.28303486 4.32831291 0 0 Z " fill="#AD2E31" transform="translate(81,29)"/>
<path d="M0 0 C1.258125 -0.04125 2.51625 -0.0825 3.8125 -0.125 C4.52019531 -0.14820313 5.22789062 -0.17140625 5.95703125 -0.1953125 C8 0 8 0 11 2 C10.67 2.66 10.34 3.32 10 4 C9.01 3.34 8.02 2.68 7 2 C4.38084878 2.15701426 4.38084878 2.15701426 2 3 C0.41769192 6.16461615 0.75842187 9.59079367 0.68359375 13.0703125 C0.66281265 13.86654022 0.64203156 14.66276794 0.62062073 15.48312378 C0.55515851 18.03032685 0.49625585 20.57763425 0.4375 23.125 C0.3943116 24.85027127 0.35069721 26.57553193 0.30664062 28.30078125 C0.19948055 32.53374685 0.09820377 36.76681753 0 41 C-0.33 41 -0.66 41 -1 41 C-1.02473982 35.80387722 -1.04287892 30.60778882 -1.05493164 25.41162109 C-1.05995687 23.64436241 -1.06677809 21.87710788 -1.07543945 20.10986328 C-1.08758428 17.56802343 -1.09324645 15.0262386 -1.09765625 12.484375 C-1.10281754 11.69569031 -1.10797882 10.90700562 -1.11329651 10.09442139 C-1.11365758 6.55463597 -0.95395888 3.40499206 0 0 Z " fill="#FCAEB0" transform="translate(150,212)"/>
<path d="M0 0 C5.61 0 11.22 0 17 0 C17 0.33 17 0.66 17 1 C10.565 1.495 10.565 1.495 4 2 C4.33 4.97 4.66 7.94 5 11 C4.34 11 3.68 11 3 11 C2.67 11.99 2.34 12.98 2 14 C2 13.01 2 12.02 2 11 C1.34 11 0.68 11 0 11 C0 7.37 0 3.74 0 0 Z " fill="#CA161B" transform="translate(145,205)"/>
<path d="M0 0 C5.17935061 1.46828943 9.34373412 3.81491263 13.875 6.625 C14.90753906 7.25535156 14.90753906 7.25535156 15.9609375 7.8984375 C17.64391658 8.92692472 19.32242532 9.962721 21 11 C17.28125 12.1171875 17.28125 12.1171875 14.75 11.0625 C14.1725 10.711875 13.595 10.36125 13 10 C13 9.34 13 8.68 13 8 C12.34 7.9175 11.68 7.835 11 7.75 C7.00960837 6.75240209 3.61450357 4.92833317 0 3 C0 2.01 0 1.02 0 0 Z " fill="#D85359" transform="translate(259,18)"/>
<path d="M0 0 C0 0.99 0 1.98 0 3 C-2.09836004 4.03271642 -4.20390891 5.05083717 -6.3125 6.0625 C-7.48425781 6.63097656 -8.65601563 7.19945312 -9.86328125 7.78515625 C-13 9 -13 9 -16 8 C-14.68 7.67 -13.36 7.34 -12 7 C-12.66 5.02 -13.32 3.04 -14 1 C-12.95199219 1.01740234 -12.95199219 1.01740234 -11.8828125 1.03515625 C-10.97273437 1.04417969 -10.06265625 1.05320312 -9.125 1.0625 C-7.76761719 1.07990234 -7.76761719 1.07990234 -6.3828125 1.09765625 C-3.92124681 0.99677241 -2.42285583 0 0 0 Z " fill="#D71A1F" transform="translate(262,339)"/>
<path d="M0 0 C3.26737599 3.75748239 5.58488546 8.23775826 7 13 C6.25 16.0625 6.25 16.0625 5 18 C4.67 17.01 4.34 16.02 4 15 C2.02 15.33 0.04 15.66 -2 16 C-2 14.35 -2 12.7 -2 11 C-1.01 11.495 -1.01 11.495 0 12 C0 12.66 0 13.32 0 14 C0.66 14 1.32 14 2 14 C1.67 13.01 1.34 12.02 1 11 C1.66 11 2.32 11 3 11 C2.2575 9.948125 2.2575 9.948125 1.5 8.875 C-0.1936681 5.62880281 -0.25162315 3.60659844 0 0 Z " fill="#E0373C" transform="translate(340,97)"/>
<path d="M0 0 C0.99 0.33 1.98 0.66 3 1 C2.69096017 2.33917261 2.34976758 3.67088318 2 5 C1.7525 6.03125 1.505 7.0625 1.25 8.125 C0 11 0 11 -2.5 12.25 C-3.325 12.4975 -4.15 12.745 -5 13 C-5.66 13.66 -6.32 14.32 -7 15 C-7.99 14.67 -8.98 14.34 -10 14 C-9.236875 13.2575 -8.47375 12.515 -7.6875 11.75 C-4.03289061 8.01039969 -1.7803193 4.93011498 0 0 Z " fill="#E71A22" transform="translate(297,306)"/>
<path d="M0 0 C1.95216435 3.90432869 2.50639991 6.72213252 3 11 C8.94 10.505 8.94 10.505 15 10 C15 10.66 15 11.32 15 12 C16.32 12.33 17.64 12.66 19 13 C12.73 13 6.46 13 0 13 C0 8.71 0 4.42 0 0 Z " fill="#CC1319" transform="translate(145,144)"/>
<path d="M0 0 C0.33 0 0.66 0 1 0 C1.20016822 3.60302803 0.99767079 5.95092353 -1 9 C-1.99 9.66 -2.98 10.32 -4 11 C-4.33 11.99 -4.66 12.98 -5 14 C-5.66 14 -6.32 14 -7 14 C-7 10.7 -7 7.4 -7 4 C-5.824375 3.8453125 -5.824375 3.8453125 -4.625 3.6875 C-1.66954819 3.22404978 -1.66954819 3.22404978 0 0 Z " fill="#EB1A22" transform="translate(327,276)"/>
<path d="M0 0 C0 1.32 0 2.64 0 4 C-0.99 4.495 -0.99 4.495 -2 5 C-2 5.99 -2 6.98 -2 8 C-4.66666667 6.66666667 -7.33333333 5.33333333 -10 4 C-9 1 -9 1 -6.6875 -0.25 C-3.90126985 -1.0275526 -2.66561622 -0.98726527 0 0 Z " fill="#AC2226" transform="translate(72,313)"/>
<path d="M0 0 C0.66 0.33 1.32 0.66 2 1 C1.67 9.25 1.34 17.5 1 26 C0.34 26 -0.32 26 -1 26 C-1.02907084 22.41668375 -1.04682263 18.83339792 -1.0625 15.25 C-1.07087891 14.23421875 -1.07925781 13.2184375 -1.08789062 12.171875 C-1.09111328 11.1921875 -1.09433594 10.2125 -1.09765625 9.203125 C-1.10289307 8.30239258 -1.10812988 7.40166016 -1.11352539 6.47363281 C-1.00762312 4.16610196 -0.65132813 2.20865595 0 0 Z " fill="#CF191D" transform="translate(165,215)"/>
<path d="M0 0 C0.928125 1.175625 0.928125 1.175625 1.875 2.375 C3.89858661 4.96837647 3.89858661 4.96837647 6 7 C5.625 9.125 5.625 9.125 5 11 C3.68 11 2.36 11 1 11 C0.67 10.34 0.34 9.68 0 9 C-0.66 9 -1.32 9 -2 9 C-1.125 1.125 -1.125 1.125 0 0 Z " fill="#B72C31" transform="translate(88,181)"/>
<path d="M0 0 C0 0.99 0 1.98 0 3 C0.56891461 5.93939215 1.39301003 8.46264742 3 11 C5.0335948 12.26804566 5.0335948 12.26804566 7 13 C6.67 14.32 6.34 15.64 6 17 C4.2978302 15.4324482 2.61359446 13.84540216 0.9375 12.25 C-0.00222656 11.36828125 -0.94195312 10.4865625 -1.91015625 9.578125 C-4 7 -4 7 -3.90625 4.78125 C-2.88060355 2.76532422 -1.7006234 1.47880296 0 0 Z " fill="#BF4F52" transform="translate(108,175)"/>
<path d="M0 0 C7.59 0.33 15.18 0.66 23 1 C23 1.66 23 2.32 23 3 C24.65 2.67 26.3 2.34 28 2 C28.33 2.66 28.66 3.32 29 4 C22.30079127 4.16356156 16.0438831 3.57602131 9.4375 2.5 C8.06754883 2.28537109 8.06754883 2.28537109 6.66992188 2.06640625 C4.44557264 1.71703202 2.2224079 1.36148178 0 1 C0 0.67 0 0.34 0 0 Z " fill="#CC4E53" transform="translate(141,356)"/>
<path d="M0 0 C3.73487777 0.4979837 5.81237635 0.87491756 9 3 C7.35 3.66 5.7 4.32 4 5 C4 4.34 4 3.68 4 3 C3.505 3.350625 3.01 3.70125 2.5 4.0625 C-1.22697603 5.46011601 -4.09802848 4.65032859 -8 4 C-7.67 3.01 -7.34 2.02 -7 1 C-4.69 1 -2.38 1 0 1 C0 0.67 0 0.34 0 0 Z " fill="#E22B30" transform="translate(258,336)"/>
<path d="M0 0 C0.66 0.99 1.32 1.98 2 3 C1.67 3.66 1.34 4.32 1 5 C2.32 5.66 3.64 6.32 5 7 C4.7525 7.86625 4.7525 7.86625 4.5 8.75 C3.85537969 11.26664369 3.85537969 11.26664369 4 15 C-0.36380715 11.50895428 -1.15085602 8.3496071 -2 3 C-1.34 2.01 -0.68 1.02 0 0 Z " fill="#A21A1D" transform="translate(27,266)"/>
<path d="M0 0 C1.32 0.33 2.64 0.66 4 1 C5.2982126 6.76081841 6.25706972 12.08739655 6 18 C3.40052213 15.40052213 2.9315565 13.07261547 1.875 9.5625 C1.52179687 8.40878906 1.16859375 7.25507813 0.8046875 6.06640625 C0 3 0 3 0 0 Z " fill="#9E3236" transform="translate(6,226)"/>
<path d="M0 0 C0.66 0.33 1.32 0.66 2 1 C2.40729228 3.32156597 2.74438677 5.6568787 3 8 C3.33 8 3.66 8 4 8 C4 10.31 4 12.62 4 15 C2.68 14.67 1.36 14.34 0 14 C-1.13016601 8.97703996 -0.77916092 5.02125926 0 0 Z " fill="#E6191F" transform="translate(345,111)"/>
<path d="M0 0 C3.08089673 2.77280706 4.68775452 5.06326356 6 9 C3 11 3 11 0 11 C-1.04449911 7.86650268 -0.93423645 7.01031744 0 4 C-0.66 3.67 -1.32 3.34 -2 3 C-1 1 -1 1 0 0 Z " fill="#EE1A24" transform="translate(330,85)"/>
<path d="M0 0 C-0.99 0.495 -0.99 0.495 -2 1 C-2 1.66 -2 2.32 -2 3 C-7.28 3 -12.56 3 -18 3 C-17.67 2.34 -17.34 1.68 -17 1 C-11.35450392 -0.20116938 -5.75098214 -0.10414253 0 0 Z " fill="#D6161B" transform="translate(194,154)"/>
<path d="M0 0 C0.66 1.32 1.32 2.64 2 4 C2.66 4 3.32 4 4 4 C4 4.99 4 5.98 4 7 C5.65 7 7.3 7 9 7 C9.33 8.32 9.66 9.64 10 11 C6.10993227 9.61219205 3.03441292 7.7847773 -0.3125 5.375 C-1.19550781 4.74335938 -2.07851562 4.11171875 -2.98828125 3.4609375 C-3.65214844 2.97882813 -4.31601563 2.49671875 -5 2 C-4.360625 1.855625 -3.72125 1.71125 -3.0625 1.5625 C-1.02454854 1.18992819 -1.02454854 1.18992819 0 0 Z " fill="#C46063" transform="translate(78,324)"/>
<path d="M0 0 C1.2065625 0.0309375 1.2065625 0.0309375 2.4375 0.0625 C2.4375 2.7025 2.4375 5.3425 2.4375 8.0625 C3.4275 8.3925 4.4175 8.7225 5.4375 9.0625 C5.1075 10.3825 4.7775 11.7025 4.4375 13.0625 C3.62324575 11.93876904 2.81115704 10.8134687 2 9.6875 C1.32130859 8.74777344 1.32130859 8.74777344 0.62890625 7.7890625 C-0.5625 6.0625 -0.5625 6.0625 -1.5625 4.0625 C-1.8925 4.7225 -2.2225 5.3825 -2.5625 6.0625 C-2.94468767 4.40635343 -3.27645102 2.73792976 -3.5625 1.0625 C-2.5625 0.0625 -2.5625 0.0625 0 0 Z " fill="#A8181B" transform="translate(37.5625,279.9375)"/>
<path d="M0 0 C0.33 0 0.66 0 1 0 C1.02505615 0.75095947 1.0501123 1.50191895 1.07592773 2.27563477 C1.19254942 5.70473533 1.31497417 9.13360553 1.4375 12.5625 C1.47681641 13.74392578 1.51613281 14.92535156 1.55664062 16.14257812 C1.7637504 21.83013123 2.01968432 27.38995814 3 33 C1.51831055 31.9284668 1.51831055 31.9284668 0 30 C-0.34057617 26.90551758 -0.34057617 26.90551758 -0.29296875 23.14453125 C-0.28872391 22.48289474 -0.28447906 21.82125824 -0.28010559 21.13957214 C-0.26333693 19.0301309 -0.22569099 16.92165154 -0.1875 14.8125 C-0.17245068 13.38087319 -0.1587627 11.94923138 -0.14648438 10.51757812 C-0.1134403 7.01140712 -0.06167167 3.50579746 0 0 Z " fill="#BB181E" transform="translate(147,224)"/>
<path d="M0 0 C0.33 0 0.66 0 1 0 C1.02578125 0.91523438 1.0515625 1.83046875 1.078125 2.7734375 C1.13484375 3.96195313 1.1915625 5.15046875 1.25 6.375 C1.29640625 7.55835938 1.3428125 8.74171875 1.390625 9.9609375 C1.68038637 12.99884675 1.68038637 12.99884675 3.5625 14.375 C6.93792205 15.24049283 10.28478092 15.46778779 13.75 15.625 C14.44738281 15.66367188 15.14476562 15.70234375 15.86328125 15.7421875 C17.57510818 15.83598624 19.28751682 15.91906174 21 16 C21 16.33 21 16.66 21 17 C18.4374282 17.02710123 15.87514635 17.04688771 13.3125 17.0625 C12.59126953 17.07087891 11.87003906 17.07925781 11.12695312 17.08789062 C7.18910758 17.10587165 3.90067934 16.78013587 0 16 C0 10.72 0 5.44 0 0 Z " fill="#D6898B" transform="translate(131,155)"/>
<path d="M0 0 C7.10135583 0.81938721 11.22538197 2.8002778 17 7 C17 7.66 17 8.32 17 9 C10.83643195 7.3341708 5.51740344 4.12194714 0 1 C0 0.67 0 0.34 0 0 Z " fill="#C25A5D" transform="translate(90,336)"/>
<path d="M0 0 C10.55808656 0.77904328 10.55808656 0.77904328 15 3 C15 3.66 15 4.32 15 5 C17.97 5.495 17.97 5.495 21 6 C17.80042565 7.05711427 16.03354912 6.95184778 12.890625 5.78515625 C12.13652344 5.51123047 11.38242188 5.23730469 10.60546875 4.95507812 C9.82816406 4.66052734 9.05085938 4.36597656 8.25 4.0625 C7.45722656 3.77181641 6.66445312 3.48113281 5.84765625 3.18164062 C3.89487371 2.46405186 1.94694059 1.73329094 0 1 C0 0.67 0 0.34 0 0 Z " fill="#CE656A" transform="translate(112,347)"/>
<path d="M0 0 C0.66 0.99 1.32 1.98 2 3 C2.556875 3.78375 3.11375 4.5675 3.6875 5.375 C5.23436771 8.46873543 5.01683263 9.76462345 4 13 C3.34 13 2.68 13 2 13 C1.67 12.34 1.34 11.68 1 11 C0.01 11.495 0.01 11.495 -1 12 C-0.67 8.04 -0.34 4.08 0 0 Z " fill="#F01B24" transform="translate(338,98)"/>
<path d="M0 0 C0.33 0 0.66 0 1 0 C1 3.63 1 7.26 1 11 C-0.98 11 -2.96 11 -5 11 C-3.77782954 6.95743617 -2.37245704 3.50711041 0 0 Z " fill="#A93D3F" transform="translate(22,93)"/>
<path d="M0 0 C-7.70964299 4.21191897 -16.33545974 5.43322701 -25 5 C-21.27020153 2.77180871 -17.27799461 2.12817862 -13.0625 1.375 C-12.35931641 1.2409375 -11.65613281 1.106875 -10.93164062 0.96875 C-7.24588019 0.2917031 -3.74827151 -0.16137372 0 0 Z " fill="#CC666A" transform="translate(160,1)"/>
<path d="M0 0 C3.34373475 0.55728913 6.03312999 1.35173889 9 3 C9 4.65 9 6.3 9 8 C7.35 7.67 5.7 7.34 4 7 C3.67 6.01 3.34 5.02 3 4 C2.01 3.34 1.02 2.68 0 2 C0 1.34 0 0.68 0 0 Z " fill="#C12A31" transform="translate(103,339)"/>
<path d="M0 0 C0.33 1.65 0.66 3.3 1 5 C1.99 5.33 2.98 5.66 4 6 C4.33 7.65 4.66 9.3 5 11 C0.86378916 7.6189962 -2.81316569 4.33409466 -6 0 C-3.50907189 -1.24546405 -2.58919267 -0.7767578 0 0 Z " fill="#CA5859" transform="translate(121,192)"/>
<path d="M0 0 C1.98 0.66 3.96 1.32 6 2 C5.34 2.66 4.68 3.32 4 4 C4.99 4.99 5.98 5.98 7 7 C4.33333333 7 1.66666667 7 -1 7 C-1.04254356 5.00045254 -1.04080783 2.99958364 -1 1 C-0.67 0.67 -0.34 0.34 0 0 Z " fill="#E51A20" transform="translate(289,40)"/>
<path d="M0 0 C3 2 3 2 3.43237305 3.97119141 C3.45855713 4.75671387 3.48474121 5.54223633 3.51171875 6.3515625 C3.54716797 7.20234375 3.58261719 8.053125 3.61914062 8.9296875 C3.64169922 9.81914062 3.66425781 10.70859375 3.6875 11.625 C3.72166016 12.5221875 3.75582031 13.419375 3.79101562 14.34375 C3.87362402 16.56237538 3.94272719 18.7805994 4 21 C3.67 21 3.34 21 3 21 C2.49432271 18.43850372 1.99529868 15.87600535 1.5 13.3125 C1.35691406 12.59126953 1.21382813 11.87003906 1.06640625 11.12695312 C0.34428113 7.36158641 -0.1824976 3.85526187 0 0 Z " fill="#A54C4F" transform="translate(1,200)"/>
<path d="M0 0 C0.99 0.33 1.98 0.66 3 1 C2.01 1.33 1.02 1.66 0 2 C0 1.34 0 0.68 0 0 Z M-5 3 C-3.68 3.33 -2.36 3.66 -1 4 C-1.99 5.485 -1.99 5.485 -3 7 C-3.66 7 -4.32 7 -5 7 C-5 7.66 -5 8.32 -5 9 C-6.65 9.33 -8.3 9.66 -10 10 C-10.33 9.34 -10.66 8.68 -11 8 C-10.67 7.34 -10.34 6.68 -10 6 C-8.66666667 5.66666667 -7.33333333 5.33333333 -6 5 C-5.67 4.34 -5.34 3.68 -5 3 Z " fill="#C2161C" transform="translate(122,166)"/>
<path d="M0 0 C2.12300942 3.53834904 2.69690596 6.90823045 3 11 C2.34 11.66 1.68 12.32 1 13 C0.01 12.67 -0.98 12.34 -2 12 C-1.85962479 10.18706911 -1.71255111 8.3746557 -1.5625 6.5625 C-1.48128906 5.55316406 -1.40007813 4.54382813 -1.31640625 3.50390625 C-1 1 -1 1 0 0 Z " fill="#9D171A" transform="translate(13,115)"/>
<path d="M0 0 C1.32 0.66 2.64 1.32 4 2 C4 3.98 4 5.96 4 8 C2.1875 8.6875 2.1875 8.6875 0 9 C-1.75 7.5625 -1.75 7.5625 -3 6 C-2.01 5.34 -1.02 4.68 0 4 C0 2.68 0 1.36 0 0 Z " fill="#B51619" transform="translate(92,328)"/>
<path d="M0 0 C0.66 0 1.32 0 2 0 C1.67 1.32 1.34 2.64 1 4 C0.34 4 -0.32 4 -1 4 C-1 11.26 -1 18.52 -1 26 C-1.33 26 -1.66 26 -2 26 C-2.05785647 22.04172765 -2.09354717 18.0835633 -2.125 14.125 C-2.14175781 12.99707031 -2.15851563 11.86914062 -2.17578125 10.70703125 C-2.18222656 9.63066406 -2.18867188 8.55429688 -2.1953125 7.4453125 C-2.20578613 6.45031738 -2.21625977 5.45532227 -2.22705078 4.43017578 C-2 2 -2 2 0 0 Z " fill="#BF151A" transform="translate(149,102)"/>
<path d="M0 0 C1.98 0.495 1.98 0.495 4 1 C3.67 3.97 3.34 6.94 3 10 C-0.07360743 6.92639257 -0.57862333 6.10842251 -1 2 C-0.67 1.34 -0.34 0.68 0 0 Z " fill="#9E1617" transform="translate(20,255)"/>
<path d="M0 0 C0.66 0 1.32 0 2 0 C1.44449305 3.59905908 0.25112752 4.99909799 -2.5625 7.25 C-3.20316406 7.77078125 -3.84382813 8.2915625 -4.50390625 8.828125 C-4.99761719 9.21484375 -5.49132812 9.6015625 -6 10 C-5.84660156 9.39671875 -5.69320312 8.7934375 -5.53515625 8.171875 C-4.9491376 5.79358035 -4.46746839 3.40412313 -4 1 C-2.68 1.33 -1.36 1.66 0 2 C0 1.34 0 0.68 0 0 Z " fill="#C04246" transform="translate(125,137)"/>
<path d="M0 0 C5.28 0 10.56 0 16 0 C16 0.33 16 0.66 16 1 C14.2984375 1.2165625 14.2984375 1.2165625 12.5625 1.4375 C9.19222799 1.61171478 9.19222799 1.61171478 8 3 C5.66702567 3.04092937 3.33294775 3.04241723 1 3 C0.67 2.01 0.34 1.02 0 0 Z " fill="#DF1B21" transform="translate(216,98)"/>
<path d="M0 0 C0.33 0.99 0.66 1.98 1 3 C-0.43534841 3.2226746 -1.87345525 3.42761906 -3.3125 3.625 C-4.11300781 3.74101563 -4.91351563 3.85703125 -5.73828125 3.9765625 C-8 4 -8 4 -11 2 C-7.374967 -1.625033 -4.81746234 -1.01907857 0 0 Z " fill="#B72B31" transform="translate(69,45)"/>
<path d="M0 0 C0.66 0 1.32 0 2 0 C0.26017005 5.81261371 -1.8110489 10.83169994 -5 16 C-6.60031344 12.79937313 -5.03173691 10.27728194 -4 7 C-3.34 7 -2.68 7 -2 7 C-2 5.68 -2 4.36 -2 3 C-1.34 3 -0.68 3 0 3 C0 2.01 0 1.02 0 0 Z " fill="#E36C72" transform="translate(343,253)"/>
<path d="M0 0 C1.28835525 3.86506576 1.63435623 7.97966438 1 12 C-1 14.5 -1 14.5 -3 16 C-2.52013969 10.43109483 -1.70084819 5.32932432 0 0 Z " fill="#AB4C50" transform="translate(6,132)"/>
<path d="M0 0 C1.60717771 2.41076656 2.61542515 4.28099245 3.625 6.9375 C3.88539063 7.60652344 4.14578125 8.27554688 4.4140625 8.96484375 C5 11 5 11 5 15 C4.01 14.67 3.02 14.34 2 14 C1.67 12.02 1.34 10.04 1 8 C0.67 8 0.34 8 0 8 C0 5.36 0 2.72 0 0 Z " fill="#DA494E" transform="translate(347,112)"/>
<path d="M0 0 C0.99 0.66 1.98 1.32 3 2 C-0.17320782 5.53586014 -2.16743695 7.58578031 -7 8 C-6.02133662 6.85373678 -5.04205413 5.70800212 -4.0625 4.5625 C-3.51722656 3.92441406 -2.97195312 3.28632812 -2.41015625 2.62890625 C-1.63204305 1.73008851 -0.84063472 0.84063472 0 0 Z " fill="#AB373B" transform="translate(57,48)"/>
<path d="M0 0 C-1 2 -1 2 -3.14453125 2.88671875 C-4.02496094 3.15097656 -4.90539062 3.41523438 -5.8125 3.6875 C-6.68519531 3.95949219 -7.55789062 4.23148437 -8.45703125 4.51171875 C-11.06873834 5.01319861 -12.51716384 4.86233704 -15 4 C-14.01 4 -13.02 4 -12 4 C-12 3.34 -12 2.68 -12 2 C-10.56656 1.46809459 -9.12804633 0.94984742 -7.6875 0.4375 C-6.48673828 0.00244141 -6.48673828 0.00244141 -5.26171875 -0.44140625 C-3 -1 -3 -1 0 0 Z " fill="#D35A5E" transform="translate(239,350)"/>
<path d="M0 0 C0.33 0.66 0.66 1.32 1 2 C1.66 2.33 2.32 2.66 3 3 C3.33 3.33 3.66 3.66 4 4 C3.4 10.6 3.4 10.6 1 13 C0.67 8.71 0.34 4.42 0 0 Z " fill="#A52429" transform="translate(2,150)"/>
<path d="M0 0 C1 3 1 3 -0.6875 6.625 C-2.63475967 9.84781653 -2.63475967 9.84781653 -5.25 10.9375 C-5.8275 10.958125 -6.405 10.97875 -7 11 C-5.5140084 6.40693504 -3.14985318 3.56430755 0 0 Z " fill="#A3393B" transform="translate(36,72)"/>
<path d="M0 0 C0.71484375 1.703125 0.71484375 1.703125 1 4 C-0.43359375 6.359375 -0.43359375 6.359375 -2.4375 8.75 C-3.42556641 9.94882812 -3.42556641 9.94882812 -4.43359375 11.171875 C-5.20896484 12.07679688 -5.20896484 12.07679688 -6 13 C-6.33 11.68 -6.66 10.36 -7 9 C-6.34 9 -5.68 9 -5 9 C-4.896875 8.360625 -4.79375 7.72125 -4.6875 7.0625 C-4.460625 6.381875 -4.23375 5.70125 -4 5 C-3.01 4.67 -2.02 4.34 -1 4 C-0.26676204 1.98491642 -0.26676204 1.98491642 0 0 Z " fill="#D75053" transform="translate(327,281)"/>
<path d="M0 0 C0.66 0.33 1.32 0.66 2 1 C3.00496852 4.01490557 3.10335303 6.04181692 3.0625 9.1875 C3.05347656 10.08855469 3.04445313 10.98960937 3.03515625 11.91796875 C3.02355469 12.60503906 3.01195312 13.29210937 3 14 C1.77491933 11.68321437 0.98403716 9.91419973 0.5 7.3125 C0.2525 6.1678125 0.2525 6.1678125 0 5 C-0.66 4.67 -1.32 4.34 -2 4 C-1.34 4 -0.68 4 0 4 C0 2.68 0 1.36 0 0 Z " fill="#F01824" transform="translate(354,148)"/>
<path d="M0 0 C-2.09836004 1.03271642 -4.20390891 2.05083717 -6.3125 3.0625 C-7.48425781 3.63097656 -8.65601563 4.19945312 -9.86328125 4.78515625 C-13 6 -13 6 -16 5 C-14.68 4.67 -13.36 4.34 -12 4 C-12 3.34 -12 2.68 -12 2 C-10.56656 1.46809459 -9.12804633 0.94984742 -7.6875 0.4375 C-6.48673828 0.00244141 -6.48673828 0.00244141 -5.26171875 -0.44140625 C-3 -1 -3 -1 0 0 Z " fill="#DC6B70" transform="translate(262,342)"/>
<path d="M0 0 C3 0 6 0 9 0 C8.1875 1.9375 8.1875 1.9375 7 4 C6.01 4.33 5.02 4.66 4 5 C1.8125 3.6875 1.8125 3.6875 0 2 C0 1.34 0 0.68 0 0 Z " fill="#AC161D" transform="translate(71,321)"/>
<path d="M0 0 C0 0.66 0 1.32 0 2 C1.32 2.66 2.64 3.32 4 4 C2.35 4 0.7 4 -1 4 C-1 4.66 -1 5.32 -1 6 C-2.65 5.67 -4.3 5.34 -6 5 C-6 4.01 -6 3.02 -6 2 C-2.25 0 -2.25 0 0 0 Z " fill="#C0373C" transform="translate(104,17)"/>
<path d="M0 0 C0.33 0.99 0.66 1.98 1 3 C0.34 3 -0.32 3 -1 3 C-1 3.66 -1 4.32 -1 5 C-0.34 5.33 0.32 5.66 1 6 C-1.31 5.67 -3.62 5.34 -6 5 C-6 4.01 -6 3.02 -6 2 C-4.02 1.34 -2.04 0.68 0 0 Z " fill="#E81B25" transform="translate(271,258)"/>
<path d="M0 0 C0.33 0.99 0.66 1.98 1 3 C1.66 3.33 2.32 3.66 3 4 C0.03 6.475 0.03 6.475 -3 9 C-3 7.02 -3 5.04 -3 3 C-2.34 3 -1.68 3 -1 3 C-0.67 2.01 -0.34 1.02 0 0 Z " fill="#C34046" transform="translate(108,152)"/>
<path d="M0 0 C0.66 2.31 1.32 4.62 2 7 C1.01 6.67 0.02 6.34 -1 6 C-1 5.34 -1 4.68 -1 4 C-2.98 4.33 -4.96 4.66 -7 5 C-7 4.34 -7 3.68 -7 3 C-4.4385343 0.70351351 -3.52032428 0 0 0 Z " fill="#AB1419" transform="translate(70,41)"/>
<path d="M0 0 C0.66 0 1.32 0 2 0 C1.82374165 2.37948772 1.30280227 3.70225849 -0.40234375 5.37890625 C-1.90649092 6.62115486 -3.45129851 7.81376056 -5 9 C-4.67 7.35 -4.34 5.7 -4 4 C-3.34 4 -2.68 4 -2 4 C-2 3.34 -2 2.68 -2 2 C-1.34 2 -0.68 2 0 2 C0 1.34 0 0.68 0 0 Z " fill="#BB4B4D" transform="translate(101,161)"/>
<path d="M0 0 C2.97 0 5.94 0 9 0 C8.67 0.99 8.34 1.98 8 3 C4.04 3 0.08 3 -4 3 C-2.68 2.67 -1.36 2.34 0 2 C0 1.34 0 0.68 0 0 Z " fill="#C9171B" transform="translate(152,354)"/>
<path d="M0 0 C3.36591866 1.44253657 5.51047079 3.33264727 8 6 C6.1875 6.6875 6.1875 6.6875 4 7 C1.81974318 5.4657452 1.11209475 4.35666511 0.3125 1.8125 C0.209375 1.214375 0.10625 0.61625 0 0 Z " fill="#B1494C" transform="translate(56,309)"/>
<path d="M0 0 C2.59482129 2.59482129 2.69990302 4.39883625 3 8 C2.34 8.66 1.68 9.32 1 10 C0.01 7.03 -0.98 4.06 -2 1 C-1.34 0.67 -0.68 0.34 0 0 Z " fill="#A94446" transform="translate(14,244)"/>
<path d="M0 0 C4.875 2.75 4.875 2.75 6 5 C4.02 5.33 2.04 5.66 0 6 C-0.38218767 4.34385343 -0.71395102 2.67542976 -1 1 C-0.67 0.67 -0.34 0.34 0 0 Z " fill="#E81C24" transform="translate(281,34)"/>
<path d="M0 0 C1.65 0 3.3 0 5 0 C2.03716687 2.38672669 -0.94270509 4.7353371 -4 7 C-4.66 6.67 -5.32 6.34 -6 6 C-5.34 5.01 -4.68 4.02 -4 3 C-3.01 3 -2.02 3 -1 3 C-0.67 2.01 -0.34 1.02 0 0 Z " fill="#DA6065" transform="translate(277,329)"/>
<path d="M0 0 C2.475 0.99 2.475 0.99 5 2 C5.66 1.34 6.32 0.68 7 0 C7.66 0.99 8.32 1.98 9 3 C8.34 3 7.68 3 7 3 C7.66 4.32 8.32 5.64 9 7 C5.18315774 5.44499019 2.80804268 2.96404505 0 0 Z " fill="#D27675" transform="translate(64,318)"/>
<path d="M0 0 C1.65 0.33 3.3 0.66 5 1 C3.63016497 4.16115776 3.0109362 4.9927092 0 7 C-0.93423645 3.98968256 -1.04449911 3.13349732 0 0 Z " fill="#DD343C" transform="translate(304,304)"/>
<path d="M0 0 C1.79275866 3.11910856 2.34290718 5.67682428 2.625 9.25 C2.69976562 10.14203125 2.77453125 11.0340625 2.8515625 11.953125 C2.92503906 12.96632812 2.92503906 12.96632812 3 14 C0.19954377 10.85408067 -0.35261589 8.932936 -0.1875 4.75 C-0.16042969 3.85796875 -0.13335938 2.9659375 -0.10546875 2.046875 C-0.07066406 1.37140625 -0.03585938 0.6959375 0 0 Z " fill="#8A181C" transform="translate(5,214)"/>
<path d="M0 0 C0.66 0.33 1.32 0.66 2 1 C2.125 6.75 2.125 6.75 1 9 C-0.9375 8.625 -0.9375 8.625 -3 8 C-3.33 7.34 -3.66 6.68 -4 6 C-2.68 6 -1.36 6 0 6 C0 4.02 0 2.04 0 0 Z " fill="#C2696E" transform="translate(130,197)"/>
<path d="M0 0 C3 1 3 1 4 3 C5.89533342 3.46523063 5.89533342 3.46523063 8.0625 3.625 C9.361875 3.74875 10.66125 3.8725 12 4 C11.34 4.66 10.68 5.32 10 6 C7.27130593 5.96712417 4.7033382 5.43602229 2 5 C1.34 3.35 0.68 1.7 0 0 Z " fill="#B4171E" transform="translate(148,144)"/>
<path d="M0 0 C1.9375 1.25 1.9375 1.25 3.9375 4.25 C-1.60096154 3.63461538 -1.60096154 3.63461538 -3.9375 1.6875 C-4.30875 1.213125 -4.68 0.73875 -5.0625 0.25 C-2.0625 -0.75 -2.0625 -0.75 0 0 Z " fill="#E03C41" transform="translate(297.0625,42.75)"/>
<path d="M0 0 C0 0.66 0 1.32 0 2 C-2.75 4.1875 -2.75 4.1875 -6 6 C-8.203125 5.61328125 -8.203125 5.61328125 -10 5 C-8.71186658 4.16121545 -7.41936744 3.32913217 -6.125 2.5 C-5.40570313 2.0359375 -4.68640625 1.571875 -3.9453125 1.09375 C-2 0 -2 0 0 0 Z " fill="#B64A4F" transform="translate(93,23)"/>
<path d="M0 0 C2.64 0 5.28 0 8 0 C7.34 0.66 6.68 1.32 6 2 C6.66 2.66 7.32 3.32 8 4 C6.68 4.33 5.36 4.66 4 5 C4 4.34 4 3.68 4 3 C2.68 2.34 1.36 1.68 0 1 C0 0.67 0 0.34 0 0 Z " fill="#E33A3D" transform="translate(238,345)"/>
<path d="M0 0 C1.53445094 3.06890187 0.54984289 5.70094266 0 9 C-0.66 9 -1.32 9 -2 9 C-2 8.34 -2 7.68 -2 7 C-2.66 6.67 -3.32 6.34 -4 6 C-2.68 4.02 -1.36 2.04 0 0 Z " fill="#BA2428" transform="translate(111,172)"/>
<path d="M0 0 C0.66 0.33 1.32 0.66 2 1 C-0.75 6.875 -0.75 6.875 -3 8 C-3.66 7.67 -4.32 7.34 -5 7 C-5 6.34 -5 5.68 -5 5 C-4.34 5 -3.68 5 -3 5 C-3 4.34 -3 3.68 -3 3 C-1.5 1.375 -1.5 1.375 0 0 Z " fill="#C45657" transform="translate(117,165)"/>
<path d="M0 0 C0.66 0.33 1.32 0.66 2 1 C1.34 2.98 0.68 4.96 0 7 C-0.33 6.34 -0.66 5.68 -1 5 C-1.78375 5.515625 -2.5675 6.03125 -3.375 6.5625 C-4.24125 7.036875 -5.1075 7.51125 -6 8 C-6.66 7.67 -7.32 7.34 -8 7 C-5.36 4.69 -2.72 2.38 0 0 Z " fill="#B84E4F" transform="translate(71,36)"/>
<path d="M0 0 C2.0625 0.4375 2.0625 0.4375 4 1 C4 2.32 4 3.64 4 5 C3.01 5.33 2.02 5.66 1 6 C0.34 4.35 -0.32 2.7 -1 1 C-0.67 0.67 -0.34 0.34 0 0 Z " fill="#B61B1F" transform="translate(68,312)"/>
<path d="M0 0 C0.99 0 1.98 0 3 0 C4.1577506 3.47325181 4.06866652 6.36067448 4 10 C1.04816899 7.04816899 0.91336012 4.04488053 0 0 Z " fill="#AD5658" transform="translate(8,234)"/>
<path d="M0 0 C0.66 0 1.32 0 2 0 C1.65120368 3.25543229 0.97866739 4.01873107 -1.5625 6.25 C-2.366875 6.8275 -3.17125 7.405 -4 8 C-4.33 7.01 -4.66 6.02 -5 5 C-3.625 3.5 -3.625 3.5 -2 2 C-1.34 2 -0.68 2 0 2 C0 1.34 0 0.68 0 0 Z " fill="#BD4F54" transform="translate(93,169)"/>
<path d="M0 0 C2.5 2.3125 2.5 2.3125 5 5 C5 5.99 5 6.98 5 8 C4.01 8 3.02 8 2 8 C0.74335022 5.09399739 0 3.20395416 0 0 Z " fill="#F11921" transform="translate(321,72)"/>
<path d="M0 0 C4.455 0.99 4.455 0.99 9 2 C4.46780033 4.26609984 2.82227075 3.92735976 -2 3 C-1.34 2.01 -0.68 1.02 0 0 Z " fill="#BE1920" transform="translate(98,336)"/>
<path d="M0 0 C0.99 1.32 1.98 2.64 3 4 C2.67 4.66 2.34 5.32 2 6 C2.66 6.33 3.32 6.66 4 7 C3.67 8.32 3.34 9.64 3 11 C2.30034557 9.73581754 1.61565237 8.46334598 0.9375 7.1875 C0.55464844 6.47980469 0.17179687 5.77210938 -0.22265625 5.04296875 C-1 3 -1 3 0 0 Z " fill="#AE4D50" transform="translate(17,253)"/>
<path d="M0 0 C1.258125 -0.04125 2.51625 -0.0825 3.8125 -0.125 C4.52019531 -0.14820313 5.22789062 -0.17140625 5.95703125 -0.1953125 C8 0 8 0 11 2 C10.67 2.66 10.34 3.32 10 4 C9.01 3.34 8.02 2.68 7 2 C3.36060068 2.31730524 3.36060068 2.31730524 0 3 C0 2.01 0 1.02 0 0 Z " fill="#D87679" transform="translate(150,212)"/>
<path d="M0 0 C3.57104439 1.87949705 5.54744301 3.17053157 7 7 C3.76509224 6.44225728 2.02144994 5.62788492 0 3 C0 2.01 0 1.02 0 0 Z " fill="#B94347" transform="translate(101,196)"/>
<path d="M0 0 C0.33 0 0.66 0 1 0 C1.390625 5.95703125 1.390625 5.95703125 1 8 C-0.32 8.99 -1.64 9.98 -3 11 C-2.01 7.37 -1.02 3.74 0 0 Z " fill="#A74E50" transform="translate(11,116)"/>
<path d="M0 0 C-0.33 1.65 -0.66 3.3 -1 5 C-4.16115776 3.63016497 -4.9927092 3.0109362 -7 0 C-4.3333581 -1.33332095 -2.83319697 -0.67102033 0 0 Z " fill="#E3373E" transform="translate(272,100)"/>
<path d="M0 0 C1.875 0.1875 1.875 0.1875 4 1 C5.25 3.5625 5.25 3.5625 6 6 C5.01 6 4.02 6 3 6 C2.01 4.02 1.02 2.04 0 0 Z " fill="#B2585A" transform="translate(26,274)"/>
<path d="M0 0 C1.258125 -0.04125 2.51625 -0.0825 3.8125 -0.125 C4.52019531 -0.14820313 5.22789062 -0.17140625 5.95703125 -0.1953125 C8 0 8 0 11 2 C11 2.99 11 3.98 11 5 C10.34 5 9.68 5 9 5 C8.5875 4.525625 8.175 4.05125 7.75 3.5625 C5.34211572 1.41260332 3.14591416 1.34954602 0 1 C0 0.67 0 0.34 0 0 Z " fill="#B1161A" transform="translate(152,211)"/>
<path d="M0 0 C0.66 0 1.32 0 2 0 C2 0.66 2 1.32 2 2 C2.66 2.33 3.32 2.66 4 3 C2.68 3.99 1.36 4.98 0 6 C0 5.34 0 4.68 0 4 C-0.99 3.67 -1.98 3.34 -3 3 C-2.01 2.67 -1.02 2.34 0 2 C0 1.34 0 0.68 0 0 Z " fill="#C63E42" transform="translate(115,145)"/>
<path d="M0 0 C0.66 0.66 1.32 1.32 2 2 C5.08347826 2.16681109 5.08347826 2.16681109 8 2 C8 2.33 8 2.66 8 3 C6.88625 3.309375 5.7725 3.61875 4.625 3.9375 C1.2054845 4.82326483 1.2054845 4.82326483 -1 6 C-1.66 4.68 -2.32 3.36 -3 2 C-2.34 2 -1.68 2 -1 2 C-0.67 1.34 -0.34 0.68 0 0 Z " fill="#DA7175" transform="translate(132,129)"/>
<path d="M0 0 C0.33 0 0.66 0 1 0 C0.67 2.31 0.34 4.62 0 7 C-0.66 7 -1.32 7 -2 7 C-2 7.66 -2 8.32 -2 9 C-2.66 8.67 -3.32 8.34 -4 8 C-2.68 5.36 -1.36 2.72 0 0 Z " fill="#A5171C" transform="translate(38,71)"/>
<path d="M0 0 C2.5 2.3125 2.5 2.3125 5 5 C5 5.99 5 6.98 5 8 C2.5 6.25 2.5 6.25 0 4 C0 2.68 0 1.36 0 0 Z " fill="#D94D53" transform="translate(320,67)"/>
<path d="M0 0 C-1.625 2.0625 -1.625 2.0625 -4 4 C-7.25 3.75 -7.25 3.75 -10 3 C-9 1 -9 1 -5.5625 -0.1875 C-2 -1 -2 -1 0 0 Z " fill="#B21118" transform="translate(125,11)"/>
<path d="M0 0 C0.804375 0.495 0.804375 0.495 1.625 1 C4.5391061 2.22699204 6.86867708 2.14233286 10 2 C10 2.66 10 3.32 10 4 C7.03 4 4.06 4 1 4 C0.67 2.68 0.34 1.36 0 0 Z " fill="#CB6063" transform="translate(131,226)"/>
<path d="M0 0 C1.98 0.99 1.98 0.99 4 2 C4 3.32 4 4.64 4 6 C2.68 5.67 1.36 5.34 0 5 C0 3.33333333 0 1.66666667 0 0 Z " fill="#B3151B" transform="translate(121,218)"/>
<path d="M0 0 C0 0.99 0 1.98 0 3 C-1.2065625 3.433125 -1.2065625 3.433125 -2.4375 3.875 C-5.1326468 4.73262568 -5.1326468 4.73262568 -6 7 C-6 4 -6 4 -4.125 1.8125 C-2 0 -2 0 0 0 Z " fill="#A81A1C" transform="translate(32,89)"/>
<path d="M0 0 C0.66 0 1.32 0 2 0 C2.33 1.65 2.66 3.3 3 5 C1.68 5.33 0.36 5.66 -1 6 C-1.33 5.01 -1.66 4.02 -2 3 C-1.34 2.67 -0.68 2.34 0 2 C0 1.34 0 0.68 0 0 Z " fill="#D6353A" transform="translate(282,323)"/>
<path d="M0 0 C0.66 0.33 1.32 0.66 2 1 C1.01 1 0.02 1 -1 1 C-0.67 0.67 -0.34 0.34 0 0 Z M-5 1 C-3.68 1.33 -2.36 1.66 -1 2 C-1.66 3.32 -2.32 4.64 -3 6 C-3.66 5.67 -4.32 5.34 -5 5 C-5 3.68 -5 2.36 -5 1 Z " fill="#E21E25" transform="translate(295,304)"/>
<path d="M0 0 C0.66 0 1.32 0 2 0 C1.60196439 2.88575819 1.20990931 3.82189513 -1.0625 5.75 C-1.701875 6.1625 -2.34125 6.575 -3 7 C-3 6.01 -3 5.02 -3 4 C-2.34 4 -1.68 4 -1 4 C-0.67 2.68 -0.34 1.36 0 0 Z " fill="#D6373C" transform="translate(318,292)"/>
<path d="M0 0 C1.98 1.65 3.96 3.3 6 5 C5.67 5.66 5.34 6.32 5 7 C3.0625 6.3125 3.0625 6.3125 1 5 C0.25 2.375 0.25 2.375 0 0 Z " fill="#E06E74" transform="translate(307,52)"/>
<path d="M0 0 C0 0.99 0 1.98 0 3 C-0.99 3.66 -1.98 4.32 -3 5 C-4.19232613 7.05003955 -4.19232613 7.05003955 -5 9 C-5.33 8.34 -5.66 7.68 -6 7 C-4.31525278 3.63050557 -3.1808342 2.12055614 0 0 Z " fill="#9A171C" transform="translate(52,55)"/>
<path d="M0 0 C3.96 1.98 3.96 1.98 8 4 C4 5 4 5 1.75 4.0625 C1.1725 3.711875 0.595 3.36125 0 3 C0 2.01 0 1.02 0 0 Z " fill="#D56668" transform="translate(272,25)"/>
</svg>
