<?xml version="1.0" encoding="UTF-8"?>
<svg version="1.1" xmlns="http://www.w3.org/2000/svg" width="447" height="559">
<path d="M0 0 C3.31280825 2.7011224 6.50720599 5.52094757 9.66015625 8.40625 C10.17320312 8.87401855 10.68625 9.34178711 11.21484375 9.82373047 C30.69656192 27.82824983 42.91438832 50.35278804 49.97265625 75.78125 C50.35478271 77.15410156 50.35478271 77.15410156 50.74462891 78.5546875 C53.45594442 88.72720323 53.84668 98.48855044 53.84545898 108.98803711 C53.84763388 111.07231446 53.86581627 113.15605092 53.88476562 115.24023438 C53.94394306 129.17600548 51.98463078 142.14643738 47.66015625 155.40625 C47.45938477 156.02725586 47.25861328 156.64826172 47.05175781 157.28808594 C38.86449039 182.12742269 23.67875095 201.62494673 5.25390625 219.7890625 C2.23072219 222.85670515 -0.54129408 226.13486089 -3.33984375 229.40625 C-4.52513672 230.75783203 -4.52513672 230.75783203 -5.734375 232.13671875 C-44.50869025 276.69164179 -68.28028511 329.7486811 -86.33984375 385.40625 C-86.99984375 385.40625 -87.65984375 385.40625 -88.33984375 385.40625 C-88.60498779 384.59921631 -88.87013184 383.79218262 -89.14331055 382.96069336 C-105.58022707 333.25767134 -127.16373692 287.00178707 -159.33984375 245.40625 C-160.41878906 244.00439453 -160.41878906 244.00439453 -161.51953125 242.57421875 C-165.76721882 237.15799063 -170.3052569 232.05708398 -174.96875 226.99609375 C-176.96947549 224.81078733 -178.91461327 222.59513717 -180.83984375 220.34375 C-183.46833163 217.3028296 -186.26367875 214.5130729 -189.15234375 211.71875 C-214.46490388 186.59824268 -229.10845928 150.58302349 -229.58154297 115.04785156 C-229.69364431 74.3089043 -215.0381948 41.65163588 -188.3203125 11.33984375 C-186.33984375 9.40625 -186.33984375 9.40625 -183.33984375 8.40625 C-183.33984375 7.74625 -183.33984375 7.08625 -183.33984375 6.40625 C-181.04010569 4.15764588 -178.39993975 2.28600583 -175.83984375 0.34375 C-175.07462402 -0.23826172 -174.3094043 -0.82027344 -173.52099609 -1.41992188 C-166.17444571 -6.89624914 -158.50221475 -11.45226262 -150.33984375 -15.59375 C-149.37691406 -16.08359375 -148.41398437 -16.5734375 -147.421875 -17.078125 C-99.96127973 -39.79191062 -41.11285018 -32.5140053 0 0 Z M-127.62109375 73.96484375 C-137.74140187 87.09629988 -141.22520744 99.96143925 -140.33984375 116.40625 C-138.24739561 131.21298049 -130.26373755 143.17319924 -118.7421875 152.51171875 C-105.83071022 161.42995563 -90.7211957 163.3810431 -75.53515625 160.74609375 C-63.23848549 157.63829184 -51.01225736 150.62024827 -44.20898438 139.56933594 C-35.99549773 124.98721637 -32.65378695 110.66859176 -36.90234375 94.09375 C-41.10560807 81.19104664 -49.59528466 69.69529408 -61.74194336 63.32128906 C-64.5733835 61.91922305 -67.42355527 60.62252197 -70.33984375 59.40625 C-71.70496094 58.83003906 -71.70496094 58.83003906 -73.09765625 58.2421875 C-92.35063912 53.27816541 -114.29953246 59.02370909 -127.62109375 73.96484375 Z " fill="#37A955" transform="translate(308.33984375,95.59375)"/>
<path d="M0 0 C5.44674406 4.01386616 10.73387971 8.17664025 15.9375 12.5 C17.43092199 13.73575877 18.92441361 14.97143341 20.41796875 16.20703125 C21.17513184 16.83432129 21.93229492 17.46161133 22.71240234 18.10791016 C24.94632679 19.95560647 27.18498574 21.79736382 29.42578125 23.63671875 C36.50184486 29.44602075 43.55526781 35.27616773 50.51586914 41.22363281 C54.5996836 44.7011594 58.79964218 48.00693016 63.07421875 51.24609375 C65.05574007 53.0507653 65.98896497 54.53999497 67 57 C66.54109375 57.59425781 66.0821875 58.18851563 65.609375 58.80078125 C56.08526623 71.66633155 53.22928093 85.4699117 55.4609375 101.26171875 C58.54696614 115.14884761 66.48047464 126.78337953 78.1875 134.875 C91.75588376 142.83536939 107.28033247 144.25245427 122.375 140.4375 C131.07007375 137.62585935 137.97361333 132.71128756 145 127 C143.49199261 130.47635388 141.45398105 132.86629902 138.875 135.625 C135.19295212 139.64549285 131.73404864 143.75997632 128.359375 148.0390625 C125.30332687 151.87430171 122.18414053 155.65558394 119.0625 159.4375 C117.83461879 160.92576753 116.60675391 162.41404854 115.37890625 163.90234375 C114.79512207 164.60987793 114.21133789 165.31741211 113.60986328 166.04638672 C111.56681111 168.52568661 109.532288 171.0118717 107.5 173.5 C90.96192191 193.72686874 90.96192191 193.72686874 83.125 202.9375 C79.43593997 207.27439817 75.83523895 211.66900464 72.30078125 216.1328125 C68.62028856 220.71936875 64.85910303 225.23982296 61.09838867 229.76074219 C57.25329197 234.40457355 53.57272119 239.14351032 50 244 C45.75944488 242.12787262 43.83891295 239.32273095 41.3125 235.5625 C34.64691587 225.95237436 27.25747874 217.15869998 19.3359375 208.5546875 C17.34799121 206.38057901 15.41466662 204.17577224 13.5 201.9375 C10.87151212 198.8965796 8.076165 196.1068229 5.1875 193.3125 C-20.12506013 168.19199268 -34.76861553 132.17677349 -35.24169922 96.64160156 C-35.34065922 60.67837281 -24.22841321 28.63080573 -1 1 C-0.67 0.67 -0.34 0.34 0 0 Z " fill="#FABD08" transform="translate(114,114)"/>
<path d="M0 0 C3.31280825 2.7011224 6.50720599 5.52094757 9.66015625 8.40625 C10.17320312 8.87401855 10.68625 9.34178711 11.21484375 9.82373047 C19.54352502 17.52089054 26.24990415 26.0749382 32.66015625 35.40625 C33.05589844 35.96989258 33.45164062 36.53353516 33.859375 37.11425781 C36.66015625 41.17047697 36.66015625 41.17047697 36.66015625 43.40625 C35.02068277 45.09967324 33.34741079 46.76042872 31.66015625 48.40625 C29.67720966 50.59677021 27.76209943 52.84329872 25.84765625 55.09375 C25.31922119 55.71241943 24.79078613 56.33108887 24.24633789 56.96850586 C20.65076472 61.19540052 17.1583594 65.4927246 13.71875 69.84765625 C11.25203682 72.91349522 8.71133182 75.91065652 6.16015625 78.90625 C2.33494407 83.40119848 -1.40201976 87.94962973 -5.0703125 92.57421875 C-9.79834408 98.47408604 -14.63615549 104.28519198 -19.44921875 110.11572266 C-22.62308697 113.96092302 -25.79416665 117.80841824 -28.96484375 121.65625 C-29.54443848 122.35886963 -30.1240332 123.06148926 -30.72119141 123.78540039 C-31.79143316 125.08403394 -32.86007329 126.38398987 -33.92675781 127.68554688 C-35.16867059 129.19781385 -36.42138052 130.70120038 -37.67578125 132.203125 C-39.51198637 134.39026575 -39.51198637 134.39026575 -40.33984375 137.40625 C-41.32984375 137.73625 -42.31984375 138.06625 -43.33984375 138.40625 C-41.76593975 133.55337932 -40.01702347 128.77419839 -38.2421875 123.9921875 C-34.10776188 112.14374696 -35.68580609 98.86234271 -40.33984375 87.40625 C-47.76979444 72.62334292 -58.34440443 65.47928586 -73.1015625 59.23828125 C-87.63762023 55.50344374 -103.1014113 58.12515356 -115.90234375 65.46875 C-118.18816719 66.88378356 -120.10908327 68.17112525 -121.9921875 70.08984375 C-123.33984375 71.40625 -123.33984375 71.40625 -125.33984375 71.40625 C-125.83484375 72.89125 -125.83484375 72.89125 -126.33984375 74.40625 C-131.64489176 70.61692999 -136.56969343 66.5139062 -141.46484375 62.21875 C-146.3388515 57.94609665 -151.2744235 53.8083082 -156.40234375 49.84375 C-161.83828227 45.63966096 -167.08532202 41.25995951 -172.28125 36.76342773 C-179.16495374 30.80945326 -186.22809326 25.08550886 -193.33984375 19.40625 C-192.76365278 15.83860179 -191.47014891 14.15465503 -188.90234375 11.65625 C-188.28488281 11.04265625 -187.66742188 10.4290625 -187.03125 9.796875 C-185.33984375 8.40625 -185.33984375 8.40625 -183.33984375 8.40625 C-183.33984375 7.74625 -183.33984375 7.08625 -183.33984375 6.40625 C-181.04010569 4.15764588 -178.39993975 2.28600583 -175.83984375 0.34375 C-175.07462402 -0.23826172 -174.3094043 -0.82027344 -173.52099609 -1.41992188 C-166.17444571 -6.89624914 -158.50221475 -11.45226262 -150.33984375 -15.59375 C-149.37691406 -16.08359375 -148.41398437 -16.5734375 -147.421875 -17.078125 C-99.96127973 -39.79191062 -41.11285018 -32.5140053 0 0 Z " fill="#4486F4" transform="translate(308.33984375,95.59375)"/>
<path d="M0 0 C5.44674406 4.01386616 10.73387971 8.17664025 15.9375 12.5 C17.43092199 13.73575877 18.92441361 14.97143341 20.41796875 16.20703125 C21.17513184 16.83432129 21.93229492 17.46161133 22.71240234 18.10791016 C24.94632679 19.95560647 27.18498574 21.79736382 29.42578125 23.63671875 C36.50184486 29.44602075 43.55526781 35.27616773 50.51586914 41.22363281 C54.5996836 44.7011594 58.79964218 48.00693016 63.07421875 51.24609375 C65.05574007 53.0507653 65.98896497 54.53999497 67 57 C66.29423828 57.96099609 66.29423828 57.96099609 65.57421875 58.94140625 C61.40767856 64.62288376 61.40767856 64.62288376 58.375 70.9375 C56.72329165 74.61630496 55.37646116 74.97712016 52 77 C50.09229201 79.02061815 50.09229201 79.02061815 48.375 81.375 C45.18015124 85.51021934 41.89415905 89.52916627 38.5 93.5 C34.67390989 97.99417881 30.93779513 102.54341612 27.26953125 107.16796875 C22.53174817 113.08000444 17.68314636 118.90232455 12.85986328 124.74462891 C11.02742127 126.96674748 9.19861665 129.19180351 7.37109375 131.41796875 C1.88511327 138.09860401 -3.61293446 144.76796808 -9.1875 151.375 C-9.63311279 151.90448242 -10.07872559 152.43396484 -10.5378418 152.97949219 C-12.60432824 155.41859737 -14.69018072 157.78799065 -17 160 C-17 159.01 -17 158.02 -17 157 C-17.66 156.67 -18.32 156.34 -19 156 C-23.29028439 152.56249755 -24.7104267 148.46148623 -26.5 143.4375 C-26.80115723 142.60557129 -27.10231445 141.77364258 -27.41259766 140.91650391 C-39.82045947 105.37488791 -37.56886022 66.0228467 -21.625 32 C-16.04956282 20.51593218 -9.07845967 9.07845967 0 0 Z " fill="#EA4537" transform="translate(114,114)"/>
<path d="M0 0 C0 0.66 0 1.32 0 2 C1.98 2 3.96 2 6 2 C4.34167213 5.94567665 1.6527597 8.93407023 -1.125 12.125 C-2.1325451 13.29859167 -3.13904984 14.47307727 -4.14453125 15.6484375 C-4.63646973 16.22303711 -5.1284082 16.79763672 -5.63525391 17.38964844 C-7.40389693 19.47658392 -9.1140091 21.60570129 -10.8125 23.75 C-16.16504253 30.49791003 -21.67033448 37.12029779 -27.15332031 43.76220703 C-30.68303139 48.03948515 -34.20720048 52.32133136 -37.73095703 56.60351562 C-40.74239341 60.26225429 -43.75823932 63.91722268 -46.78125 67.56640625 C-47.40386719 68.31921875 -48.02648437 69.07203125 -48.66796875 69.84765625 C-49.84617746 71.27205782 -51.02575396 72.69532971 -52.20703125 74.1171875 C-55.48031085 78.07793394 -58.6190035 82.10745786 -61.65356445 86.25439453 C-63.56090731 88.72719624 -65.73456562 90.85702154 -68 93 C-68.556875 93.598125 -69.11375 94.19625 -69.6875 94.8125 C-71 96 -71 96 -73 96 C-73.495 97.485 -73.495 97.485 -74 99 C-79.30504801 95.21067999 -84.22984968 91.1076562 -89.125 86.8125 C-93.99900775 82.53984665 -98.93457975 78.4020582 -104.0625 74.4375 C-109.49843852 70.23341096 -114.74547827 65.85370951 -119.94140625 61.35717773 C-126.82510999 55.40320326 -133.88824951 49.67925886 -141 44 C-140.42380903 40.43235179 -139.13030516 38.74840503 -136.5625 36.25 C-135.94503906 35.63640625 -135.32757813 35.0228125 -134.69140625 34.390625 C-133 33 -133 33 -131 33 C-131 32.34 -131 31.68 -131 31 C-128.70026194 28.75139588 -126.060096 26.87975583 -123.5 24.9375 C-122.73478027 24.35548828 -121.96956055 23.77347656 -121.18115234 23.17382812 C-113.83460196 17.69750086 -106.162371 13.14148738 -98 9 C-97.03707031 8.51015625 -96.07414062 8.0203125 -95.08203125 7.515625 C-66.63832451 -6.09702047 -29.97983833 -10.99260739 0 0 Z " fill="#1C74E8" transform="translate(256,71)"/>
<path d="M0 0 C1.485 0.99 1.485 0.99 3 2 C2.67 2.66 2.34 3.32 2 4 C2.66 4 3.32 4 4 4 C5.61675501 9.68430533 6.3136358 14.72808219 6.25 20.625 C6.25773437 21.34945312 6.26546875 22.07390625 6.2734375 22.8203125 C6.25416138 28.14052183 5.94285049 33.05714951 2 37 C2.165 36.01 2.33 35.02 2.5 34 C3.91316881 22.25822971 3.27596201 11.38786794 0 0 Z " fill="#76AAFC" transform="translate(269,184)"/>
<path d="M0 0 C3.91027835 -0.050211 7.82042656 -0.08609395 11.73095703 -0.10986328 C13.69961157 -0.12462224 15.6681769 -0.15006161 17.63671875 -0.17578125 C25.64030889 -0.21640861 33.15904566 0.37425748 41 2 C41 2.33 41 2.66 41 3 C33.02155962 3.1171386 25.09188471 2.97489056 17.125 2.5625 C15.94973755 2.50364624 15.94973755 2.50364624 14.75073242 2.44360352 C9.79548496 2.17020693 4.91795902 1.66655709 0 1 C0 0.67 0 0.34 0 0 Z " fill="#81B4F8" transform="translate(206,66)"/>
<path d="M0 0 C0.33 0 0.66 0 1 0 C1.06058594 1.25296875 1.12117188 2.5059375 1.18359375 3.796875 C1.26802256 5.44792724 1.35266939 7.09896835 1.4375 8.75 C1.47681641 9.575 1.51613281 10.4 1.55664062 11.25 C1.59853516 12.04921875 1.64042969 12.8484375 1.68359375 13.671875 C1.72025146 14.4050293 1.75690918 15.13818359 1.79467773 15.89355469 C1.94641291 18.00293286 1.94641291 18.00293286 2.51367188 20.01367188 C3.03006091 22.1227789 3.11408086 23.94132656 3.09765625 26.109375 C3.09443359 26.86347656 3.09121094 27.61757812 3.08789062 28.39453125 C3.07951172 29.17183594 3.07113281 29.94914062 3.0625 30.75 C3.05798828 31.54277344 3.05347656 32.33554688 3.04882812 33.15234375 C3.03708565 35.10159508 3.01915146 37.05080738 3 39 C2.67 39 2.34 39 2 39 C-0.33184791 26.00827595 -0.21258186 13.16208764 0 0 Z " fill="#FCB9B3" transform="translate(79,195)"/>
<path d="M0 0 C0.66 0.33 1.32 0.66 2 1 C0.06327014 3.10488005 -1.87435141 5.20892696 -3.8125 7.3125 C-4.35970703 7.90740234 -4.90691406 8.50230469 -5.47070312 9.11523438 C-6.00244141 9.69208984 -6.53417969 10.26894531 -7.08203125 10.86328125 C-7.81256714 11.65665894 -7.81256714 11.65665894 -8.55786133 12.46606445 C-9.03376709 12.97226318 -9.50967285 13.47846191 -10 14 C-10.49330811 14.55969482 -10.98661621 15.11938965 -11.49487305 15.69604492 C-13 17 -13 17 -16 17 C-14.40907948 12.86360664 -11.39525082 9.76786752 -8 7 C-7.34 7 -6.68 7 -6 7 C-6 6.34 -6 5.68 -6 5 C-4.04072937 3.2856382 -2.04119788 1.61594832 0 0 Z " fill="#70AAF7" transform="translate(131,97)"/>
<path d="M0 0 C0.80824219 0.2165625 0.80824219 0.2165625 1.6328125 0.4375 C11.94664397 2.76538673 22.49331941 2.18074216 33 2 C31.84912109 3.48657227 31.84912109 3.48657227 30 5 C25.8881752 5.50229455 21.75686222 5.13525241 17.625 4.9375 C16.48804688 4.90978516 15.35109375 4.88207031 14.1796875 4.85351562 C5.80624656 4.50462225 5.80624656 4.50462225 1.7109375 1.94140625 C1.14632812 1.30074219 0.58171875 0.66007813 0 0 Z " fill="#FEE58F" transform="translate(201,254)"/>
<path d="M0 0 C2.10353495 -0.0810206 4.20795952 -0.13919907 6.3125 -0.1875 C7.48425781 -0.22230469 8.65601563 -0.25710937 9.86328125 -0.29296875 C13 0 13 0 16 3 C9.4 3 2.8 3 -4 3 C-2.68 2.67 -1.36 2.34 0 2 C0 1.34 0 0.68 0 0 Z " fill="#95BDFD" transform="translate(214,150)"/>
<path d="M0 0 C0.33 0 0.66 0 1 0 C1.08703823 3.43734063 1.14040272 6.87439837 1.1875 10.3125 C1.21263672 11.28896484 1.23777344 12.26542969 1.26367188 13.27148438 C1.27333984 14.20927734 1.28300781 15.14707031 1.29296875 16.11328125 C1.3086792 16.97735596 1.32438965 17.84143066 1.34057617 18.73168945 C1 21 1 21 -2 24 C-1.34 16.08 -0.68 8.16 0 0 Z " fill="#A4C7FE" transform="translate(273,197)"/>
<path d="M0 0 C3.39813989 6.27348903 5.44785363 11.83434196 5 19 C3.0492171 16.07382565 2.28486538 13.97955419 1.375 10.625 C1.11460938 9.68914062 0.85421875 8.75328125 0.5859375 7.7890625 C0.02074867 5.09876365 -0.10954217 2.73855429 0 0 Z " fill="#FBB6B0" transform="translate(82,234)"/>
<path d="M0 0 C0.33 1.32 0.66 2.64 1 4 C-1.31 5.98 -3.62 7.96 -6 10 C-6 6.41087588 -5.33563446 5.89142971 -3 3.3125 C-2.443125 2.68988281 -1.88625 2.06726563 -1.3125 1.42578125 C-0.879375 0.95527344 -0.44625 0.48476562 0 0 Z " fill="#F6897F" transform="translate(114,114)"/>
<path d="M0 0 C1.07033136 3.21822604 0.95795392 5.03142433 -0.25 8.1875 C-0.62898438 9.22970703 -0.62898438 9.22970703 -1.015625 10.29296875 C-2 12 -2 12 -5 13 C-3.58192622 8.52761347 -1.88695626 4.28853694 0 0 Z " fill="#9EC8E7" transform="translate(270,221)"/>
<path d="M0 0 C0.33 0.66 0.66 1.32 1 2 C0.00390625 4.3828125 0.00390625 4.3828125 -1.4375 7.125 C-1.91058594 8.03507812 -2.38367188 8.94515625 -2.87109375 9.8828125 C-3.24363281 10.58148438 -3.61617187 11.28015625 -4 12 C-4.33 12 -4.66 12 -5 12 C-4.67 9.69 -4.34 7.38 -4 5 C-3.34 5 -2.68 5 -2 5 C-1.34 3.35 -0.68 1.7 0 0 Z " fill="#A1D9AF" transform="translate(249,407)"/>
<path d="M0 0 C0.99 0 1.98 0 3 0 C3.33 1.32 3.66 2.64 4 4 C1.66666667 4 -0.66666667 4 -3 4 C-1.6875 2 -1.6875 2 0 0 Z " fill="#64BC83" transform="translate(343,139)"/>
<path d="M0 0 C1.9375 0.8125 1.9375 0.8125 4 2 C4.33 2.99 4.66 3.98 5 5 C5.66 5.66 6.32 6.32 7 7 C6.01 7 5.02 7 4 7 C0 2.65714286 0 2.65714286 0 0 Z " fill="#FEDE72" transform="translate(104,287)"/>
<path d="" fill="#FDFFFD" transform="translate(0,0)"/>
<path d="" fill="#FEFFFE" transform="translate(0,0)"/>
<path d="" fill="#FDFFFD" transform="translate(0,0)"/>
</svg>
