<?xml version="1.0" encoding="UTF-8"?>
<!DOCTYPE svg PUBLIC "-//W3C//DTD SVG 1.1//EN" "http://www.w3.org/Graphics/SVG/1.1/DTD/svg11.dtd">
<svg xmlns="http://www.w3.org/2000/svg" version="1.1" width="612px" height="408px" style="shape-rendering:geometricPrecision; text-rendering:geometricPrecision; image-rendering:optimizeQuality; fill-rule:evenodd; clip-rule:evenodd" xmlns:xlink="http://www.w3.org/1999/xlink">
<g><path style="opacity:1" fill="#667a6e" d="M 229.5,50.5 C 228.316,51.6879 228.316,52.8545 229.5,54C 231.788,54.8221 234.122,55.4888 236.5,56C 234.665,56.9277 234.332,58.0944 235.5,59.5C 231.701,61.0927 227.701,61.926 223.5,62C 222.944,62.3826 222.611,62.8826 222.5,63.5C 221.398,67.7471 221.232,72.0804 222,76.5C 222.377,77.9423 223.21,78.9423 224.5,79.5C 223.61,81.7819 223.444,84.1152 224,86.5C 225.147,85.5419 226.147,85.8753 227,87.5C 227.49,88.7932 227.657,90.1266 227.5,91.5C 229.103,91.3118 230.437,91.8118 231.5,93C 231.081,96.3081 229.748,99.1414 227.5,101.5C 218.617,89.772 209.117,78.4387 199,67.5C 193.834,62.154 188.001,57.8206 181.5,54.5C 181.5,53.8333 181.5,53.1667 181.5,52.5C 185.702,52.8168 189.702,52.4834 193.5,51.5C 205.495,51.0336 217.495,50.7002 229.5,50.5 Z"/></g>
<g><path style="opacity:1" fill="#1e2921" d="M 293.5,50.5 C 306.617,50.2426 319.283,52.4093 331.5,57C 359.147,69.813 385.147,85.1463 409.5,103C 413.784,104.357 418.117,105.523 422.5,106.5C 422.67,107.822 422.337,108.989 421.5,110C 417.986,111.562 414.319,112.395 410.5,112.5C 404.31,113.143 398.31,114.143 392.5,115.5C 377.131,116.467 361.798,117.8 346.5,119.5C 344.801,119.66 343.134,119.494 341.5,119C 335.5,113.667 329.5,108.333 323.5,103C 324.448,102.517 325.448,102.351 326.5,102.5C 342.281,104.677 358.281,106.01 374.5,106.5C 374.044,99.0884 371.044,92.9217 365.5,88C 349.052,77.9426 331.719,69.7759 313.5,63.5C 310.45,62.0648 307.117,61.3981 303.5,61.5C 296.518,62.2322 289.518,62.5655 282.5,62.5C 277.02,58.9213 271.686,55.0879 266.5,51C 275.494,50.5002 284.494,50.3336 293.5,50.5 Z"/></g>
<g><path style="opacity:1" fill="#243227" d="M 253.5,49.5 C 255.833,49.5 258.167,49.5 260.5,49.5C 266.653,54.1369 272.986,58.6369 279.5,63C 278.299,63.9025 277.465,65.0692 277,66.5C 269.385,61.6138 261.885,56.6138 254.5,51.5C 253.662,51.1583 253.328,50.4916 253.5,49.5 Z"/></g>
<g><path style="opacity:0.789" fill="#5f7d66" d="M 257.5,61.5 C 261.42,61.0428 263.92,62.7095 265,66.5C 269.417,77.5829 272.917,88.9162 275.5,100.5C 273.473,100.662 271.473,100.495 269.5,100C 267.65,97.9824 265.65,96.1491 263.5,94.5C 262.822,90.2903 261.822,86.2903 260.5,82.5C 259.579,77.9862 258.079,73.6529 256,69.5C 249.617,66.412 243.951,67.412 239,72.5C 235.357,77.5935 233.191,83.2601 232.5,89.5C 231.167,89.5 229.833,89.5 228.5,89.5C 228.365,85.5698 227.032,82.2365 224.5,79.5C 223.21,78.9423 222.377,77.9423 222,76.5C 221.232,72.0804 221.398,67.7471 222.5,63.5C 234.083,61.8511 245.749,61.1844 257.5,61.5 Z"/></g>
<g><path style="opacity:1" fill="#314838" d="M 313.5,63.5 C 312.167,63.5 310.833,63.5 309.5,63.5C 310.719,67.7339 311.886,72.0672 313,76.5C 318.412,81.0593 321.912,86.726 323.5,93.5C 324.01,96.3878 323.344,98.7211 321.5,100.5C 307.707,88.7732 293.374,77.7732 278.5,67.5C 279.452,66.548 280.452,65.548 281.5,64.5C 283.702,66.268 286.035,67.4346 288.5,68C 286.237,66.383 284.237,64.5497 282.5,62.5C 289.518,62.5655 296.518,62.2322 303.5,61.5C 307.117,61.3981 310.45,62.0648 313.5,63.5 Z"/></g>
<g><path style="opacity:0.573" fill="#dedfde" d="M 559.5,169.5 C 558.167,171.167 558.167,172.833 559.5,174.5C 559.826,183.349 559.493,192.016 558.5,200.5C 558.666,194.824 558.499,189.157 558,183.5C 557.274,194.405 555.274,205.072 552,215.5C 546.274,220.291 539.774,223.124 532.5,224C 537.833,221.667 543.167,219.333 548.5,217C 549.701,216.097 550.535,214.931 551,213.5C 555.71,199.991 556.377,186.324 553,172.5C 552.722,171.584 552.222,170.918 551.5,170.5C 551.5,169.833 551.167,169.5 550.5,169.5C 550.649,168.448 550.483,167.448 550,166.5C 543.667,160.167 537.333,153.833 531,147.5C 530.536,148.094 530.369,148.761 530.5,149.5C 517.161,137.658 501.828,129.158 484.5,124C 509.619,130.168 530.786,143.001 548,162.5C 548,161.167 548,159.833 548,158.5C 549.333,160.5 550.667,162.5 552,164.5C 552.667,162.833 552.667,161.167 552,159.5C 548.265,153.096 543.765,147.263 538.5,142C 526.5,133.829 513.5,128.162 499.5,125C 502.063,125.763 502.063,126.263 499.5,126.5C 493.606,124.251 487.606,122.751 481.5,122C 484.063,122.763 484.063,123.263 481.5,123.5C 478.226,122.53 475.226,121.03 472.5,119C 476.39,118.759 480.223,119.259 484,120.5C 484.833,120.333 485.667,120.167 486.5,120C 465.319,113.406 443.986,108.906 422.5,106.5C 418.117,105.523 413.784,104.357 409.5,103C 385.147,85.1463 359.147,69.813 331.5,57C 319.283,52.4093 306.617,50.2426 293.5,50.5C 293.5,50.1667 293.5,49.8333 293.5,49.5C 297.514,49.6655 301.514,49.4988 305.5,49C 297.558,47.3404 289.558,46.0071 281.5,45C 283.833,44.6667 286.167,44.3333 288.5,44C 287,43.8333 285.5,43.6667 284,43.5C 248.18,43.6909 212.346,43.8576 176.5,44C 180.11,45.944 183.443,48.2774 186.5,51C 188.81,51.4966 191.143,51.6633 193.5,51.5C 189.702,52.4834 185.702,52.8168 181.5,52.5C 172.263,43.2532 161.096,39.2532 148,40.5C 136.659,40.2639 125.493,41.4306 114.5,44C 121.511,43.8512 128.511,43.1846 135.5,42C 142.192,41.1691 148.858,41.3358 155.5,42.5C 137.973,43.1991 120.64,45.3657 103.5,49C 101.148,49.2401 99.1484,50.0735 97.5,51.5C 90.3848,53.9677 83.0514,56.1344 75.5,58C 70.6337,60.4561 65.6337,62.6228 60.5,64.5C 67.7556,58.8611 75.4223,53.6944 83.5,49C 108.209,40.8569 133.543,36.8569 159.5,37C 164.021,37.7293 168.354,39.0626 172.5,41C 194.833,41.6667 217.167,41.6667 239.5,41C 258.815,38.3033 278.148,37.97 297.5,40C 316.398,46.281 334.731,53.9477 352.5,63C 373.099,75.2707 393.432,87.9374 413.5,101C 442.512,106.602 471.179,113.602 499.5,122C 513.162,126.661 526.162,132.661 538.5,140C 548.826,147.488 555.826,157.322 559.5,169.5 Z"/></g>
<g><path style="opacity:1" fill="#5b7162" d="M 253.5,49.5 C 253.328,50.4916 253.662,51.1583 254.5,51.5C 254.586,52.4959 254.252,53.3292 253.5,54C 256.032,54.6122 256.865,56.1122 256,58.5C 253.595,59.2744 251.095,59.7744 248.5,60C 251.695,60.1805 254.695,60.6805 257.5,61.5C 245.749,61.1844 234.083,61.8511 222.5,63.5C 222.611,62.8826 222.944,62.3826 223.5,62C 227.701,61.926 231.701,61.0927 235.5,59.5C 234.332,58.0944 234.665,56.9277 236.5,56C 234.122,55.4888 231.788,54.8221 229.5,54C 228.316,52.8545 228.316,51.6879 229.5,50.5C 237.316,49.5076 245.316,49.1743 253.5,49.5 Z"/></g>
<g><path style="opacity:1" fill="#f9faf9" d="M 293.5,49.5 C 282.5,49.5 271.5,49.5 260.5,49.5C 258.167,49.5 255.833,49.5 253.5,49.5C 245.316,49.1743 237.316,49.5076 229.5,50.5C 217.495,50.7002 205.495,51.0336 193.5,51.5C 191.143,51.6633 188.81,51.4966 186.5,51C 183.443,48.2774 180.11,45.944 176.5,44C 212.346,43.8576 248.18,43.6909 284,43.5C 285.5,43.6667 287,43.8333 288.5,44C 286.167,44.3333 283.833,44.6667 281.5,45C 289.558,46.0071 297.558,47.3404 305.5,49C 301.514,49.4988 297.514,49.6655 293.5,49.5 Z"/></g>
<g><path style="opacity:1" fill="#d5d5d5" d="M 181.5,52.5 C 181.5,53.1667 181.5,53.8333 181.5,54.5C 170.715,47.8451 158.882,44.8451 146,45.5C 129.673,46.3737 113.506,48.3737 97.5,51.5C 99.1484,50.0735 101.148,49.2401 103.5,49C 120.64,45.3657 137.973,43.1991 155.5,42.5C 148.858,41.3358 142.192,41.1691 135.5,42C 128.511,43.1846 121.511,43.8512 114.5,44C 125.493,41.4306 136.659,40.2639 148,40.5C 161.096,39.2532 172.263,43.2532 181.5,52.5 Z"/></g>
<g><path style="opacity:1" fill="#fbfbfb" d="M 258.5,40.5 C 269.838,40.3335 281.172,40.5001 292.5,41C 299.972,41.9017 306.972,44.235 313.5,48C 305.912,46.9044 298.246,45.9044 290.5,45C 289.833,44 289.167,43 288.5,42C 278.324,41.3844 268.157,41.5511 258,42.5C 255.5,42.3333 253,42.1667 250.5,42C 253.365,41.8171 256.031,41.3171 258.5,40.5 Z"/></g>
<g><path style="opacity:0.784" fill="#5d7c65" d="M 313.5,63.5 C 331.719,69.7759 349.052,77.9426 365.5,88C 371.044,92.9217 374.044,99.0884 374.5,106.5C 358.281,106.01 342.281,104.677 326.5,102.5C 325.047,99.6065 324.047,96.6065 323.5,93.5C 321.912,86.726 318.412,81.0593 313,76.5C 311.886,72.0672 310.719,67.7339 309.5,63.5C 310.833,63.5 312.167,63.5 313.5,63.5 Z"/></g>
<g><path style="opacity:0.785" fill="#5e7d65" d="M 278.5,67.5 C 293.374,77.7732 307.707,88.7732 321.5,100.5C 321.611,101.117 321.944,101.617 322.5,102C 311.134,102.376 299.8,101.876 288.5,100.5C 286.424,99.5732 285.257,97.9065 285,95.5C 282.422,86.689 279.922,77.8557 277.5,69C 277.57,68.2352 277.903,67.7352 278.5,67.5 Z"/></g>
<g><path style="opacity:1" fill="#809c8b" d="M 163.5,59.5 C 168.81,62.1562 173.81,65.3228 178.5,69C 186.417,77.0771 193.75,85.5771 200.5,94.5C 199.674,99.3165 199.174,104.316 199,109.5C 192.622,101.062 184.122,97.0616 173.5,97.5C 173.611,96.8826 173.944,96.3826 174.5,96C 173.262,96.0773 172.262,95.9106 171.5,95.5C 172.022,94.3926 172.355,93.2259 172.5,92C 170.026,86.8857 167.692,81.719 165.5,76.5C 166.364,74.8035 167.697,73.6368 169.5,73C 165.169,73.1409 164.502,71.8075 167.5,69C 166.833,68.6667 166.167,68.3333 165.5,68C 166.578,67.3261 167.245,66.3261 167.5,65C 166.363,62.9585 165.03,61.1252 163.5,59.5 Z"/></g>
<g><path style="opacity:1" fill="#5c7164" d="M 260.5,82.5 C 260.295,86.7422 258.628,90.2422 255.5,93C 256.715,95.0955 257.549,94.9288 258,92.5C 259.538,94.3293 259.038,95.8293 256.5,97C 257.793,97.49 259.127,97.6567 260.5,97.5C 260.5,100.167 260.5,102.833 260.5,105.5C 258.167,105.5 255.833,105.5 253.5,105.5C 253.662,107.527 253.495,109.527 253,111.5C 250.628,113.703 248.461,116.037 246.5,118.5C 238.006,115.344 231.673,109.677 227.5,101.5C 229.748,99.1414 231.081,96.3081 231.5,93C 230.437,91.8118 229.103,91.3118 227.5,91.5C 227.657,90.1266 227.49,88.7932 227,87.5C 226.147,85.8753 225.147,85.5419 224,86.5C 223.444,84.1152 223.61,81.7819 224.5,79.5C 227.032,82.2365 228.365,85.5698 228.5,89.5C 229.833,89.5 231.167,89.5 232.5,89.5C 233.191,83.2601 235.357,77.5935 239,72.5C 243.951,67.412 249.617,66.412 256,69.5C 258.079,73.6529 259.579,77.9862 260.5,82.5 Z"/></g>
<g><path style="opacity:1" fill="#fdfdfd" d="M 106.5,135.5 C 87.2065,131.208 67.8732,127.375 48.5,124C 67.882,128.513 87.2154,133.013 106.5,137.5C 106.799,139.604 106.466,141.604 105.5,143.5C 97.0512,140.386 88.3845,138.553 79.5,138C 88.7218,140.43 97.8884,142.93 107,145.5C 107.345,160.736 108.512,175.903 110.5,191C 110.167,194.167 109.833,197.333 109.5,200.5C 108.158,198.995 106.492,198.328 104.5,198.5C 106.151,199.97 107.985,201.303 110,202.5C 110.287,204.891 110.787,207.224 111.5,209.5C 111.376,210.107 111.043,210.44 110.5,210.5C 96.5516,205.409 82.885,199.742 69.5,193.5C 66.5372,177.572 59.3705,163.906 48,152.5C 44.7261,138.79 44.7261,125.124 48,111.5C 49.0616,110.101 50.395,109.101 52,108.5C 58.3465,110.759 64.1798,113.592 69.5,117C 64.8397,112.666 59.5063,109.332 53.5,107C 57.4232,103.908 60.4232,100.074 62.5,95.5C 66.3532,98.5195 69.6865,102.019 72.5,106C 75.3388,107.92 78.3388,109.587 81.5,111C 92.0589,113.712 102.726,116.046 113.5,118C 110.285,123.477 107.952,129.311 106.5,135.5 Z"/></g>
<g><path style="opacity:1" fill="#222d25" d="M 73.5,96.5 C 84.1667,96.8333 94.8333,97.1667 105.5,97.5C 112.317,98.5655 119.317,99.2322 126.5,99.5C 126.5,99.8333 126.5,100.167 126.5,100.5C 125.873,105.141 125.54,109.807 125.5,114.5C 123.5,114.5 121.5,114.5 119.5,114.5C 107.752,113.192 96.0854,111.358 84.5,109C 78.1748,106.835 73.1748,103.002 69.5,97.5C 70.5676,96.5655 71.901,96.2322 73.5,96.5 Z"/></g>
<g><path style="opacity:0.851" fill="#7d6f72" d="M 30.5,104.5 C 32.1667,104.5 33.8333,104.5 35.5,104.5C 35.5,104.833 35.5,105.167 35.5,105.5C 32.3915,105.264 29.3915,105.597 26.5,106.5C 27.1834,104.824 28.5168,104.157 30.5,104.5 Z"/></g>
<g><path style="opacity:1" fill="#fdfdfd" d="M 35.5,106.5 C 40.0509,106.053 44.3843,106.719 48.5,108.5C 46.2975,110.295 45.1308,112.629 45,115.5C 44.6486,126.899 44.4819,138.232 44.5,149.5C 36.2254,145.55 30.3921,147.883 27,156.5C 26.5001,144.171 26.3335,131.838 26.5,119.5C 29.266,114.955 32.266,110.622 35.5,106.5 Z"/></g>
<g><path style="opacity:1" fill="#fcfcfc" d="M 530.5,149.5 C 530.369,148.761 530.536,148.094 531,147.5C 537.333,153.833 543.667,160.167 550,166.5C 550.483,167.448 550.649,168.448 550.5,169.5C 545.618,170.792 540.952,172.459 536.5,174.5C 521.787,179.179 506.787,182.846 491.5,185.5C 489.473,185.662 487.473,185.495 485.5,185C 473.167,177.167 460.833,169.333 448.5,161.5C 448.511,162.441 448.011,163.108 447,163.5C 438.504,159.164 429.671,155.831 420.5,153.5C 408.062,147.798 395.062,143.465 381.5,140.5C 360.547,134.881 339.214,130.547 317.5,127.5C 313.107,125.735 308.44,124.568 303.5,124C 305.382,123.802 307.048,123.302 308.5,122.5C 321.334,121.903 334,120.903 346.5,119.5C 361.798,117.8 377.131,116.467 392.5,115.5C 398.871,115.938 404.871,114.938 410.5,112.5C 414.319,112.395 417.986,111.562 421.5,110C 422.337,108.989 422.67,107.822 422.5,106.5C 443.986,108.906 465.319,113.406 486.5,120C 485.667,120.167 484.833,120.333 484,120.5C 480.223,119.259 476.39,118.759 472.5,119C 475.226,121.03 478.226,122.53 481.5,123.5C 484.063,123.263 484.063,122.763 481.5,122C 487.606,122.751 493.606,124.251 499.5,126.5C 502.063,126.263 502.063,125.763 499.5,125C 513.5,128.162 526.5,133.829 538.5,142C 543.765,147.263 548.265,153.096 552,159.5C 552.667,161.167 552.667,162.833 552,164.5C 550.667,162.5 549.333,160.5 548,158.5C 548,159.833 548,161.167 548,162.5C 530.786,143.001 509.619,130.168 484.5,124C 501.828,129.158 517.161,137.658 530.5,149.5 Z"/></g>
<g><path style="opacity:1" fill="#494633" d="M 146.5,107.5 C 157.239,108.176 167.905,109.509 178.5,111.5C 167.759,111.814 157.092,111.147 146.5,109.5C 146.5,110.5 146.5,111.5 146.5,112.5C 143.952,110.704 143.952,109.038 146.5,107.5 Z"/></g>
<g><path style="opacity:1" fill="#964c52" d="M 26.5,108.5 C 28.288,108.215 29.9547,108.548 31.5,109.5C 29.7267,112.06 27.7267,114.393 25.5,116.5C 24.5159,119.428 24.1826,122.428 24.5,125.5C 23.1667,121.167 23.1667,116.833 24.5,112.5C 25.6737,111.486 26.3404,110.153 26.5,108.5 Z"/></g>
<g><path style="opacity:0.929" fill="#a28187" d="M 26.5,106.5 C 26.5,107.167 26.5,107.833 26.5,108.5C 26.3404,110.153 25.6737,111.486 24.5,112.5C 24.2594,110.102 24.9261,108.102 26.5,106.5 Z"/></g>
<g><path style="opacity:1" fill="#51181c" d="M 35.5,105.5 C 35.5,105.833 35.5,106.167 35.5,106.5C 32.266,110.622 29.266,114.955 26.5,119.5C 25.8333,121.5 25.1667,123.5 24.5,125.5C 24.1826,122.428 24.5159,119.428 25.5,116.5C 27.7267,114.393 29.7267,112.06 31.5,109.5C 29.9547,108.548 28.288,108.215 26.5,108.5C 26.5,107.833 26.5,107.167 26.5,106.5C 29.3915,105.597 32.3915,105.264 35.5,105.5 Z"/></g>
<g><path style="opacity:1" fill="#dfe0df" d="M 65.5,71.5 C 62.1323,74.9028 59.799,78.9028 58.5,83.5C 59.6934,87.0287 61.6934,90.0287 64.5,92.5C 65.8333,94.5 67.5,96.1667 69.5,97.5C 73.1748,103.002 78.1748,106.835 84.5,109C 96.0854,111.358 107.752,113.192 119.5,114.5C 129.354,116.059 139.354,117.559 149.5,119C 150.044,119.717 150.711,120.217 151.5,120.5C 152.11,121.391 152.443,122.391 152.5,123.5C 140.227,122.278 128.06,120.278 116,117.5C 112.381,123.074 109.547,129.074 107.5,135.5C 107.167,135.5 106.833,135.5 106.5,135.5C 107.952,129.311 110.285,123.477 113.5,118C 102.726,116.046 92.0589,113.712 81.5,111C 78.3388,109.587 75.3388,107.92 72.5,106C 69.6865,102.019 66.3532,98.5195 62.5,95.5C 60.4232,100.074 57.4232,103.908 53.5,107C 59.5063,109.332 64.8397,112.666 69.5,117C 64.1798,113.592 58.3465,110.759 52,108.5C 50.395,109.101 49.0616,110.101 48,111.5C 44.7261,125.124 44.7261,138.79 48,152.5C 59.3705,163.906 66.5372,177.572 69.5,193.5C 68.209,193.737 67.209,193.404 66.5,192.5C 64.9836,176.983 57.9836,163.483 45.5,152C 37.5405,147.248 31.7072,149.082 28,157.5C 27.2204,159.387 27.3871,161.054 28.5,162.5C 26.2121,170.698 25.8787,179.031 27.5,187.5C 26.9518,189.626 26.2852,191.626 25.5,193.5C 24.798,170.84 24.4647,148.174 24.5,125.5C 25.1667,123.5 25.8333,121.5 26.5,119.5C 26.3335,131.838 26.5001,144.171 27,156.5C 30.3921,147.883 36.2254,145.55 44.5,149.5C 44.4819,138.232 44.6486,126.899 45,115.5C 45.1308,112.629 46.2975,110.295 48.5,108.5C 44.3843,106.719 40.0509,106.053 35.5,106.5C 35.5,106.167 35.5,105.833 35.5,105.5C 35.5,105.167 35.5,104.833 35.5,104.5C 40.6674,104.09 45.6674,104.757 50.5,106.5C 55.7866,103.628 59.4532,99.2943 61.5,93.5C 59.144,90.9783 56.9773,88.3116 55,85.5C 54.3333,84.1667 54.3333,82.8333 55,81.5C 57.6153,77.2171 60.6153,73.2171 64,69.5C 64.2784,70.4158 64.7784,71.0825 65.5,71.5 Z"/></g>
<g><path style="opacity:1" fill="#d77239" d="M 178.5,111.5 C 181.305,112.319 184.305,112.819 187.5,113C 187.167,113.333 186.833,113.667 186.5,114C 181.845,114.499 177.179,114.666 172.5,114.5C 163.781,114.211 155.114,113.544 146.5,112.5C 146.5,111.5 146.5,110.5 146.5,109.5C 157.092,111.147 167.759,111.814 178.5,111.5 Z"/></g>
<g><path style="opacity:1" fill="#4c6354" d="M 260.5,49.5 C 271.5,49.5 282.5,49.5 293.5,49.5C 293.5,49.8333 293.5,50.1667 293.5,50.5C 284.494,50.3336 275.494,50.5002 266.5,51C 271.686,55.0879 277.02,58.9213 282.5,62.5C 284.237,64.5497 286.237,66.383 288.5,68C 286.035,67.4346 283.702,66.268 281.5,64.5C 280.452,65.548 279.452,66.548 278.5,67.5C 277.903,67.7352 277.57,68.2352 277.5,69C 279.922,77.8557 282.422,86.689 285,95.5C 285.257,97.9065 286.424,99.5732 288.5,100.5C 283.934,100.779 283.934,102.279 288.5,105C 287.484,105.519 286.818,106.353 286.5,107.5C 287.156,109.453 287.489,111.453 287.5,113.5C 285.169,113.498 283.169,114.331 281.5,116C 282.833,116.333 284.167,116.667 285.5,117C 285.167,117.333 284.833,117.667 284.5,118C 279.833,118.333 275.167,118.667 270.5,119C 278.834,119.521 279.167,120.187 271.5,121C 276.351,121.174 281.018,121.674 285.5,122.5C 283.167,122.5 280.833,122.5 278.5,122.5C 267.649,122.258 256.982,120.925 246.5,118.5C 248.461,116.037 250.628,113.703 253,111.5C 253.495,109.527 253.662,107.527 253.5,105.5C 255.833,105.5 258.167,105.5 260.5,105.5C 260.5,102.833 260.5,100.167 260.5,97.5C 259.127,97.6567 257.793,97.49 256.5,97C 259.038,95.8293 259.538,94.3293 258,92.5C 257.549,94.9288 256.715,95.0955 255.5,93C 258.628,90.2422 260.295,86.7422 260.5,82.5C 261.822,86.2903 262.822,90.2903 263.5,94.5C 265.65,96.1491 267.65,97.9824 269.5,100C 271.473,100.495 273.473,100.662 275.5,100.5C 272.917,88.9162 269.417,77.5829 265,66.5C 263.92,62.7095 261.42,61.0428 257.5,61.5C 254.695,60.6805 251.695,60.1805 248.5,60C 251.095,59.7744 253.595,59.2744 256,58.5C 256.865,56.1122 256.032,54.6122 253.5,54C 254.252,53.3292 254.586,52.4959 254.5,51.5C 261.885,56.6138 269.385,61.6138 277,66.5C 277.465,65.0692 278.299,63.9025 279.5,63C 272.986,58.6369 266.653,54.1369 260.5,49.5 Z"/></g>
<g><path style="opacity:1" fill="#3b4a40" d="M 200.5,94.5 C 207.862,103.224 212.528,113.224 214.5,124.5C 214.917,127.079 214.25,129.246 212.5,131C 207.316,131.816 202.316,131.65 197.5,130.5C 204.97,131.09 205.303,129.59 198.5,126C 196.866,125.506 195.199,125.34 193.5,125.5C 189.353,124.675 185.019,124.175 180.5,124C 189.425,122.752 198.425,122.085 207.5,122C 207.167,121.667 206.833,121.333 206.5,121C 203.572,121.456 200.572,121.456 197.5,121C 199.271,120.465 199.604,119.631 198.5,118.5C 189.513,119.294 180.513,118.96 171.5,117.5C 175.796,116.672 180.129,116.172 184.5,116C 180.312,115.824 176.312,115.324 172.5,114.5C 177.179,114.666 181.845,114.499 186.5,114C 186.833,113.667 187.167,113.333 187.5,113C 184.305,112.819 181.305,112.319 178.5,111.5C 167.905,109.509 157.239,108.176 146.5,107.5C 146.5,106.5 146.5,105.5 146.5,104.5C 144.459,104.146 142.626,104.146 141,104.5C 140.005,103.934 139.172,103.267 138.5,102.5C 141.066,102.344 143.566,102.678 146,103.5C 147.301,103.361 148.134,102.695 148.5,101.5C 156.56,98.6224 164.893,97.2891 173.5,97.5C 184.122,97.0616 192.622,101.062 199,109.5C 199.174,104.316 199.674,99.3165 200.5,94.5 Z"/></g>
<g><path style="opacity:1" fill="#bcbdbc" d="M 410.5,112.5 C 404.871,114.938 398.871,115.938 392.5,115.5C 398.31,114.143 404.31,113.143 410.5,112.5 Z"/></g>
<g><path style="opacity:1" fill="#fdfdfd" d="M 152.5,123.5 C 153.391,124.11 154.391,124.443 155.5,124.5C 156.058,125.79 157.058,126.623 158.5,127C 164.445,128.162 170.445,128.662 176.5,128.5C 179.5,129.167 182.5,129.833 185.5,130.5C 184.358,132.433 182.692,133.933 180.5,135C 175.586,136.79 170.919,139.124 166.5,142C 165.167,143 165.167,144 166.5,145C 171.167,145.667 175.833,145.667 180.5,145C 187.5,142.167 194.5,139.333 201.5,136.5C 202.216,137.311 203.05,137.978 204,138.5C 207.441,137.618 210.941,137.284 214.5,137.5C 212.325,144.71 210.658,152.043 209.5,159.5C 202.594,157.69 195.594,156.357 188.5,155.5C 161.532,148.675 134.532,142.008 107.5,135.5C 109.547,129.074 112.381,123.074 116,117.5C 128.06,120.278 140.227,122.278 152.5,123.5 Z"/></g>
<g><path style="opacity:1" fill="#405849" d="M 323.5,93.5 C 324.047,96.6065 325.047,99.6065 326.5,102.5C 325.448,102.351 324.448,102.517 323.5,103C 329.5,108.333 335.5,113.667 341.5,119C 343.134,119.494 344.801,119.66 346.5,119.5C 334,120.903 321.334,121.903 308.5,122.5C 300.833,122.5 293.167,122.5 285.5,122.5C 281.018,121.674 276.351,121.174 271.5,121C 279.167,120.187 278.834,119.521 270.5,119C 275.167,118.667 279.833,118.333 284.5,118C 284.833,117.667 285.167,117.333 285.5,117C 284.167,116.667 282.833,116.333 281.5,116C 283.169,114.331 285.169,113.498 287.5,113.5C 287.489,111.453 287.156,109.453 286.5,107.5C 286.818,106.353 287.484,105.519 288.5,105C 283.934,102.279 283.934,100.779 288.5,100.5C 299.8,101.876 311.134,102.376 322.5,102C 321.944,101.617 321.611,101.117 321.5,100.5C 323.344,98.7211 324.01,96.3878 323.5,93.5 Z"/></g>
<g><path style="opacity:1" fill="#323f35" d="M 126.5,100.5 C 130.733,100.539 134.733,101.205 138.5,102.5C 139.172,103.267 140.005,103.934 141,104.5C 142.626,104.146 144.459,104.146 146.5,104.5C 146.5,105.5 146.5,106.5 146.5,107.5C 143.952,109.038 143.952,110.704 146.5,112.5C 155.114,113.544 163.781,114.211 172.5,114.5C 176.312,115.324 180.312,115.824 184.5,116C 180.129,116.172 175.796,116.672 171.5,117.5C 180.513,118.96 189.513,119.294 198.5,118.5C 199.604,119.631 199.271,120.465 197.5,121C 200.572,121.456 203.572,121.456 206.5,121C 206.833,121.333 207.167,121.667 207.5,122C 198.425,122.085 189.425,122.752 180.5,124C 185.019,124.175 189.353,124.675 193.5,125.5C 180.324,126.088 167.324,124.921 154.5,122C 153.667,121.167 152.833,120.333 152,119.5C 151.601,119.728 151.435,120.062 151.5,120.5C 150.711,120.217 150.044,119.717 149.5,119C 139.354,117.559 129.354,116.059 119.5,114.5C 121.5,114.5 123.5,114.5 125.5,114.5C 125.54,109.807 125.873,105.141 126.5,100.5 Z"/></g>
<g><path style="opacity:1" fill="#fbfbfb" d="M 181.5,54.5 C 188.001,57.8206 193.834,62.154 199,67.5C 209.117,78.4387 218.617,89.772 227.5,101.5C 231.673,109.677 238.006,115.344 246.5,118.5C 256.982,120.925 267.649,122.258 278.5,122.5C 291.381,123.873 304.381,125.54 317.5,127.5C 338.41,131.974 359.41,136.641 380.5,141.5C 394.024,144.932 407.357,148.932 420.5,153.5C 442.523,161.845 463.523,172.345 483.5,185C 480.518,185.498 477.518,185.665 474.5,185.5C 468.5,185.5 462.5,185.5 456.5,185.5C 455.167,185.5 453.833,185.5 452.5,185.5C 410.189,184.408 368.523,178.741 327.5,168.5C 308.204,164.009 288.87,159.176 269.5,154C 266.098,152.6 263.264,150.433 261,147.5C 258.5,143.667 256,139.833 253.5,136C 255.473,135.505 257.473,135.338 259.5,135.5C 264.894,135.733 270.227,136.399 275.5,137.5C 288.88,139.961 302.213,142.627 315.5,145.5C 323.974,148.121 332.641,150.454 341.5,152.5C 358.069,158.301 374.736,163.801 391.5,169C 375.6,162.86 359.6,157.026 343.5,151.5C 335.089,149.362 326.756,147.029 318.5,144.5C 304.583,141.403 290.583,138.736 276.5,136.5C 265.12,133.901 253.453,132.901 241.5,133.5C 234.841,133.954 228.174,134.287 221.5,134.5C 220.325,134.719 219.325,134.386 218.5,133.5C 220.352,129.33 220.852,124.996 220,120.5C 217.084,109.999 212.084,100.666 205,92.5C 206.751,96.6446 209.084,100.645 212,104.5C 216.829,112.148 218.995,120.481 218.5,129.5C 217.5,129.5 216.5,129.5 215.5,129.5C 215.784,127.585 215.451,125.919 214.5,124.5C 212.528,113.224 207.862,103.224 200.5,94.5C 193.75,85.5771 186.417,77.0771 178.5,69C 173.81,65.3228 168.81,62.1562 163.5,59.5C 153.51,55.9961 143.177,54.6627 132.5,55.5C 131.5,55.5 130.5,55.5 129.5,55.5C 129.5,54.5 129.5,53.5 129.5,52.5C 137.84,52.3336 146.173,52.5003 154.5,53C 160.276,54.7074 165.943,56.3741 171.5,58C 161.945,52.5283 151.612,50.0283 140.5,50.5C 127.319,51.2721 114.319,53.1055 101.5,56C 108.968,55.3184 116.468,54.4851 124,53.5C 126.877,53.4373 127.711,54.4373 126.5,56.5C 125.5,56.5 124.5,56.5 123.5,56.5C 109.563,58.4213 95.8962,61.088 82.5,64.5C 80.7085,64.366 79.0418,64.6993 77.5,65.5C 72.383,65.4384 68.383,67.4384 65.5,71.5C 64.7784,71.0825 64.2784,70.4158 64,69.5C 60.6153,73.2171 57.6153,77.2171 55,81.5C 54.3333,82.8333 54.3333,84.1667 55,85.5C 56.9773,88.3116 59.144,90.9783 61.5,93.5C 59.4532,99.2943 55.7866,103.628 50.5,106.5C 45.6674,104.757 40.6674,104.09 35.5,104.5C 33.8333,104.5 32.1667,104.5 30.5,104.5C 32.8682,103.217 35.0349,101.55 37,99.5C 44.3609,87.4228 52.1942,75.7562 60.5,64.5C 65.6337,62.6228 70.6337,60.4561 75.5,58C 83.0514,56.1344 90.3848,53.9677 97.5,51.5C 113.506,48.3737 129.673,46.3737 146,45.5C 158.882,44.8451 170.715,47.8451 181.5,54.5 Z"/></g>
<g><path style="opacity:1" fill="#698a75" d="M 131.5,70.5 C 131.338,72.5273 131.505,74.5273 132,76.5C 132.333,75.1667 132.667,73.8333 133,72.5C 133.232,73.7375 133.732,74.7375 134.5,75.5C 131.097,83.836 133.764,87.1693 142.5,85.5C 142.414,86.4959 142.748,87.3292 143.5,88C 142.833,88.3333 142.167,88.6667 141.5,89C 142.735,92.5963 144.735,95.7629 147.5,98.5C 150.112,98.0153 150.112,98.8487 147.5,101C 147.728,101.399 148.062,101.565 148.5,101.5C 148.134,102.695 147.301,103.361 146,103.5C 143.566,102.678 141.066,102.344 138.5,102.5C 134.733,101.205 130.733,100.539 126.5,100.5C 126.5,100.167 126.5,99.8333 126.5,99.5C 127.087,89.5217 128.754,79.855 131.5,70.5 Z"/></g>
<g><path style="opacity:0.968" fill="#5f8269" d="M 123.5,56.5 C 122.609,57.2613 121.942,58.2613 121.5,59.5C 120.436,66.7597 118.602,73.7597 116,80.5C 114.36,86.0557 113.527,91.7223 113.5,97.5C 110.833,97.5 108.167,97.5 105.5,97.5C 94.8333,97.1667 84.1667,96.8333 73.5,96.5C 73.8475,90.7725 74.6808,85.1058 76,79.5C 78.6937,74.6168 81.527,69.7835 84.5,65C 83.9056,64.5357 83.2389,64.369 82.5,64.5C 95.8962,61.088 109.563,58.4213 123.5,56.5 Z"/></g>
<g><path style="opacity:1" fill="#5e816b" d="M 77.5,65.5 C 72.9262,74.3163 68.5929,83.3163 64.5,92.5C 61.6934,90.0287 59.6934,87.0287 58.5,83.5C 59.799,78.9028 62.1323,74.9028 65.5,71.5C 68.383,67.4384 72.383,65.4384 77.5,65.5 Z"/></g>
<g><path style="opacity:1" fill="#516a5b" d="M 123.5,56.5 C 124.5,56.5 125.5,56.5 126.5,56.5C 128.5,56.5 130.5,56.5 132.5,56.5C 133.552,56.3505 134.552,56.5172 135.5,57C 133.459,61.2892 132.126,65.7892 131.5,70.5C 128.754,79.855 127.087,89.5217 126.5,99.5C 119.317,99.2322 112.317,98.5655 105.5,97.5C 108.167,97.5 110.833,97.5 113.5,97.5C 113.527,91.7223 114.36,86.0557 116,80.5C 118.602,73.7597 120.436,66.7597 121.5,59.5C 121.942,58.2613 122.609,57.2613 123.5,56.5 Z"/></g>
<g><path style="opacity:1" fill="#435f4c" d="M 82.5,64.5 C 83.2389,64.369 83.9056,64.5357 84.5,65C 81.527,69.7835 78.6937,74.6168 76,79.5C 74.6808,85.1058 73.8475,90.7725 73.5,96.5C 71.901,96.2322 70.5676,96.5655 69.5,97.5C 67.5,96.1667 65.8333,94.5 64.5,92.5C 68.5929,83.3163 72.9262,74.3163 77.5,65.5C 79.0418,64.6993 80.7085,64.366 82.5,64.5 Z"/></g>
<g><path style="opacity:0.785" fill="#5f7e66" d="M 142.5,85.5 C 133.764,87.1693 131.097,83.836 134.5,75.5C 134.575,71.4034 136.242,68.2368 139.5,66C 147.9,64.7584 155.9,65.925 163.5,69.5C 160.328,73.8409 157.661,78.5076 155.5,83.5C 151.018,84.1669 146.684,84.8336 142.5,85.5 Z"/></g>
<g><path style="opacity:0.999" fill="#779783" d="M 132.5,56.5 C 132.5,56.1667 132.5,55.8333 132.5,55.5C 143.177,54.6627 153.51,55.9961 163.5,59.5C 165.03,61.1252 166.363,62.9585 167.5,65C 167.245,66.3261 166.578,67.3261 165.5,68C 166.167,68.3333 166.833,68.6667 167.5,69C 164.502,71.8075 165.169,73.1409 169.5,73C 167.697,73.6368 166.364,74.8035 165.5,76.5C 167.692,81.719 170.026,86.8857 172.5,92C 172.355,93.2259 172.022,94.3926 171.5,95.5C 172.262,95.9106 173.262,96.0773 174.5,96C 173.944,96.3826 173.611,96.8826 173.5,97.5C 164.893,97.2891 156.56,98.6224 148.5,101.5C 148.062,101.565 147.728,101.399 147.5,101C 150.112,98.8487 150.112,98.0153 147.5,98.5C 144.735,95.7629 142.735,92.5963 141.5,89C 142.167,88.6667 142.833,88.3333 143.5,88C 142.748,87.3292 142.414,86.4959 142.5,85.5C 146.684,84.8336 151.018,84.1669 155.5,83.5C 157.661,78.5076 160.328,73.8409 163.5,69.5C 155.9,65.925 147.9,64.7584 139.5,66C 136.242,68.2368 134.575,71.4034 134.5,75.5C 133.732,74.7375 133.232,73.7375 133,72.5C 132.667,73.8333 132.333,75.1667 132,76.5C 131.505,74.5273 131.338,72.5273 131.5,70.5C 132.126,65.7892 133.459,61.2892 135.5,57C 134.552,56.5172 133.552,56.3505 132.5,56.5 Z"/></g>
<g><path style="opacity:1" fill="#dfdfdf" d="M 132.5,55.5 C 132.5,55.8333 132.5,56.1667 132.5,56.5C 130.5,56.5 128.5,56.5 126.5,56.5C 127.711,54.4373 126.877,53.4373 124,53.5C 116.468,54.4851 108.968,55.3184 101.5,56C 114.319,53.1055 127.319,51.2721 140.5,50.5C 151.612,50.0283 161.945,52.5283 171.5,58C 165.943,56.3741 160.276,54.7074 154.5,53C 146.173,52.5003 137.84,52.3336 129.5,52.5C 129.5,53.5 129.5,54.5 129.5,55.5C 130.5,55.5 131.5,55.5 132.5,55.5 Z"/></g>
<g><path style="opacity:1" fill="#d1d6d4" d="M 278.5,122.5 C 280.833,122.5 283.167,122.5 285.5,122.5C 293.167,122.5 300.833,122.5 308.5,122.5C 307.048,123.302 305.382,123.802 303.5,124C 308.44,124.568 313.107,125.735 317.5,127.5C 304.381,125.54 291.381,123.873 278.5,122.5 Z"/></g>
<g><path style="opacity:1" fill="#35433b" d="M 155.5,124.5 C 162.811,124.882 169.811,126.215 176.5,128.5C 170.445,128.662 164.445,128.162 158.5,127C 157.058,126.623 156.058,125.79 155.5,124.5 Z"/></g>
<g><path style="opacity:1" fill="#1c241e" d="M 193.5,125.5 C 195.199,125.34 196.866,125.506 198.5,126C 205.303,129.59 204.97,131.09 197.5,130.5C 190.913,128.539 183.913,127.872 176.5,128.5C 169.811,126.215 162.811,124.882 155.5,124.5C 154.391,124.443 153.391,124.11 152.5,123.5C 152.443,122.391 152.11,121.391 151.5,120.5C 151.435,120.062 151.601,119.728 152,119.5C 152.833,120.333 153.667,121.167 154.5,122C 167.324,124.921 180.324,126.088 193.5,125.5 Z"/></g>
<g><path style="opacity:1" fill="#424a44" d="M 176.5,128.5 C 183.913,127.872 190.913,128.539 197.5,130.5C 193.5,130.5 189.5,130.5 185.5,130.5C 182.5,129.833 179.5,129.167 176.5,128.5 Z"/></g>
<g><path style="opacity:1" fill="#afafaf" d="M 241.5,133.5 C 241.5,133.833 241.5,134.167 241.5,134.5C 241.5,134.833 241.5,135.167 241.5,135.5C 233.49,135.644 225.49,135.977 217.5,136.5C 216.761,136.631 216.094,136.464 215.5,136C 217.708,135.809 219.708,135.309 221.5,134.5C 228.174,134.287 234.841,133.954 241.5,133.5 Z"/></g>
<g><path style="opacity:1" fill="#c7c7c7" d="M 317.5,127.5 C 339.214,130.547 360.547,134.881 381.5,140.5C 380.833,140.5 380.5,140.833 380.5,141.5C 359.41,136.641 338.41,131.974 317.5,127.5 Z"/></g>
<g><path style="opacity:1" fill="#fefefe" d="M 241.5,135.5 C 244.85,135.335 248.183,135.502 251.5,136C 255.067,142.236 259.4,147.903 264.5,153C 266.5,154 268.5,155 270.5,156C 287.058,160.427 303.725,164.427 320.5,168C 331.862,179.696 343.529,191.03 355.5,202C 352.98,203.697 350.647,205.53 348.5,207.5C 342.222,210.642 336.222,214.309 330.5,218.5C 329.055,216.606 327.388,214.94 325.5,213.5C 313.81,196.321 298.143,184.154 278.5,177C 247.554,167.815 225.221,177.648 211.5,206.5C 210.504,192.01 210.171,177.343 210.5,162.5C 215.476,163.498 220.476,163.998 225.5,164C 220.898,162.52 216.231,161.354 211.5,160.5C 211.937,152.087 213.937,144.087 217.5,136.5C 225.49,135.977 233.49,135.644 241.5,135.5 Z"/></g>
<g><path style="opacity:1" fill="#7d7d7d" d="M 241.5,134.5 C 241.5,134.167 241.5,133.833 241.5,133.5C 253.453,132.901 265.12,133.901 276.5,136.5C 275.833,136.5 275.5,136.833 275.5,137.5C 270.227,136.399 264.894,135.733 259.5,135.5C 253.69,134.51 247.69,134.177 241.5,134.5 Z"/></g>
<g><path style="opacity:1" fill="#fefefe" d="M 107.5,137.5 C 134.424,143.821 161.424,149.821 188.5,155.5C 195.273,158.086 202.273,160.253 209.5,162C 208.673,180.427 208.173,198.927 208,217.5C 205.903,223.656 205.07,229.99 205.5,236.5C 202.574,235.539 199.574,234.873 196.5,234.5C 194.316,232.415 191.649,231.415 188.5,231.5C 165.868,222.064 142.868,213.397 119.5,205.5C 117.269,203.799 114.769,202.466 112,201.5C 111.333,199.167 111.333,196.833 112,194.5C 112.561,193.978 113.228,193.645 114,193.5C 138.009,202.099 161.509,211.099 184.5,220.5C 180.279,217.222 175.612,214.722 170.5,213C 151.683,205.339 132.683,198.172 113.5,191.5C 110.733,176.298 109.066,160.965 108.5,145.5C 129.125,150.393 149.792,155.226 170.5,160C 178.728,162.128 187.061,163.128 195.5,163C 166,157.124 136.666,150.624 107.5,143.5C 107.5,141.5 107.5,139.5 107.5,137.5 Z"/></g>
<g><path style="opacity:1" fill="#e1e1e1" d="M 530.5,149.5 C 531.404,150.209 531.737,151.209 531.5,152.5C 495.028,140.738 457.695,137.238 419.5,142C 417.744,142.202 416.078,142.702 414.5,143.5C 416.336,144.919 418.336,146.086 420.5,147C 417.267,147.219 414.601,146.052 412.5,143.5C 412.977,142.522 413.643,141.689 414.5,141C 453.285,135.487 491.285,138.654 528.5,150.5C 529.416,150.457 530.083,150.124 530.5,149.5 Z"/></g>
<g><path style="opacity:1" fill="#515151" d="M 275.5,137.5 C 275.5,136.833 275.833,136.5 276.5,136.5C 290.583,138.736 304.583,141.403 318.5,144.5C 317.791,145.404 316.791,145.737 315.5,145.5C 302.213,142.627 288.88,139.961 275.5,137.5 Z"/></g>
<g><path style="opacity:1" fill="#a6a6a6" d="M 380.5,141.5 C 380.5,140.833 380.833,140.5 381.5,140.5C 395.062,143.465 408.062,147.798 420.5,153.5C 407.357,148.932 394.024,144.932 380.5,141.5 Z"/></g>
<g><path style="opacity:1" fill="#c9c9c9" d="M 106.5,135.5 C 106.833,135.5 107.167,135.5 107.5,135.5C 134.532,142.008 161.532,148.675 188.5,155.5C 161.424,149.821 134.424,143.821 107.5,137.5C 107.167,137.5 106.833,137.5 106.5,137.5C 87.2154,133.013 67.882,128.513 48.5,124C 67.8732,127.375 87.2065,131.208 106.5,135.5 Z"/></g>
<g><path style="opacity:1" fill="#858585" d="M 318.5,144.5 C 326.756,147.029 335.089,149.362 343.5,151.5C 343.158,152.338 342.492,152.672 341.5,152.5C 332.641,150.454 323.974,148.121 315.5,145.5C 316.791,145.737 317.791,145.404 318.5,144.5 Z"/></g>
<g><path style="opacity:1" fill="#f6f6f6" d="M 66.5,192.5 C 63.2632,184.018 59.4299,175.685 55,167.5C 51.7025,162.199 47.2025,158.365 41.5,156C 35.2547,154.456 30.9214,156.623 28.5,162.5C 27.3871,161.054 27.2204,159.387 28,157.5C 31.7072,149.082 37.5405,147.248 45.5,152C 57.9836,163.483 64.9836,176.983 66.5,192.5 Z"/></g>
<g><path style="opacity:1" fill="#c5c5c5" d="M 343.5,151.5 C 359.6,157.026 375.6,162.86 391.5,169C 374.736,163.801 358.069,158.301 341.5,152.5C 342.492,152.672 343.158,152.338 343.5,151.5 Z"/></g>
<g><path style="opacity:1" fill="#cccccc" d="M 420.5,153.5 C 429.671,155.831 438.504,159.164 447,163.5C 448.011,163.108 448.511,162.441 448.5,161.5C 460.833,169.333 473.167,177.167 485.5,185C 487.473,185.495 489.473,185.662 491.5,185.5C 486.025,186.489 480.358,186.822 474.5,186.5C 474.5,186.167 474.5,185.833 474.5,185.5C 477.518,185.665 480.518,185.498 483.5,185C 463.523,172.345 442.523,161.845 420.5,153.5 Z"/></g>
<g><path style="opacity:0.961" fill="#acacad" d="M 559.5,169.5 C 562.296,174.105 564.296,179.105 565.5,184.5C 565.815,188.371 565.482,192.038 564.5,195.5C 565.451,187.331 563.951,179.665 560,172.5C 559.536,173.094 559.369,173.761 559.5,174.5C 558.167,172.833 558.167,171.167 559.5,169.5 Z"/></g>
<g><path style="opacity:1" fill="#fbfbfb" d="M 325.5,213.5 C 326.929,215.678 327.763,218.011 328,220.5C 325.17,223.188 322.004,225.188 318.5,226.5C 309.289,215.789 298.956,206.289 287.5,198C 256.499,181.334 233.666,188.834 219,220.5C 216.383,228.969 215.05,237.635 215,246.5C 213.73,248.578 212.23,248.912 210.5,247.5C 210.204,234.451 210.537,221.451 211.5,208.5C 223.791,181.854 244.458,171.354 273.5,177C 294.512,183.999 311.845,196.166 325.5,213.5 Z"/></g>
<g><path style="opacity:1" fill="#d4d5d7" d="M 241.5,135.5 C 241.5,135.167 241.5,134.833 241.5,134.5C 247.69,134.177 253.69,134.51 259.5,135.5C 257.473,135.338 255.473,135.505 253.5,136C 256,139.833 258.5,143.667 261,147.5C 263.264,150.433 266.098,152.6 269.5,154C 288.87,159.176 308.204,164.009 327.5,168.5C 328.36,170.614 330.027,171.78 332.5,172C 348.562,176.184 364.562,180.017 380.5,183.5C 378.801,183.34 377.134,183.506 375.5,184C 377.852,184.24 379.852,185.073 381.5,186.5C 379.139,186.326 376.806,185.993 374.5,185.5C 365.696,183.27 356.696,181.27 347.5,179.5C 342.16,177.668 336.827,176.168 331.5,175C 339.167,182.667 346.833,190.333 354.5,198C 364.282,204.645 374.948,208.812 386.5,210.5C 385.041,210.433 383.708,210.766 382.5,211.5C 373.573,210.522 365.239,207.855 357.5,203.5C 354.489,204.853 351.489,206.186 348.5,207.5C 350.647,205.53 352.98,203.697 355.5,202C 343.529,191.03 331.862,179.696 320.5,168C 303.725,164.427 287.058,160.427 270.5,156C 268.5,155 266.5,154 264.5,153C 259.4,147.903 255.067,142.236 251.5,136C 248.183,135.502 244.85,135.335 241.5,135.5 Z"/></g>
<g><path style="opacity:1" fill="#6c777d" d="M 347.5,179.5 C 356.696,181.27 365.696,183.27 374.5,185.5C 374.577,186.75 375.244,187.583 376.5,188C 375.944,188.383 375.611,188.883 375.5,189.5C 374.167,192.167 374.167,194.833 375.5,197.5C 376.506,198.396 376.506,199.062 375.5,199.5C 372.477,199.895 371.477,198.895 372.5,196.5C 371.909,194.15 370.909,191.983 369.5,190C 370.573,188.584 370.573,187.25 369.5,186C 366.833,185.333 364.167,185.333 361.5,186C 360.045,187.626 358.378,188.792 356.5,189.5C 355.957,189.44 355.624,189.107 355.5,188.5C 356.376,187.749 357.376,187.249 358.5,187C 354.314,186.632 350.98,184.799 348.5,181.5C 348.167,180.833 347.833,180.167 347.5,179.5 Z"/></g>
<g><path style="opacity:1" fill="#2e3134" d="M 536.5,174.5 C 537.239,174.369 537.906,174.536 538.5,175C 534.016,176.743 529.683,178.743 525.5,181C 525.799,182.073 525.799,183.24 525.5,184.5C 523.738,185.262 522.738,186.596 522.5,188.5C 520.48,194.997 521.647,200.997 526,206.5C 527.264,208.607 529.097,209.607 531.5,209.5C 532.043,209.56 532.376,209.893 532.5,210.5C 528.663,212.144 525.33,211.478 522.5,208.5C 521.533,206.37 520.366,204.37 519,202.5C 519.087,197.037 518.254,191.87 516.5,187C 514.722,186.296 512.888,185.796 511,185.5C 504.486,187.585 497.986,189.585 491.5,191.5C 489.355,190.011 487.022,189.011 484.5,188.5C 477.011,187.671 469.344,187.171 461.5,187C 465.821,186.501 470.154,186.334 474.5,186.5C 480.358,186.822 486.025,186.489 491.5,185.5C 506.787,182.846 521.787,179.179 536.5,174.5 Z"/></g>
<g><path style="opacity:1" fill="#4b4b4d" d="M 327.5,168.5 C 368.523,178.741 410.189,184.408 452.5,185.5C 443.701,186.867 434.701,187.534 425.5,187.5C 410.453,186.663 395.453,185.329 380.5,183.5C 364.562,180.017 348.562,176.184 332.5,172C 330.027,171.78 328.36,170.614 327.5,168.5 Z"/></g>
<g><path style="opacity:1" fill="#cdcdcd" d="M 325.5,213.5 C 311.845,196.166 294.512,183.999 273.5,177C 244.458,171.354 223.791,181.854 211.5,208.5C 211.5,207.833 211.5,207.167 211.5,206.5C 225.221,177.648 247.554,167.815 278.5,177C 298.143,184.154 313.81,196.321 325.5,213.5 Z"/></g>
<g><path style="opacity:1" fill="#dcdcdc" d="M 104.5,198.5 C 90.6839,191.755 78.0172,183.255 66.5,173C 67.1667,172.333 67.8333,172.333 68.5,173C 80.04,182.259 92.04,190.759 104.5,198.5 Z"/></g>
<g><path style="opacity:1" fill="#6b6c6e" d="M 550.5,169.5 C 551.167,169.5 551.5,169.833 551.5,170.5C 549.862,183.444 547.695,196.444 545,209.5C 536.427,215.579 526.927,219.079 516.5,220C 509.762,209.096 501.429,199.596 491.5,191.5C 497.986,189.585 504.486,187.585 511,185.5C 512.888,185.796 514.722,186.296 516.5,187C 518.254,191.87 519.087,197.037 519,202.5C 520.366,204.37 521.533,206.37 522.5,208.5C 525.33,211.478 528.663,212.144 532.5,210.5C 532.376,209.893 532.043,209.56 531.5,209.5C 533.398,207.617 535.231,205.617 537,203.5C 537.81,199.642 537.643,195.976 536.5,192.5C 534.503,187.499 530.836,184.832 525.5,184.5C 525.799,183.24 525.799,182.073 525.5,181C 529.683,178.743 534.016,176.743 538.5,175C 537.906,174.536 537.239,174.369 536.5,174.5C 540.952,172.459 545.618,170.792 550.5,169.5 Z"/></g>
<g><path style="opacity:1" fill="#16191d" d="M 375.5,197.5 C 374.167,194.833 374.167,192.167 375.5,189.5C 379.195,188.54 382.861,188.54 386.5,189.5C 387.407,192.421 387.74,195.421 387.5,198.5C 383.466,198.495 379.466,198.162 375.5,197.5 Z"/></g>
<g><path style="opacity:1" fill="#f1f2f2" d="M 380.5,183.5 C 395.453,185.329 410.453,186.663 425.5,187.5C 435.011,188.348 444.678,189.181 454.5,190C 461.641,194.974 468.641,200.14 475.5,205.5C 476.833,206.5 476.833,207.5 475.5,208.5C 471.691,211.142 468.024,213.975 464.5,217C 460.205,218.764 455.871,218.931 451.5,217.5C 450.833,217.167 450.167,216.833 449.5,216.5C 449.414,215.504 449.748,214.671 450.5,214C 455.311,211.944 459.311,208.944 462.5,205C 457.997,199.735 452.664,195.402 446.5,192C 435.492,191.196 424.492,190.363 413.5,189.5C 412.833,189.5 412.167,189.5 411.5,189.5C 409.5,189.5 407.5,189.5 405.5,189.5C 403.833,189.5 402.167,189.5 400.5,189.5C 394.304,188.204 387.971,187.204 381.5,186.5C 379.852,185.073 377.852,184.24 375.5,184C 377.134,183.506 378.801,183.34 380.5,183.5 Z"/></g>
<g><path style="opacity:1" fill="#f4f4f5" d="M 551.5,170.5 C 552.222,170.918 552.722,171.584 553,172.5C 556.377,186.324 555.71,199.991 551,213.5C 550.535,214.931 549.701,216.097 548.5,217C 543.167,219.333 537.833,221.667 532.5,224C 539.774,223.124 546.274,220.291 552,215.5C 555.274,205.072 557.274,194.405 558,183.5C 558.499,189.157 558.666,194.824 558.5,200.5C 558.76,206.643 557.427,212.309 554.5,217.5C 543.38,223.208 531.714,227.541 519.5,230.5C 518.5,230 517.5,229.5 516.5,229C 510.551,222.929 504.718,216.762 499,210.5C 503.614,218.43 509.781,225.263 517.5,231C 515.866,231.494 514.199,231.66 512.5,231.5C 497.899,216.061 482.232,201.895 465.5,189C 471.825,188.5 478.158,188.334 484.5,188.5C 487.022,189.011 489.355,190.011 491.5,191.5C 501.429,199.596 509.762,209.096 516.5,220C 526.927,219.079 536.427,215.579 545,209.5C 547.695,196.444 549.862,183.444 551.5,170.5 Z"/></g>
<g><path style="opacity:1" fill="#e2e2e2" d="M 221.5,134.5 C 219.708,135.309 217.708,135.809 215.5,136C 216.094,136.464 216.761,136.631 217.5,136.5C 213.937,144.087 211.937,152.087 211.5,160.5C 216.231,161.354 220.898,162.52 225.5,164C 220.476,163.998 215.476,163.498 210.5,162.5C 210.171,177.343 210.504,192.01 211.5,206.5C 211.5,207.167 211.5,207.833 211.5,208.5C 210.537,221.451 210.204,234.451 210.5,247.5C 209.209,247.737 208.209,247.404 207.5,246.5C 208.826,242.386 209.493,237.886 209.5,233C 209.333,228.5 209.167,224 209,219.5C 207.238,227.399 206.238,235.399 206,243.5C 205.798,241.744 205.298,240.078 204.5,238.5C 201.493,237.663 198.826,236.33 196.5,234.5C 199.574,234.873 202.574,235.539 205.5,236.5C 205.07,229.99 205.903,223.656 208,217.5C 208.173,198.927 208.673,180.427 209.5,162C 202.273,160.253 195.273,158.086 188.5,155.5C 195.594,156.357 202.594,157.69 209.5,159.5C 210.658,152.043 212.325,144.71 214.5,137.5C 210.941,137.284 207.441,137.618 204,138.5C 203.05,137.978 202.216,137.311 201.5,136.5C 194.5,139.333 187.5,142.167 180.5,145C 175.833,145.667 171.167,145.667 166.5,145C 165.167,144 165.167,143 166.5,142C 170.919,139.124 175.586,136.79 180.5,135C 182.692,133.933 184.358,132.433 185.5,130.5C 189.5,130.5 193.5,130.5 197.5,130.5C 202.316,131.65 207.316,131.816 212.5,131C 214.25,129.246 214.917,127.079 214.5,124.5C 215.451,125.919 215.784,127.585 215.5,129.5C 216.5,129.5 217.5,129.5 218.5,129.5C 218.995,120.481 216.829,112.148 212,104.5C 209.084,100.645 206.751,96.6446 205,92.5C 212.084,100.666 217.084,109.999 220,120.5C 220.852,124.996 220.352,129.33 218.5,133.5C 219.325,134.386 220.325,134.719 221.5,134.5 Z"/></g>
<g><path style="opacity:1" fill="#fcfdfd" d="M 189.5,131.5 C 195.154,132.055 200.82,132.555 206.5,133C 196.989,137.059 187.322,140.726 177.5,144C 174.036,144.817 170.702,144.483 167.5,143C 175.052,139.392 182.386,135.559 189.5,131.5 Z"/></g>
<g><path style="opacity:1" fill="#929696" d="M 413.5,189.5 C 424.492,190.363 435.492,191.196 446.5,192C 452.664,195.402 457.997,199.735 462.5,205C 459.311,208.944 455.311,211.944 450.5,214C 449.748,214.671 449.414,215.504 449.5,216.5C 448.5,216.167 447.833,215.5 447.5,214.5C 449.805,213.011 452.138,211.511 454.5,210C 455.696,209.346 455.696,208.846 454.5,208.5C 447.135,213.086 439.468,213.753 431.5,210.5C 435.182,210.665 438.848,210.499 442.5,210C 445.891,208.311 448.891,206.144 451.5,203.5C 448.671,200.841 445.671,198.341 442.5,196C 443.833,195.333 443.833,194.667 442.5,194C 437.05,193.756 431.717,192.923 426.5,191.5C 421.951,191.376 417.618,190.709 413.5,189.5 Z"/></g>
<g><path style="opacity:1" fill="#c8c8ca" d="M 525.5,184.5 C 530.836,184.832 534.503,187.499 536.5,192.5C 536.649,193.552 536.483,194.552 536,195.5C 535.261,194.426 534.261,193.759 533,193.5C 529.61,195.131 526.11,195.964 522.5,196C 523.571,195.148 524.571,194.315 525.5,193.5C 527.742,192.352 530.076,191.352 532.5,190.5C 529.441,185.364 526.774,185.364 524.5,190.5C 523.778,190.918 523.278,191.584 523,192.5C 522.51,191.207 522.343,189.873 522.5,188.5C 522.738,186.596 523.738,185.262 525.5,184.5 Z"/></g>
<g><path style="opacity:1" fill="#4b4c4c" d="M 347.5,179.5 C 347.833,180.167 348.167,180.833 348.5,181.5C 345.447,181.089 342.447,180.423 339.5,179.5C 338.304,179.846 338.304,180.346 339.5,181C 342.56,181.848 345.56,182.848 348.5,184C 354.199,189.365 359.533,195.031 364.5,201C 367.438,203.257 370.771,204.424 374.5,204.5C 375.568,205.434 376.901,205.768 378.5,205.5C 386.798,206.746 395.131,207.746 403.5,208.5C 404.568,209.434 405.901,209.768 407.5,209.5C 420.77,211.646 434.103,213.313 447.5,214.5C 447.833,215.5 448.5,216.167 449.5,216.5C 450.167,216.833 450.833,217.167 451.5,217.5C 451.5,218.167 451.167,218.5 450.5,218.5C 429.142,216.052 407.809,213.385 386.5,210.5C 374.948,208.812 364.282,204.645 354.5,198C 346.833,190.333 339.167,182.667 331.5,175C 336.827,176.168 342.16,177.668 347.5,179.5 Z"/></g>
<g><path style="opacity:1" fill="#1d1f25" d="M 397.5,189.5 C 398.5,189.5 399.5,189.5 400.5,189.5C 402.167,189.5 403.833,189.5 405.5,189.5C 406.398,190.158 407.398,190.824 408.5,191.5C 407.355,192.891 407.355,194.224 408.5,195.5C 410.677,194.496 411.011,195.162 409.5,197.5C 410.366,199.432 411.033,201.432 411.5,203.5C 411.253,204.713 410.586,205.38 409.5,205.5C 407.265,205.795 405.265,205.461 403.5,204.5C 404.376,204.631 405.043,204.298 405.5,203.5C 403.851,201.35 402.018,199.35 400,197.5C 399.342,194.715 398.509,192.049 397.5,189.5 Z"/></g>
<g><path style="opacity:1" fill="#667278" d="M 360.5,193.5 C 363.335,194.069 365.001,195.736 365.5,198.5C 363.548,197.215 361.882,195.549 360.5,193.5 Z"/></g>
<g><path style="opacity:1" fill="#2a2d33" d="M 405.5,189.5 C 407.5,189.5 409.5,189.5 411.5,189.5C 409.863,191.124 410.197,192.124 412.5,192.5C 416.616,193.074 420.616,194.074 424.5,195.5C 426.124,196.869 426.624,198.536 426,200.5C 425.107,199.289 424.274,199.289 423.5,200.5C 425.079,201.667 426.412,203 427.5,204.5C 428.878,205.234 430.378,205.901 432,206.5C 432.342,204.381 433.175,204.047 434.5,205.5C 436.663,206.469 438.996,207.302 441.5,208C 440.056,209.064 438.389,209.564 436.5,209.5C 427.254,208.882 418.254,207.549 409.5,205.5C 410.586,205.38 411.253,204.713 411.5,203.5C 411.033,201.432 410.366,199.432 409.5,197.5C 411.011,195.162 410.677,194.496 408.5,195.5C 407.355,194.224 407.355,192.891 408.5,191.5C 407.398,190.824 406.398,190.158 405.5,189.5 Z"/></g>
<g><path style="opacity:1" fill="#79787d" d="M 36.5,166.5 C 36.5,166.167 36.5,165.833 36.5,165.5C 36.8333,165.5 37.1667,165.5 37.5,165.5C 41.5138,165.334 45.5138,165.501 49.5,166C 53.2984,171.092 56.4651,176.592 59,182.5C 61.6193,191.729 64.7859,200.729 68.5,209.5C 72.9706,219.781 77.4706,230.115 82,240.5C 84.3806,241.435 86.8806,241.768 89.5,241.5C 88.1667,244.5 86.8333,247.5 85.5,250.5C 74.124,254.118 62.4573,256.118 50.5,256.5C 48.2166,256.392 46.2166,255.559 44.5,254C 40.7869,250.037 37.4535,245.871 34.5,241.5C 27.1176,226.259 24.1176,210.259 25.5,193.5C 26.2852,191.626 26.9518,189.626 27.5,187.5C 28.1036,182.957 29.4369,178.623 31.5,174.5C 31.369,175.239 31.5357,175.906 32,176.5C 34.4626,173.035 37.2959,169.869 40.5,167C 39.2068,166.51 37.8734,166.343 36.5,166.5 Z"/></g>
<g><path style="opacity:1" fill="#c7c6cb" d="M 56.5,199.5 C 57.3007,201.042 57.634,202.708 57.5,204.5C 54.371,203.205 52.0376,201.038 50.5,198C 50.6301,196.941 51.1301,196.108 52,195.5C 53.9923,196.328 55.4923,197.661 56.5,199.5 Z"/></g>
<g><path style="opacity:1" fill="#bbbbbe" d="M 49.5,182.5 C 51.539,183.911 52.539,185.911 52.5,188.5C 49.2801,193.643 47.6134,199.31 47.5,205.5C 46.5655,204.432 46.2322,203.099 46.5,201.5C 46.3347,197.818 46.5014,194.152 47,190.5C 48.3409,187.978 49.1743,185.311 49.5,182.5 Z"/></g>
<g><path style="opacity:1" fill="#4d4c51" d="M 40.5,175.5 C 39.0403,178.704 38.5403,182.038 39,185.5C 39.5853,182.38 40.9186,179.713 43,177.5C 45.317,178.985 47.4836,180.652 49.5,182.5C 49.1743,185.311 48.3409,187.978 47,190.5C 46.5014,194.152 46.3347,197.818 46.5,201.5C 45.0221,202.448 44.0221,203.781 43.5,205.5C 39.4307,196.626 36.4307,187.626 34.5,178.5C 33.6676,177.671 34.001,176.838 35.5,176C 37.2439,174.546 38.9106,174.379 40.5,175.5 Z"/></g>
<g><path style="opacity:1" fill="#afaeb3" d="M 34.5,178.5 C 36.4307,187.626 39.4307,196.626 43.5,205.5C 40.5825,201.334 37.9159,197.001 35.5,192.5C 35.2155,189.746 34.5488,187.08 33.5,184.5C 32.7022,186.078 32.2022,187.744 32,189.5C 31.6916,195.572 32.025,201.572 33,207.5C 31.3677,203.968 30.2011,200.301 29.5,196.5C 29.4072,189.938 31.0739,183.938 34.5,178.5 Z"/></g>
<g><path style="opacity:1" fill="#111318" d="M 375.5,199.5 C 374.432,200.434 373.099,200.768 371.5,200.5C 370.167,200.5 368.833,200.5 367.5,200.5C 366.5,200.167 365.833,199.5 365.5,198.5C 365.001,195.736 363.335,194.069 360.5,193.5C 358.861,192.527 357.527,191.194 356.5,189.5C 358.378,188.792 360.045,187.626 361.5,186C 364.167,185.333 366.833,185.333 369.5,186C 370.573,187.25 370.573,188.584 369.5,190C 370.909,191.983 371.909,194.15 372.5,196.5C 371.477,198.895 372.477,199.895 375.5,199.5 Z"/></g>
<g><path style="opacity:1" fill="#0f1015" d="M 397.5,189.5 C 398.509,192.049 399.342,194.715 400,197.5C 402.018,199.35 403.851,201.35 405.5,203.5C 405.043,204.298 404.376,204.631 403.5,204.5C 396.167,203.833 388.833,203.167 381.5,202.5C 380.737,201.732 379.737,201.232 378.5,201C 381.864,200.273 385.197,199.44 388.5,198.5C 389.799,195.301 389.799,192.135 388.5,189C 391.447,189.152 394.447,189.319 397.5,189.5 Z"/></g>
<g><path style="opacity:1" fill="#545358" d="M 35.5,192.5 C 37.9159,197.001 40.5825,201.334 43.5,205.5C 43.5,207.167 43.5,208.833 43.5,210.5C 40.7212,210.279 38.0545,210.612 35.5,211.5C 35.5,205.167 35.5,198.833 35.5,192.5 Z"/></g>
<g><path style="opacity:1" fill="#4c5257" d="M 374.5,185.5 C 376.806,185.993 379.139,186.326 381.5,186.5C 387.971,187.204 394.304,188.204 400.5,189.5C 399.5,189.5 398.5,189.5 397.5,189.5C 394.447,189.319 391.447,189.152 388.5,189C 389.799,192.135 389.799,195.301 388.5,198.5C 385.197,199.44 381.864,200.273 378.5,201C 379.737,201.232 380.737,201.732 381.5,202.5C 377.96,202.247 374.627,201.581 371.5,200.5C 373.099,200.768 374.432,200.434 375.5,199.5C 376.506,199.062 376.506,198.396 375.5,197.5C 379.466,198.162 383.466,198.495 387.5,198.5C 387.74,195.421 387.407,192.421 386.5,189.5C 382.861,188.54 379.195,188.54 375.5,189.5C 375.611,188.883 375.944,188.383 376.5,188C 375.244,187.583 374.577,186.75 374.5,185.5 Z"/></g>
<g><path style="opacity:1" fill="#3a4149" d="M 434.5,205.5 C 433.175,204.047 432.342,204.381 432,206.5C 430.378,205.901 428.878,205.234 427.5,204.5C 428.376,204.631 429.043,204.298 429.5,203.5C 428.833,201.167 428.167,198.833 427.5,196.5C 427.957,195.702 428.624,195.369 429.5,195.5C 433.556,193.362 436.556,194.362 438.5,198.5C 439.768,197.572 441.101,197.405 442.5,198C 443.103,199.825 443.77,201.659 444.5,203.5C 445.891,202.355 447.224,202.355 448.5,203.5C 445.174,206.824 441.674,206.824 438,203.5C 437.259,204.641 436.425,204.641 435.5,203.5C 434.702,203.957 434.369,204.624 434.5,205.5 Z"/></g>
<g><path style="opacity:1" fill="#b1bdbd" d="M 348.5,181.5 C 350.98,184.799 354.314,186.632 358.5,187C 357.376,187.249 356.376,187.749 355.5,188.5C 355.624,189.107 355.957,189.44 356.5,189.5C 357.527,191.194 358.861,192.527 360.5,193.5C 361.882,195.549 363.548,197.215 365.5,198.5C 365.833,199.5 366.5,200.167 367.5,200.5C 370.21,202.108 373.21,203.275 376.5,204C 375.906,204.464 375.239,204.631 374.5,204.5C 370.771,204.424 367.438,203.257 364.5,201C 359.533,195.031 354.199,189.365 348.5,184C 345.56,182.848 342.56,181.848 339.5,181C 338.304,180.346 338.304,179.846 339.5,179.5C 342.447,180.423 345.447,181.089 348.5,181.5 Z"/></g>
<g><path style="opacity:1" fill="#646e75" d="M 411.5,189.5 C 412.167,189.5 412.833,189.5 413.5,189.5C 417.618,190.709 421.951,191.376 426.5,191.5C 426.5,192.5 426.5,193.5 426.5,194.5C 427.791,194.263 428.791,194.596 429.5,195.5C 428.624,195.369 427.957,195.702 427.5,196.5C 428.167,198.833 428.833,201.167 429.5,203.5C 429.043,204.298 428.376,204.631 427.5,204.5C 426.412,203 425.079,201.667 423.5,200.5C 424.274,199.289 425.107,199.289 426,200.5C 426.624,198.536 426.124,196.869 424.5,195.5C 420.616,194.074 416.616,193.074 412.5,192.5C 410.197,192.124 409.863,191.124 411.5,189.5 Z"/></g>
<g><path style="opacity:1" fill="#f3f3f4" d="M 106.5,137.5 C 106.833,137.5 107.167,137.5 107.5,137.5C 107.5,139.5 107.5,141.5 107.5,143.5C 136.666,150.624 166,157.124 195.5,163C 187.061,163.128 178.728,162.128 170.5,160C 149.792,155.226 129.125,150.393 108.5,145.5C 109.066,160.965 110.733,176.298 113.5,191.5C 132.683,198.172 151.683,205.339 170.5,213C 175.612,214.722 180.279,217.222 184.5,220.5C 161.509,211.099 138.009,202.099 114,193.5C 113.228,193.645 112.561,193.978 112,194.5C 111.333,196.833 111.333,199.167 112,201.5C 114.769,202.466 117.269,203.799 119.5,205.5C 129.278,209.934 139.278,214.101 149.5,218C 162.466,222.656 175.466,227.156 188.5,231.5C 191.649,231.415 194.316,232.415 196.5,234.5C 198.826,236.33 201.493,237.663 204.5,238.5C 205.298,240.078 205.798,241.744 206,243.5C 206.238,235.399 207.238,227.399 209,219.5C 209.167,224 209.333,228.5 209.5,233C 209.493,237.886 208.826,242.386 207.5,246.5C 174.783,235.298 142.449,223.298 110.5,210.5C 111.043,210.44 111.376,210.107 111.5,209.5C 110.787,207.224 110.287,204.891 110,202.5C 107.985,201.303 106.151,199.97 104.5,198.5C 106.492,198.328 108.158,198.995 109.5,200.5C 109.833,197.333 110.167,194.167 110.5,191C 108.512,175.903 107.345,160.736 107,145.5C 97.8884,142.93 88.7218,140.43 79.5,138C 88.3845,138.553 97.0512,140.386 105.5,143.5C 106.466,141.604 106.799,139.604 106.5,137.5 Z"/></g>
<g><path style="opacity:1" fill="#fdfdfd" d="M 382.5,211.5 C 384.663,212.469 386.996,213.302 389.5,214C 416.866,218.115 444.199,222.448 471.5,227C 476.17,230.864 480.503,235.031 484.5,239.5C 491.36,252.874 499.027,265.874 507.5,278.5C 500.526,279.413 493.526,280.08 486.5,280.5C 485.45,280.095 485.45,279.429 486.5,278.5C 483.333,278.167 480.167,277.833 477,277.5C 468.996,278.405 461.163,278.405 453.5,277.5C 453.5,277.167 453.5,276.833 453.5,276.5C 452.653,275.034 451.32,274.2 449.5,274C 446.522,273.304 443.522,272.804 440.5,272.5C 437.37,272.3 434.37,271.634 431.5,270.5C 428.862,267.526 426.195,264.526 423.5,261.5C 440.328,260.668 457.328,260.168 474.5,260C 476.421,259.64 478.088,258.806 479.5,257.5C 450.873,255.228 422.207,254.062 393.5,254C 398.167,254.333 402.833,254.667 407.5,255C 401.96,255.764 396.46,255.597 391,254.5C 389.374,255.289 387.874,256.289 386.5,257.5C 382.167,263.5 377.833,269.5 373.5,275.5C 374.2,275.787 374.867,276.12 375.5,276.5C 374.032,278.611 374.365,280.444 376.5,282C 391.474,283.45 406.474,283.784 421.5,283C 423.86,281.82 426.193,280.653 428.5,279.5C 435.167,279.5 441.833,279.5 448.5,279.5C 450.379,279.393 450.712,279.893 449.5,281C 446.772,283.392 443.772,285.392 440.5,287C 417.353,287.606 394.353,286.606 371.5,284C 372.328,284.915 373.328,285.581 374.5,286C 391.956,287.812 409.456,288.979 427,289.5C 432.248,289.585 437.415,289.085 442.5,288C 446.19,284.825 450.19,282.158 454.5,280C 464.167,279.333 473.833,279.333 483.5,280C 480,284.167 476.5,288.333 473,292.5C 470.736,295.433 467.902,297.6 464.5,299C 435.411,300.277 406.411,299.277 377.5,296C 373.833,295 370.167,294 366.5,293C 365.978,292.439 365.645,291.772 365.5,291C 366.504,289.202 367.004,287.368 367,285.5C 363.911,288.526 363.745,291.693 366.5,295C 365.552,295.483 364.552,295.649 363.5,295.5C 360.273,295.324 357.273,294.657 354.5,293.5C 353.728,266.95 346.061,242.617 331.5,220.5C 337.377,216.4 343.043,212.067 348.5,207.5C 351.489,206.186 354.489,204.853 357.5,203.5C 365.239,207.855 373.573,210.522 382.5,211.5 Z"/></g>
<g><path style="opacity:1" fill="#4f4e53" d="M 56.5,199.5 C 55.4923,197.661 53.9923,196.328 52,195.5C 51.1301,196.108 50.6301,196.941 50.5,198C 52.0376,201.038 54.371,203.205 57.5,204.5C 58.466,209.997 58.466,215.33 57.5,220.5C 54.1195,218.12 51.4528,215.12 49.5,211.5C 50.8024,208.893 50.6357,206.227 49,203.5C 48.7216,204.416 48.2216,205.082 47.5,205.5C 47.6134,199.31 49.2801,193.643 52.5,188.5C 53.1174,188.389 53.6174,188.056 54,187.5C 55.4488,190.732 56.6155,194.065 57.5,197.5C 57.4573,198.416 57.1239,199.083 56.5,199.5 Z"/></g>
<g><path style="opacity:1" fill="#6b6c6e" d="M 66.5,192.5 C 67.209,193.404 68.209,193.737 69.5,193.5C 82.885,199.742 96.5516,205.409 110.5,210.5C 142.449,223.298 174.783,235.298 207.5,246.5C 208.209,247.404 209.209,247.737 210.5,247.5C 212.23,248.912 213.73,248.578 215,246.5C 215.05,237.635 216.383,228.969 219,220.5C 233.666,188.834 256.499,181.334 287.5,198C 298.956,206.289 309.289,215.789 318.5,226.5C 318.427,228.027 319.094,229.027 320.5,229.5C 332.705,248.58 341.038,269.247 345.5,291.5C 347.565,291.517 349.565,291.85 351.5,292.5C 352.209,293.404 353.209,293.737 354.5,293.5C 357.273,294.657 360.273,295.324 363.5,295.5C 369.664,297.8 375.997,299.466 382.5,300.5C 381.624,300.369 380.957,300.702 380.5,301.5C 382.015,303.547 382.849,305.881 383,308.5C 383.198,306.618 383.698,304.952 384.5,303.5C 384.34,305.199 384.506,306.866 385,308.5C 388.608,306.839 392.275,306.505 396,307.5C 397.667,306.5 399.333,305.5 401,304.5C 402.533,304.944 404.033,305.277 405.5,305.5C 406.522,305.145 407.189,304.478 407.5,303.5C 409.5,303.5 411.5,303.5 413.5,303.5C 416.5,303.5 419.5,303.5 422.5,303.5C 423.263,304.268 424.263,304.768 425.5,305C 424.773,306.399 424.273,307.899 424,309.5C 423.361,304.73 422.195,304.397 420.5,308.5C 419.312,307.316 418.145,307.316 417,308.5C 415.221,305.724 414.221,306.057 414,309.5C 413.085,308.672 412.419,307.672 412,306.5C 412.918,311.203 411.918,311.537 409,307.5C 408.309,309.891 407.309,309.891 406,307.5C 405.667,308.167 405.333,308.833 405,309.5C 403.732,309.384 402.398,309.051 401,308.5C 396.535,309.758 392.035,310.925 387.5,312C 399.459,313.49 411.459,314.157 423.5,314C 428.052,312.106 432.052,309.439 435.5,306C 440.123,305.042 444.79,304.375 449.5,304C 444.316,303.826 439.316,303.326 434.5,302.5C 445.578,302.931 456.578,302.431 467.5,301C 470.63,298.872 473.463,296.372 476,293.5C 479.713,289.292 483.213,284.959 486.5,280.5C 493.526,280.08 500.526,279.413 507.5,278.5C 523.977,272.768 539.977,265.602 555.5,257C 559.654,253.846 563.487,250.346 567,246.5C 568.643,247.315 570.143,248.315 571.5,249.5C 571.804,250.15 572.137,250.817 572.5,251.5C 569.25,252.914 568.916,254.581 571.5,256.5C 570.532,259.044 568.865,261.211 566.5,263C 535.11,285.691 500.443,301.358 462.5,310C 457.818,317.857 451.485,323.691 443.5,327.5C 414.669,328.352 386.003,327.018 357.5,323.5C 351.738,321.931 345.905,320.265 340,318.5C 338.333,314.167 336.667,309.833 335,305.5C 331.579,276.238 320.912,249.905 303,226.5C 298.235,221.228 293.069,216.561 287.5,212.5C 280.936,207.553 273.602,204.219 265.5,202.5C 252.549,199.472 241.716,203.139 233,213.5C 224.187,228.402 220.687,244.402 222.5,261.5C 222.207,265.437 222.54,269.27 223.5,273C 222.5,273.667 221.5,273.667 220.5,273C 221.769,270.861 221.769,268.695 220.5,266.5C 219.832,268.969 219.165,271.302 218.5,273.5C 180.269,256.636 141.269,241.303 101.5,227.5C 93.1637,224.998 84.8304,222.165 76.5,219C 73.6962,215.855 71.0296,212.688 68.5,209.5C 64.7859,200.729 61.6193,191.729 59,182.5C 56.4651,176.592 53.2984,171.092 49.5,166C 45.5138,165.501 41.5138,165.334 37.5,165.5C 41.0208,164.834 44.6875,164.167 48.5,163.5C 45.5035,161.671 42.3368,160.337 39,159.5C 35.2332,159.266 33.5665,160.932 34,164.5C 34.6708,165.252 35.5041,165.586 36.5,165.5C 36.5,165.833 36.5,166.167 36.5,166.5C 34.0499,168.629 32.3833,171.296 31.5,174.5C 29.4369,178.623 28.1036,182.957 27.5,187.5C 25.8787,179.031 26.2121,170.698 28.5,162.5C 30.9214,156.623 35.2547,154.456 41.5,156C 47.2025,158.365 51.7025,162.199 55,167.5C 59.4299,175.685 63.2632,184.018 66.5,192.5 Z"/></g>
<g><path style="opacity:1" fill="#2a2b2f" d="M 265.5,202.5 C 261.5,202.5 257.5,202.5 253.5,202.5C 252.781,210.293 251.781,217.626 250.5,224.5C 239.147,232.157 230.314,242.157 224,254.5C 223.338,256.813 222.838,259.146 222.5,261.5C 220.687,244.402 224.187,228.402 233,213.5C 241.716,203.139 252.549,199.472 265.5,202.5 Z"/></g>
<g><path style="opacity:1" fill="#16151b" d="M 265.5,202.5 C 273.602,204.219 280.936,207.553 287.5,212.5C 287.082,213.222 286.416,213.722 285.5,214C 280.272,214.296 275.272,215.129 270.5,216.5C 263.374,218.064 256.708,220.731 250.5,224.5C 251.781,217.626 252.781,210.293 253.5,202.5C 257.5,202.5 261.5,202.5 265.5,202.5 Z"/></g>
<g><path style="opacity:1" fill="#b2b1b6" d="M 40.5,175.5 C 44.9379,175.933 47.9379,178.267 49.5,182.5C 47.4836,180.652 45.317,178.985 43,177.5C 40.9186,179.713 39.5853,182.38 39,185.5C 38.5403,182.038 39.0403,178.704 40.5,175.5 Z"/></g>
<g><path style="opacity:1" fill="#a7a6ab" d="M 36.5,166.5 C 37.8734,166.343 39.2068,166.51 40.5,167C 37.2959,169.869 34.4626,173.035 32,176.5C 31.5357,175.906 31.369,175.239 31.5,174.5C 32.3833,171.296 34.0499,168.629 36.5,166.5 Z"/></g>
<g><path style="opacity:1" fill="#26262a" d="M 37.5,165.5 C 37.1667,165.5 36.8333,165.5 36.5,165.5C 35.5041,165.586 34.6708,165.252 34,164.5C 33.5665,160.932 35.2332,159.266 39,159.5C 42.3368,160.337 45.5035,161.671 48.5,163.5C 44.6875,164.167 41.0208,164.834 37.5,165.5 Z"/></g>
<g><path style="opacity:1" fill="#1d1d1f" d="M 46.5,201.5 C 46.2322,203.099 46.5655,204.432 47.5,205.5C 48.2216,205.082 48.7216,204.416 49,203.5C 50.6357,206.227 50.8024,208.893 49.5,211.5C 49.1667,211.5 48.8333,211.5 48.5,211.5C 47.7703,205.292 46.1036,204.958 43.5,210.5C 43.5,208.833 43.5,207.167 43.5,205.5C 44.0221,203.781 45.0221,202.448 46.5,201.5 Z"/></g>
<g><path style="opacity:1" fill="#7c8282" d="M 426.5,191.5 C 431.717,192.923 437.05,193.756 442.5,194C 443.833,194.667 443.833,195.333 442.5,196C 445.671,198.341 448.671,200.841 451.5,203.5C 448.891,206.144 445.891,208.311 442.5,210C 438.848,210.499 435.182,210.665 431.5,210.5C 424.954,210.326 418.454,209.659 412,208.5C 410.293,208.508 408.793,208.842 407.5,209.5C 405.901,209.768 404.568,209.434 403.5,208.5C 404.552,208.649 405.552,208.483 406.5,208C 397.092,205.757 387.759,204.924 378.5,205.5C 376.901,205.768 375.568,205.434 374.5,204.5C 375.239,204.631 375.906,204.464 376.5,204C 373.21,203.275 370.21,202.108 367.5,200.5C 368.833,200.5 370.167,200.5 371.5,200.5C 374.627,201.581 377.96,202.247 381.5,202.5C 388.833,203.167 396.167,203.833 403.5,204.5C 405.265,205.461 407.265,205.795 409.5,205.5C 418.254,207.549 427.254,208.882 436.5,209.5C 438.389,209.564 440.056,209.064 441.5,208C 438.996,207.302 436.663,206.469 434.5,205.5C 434.369,204.624 434.702,203.957 435.5,203.5C 436.425,204.641 437.259,204.641 438,203.5C 441.674,206.824 445.174,206.824 448.5,203.5C 447.224,202.355 445.891,202.355 444.5,203.5C 443.77,201.659 443.103,199.825 442.5,198C 441.101,197.405 439.768,197.572 438.5,198.5C 436.556,194.362 433.556,193.362 429.5,195.5C 428.791,194.596 427.791,194.263 426.5,194.5C 426.5,193.5 426.5,192.5 426.5,191.5 Z"/></g>
<g><path style="opacity:1" fill="#a6aeac" d="M 378.5,205.5 C 387.759,204.924 397.092,205.757 406.5,208C 405.552,208.483 404.552,208.649 403.5,208.5C 395.131,207.746 386.798,206.746 378.5,205.5 Z"/></g>
<g><path style="opacity:1" fill="#6c6d6f" d="M 564.5,195.5 C 564.24,204.581 563.24,213.581 561.5,222.5C 560.261,222.942 559.261,223.609 558.5,224.5C 541.397,230.697 524.563,237.363 508,244.5C 507.5,251.826 507.334,259.159 507.5,266.5C 523.395,260.757 539.062,254.423 554.5,247.5C 555.25,251.008 553.917,253.842 550.5,256C 537.066,262.718 523.399,268.885 509.5,274.5C 507.617,274.124 506.117,273.124 505,271.5C 498.891,260.26 492.057,249.593 484.5,239.5C 481.557,234.464 478.223,229.63 474.5,225C 471.224,223.308 467.891,222.141 464.5,221.5C 465.873,221.657 467.207,221.49 468.5,221C 473.404,215.831 478.737,211.998 484.5,209.5C 474.783,201.77 465.45,193.77 456.5,185.5C 462.5,185.5 468.5,185.5 474.5,185.5C 474.5,185.833 474.5,186.167 474.5,186.5C 470.154,186.334 465.821,186.501 461.5,187C 469.344,187.171 477.011,187.671 484.5,188.5C 478.158,188.334 471.825,188.5 465.5,189C 482.232,201.895 497.899,216.061 512.5,231.5C 515.976,232.643 519.642,232.81 523.5,232C 533.784,228.516 543.784,224.35 553.5,219.5C 554.298,219.043 554.631,218.376 554.5,217.5C 557.427,212.309 558.76,206.643 558.5,200.5C 559.493,192.016 559.826,183.349 559.5,174.5C 559.369,173.761 559.536,173.094 560,172.5C 563.951,179.665 565.451,187.331 564.5,195.5 Z"/></g>
<g><path style="opacity:1" fill="#939596" d="M 522.5,188.5 C 522.343,189.873 522.51,191.207 523,192.5C 523.278,191.584 523.778,190.918 524.5,190.5C 524.263,191.791 524.596,192.791 525.5,193.5C 524.571,194.315 523.571,195.148 522.5,196C 526.11,195.964 529.61,195.131 533,193.5C 534.261,193.759 535.261,194.426 536,195.5C 536.483,194.552 536.649,193.552 536.5,192.5C 537.643,195.976 537.81,199.642 537,203.5C 535.231,205.617 533.398,207.617 531.5,209.5C 529.097,209.607 527.264,208.607 526,206.5C 521.647,200.997 520.48,194.997 522.5,188.5 Z"/></g>
<g><path style="opacity:1" fill="#25282a" d="M 531.5,199.5 C 532.5,199.5 533.5,199.5 534.5,199.5C 533.482,207.34 530.482,208.174 525.5,202C 527.723,201.434 529.723,200.6 531.5,199.5 Z"/></g>
<g><path style="opacity:1" fill="#2c2d2f" d="M 525.5,193.5 C 524.596,192.791 524.263,191.791 524.5,190.5C 526.774,185.364 529.441,185.364 532.5,190.5C 530.076,191.352 527.742,192.352 525.5,193.5 Z"/></g>
<g><path style="opacity:1" fill="#3c3b40" d="M 35.5,192.5 C 35.5,198.833 35.5,205.167 35.5,211.5C 34.1779,211.33 33.0113,211.663 32,212.5C 31.5045,214.473 31.3379,216.473 31.5,218.5C 32.4171,221.005 32.4171,223.338 31.5,225.5C 28.9133,215.807 28.2466,206.141 29.5,196.5C 30.2011,200.301 31.3677,203.968 33,207.5C 32.025,201.572 31.6916,195.572 32,189.5C 32.2022,187.744 32.7022,186.078 33.5,184.5C 34.5488,187.08 35.2155,189.746 35.5,192.5 Z"/></g>
<g><path style="opacity:1" fill="#595a5c" d="M 452.5,185.5 C 453.833,185.5 455.167,185.5 456.5,185.5C 465.45,193.77 474.783,201.77 484.5,209.5C 478.737,211.998 473.404,215.831 468.5,221C 467.207,221.49 465.873,221.657 464.5,221.5C 459.863,220.337 455.196,219.337 450.5,218.5C 451.167,218.5 451.5,218.167 451.5,217.5C 455.871,218.931 460.205,218.764 464.5,217C 468.024,213.975 471.691,211.142 475.5,208.5C 476.833,207.5 476.833,206.5 475.5,205.5C 468.641,200.14 461.641,194.974 454.5,190C 444.678,189.181 435.011,188.348 425.5,187.5C 434.701,187.534 443.701,186.867 452.5,185.5 Z"/></g>
<g><path style="opacity:1" fill="#cdccd0" d="M 43.5,210.5 C 43.762,211.978 43.4287,213.311 42.5,214.5C 40.396,215.519 38.396,216.519 36.5,217.5C 35.609,218.11 34.609,218.443 33.5,218.5C 32.8333,218.5 32.1667,218.5 31.5,218.5C 31.3379,216.473 31.5045,214.473 32,212.5C 33.0113,211.663 34.1779,211.33 35.5,211.5C 38.0545,210.612 40.7212,210.279 43.5,210.5 Z"/></g>
<g><path style="opacity:1" fill="#a7b0ae" d="M 407.5,209.5 C 408.793,208.842 410.293,208.508 412,208.5C 418.454,209.659 424.954,210.326 431.5,210.5C 439.468,213.753 447.135,213.086 454.5,208.5C 455.696,208.846 455.696,209.346 454.5,210C 452.138,211.511 449.805,213.011 447.5,214.5C 434.103,213.313 420.77,211.646 407.5,209.5 Z"/></g>
<g><path style="opacity:1" fill="#1d1d1e" d="M 48.5,213.5 C 48.8333,214.833 49.1667,216.167 49.5,217.5C 49.1667,218.5 48.5,219.167 47.5,219.5C 47.7373,218.209 47.404,217.209 46.5,216.5C 44.6558,215.796 44.1558,214.463 45,212.5C 46.0113,213.337 47.1779,213.67 48.5,213.5 Z"/></g>
<g><path style="opacity:1" fill="#565559" d="M 48.5,211.5 C 48.5,212.167 48.5,212.833 48.5,213.5C 47.1779,213.67 46.0113,213.337 45,212.5C 44.1558,214.463 44.6558,215.796 46.5,216.5C 42.7383,226.341 42.7383,236.008 46.5,245.5C 47.2625,246.268 48.2625,246.768 49.5,247C 45.4469,247.559 42.2802,246.059 40,242.5C 36.1012,237.369 33.2678,231.702 31.5,225.5C 32.4171,223.338 32.4171,221.005 31.5,218.5C 32.1667,218.5 32.8333,218.5 33.5,218.5C 33.6254,224.341 35.2921,229.674 38.5,234.5C 40.1667,234.167 41.1667,233.167 41.5,231.5C 39.8012,226.73 38.1345,222.063 36.5,217.5C 38.396,216.519 40.396,215.519 42.5,214.5C 43.4287,213.311 43.762,211.978 43.5,210.5C 46.1036,204.958 47.7703,205.292 48.5,211.5 Z"/></g>
<g><path style="opacity:1" fill="#e3e3e3" d="M 386.5,210.5 C 407.809,213.385 429.142,216.052 450.5,218.5C 455.196,219.337 459.863,220.337 464.5,221.5C 467.891,222.141 471.224,223.308 474.5,225C 478.223,229.63 481.557,234.464 484.5,239.5C 480.503,235.031 476.17,230.864 471.5,227C 444.199,222.448 416.866,218.115 389.5,214C 386.996,213.302 384.663,212.469 382.5,211.5C 383.708,210.766 385.041,210.433 386.5,210.5 Z"/></g>
<g><path style="opacity:1" fill="#abaaad" d="M 48.5,211.5 C 48.8333,211.5 49.1667,211.5 49.5,211.5C 51.4528,215.12 54.1195,218.12 57.5,220.5C 58.7752,223.604 58.7752,226.604 57.5,229.5C 56.7281,228.306 55.7281,227.306 54.5,226.5C 52.638,223.552 50.9713,220.552 49.5,217.5C 49.1667,216.167 48.8333,214.833 48.5,213.5C 48.5,212.833 48.5,212.167 48.5,211.5 Z"/></g>
<g><path style="opacity:1" fill="#3c3b40" d="M 36.5,217.5 C 38.1345,222.063 39.8012,226.73 41.5,231.5C 41.1667,233.167 40.1667,234.167 38.5,234.5C 35.2921,229.674 33.6254,224.341 33.5,218.5C 34.609,218.443 35.609,218.11 36.5,217.5 Z"/></g>
<g><path style="opacity:1" fill="#504f54" d="M 49.5,217.5 C 50.9713,220.552 52.638,223.552 54.5,226.5C 53.4138,226.62 52.7472,227.287 52.5,228.5C 53.3464,232.118 53.6797,235.785 53.5,239.5C 53.1667,243.167 51.1667,245.167 47.5,245.5C 46.3117,236.806 46.3117,228.139 47.5,219.5C 48.5,219.167 49.1667,218.5 49.5,217.5 Z"/></g>
<g><path style="opacity:1" fill="#dadada" d="M 119.5,205.5 C 142.868,213.397 165.868,222.064 188.5,231.5C 175.466,227.156 162.466,222.656 149.5,218C 139.278,214.101 129.278,209.934 119.5,205.5 Z"/></g>
<g><path style="opacity:1" fill="#fbfbfc" d="M 351.5,292.5 C 349.565,291.85 347.565,291.517 345.5,291.5C 341.038,269.247 332.705,248.58 320.5,229.5C 322.928,225.543 326.262,223.043 330.5,222C 344.84,243.805 351.84,267.305 351.5,292.5 Z"/></g>
<g><path style="opacity:1" fill="#fbfbfb" d="M 558.5,224.5 C 559.5,224.5 560.5,224.5 561.5,224.5C 560.808,230.843 559.975,237.176 559,243.5C 557.333,244.733 555.833,246.067 554.5,247.5C 539.062,254.423 523.395,260.757 507.5,266.5C 507.334,259.159 507.5,251.826 508,244.5C 524.563,237.363 541.397,230.697 558.5,224.5 Z"/></g>
<g><path style="opacity:1" fill="#d7d7d8" d="M 554.5,217.5 C 554.631,218.376 554.298,219.043 553.5,219.5C 543.784,224.35 533.784,228.516 523.5,232C 519.642,232.81 515.976,232.643 512.5,231.5C 514.199,231.66 515.866,231.494 517.5,231C 509.781,225.263 503.614,218.43 499,210.5C 504.718,216.762 510.551,222.929 516.5,229C 517.5,229.5 518.5,230 519.5,230.5C 531.714,227.541 543.38,223.208 554.5,217.5 Z"/></g>
<g><path style="opacity:0.827" fill="#010101" d="M 101.5,228.5 C 106.493,233.483 108.993,239.483 109,246.5C 108.097,247.701 106.931,248.535 105.5,249C 98.8229,249.453 92.1562,249.953 85.5,250.5C 86.8333,247.5 88.1667,244.5 89.5,241.5C 91.1299,236.14 93.6299,231.14 97,226.5C 98.4705,227.267 99.9705,227.933 101.5,228.5 Z"/></g>
<g><path style="opacity:1" fill="#39383d" d="M 68.5,209.5 C 71.0296,212.688 73.6962,215.855 76.5,219C 84.8304,222.165 93.1637,224.998 101.5,227.5C 101.5,227.833 101.5,228.167 101.5,228.5C 99.9705,227.933 98.4705,227.267 97,226.5C 93.6299,231.14 91.1299,236.14 89.5,241.5C 86.8806,241.768 84.3806,241.435 82,240.5C 77.4706,230.115 72.9706,219.781 68.5,209.5 Z"/></g>
<g><path style="opacity:1" fill="#dfdfdf" d="M 365.5,223.5 C 402.062,229.539 438.062,238.039 473.5,249C 475.779,249.473 477.779,250.473 479.5,252C 468.827,252.255 458.16,251.921 447.5,251C 455.167,250.667 462.833,250.333 470.5,250C 437.027,240.065 403.194,231.565 369,224.5C 368.167,224.833 367.333,225.167 366.5,225.5C 372.449,232.951 378.949,239.951 386,246.5C 386.667,247.167 386.667,247.833 386,248.5C 380,242.5 374,236.5 368,230.5C 366.097,228.559 365.264,226.226 365.5,223.5 Z"/></g>
<g><path style="opacity:1" fill="#3f3e43" d="M 54.5,226.5 C 55.7281,227.306 56.7281,228.306 57.5,229.5C 58.0906,230.151 58.7573,230.818 59.5,231.5C 58.8195,233.889 57.9862,236.222 57,238.5C 56.6174,237.944 56.1174,237.611 55.5,237.5C 54.8857,233.865 54.5524,230.198 54.5,226.5 Z"/></g>
<g><path style="opacity:0.871" fill="#c5c5c5" d="M 571.5,216.5 C 571.564,221.193 571.231,225.859 570.5,230.5C 571.838,237.847 573.171,245.18 574.5,252.5C 573.026,253.436 572.026,254.77 571.5,256.5C 568.916,254.581 569.25,252.914 572.5,251.5C 572.137,250.817 571.804,250.15 571.5,249.5C 572.124,249.083 572.457,248.416 572.5,247.5C 570.535,241.64 569.202,235.64 568.5,229.5C 569.287,223.494 570.12,217.494 571,211.5C 571.494,213.134 571.66,214.801 571.5,216.5 Z"/></g>
<g><path style="opacity:1" fill="#2b352d" d="M 101.5,227.5 C 141.269,241.303 180.269,256.636 218.5,273.5C 217.646,279.121 217.313,284.788 217.5,290.5C 214.36,291.641 211.027,291.808 207.5,291C 180.14,284.729 152.473,279.729 124.5,276C 108.883,273.387 93.3829,270.221 78,266.5C 76.9302,266.528 76.0968,266.861 75.5,267.5C 66.7461,264.619 58.4128,260.953 50.5,256.5C 62.4573,256.118 74.124,254.118 85.5,250.5C 92.1562,249.953 98.8229,249.453 105.5,249C 106.931,248.535 108.097,247.701 109,246.5C 108.993,239.483 106.493,233.483 101.5,228.5C 101.5,228.167 101.5,227.833 101.5,227.5 Z"/></g>
<g><path style="opacity:1" fill="#3b3a3f" d="M 287.5,212.5 C 293.069,216.561 298.235,221.228 303,226.5C 320.912,249.905 331.579,276.238 335,305.5C 336.667,309.833 338.333,314.167 340,318.5C 345.905,320.265 351.738,321.931 357.5,323.5C 356.5,323.5 355.5,323.5 354.5,323.5C 353.318,327.021 351.318,330.021 348.5,332.5C 342.405,333.085 336.072,334.251 329.5,336C 324.066,339.051 318.4,341.551 312.5,343.5C 305.632,347.422 298.132,349.089 290,348.5C 254.263,344.763 234.429,324.929 230.5,289C 232.795,257.711 249.129,238.378 279.5,231C 287.167,230.667 294.833,230.333 302.5,230C 293.91,220.768 283.243,216.268 270.5,216.5C 275.272,215.129 280.272,214.296 285.5,214C 286.416,213.722 287.082,213.222 287.5,212.5 Z"/></g>
<g><path style="opacity:1" fill="#9d9ca1" d="M 46.5,216.5 C 47.404,217.209 47.7373,218.209 47.5,219.5C 46.3117,228.139 46.3117,236.806 47.5,245.5C 47.1667,245.5 46.8333,245.5 46.5,245.5C 42.7383,236.008 42.7383,226.341 46.5,216.5 Z"/></g>
<g><path style="opacity:1" fill="#a6a5aa" d="M 54.5,226.5 C 54.5524,230.198 54.8857,233.865 55.5,237.5C 55.6567,238.873 55.49,240.207 55,241.5C 54.7216,240.584 54.2216,239.918 53.5,239.5C 53.6797,235.785 53.3464,232.118 52.5,228.5C 52.7472,227.287 53.4138,226.62 54.5,226.5 Z"/></g>
<g><path style="opacity:1" fill="#d6d6d6" d="M 348.5,207.5 C 343.043,212.067 337.377,216.4 331.5,220.5C 346.061,242.617 353.728,266.95 354.5,293.5C 353.209,293.737 352.209,293.404 351.5,292.5C 351.84,267.305 344.84,243.805 330.5,222C 326.262,223.043 322.928,225.543 320.5,229.5C 319.094,229.027 318.427,228.027 318.5,226.5C 322.004,225.188 325.17,223.188 328,220.5C 327.763,218.011 326.929,215.678 325.5,213.5C 327.388,214.94 329.055,216.606 330.5,218.5C 336.222,214.309 342.222,210.642 348.5,207.5 Z"/></g>
<g><path style="opacity:1" fill="#c1c0c5" d="M 316.5,251.5 C 316.5,251.833 316.5,252.167 316.5,252.5C 314.215,251.775 312.382,250.442 311,248.5C 309.436,248.912 307.936,249.245 306.5,249.5C 306.5,249.167 306.5,248.833 306.5,248.5C 307.73,246.703 308.396,244.703 308.5,242.5C 299.785,239.191 290.785,238.024 281.5,239C 279.779,240.944 278.446,243.11 277.5,245.5C 274.524,250.102 271.524,254.769 268.5,259.5C 267.05,258.15 266.383,256.484 266.5,254.5C 269.695,248.613 273.028,242.779 276.5,237C 287.435,235.646 298.102,236.646 308.5,240C 311.777,243.437 314.443,247.271 316.5,251.5 Z"/></g>
<g><path style="opacity:1" fill="#3b3a40" d="M 306.5,248.5 C 297.134,244.94 287.634,244.606 278,247.5C 277.536,246.906 277.369,246.239 277.5,245.5C 278.446,243.11 279.779,240.944 281.5,239C 290.785,238.024 299.785,239.191 308.5,242.5C 308.396,244.703 307.73,246.703 306.5,248.5 Z"/></g>
<g><path style="opacity:0.382" fill="#000000" d="M 34.5,241.5 C 37.4535,245.871 40.7869,250.037 44.5,254C 46.2166,255.559 48.2166,256.392 50.5,256.5C 58.4128,260.953 66.7461,264.619 75.5,267.5C 98.0115,277.677 120.678,287.677 143.5,297.5C 176.167,311.833 208.833,326.167 241.5,340.5C 247.282,343.775 252.948,347.275 258.5,351C 262.677,353.059 267.01,354.726 271.5,356C 283.865,358.093 296.199,358.926 308.5,358.5C 317.979,359.698 327.646,360.364 337.5,360.5C 351.304,362.04 365.304,362.707 379.5,362.5C 397.292,364.672 415.292,365.506 433.5,365C 467.494,350.332 501.161,335.165 534.5,319.5C 542.586,316.361 550.586,313.027 558.5,309.5C 561.037,322.557 557.37,333.557 547.5,342.5C 539.883,349.955 531.549,356.455 522.5,362C 498.842,375.995 473.842,386.995 447.5,395C 419.998,401.568 392.331,402.234 364.5,397C 329.515,391.336 295.182,383.003 261.5,372C 212.854,352.894 164.854,332.227 117.5,310C 93.5317,297.015 69.5317,284.015 45.5,271C 40.1951,266.701 36.0284,261.534 33,255.5C 32.1188,250.642 32.6188,245.976 34.5,241.5 Z"/></g>
<g><path style="opacity:1" fill="#545358" d="M 277.5,245.5 C 277.369,246.239 277.536,246.906 278,247.5C 287.634,244.606 297.134,244.94 306.5,248.5C 306.5,248.833 306.5,249.167 306.5,249.5C 303.916,253.666 301.583,258 299.5,262.5C 297.833,265.833 296.167,269.167 294.5,272.5C 290.354,271.353 286.02,271.186 281.5,272C 279.907,272.949 278.574,274.115 277.5,275.5C 273.473,272.14 269.806,268.473 266.5,264.5C 264.833,261.833 263.167,259.167 261.5,256.5C 263.167,255.833 264.833,255.167 266.5,254.5C 266.383,256.484 267.05,258.15 268.5,259.5C 271.524,254.769 274.524,250.102 277.5,245.5 Z"/></g>
<g><path style="opacity:1" fill="#ebecec" d="M 565.5,184.5 C 568.596,191.084 570.763,198.084 572,205.5C 572.81,209.358 572.643,213.024 571.5,216.5C 571.66,214.801 571.494,213.134 571,211.5C 570.12,217.494 569.287,223.494 568.5,229.5C 569.202,235.64 570.535,241.64 572.5,247.5C 572.457,248.416 572.124,249.083 571.5,249.5C 570.143,248.315 568.643,247.315 567,246.5C 563.487,250.346 559.654,253.846 555.5,257C 539.977,265.602 523.977,272.768 507.5,278.5C 499.027,265.874 491.36,252.874 484.5,239.5C 492.057,249.593 498.891,260.26 505,271.5C 506.117,273.124 507.617,274.124 509.5,274.5C 523.399,268.885 537.066,262.718 550.5,256C 553.917,253.842 555.25,251.008 554.5,247.5C 555.833,246.067 557.333,244.733 559,243.5C 559.975,237.176 560.808,230.843 561.5,224.5C 560.5,224.5 559.5,224.5 558.5,224.5C 559.261,223.609 560.261,222.942 561.5,222.5C 563.24,213.581 564.24,204.581 564.5,195.5C 565.482,192.038 565.815,188.371 565.5,184.5 Z"/></g>
<g><path style="opacity:1" fill="#dedede" d="M 387.5,248.5 C 406.854,248.254 426.187,248.754 445.5,250C 426.831,250.129 408.164,250.129 389.5,250C 387.04,251.458 384.873,253.291 383,255.5C 374.972,266.696 367.138,278.029 359.5,289.5C 358.479,288.998 358.312,288.332 359,287.5C 367.945,274.061 377.445,261.061 387.5,248.5 Z"/></g>
<g><path style="opacity:1" fill="#d4d4d7" d="M 316.5,252.5 C 314.967,256.704 312.3,260.037 308.5,262.5C 305.19,262.661 302.19,262.661 299.5,262.5C 301.583,258 303.916,253.666 306.5,249.5C 307.936,249.245 309.436,248.912 311,248.5C 312.382,250.442 314.215,251.775 316.5,252.5 Z"/></g>
<g><path style="opacity:1" fill="#77777b" d="M 270.5,216.5 C 283.243,216.268 293.91,220.768 302.5,230C 294.833,230.333 287.167,230.667 279.5,231C 249.129,238.378 232.795,257.711 230.5,289C 234.429,324.929 254.263,344.763 290,348.5C 298.132,349.089 305.632,347.422 312.5,343.5C 318.4,341.551 324.066,339.051 329.5,336C 336.072,334.251 342.405,333.085 348.5,332.5C 338.513,344.517 326.18,352.851 311.5,357.5C 310.209,357.263 309.209,357.596 308.5,358.5C 296.199,358.926 283.865,358.093 271.5,356C 267.01,354.726 262.677,353.059 258.5,351C 252.948,347.275 247.282,343.775 241.5,340.5C 240.93,336.761 238.764,334.428 235,333.5C 229.078,326.32 224.745,318.32 222,309.5C 221.623,308.058 220.79,307.058 219.5,306.5C 219.624,300.931 218.957,295.598 217.5,290.5C 217.313,284.788 217.646,279.121 218.5,273.5C 219.165,271.302 219.832,268.969 220.5,266.5C 221.769,268.695 221.769,270.861 220.5,273C 221.5,273.667 222.5,273.667 223.5,273C 222.54,269.27 222.207,265.437 222.5,261.5C 222.838,259.146 223.338,256.813 224,254.5C 230.314,242.157 239.147,232.157 250.5,224.5C 256.708,220.731 263.374,218.064 270.5,216.5 Z"/></g>
<g><path style="opacity:1" fill="#adacb0" d="M 256.5,226.5 C 258.989,226.298 261.323,226.798 263.5,228C 264.711,228.893 264.711,229.726 263.5,230.5C 251.803,235.697 242.803,243.864 236.5,255C 233.366,255.79 230.366,255.457 227.5,254C 228.227,252.601 228.727,251.101 229,249.5C 236.466,239.843 245.633,232.177 256.5,226.5 Z"/></g>
<g><path style="opacity:1" fill="#a9a8ad" d="M 268.5,224.5 C 272.048,224.095 275.381,224.595 278.5,226C 275.239,228.405 271.739,228.905 268,227.5C 267.53,226.423 267.697,225.423 268.5,224.5 Z"/></g>
<g><path style="opacity:1" fill="#545458" d="M 316.5,251.5 C 324.587,265.422 329.92,280.422 332.5,296.5C 332.167,296.5 331.833,296.5 331.5,296.5C 326.1,295.816 320.767,294.816 315.5,293.5C 312.264,292.135 308.931,291.135 305.5,290.5C 306.376,290.631 307.043,290.298 307.5,289.5C 306.443,284.38 304.11,280.047 300.5,276.5C 303.167,271.833 305.833,267.167 308.5,262.5C 312.3,260.037 314.967,256.704 316.5,252.5C 316.5,252.167 316.5,251.833 316.5,251.5 Z"/></g>
<g><path style="opacity:1" fill="#3c3b40" d="M 254.5,263.5 C 253.864,267.781 252.364,271.781 250,275.5C 249.023,280.793 248.523,286.126 248.5,291.5C 244.169,288.002 240.336,284.002 237,279.5C 236.872,270.915 239.706,263.415 245.5,257C 249.371,257.668 252.371,259.835 254.5,263.5 Z"/></g>
<g><path style="opacity:1" fill="#5e6164" d="M 423.5,261.5 C 426.195,264.526 428.862,267.526 431.5,270.5C 419.674,271.66 407.674,271.826 395.5,271C 394.529,269.519 393.196,268.685 391.5,268.5C 390.599,266.273 388.933,265.273 386.5,265.5C 382.955,267.925 380.955,271.258 380.5,275.5C 385.17,276.221 389.837,277.054 394.5,278C 406.007,278.169 417.341,278.669 428.5,279.5C 426.193,280.653 423.86,281.82 421.5,283C 406.474,283.784 391.474,283.45 376.5,282C 374.365,280.444 374.032,278.611 375.5,276.5C 379.874,269.618 384.874,263.118 390.5,257C 398.833,256.333 407.167,256.333 415.5,257C 418.648,257.738 421.315,259.238 423.5,261.5 Z"/></g>
<g><path style="opacity:1" fill="#e6e6e6" d="M 423.5,261.5 C 421.315,259.238 418.648,257.738 415.5,257C 407.167,256.333 398.833,256.333 390.5,257C 384.874,263.118 379.874,269.618 375.5,276.5C 374.867,276.12 374.2,275.787 373.5,275.5C 377.833,269.5 382.167,263.5 386.5,257.5C 387.874,256.289 389.374,255.289 391,254.5C 396.46,255.597 401.96,255.764 407.5,255C 402.833,254.667 398.167,254.333 393.5,254C 422.207,254.062 450.873,255.228 479.5,257.5C 478.088,258.806 476.421,259.64 474.5,260C 457.328,260.168 440.328,260.668 423.5,261.5 Z"/></g>
<g><path style="opacity:1" fill="#f8f8f8" d="M 574.5,252.5 C 577.572,257.187 578.072,262.187 576,267.5C 567.593,274.75 559.427,282.084 551.5,289.5C 544.015,289.579 537.349,291.913 531.5,296.5C 530.833,296.5 530.5,296.833 530.5,297.5C 525.715,298.727 521.715,301.227 518.5,305C 515.252,306.46 511.919,307.626 508.5,308.5C 506.143,308.337 503.81,308.503 501.5,309C 489.524,313.817 477.524,318.317 465.5,322.5C 465.5,323.5 465.5,324.5 465.5,325.5C 463.588,326.799 461.588,327.799 459.5,328.5C 453.974,328.821 448.64,328.488 443.5,327.5C 451.485,323.691 457.818,317.857 462.5,310C 500.443,301.358 535.11,285.691 566.5,263C 568.865,261.211 570.532,259.044 571.5,256.5C 572.026,254.77 573.026,253.436 574.5,252.5 Z"/></g>
<g><path style="opacity:1" fill="#545358" d="M 254.5,263.5 C 257.527,265.86 260.194,268.527 262.5,271.5C 266.208,275.21 270.208,278.543 274.5,281.5C 273.883,281.611 273.383,281.944 273,282.5C 272.186,287.02 272.353,291.354 273.5,295.5C 266.004,297.996 258.337,300.329 250.5,302.5C 249.853,300.859 248.853,299.526 247.5,298.5C 249.346,298.778 250.68,298.111 251.5,296.5C 250.237,294.971 249.237,293.305 248.5,291.5C 248.523,286.126 249.023,280.793 250,275.5C 252.364,271.781 253.864,267.781 254.5,263.5 Z"/></g>
<g><path style="opacity:1" fill="#a7a7a9" d="M 299.5,262.5 C 302.19,262.661 305.19,262.661 308.5,262.5C 305.833,267.167 303.167,271.833 300.5,276.5C 298.59,280.068 295.59,282.068 291.5,282.5C 292.492,279.177 293.492,275.844 294.5,272.5C 296.167,269.167 297.833,265.833 299.5,262.5 Z"/></g>
<g><path style="opacity:1" fill="#38553f" d="M 217.5,290.5 C 218.957,295.598 219.624,300.931 219.5,306.5C 195.197,303.087 170.864,299.754 146.5,296.5C 145.274,296.52 144.274,296.853 143.5,297.5C 120.678,287.677 98.0115,277.677 75.5,267.5C 76.0968,266.861 76.9302,266.528 78,266.5C 93.3829,270.221 108.883,273.387 124.5,276C 152.473,279.729 180.14,284.729 207.5,291C 211.027,291.808 214.36,291.641 217.5,290.5 Z"/></g>
<g><path style="opacity:1" fill="#909899" d="M 391.5,268.5 C 393.196,268.685 394.529,269.519 395.5,271C 407.674,271.826 419.674,271.66 431.5,270.5C 434.37,271.634 437.37,272.3 440.5,272.5C 441.263,273.268 442.263,273.768 443.5,274C 427.478,274.752 411.478,274.418 395.5,273C 393.959,271.629 392.625,270.129 391.5,268.5 Z"/></g>
<g><path style="opacity:1" fill="#a6a6a8" d="M 266.5,264.5 C 269.806,268.473 273.473,272.14 277.5,275.5C 278.793,277.296 280.293,278.963 282,280.5C 282.808,282.579 282.641,284.579 281.5,286.5C 278.961,285.069 276.628,283.403 274.5,281.5C 270.208,278.543 266.208,275.21 262.5,271.5C 264.071,269.365 265.404,267.032 266.5,264.5 Z"/></g>
<g><path style="opacity:1" fill="#1d1d1f" d="M 294.5,272.5 C 293.492,275.844 292.492,279.177 291.5,282.5C 295.59,282.068 298.59,280.068 300.5,276.5C 304.11,280.047 306.443,284.38 307.5,289.5C 307.043,290.298 306.376,290.631 305.5,290.5C 303.883,289.962 302.216,289.629 300.5,289.5C 299.837,294.17 301.837,296.836 306.5,297.5C 305.949,303.893 302.783,308.56 297,311.5C 296.814,308.964 296.314,306.631 295.5,304.5C 295.5,302.833 295.5,301.167 295.5,299.5C 292.31,299.687 290.31,301.354 289.5,304.5C 288.532,306.607 288.198,308.941 288.5,311.5C 282.412,310.408 278.079,307.075 275.5,301.5C 277.886,300.702 280.22,299.702 282.5,298.5C 283.386,297.675 283.719,296.675 283.5,295.5C 280.148,294.293 276.814,294.293 273.5,295.5C 272.353,291.354 272.186,287.02 273,282.5C 273.383,281.944 273.883,281.611 274.5,281.5C 276.628,283.403 278.961,285.069 281.5,286.5C 282.641,284.579 282.808,282.579 282,280.5C 280.293,278.963 278.793,277.296 277.5,275.5C 278.574,274.115 279.907,272.949 281.5,272C 286.02,271.186 290.354,271.353 294.5,272.5 Z"/></g>
<g><path style="opacity:1" fill="#93999c" d="M 386.5,265.5 C 388.202,270.041 391.202,273.541 395.5,276C 414.83,276.5 434.164,276.667 453.5,276.5C 453.5,276.833 453.5,277.167 453.5,277.5C 451.694,278.024 450.028,278.691 448.5,279.5C 441.833,279.5 435.167,279.5 428.5,279.5C 417.341,278.669 406.007,278.169 394.5,278C 389.837,277.054 385.17,276.221 380.5,275.5C 380.955,271.258 382.955,267.925 386.5,265.5 Z"/></g>
<g><path style="opacity:1" fill="#dbf2ef" d="M 386.5,265.5 C 388.933,265.273 390.599,266.273 391.5,268.5C 392.625,270.129 393.959,271.629 395.5,273C 411.478,274.418 427.478,274.752 443.5,274C 442.263,273.768 441.263,273.268 440.5,272.5C 443.522,272.804 446.522,273.304 449.5,274C 451.32,274.2 452.653,275.034 453.5,276.5C 434.164,276.667 414.83,276.5 395.5,276C 391.202,273.541 388.202,270.041 386.5,265.5 Z"/></g>
<g><path style="opacity:1" fill="#e2e2e2" d="M 453.5,277.5 C 461.163,278.405 468.996,278.405 477,277.5C 480.167,277.833 483.333,278.167 486.5,278.5C 485.45,279.429 485.45,280.095 486.5,280.5C 483.213,284.959 479.713,289.292 476,293.5C 473.463,296.372 470.63,298.872 467.5,301C 456.578,302.431 445.578,302.931 434.5,302.5C 427.5,302.5 420.5,302.5 413.5,302.5C 403.205,301.461 392.871,300.794 382.5,300.5C 375.997,299.466 369.664,297.8 363.5,295.5C 364.552,295.649 365.552,295.483 366.5,295C 363.745,291.693 363.911,288.526 367,285.5C 367.004,287.368 366.504,289.202 365.5,291C 365.645,291.772 365.978,292.439 366.5,293C 370.167,294 373.833,295 377.5,296C 406.411,299.277 435.411,300.277 464.5,299C 467.902,297.6 470.736,295.433 473,292.5C 476.5,288.333 480,284.167 483.5,280C 473.833,279.333 464.167,279.333 454.5,280C 450.19,282.158 446.19,284.825 442.5,288C 437.415,289.085 432.248,289.585 427,289.5C 409.456,288.979 391.956,287.812 374.5,286C 373.328,285.581 372.328,284.915 371.5,284C 394.353,286.606 417.353,287.606 440.5,287C 443.772,285.392 446.772,283.392 449.5,281C 450.712,279.893 450.379,279.393 448.5,279.5C 450.028,278.691 451.694,278.024 453.5,277.5 Z"/></g>
<g><path style="opacity:1" fill="#c9c9cc" d="M 261.5,256.5 C 263.167,259.167 264.833,261.833 266.5,264.5C 265.404,267.032 264.071,269.365 262.5,271.5C 260.194,268.527 257.527,265.86 254.5,263.5C 252.371,259.835 249.371,257.668 245.5,257C 239.706,263.415 236.872,270.915 237,279.5C 240.336,284.002 244.169,288.002 248.5,291.5C 249.237,293.305 250.237,294.971 251.5,296.5C 250.68,298.111 249.346,298.778 247.5,298.5C 242.503,294.336 238.003,289.669 234,284.5C 234.174,269.32 240.34,257.153 252.5,248C 253.5,247.333 254.5,247.333 255.5,248C 257.72,250.713 259.72,253.546 261.5,256.5 Z"/></g>
<g><path style="opacity:1" fill="#aaaaab" d="M 296.5,290.5 C 295.903,291.139 295.07,291.472 294,291.5C 290.837,290.75 287.67,290.084 284.5,289.5C 286.553,284.654 289.886,283.487 294.5,286C 296.037,287.11 296.703,288.61 296.5,290.5 Z"/></g>
<g><path style="opacity:1" fill="#252526" d="M 288.5,286.5 C 291.346,286.03 293.679,286.863 295.5,289C 292.888,288.901 290.221,288.568 287.5,288C 288.056,287.617 288.389,287.117 288.5,286.5 Z"/></g>
<g><path style="opacity:1" fill="#8fa295" d="M 551.5,289.5 C 559.674,293.053 567.674,296.887 575.5,301C 570.117,304.358 564.45,307.192 558.5,309.5C 550.586,313.027 542.586,316.361 534.5,319.5C 532.847,312.054 531.847,304.388 531.5,296.5C 537.349,291.913 544.015,289.579 551.5,289.5 Z"/></g>
<g><path style="opacity:1" fill="#727273" d="M 284.5,289.5 C 287.67,290.084 290.837,290.75 294,291.5C 295.07,291.472 295.903,291.139 296.5,290.5C 297.803,292.757 297.136,294.59 294.5,296C 288.317,297.961 284.984,295.795 284.5,289.5 Z"/></g>
<g><path style="opacity:1" fill="#141415" d="M 287.5,292.5 C 289.564,292.687 291.564,293.187 293.5,294C 292.5,294.167 291.5,294.333 290.5,294.5C 288.97,294.36 287.97,293.693 287.5,292.5 Z"/></g>
<g><path style="opacity:1" fill="#a9a9ac" d="M 305.5,290.5 C 308.931,291.135 312.264,292.135 315.5,293.5C 314.761,293.369 314.094,293.536 313.5,294C 319.222,297.279 325.055,300.446 331,303.5C 331.497,301.19 331.663,298.857 331.5,296.5C 331.833,296.5 332.167,296.5 332.5,296.5C 332.813,300.042 332.479,303.375 331.5,306.5C 323.102,303.7 314.768,300.7 306.5,297.5C 301.837,296.836 299.837,294.17 300.5,289.5C 302.216,289.629 303.883,289.962 305.5,290.5 Z"/></g>
<g><path style="opacity:1" fill="#d4d3d7" d="M 315.5,293.5 C 320.767,294.816 326.1,295.816 331.5,296.5C 331.663,298.857 331.497,301.19 331,303.5C 325.055,300.446 319.222,297.279 313.5,294C 314.094,293.536 314.761,293.369 315.5,293.5 Z"/></g>
<g><path style="opacity:1" fill="#d3d3d5" d="M 275.5,301.5 C 270.172,303.832 264.838,306.165 259.5,308.5C 255.746,307.314 251.913,306.314 248,305.5C 246.97,305.164 246.47,304.497 246.5,303.5C 247.833,303.167 249.167,302.833 250.5,302.5C 258.337,300.329 266.004,297.996 273.5,295.5C 276.814,294.293 280.148,294.293 283.5,295.5C 283.719,296.675 283.386,297.675 282.5,298.5C 280.22,299.702 277.886,300.702 275.5,301.5 Z"/></g>
<g><path style="opacity:1" fill="#545358" d="M 306.5,297.5 C 314.768,300.7 323.102,303.7 331.5,306.5C 330.833,309.167 330.167,311.833 329.5,314.5C 328.837,312.958 328.17,311.291 327.5,309.5C 326.264,308.754 324.93,308.421 323.5,308.5C 324.167,313.167 324.833,317.833 325.5,322.5C 324.732,321.737 324.232,320.737 324,319.5C 321.833,321.667 319.667,323.833 317.5,326C 311.274,329.102 305.274,332.268 299.5,335.5C 297.401,328.293 296.067,320.96 295.5,313.5C 295.5,310.5 295.5,307.5 295.5,304.5C 296.314,306.631 296.814,308.964 297,311.5C 302.783,308.56 305.949,303.893 306.5,297.5 Z"/></g>
<g><path style="opacity:1" fill="#628e6c" d="M 143.5,297.5 C 144.274,296.853 145.274,296.52 146.5,296.5C 170.864,299.754 195.197,303.087 219.5,306.5C 220.79,307.058 221.623,308.058 222,309.5C 224.745,318.32 229.078,326.32 235,333.5C 238.764,334.428 240.93,336.761 241.5,340.5C 208.833,326.167 176.167,311.833 143.5,297.5 Z"/></g>
<g><path style="opacity:1" fill="#3e3e40" d="M 382.5,300.5 C 392.871,300.794 403.205,301.461 413.5,302.5C 413.5,302.833 413.5,303.167 413.5,303.5C 411.5,303.5 409.5,303.5 407.5,303.5C 399.654,302.96 391.987,302.96 384.5,303.5C 383.698,304.952 383.198,306.618 383,308.5C 382.849,305.881 382.015,303.547 380.5,301.5C 380.957,300.702 381.624,300.369 382.5,300.5 Z"/></g>
<g><path style="opacity:1" fill="#56555a" d="M 275.5,301.5 C 278.079,307.075 282.412,310.408 288.5,311.5C 288.198,308.941 288.532,306.607 289.5,304.5C 289.5,312.5 289.5,320.5 289.5,328.5C 289.5,330.5 289.5,332.5 289.5,334.5C 287.097,334.552 284.764,334.219 282.5,333.5C 284.972,332.358 285.972,330.358 285.5,327.5C 281.355,328.215 277.355,329.548 273.5,331.5C 268.609,327.795 263.776,323.795 259,319.5C 256.843,317.183 255.343,314.516 254.5,311.5C 256.072,310.313 257.739,309.313 259.5,308.5C 264.838,306.165 270.172,303.832 275.5,301.5 Z"/></g>
<g><path style="opacity:1" fill="#314236" d="M 530.5,297.5 C 531.477,300.287 531.81,303.287 531.5,306.5C 528.478,306.804 525.478,307.304 522.5,308C 504.305,315.349 485.638,321.515 466.5,326.5C 465.893,326.376 465.56,326.043 465.5,325.5C 479.961,320.016 494.294,314.349 508.5,308.5C 511.919,307.626 515.252,306.46 518.5,305C 521.715,301.227 525.715,298.727 530.5,297.5 Z"/></g>
<g><path style="opacity:1" fill="#9c9da0" d="M 407.5,303.5 C 407.189,304.478 406.522,305.145 405.5,305.5C 404.033,305.277 402.533,304.944 401,304.5C 399.333,305.5 397.667,306.5 396,307.5C 392.275,306.505 388.608,306.839 385,308.5C 384.506,306.866 384.34,305.199 384.5,303.5C 391.987,302.96 399.654,302.96 407.5,303.5 Z"/></g>
<g><path style="opacity:1" fill="#d6d5d7" d="M 295.5,304.5 C 295.5,307.5 295.5,310.5 295.5,313.5C 297.043,320.089 295.043,325.089 289.5,328.5C 289.5,320.5 289.5,312.5 289.5,304.5C 290.31,301.354 292.31,299.687 295.5,299.5C 295.5,301.167 295.5,302.833 295.5,304.5 Z"/></g>
<g><path style="opacity:1" fill="#395540" d="M 530.5,297.5 C 530.5,296.833 530.833,296.5 531.5,296.5C 531.847,304.388 532.847,312.054 534.5,319.5C 501.161,335.165 467.494,350.332 433.5,365C 415.292,365.506 397.292,364.672 379.5,362.5C 376.053,361.683 370.72,361.016 363.5,360.5C 370.27,359.56 376.603,357.393 382.5,354C 401.38,347.774 420.213,341.941 439,336.5C 445.816,333.446 452.649,330.78 459.5,328.5C 461.588,327.799 463.588,326.799 465.5,325.5C 465.56,326.043 465.893,326.376 466.5,326.5C 485.638,321.515 504.305,315.349 522.5,308C 525.478,307.304 528.478,306.804 531.5,306.5C 531.81,303.287 531.477,300.287 530.5,297.5 Z"/></g>
<g><path style="opacity:1" fill="#303135" d="M 413.5,303.5 C 413.5,303.167 413.5,302.833 413.5,302.5C 420.5,302.5 427.5,302.5 434.5,302.5C 439.316,303.326 444.316,303.826 449.5,304C 444.79,304.375 440.123,305.042 435.5,306C 432.052,309.439 428.052,312.106 423.5,314C 411.459,314.157 399.459,313.49 387.5,312C 392.035,310.925 396.535,309.758 401,308.5C 402.398,309.051 403.732,309.384 405,309.5C 405.333,308.833 405.667,308.167 406,307.5C 407.309,309.891 408.309,309.891 409,307.5C 411.918,311.537 412.918,311.203 412,306.5C 412.419,307.672 413.085,308.672 414,309.5C 414.221,306.057 415.221,305.724 417,308.5C 418.145,307.316 419.312,307.316 420.5,308.5C 420.414,309.496 420.748,310.329 421.5,311C 422.935,310.689 424.268,310.855 425.5,311.5C 426.192,310.975 426.692,310.308 427,309.5C 427.333,309.833 427.667,310.167 428,310.5C 428.49,309.207 428.657,307.873 428.5,306.5C 430.288,306.785 431.955,306.452 433.5,305.5C 430.015,303.906 426.348,303.24 422.5,303.5C 419.5,303.5 416.5,303.5 413.5,303.5 Z"/></g>
<g><path style="opacity:1" fill="#dbdedc" d="M 508.5,308.5 C 494.294,314.349 479.961,320.016 465.5,325.5C 465.5,324.5 465.5,323.5 465.5,322.5C 477.524,318.317 489.524,313.817 501.5,309C 503.81,308.503 506.143,308.337 508.5,308.5 Z"/></g>
<g><path style="opacity:1" fill="#4c4e53" d="M 422.5,303.5 C 426.348,303.24 430.015,303.906 433.5,305.5C 431.955,306.452 430.288,306.785 428.5,306.5C 428.657,307.873 428.49,309.207 428,310.5C 427.667,310.167 427.333,309.833 427,309.5C 426.692,310.308 426.192,310.975 425.5,311.5C 424.268,310.855 422.935,310.689 421.5,311C 420.748,310.329 420.414,309.496 420.5,308.5C 422.195,304.397 423.361,304.73 424,309.5C 424.273,307.899 424.773,306.399 425.5,305C 424.263,304.768 423.263,304.268 422.5,303.5 Z"/></g>
<g><path style="opacity:1" fill="#3c3b40" d="M 254.5,311.5 C 255.343,314.516 256.843,317.183 259,319.5C 263.776,323.795 268.609,327.795 273.5,331.5C 270.484,332.562 267.484,333.729 264.5,335C 262.833,335.667 261.167,335.667 259.5,335C 253.667,330.5 248.5,325.333 244,319.5C 243.333,318.167 243.333,316.833 244,315.5C 247.351,313.74 250.851,312.406 254.5,311.5 Z"/></g>
<g><path style="opacity:1" fill="#2f3e33" d="M 357.5,323.5 C 386.003,327.018 414.669,328.352 443.5,327.5C 448.64,328.488 453.974,328.821 459.5,328.5C 452.649,330.78 445.816,333.446 439,336.5C 420.213,341.941 401.38,347.774 382.5,354C 376.603,357.393 370.27,359.56 363.5,360.5C 357.848,359.968 352.181,359.635 346.5,359.5C 334.83,358.889 323.163,358.222 311.5,357.5C 326.18,352.851 338.513,344.517 348.5,332.5C 351.318,330.021 353.318,327.021 354.5,323.5C 355.5,323.5 356.5,323.5 357.5,323.5 Z"/></g>
<g><path style="opacity:1" fill="#9a999d" d="M 246.5,303.5 C 246.47,304.497 246.97,305.164 248,305.5C 251.913,306.314 255.746,307.314 259.5,308.5C 257.739,309.313 256.072,310.313 254.5,311.5C 250.851,312.406 247.351,313.74 244,315.5C 243.333,316.833 243.333,318.167 244,319.5C 248.5,325.333 253.667,330.5 259.5,335C 261.167,335.667 262.833,335.667 264.5,335C 267.484,333.729 270.484,332.562 273.5,331.5C 277.355,329.548 281.355,328.215 285.5,327.5C 285.972,330.358 284.972,332.358 282.5,333.5C 276.985,335.894 271.319,337.894 265.5,339.5C 261.801,338.817 258.468,337.317 255.5,335C 246.571,327.58 240.238,318.414 236.5,307.5C 239.49,305.572 242.824,304.239 246.5,303.5 Z"/></g>
<g><path style="opacity:1" fill="#9c9b9e" d="M 329.5,314.5 C 330.466,319.816 330.966,325.149 331,330.5C 325.379,335.717 319.213,340.05 312.5,343.5C 305.329,345.751 297.996,346.584 290.5,346C 289.54,342.27 289.207,338.437 289.5,334.5C 289.5,332.5 289.5,330.5 289.5,328.5C 295.043,325.089 297.043,320.089 295.5,313.5C 296.067,320.96 297.401,328.293 299.5,335.5C 299.232,338.119 299.565,340.619 300.5,343C 309.825,342.68 318.159,339.513 325.5,333.5C 326.683,329.825 326.683,326.159 325.5,322.5C 324.833,317.833 324.167,313.167 323.5,308.5C 324.93,308.421 326.264,308.754 327.5,309.5C 328.17,311.291 328.837,312.958 329.5,314.5 Z"/></g>
<g><path style="opacity:1" fill="#3c3b40" d="M 325.5,322.5 C 326.683,326.159 326.683,329.825 325.5,333.5C 318.159,339.513 309.825,342.68 300.5,343C 299.565,340.619 299.232,338.119 299.5,335.5C 305.274,332.268 311.274,329.102 317.5,326C 319.667,323.833 321.833,321.667 324,319.5C 324.232,320.737 324.732,321.737 325.5,322.5 Z"/></g>
<g><path style="opacity:0.98" fill="#9ba09d" d="M 311.5,357.5 C 323.163,358.222 334.83,358.889 346.5,359.5C 343.713,360.477 340.713,360.81 337.5,360.5C 327.646,360.364 317.979,359.698 308.5,358.5C 309.209,357.596 310.209,357.263 311.5,357.5 Z"/></g>
<g><path style="opacity:0.985" fill="#77807a" d="M 346.5,359.5 C 352.181,359.635 357.848,359.968 363.5,360.5C 370.72,361.016 376.053,361.683 379.5,362.5C 365.304,362.707 351.304,362.04 337.5,360.5C 340.713,360.81 343.713,360.477 346.5,359.5 Z"/></g>
</svg>
