<?xml version="1.0" encoding="UTF-8"?>
<svg version="1.1" xmlns="http://www.w3.org/2000/svg" width="500" height="500">
<path d="M0 0 C1.43568034 0.39770648 2.87190514 0.79345137 4.30859375 1.1875 C18.68788333 5.1915791 31.77167564 11.1646109 45 18 C46.02738281 18.52851562 47.05476563 19.05703125 48.11328125 19.6015625 C54.4384047 22.94752597 60.22065557 26.7911296 66 31 C66.85078125 31.59425781 67.7015625 32.18851563 68.578125 32.80078125 C75.93410925 37.99513855 82.68958956 43.77212012 89.46411133 49.68725586 C90.85401588 50.87522546 92.28629864 52.0131678 93.72265625 53.14453125 C95.76408775 54.80779019 97.38084941 56.42400369 99.0625 58.4375 C101.65364808 61.48755551 104.34017726 64.40460993 107.11401367 67.28930664 C122.57777271 83.5176335 134.56031462 102.74391285 144 123 C144.33531738 123.71897461 144.67063477 124.43794922 145.01611328 125.17871094 C153.43948503 143.52688917 159.23820967 162.78197466 161.72363281 182.83105469 C161.98813514 184.90688387 162.29634425 186.97129357 162.6171875 189.0390625 C170.25283326 240.80861442 154.77719456 294.08181308 126 337 C125.09701172 338.41539062 125.09701172 338.41539062 124.17578125 339.859375 C123.64339844 340.68953125 123.11101562 341.5196875 122.5625 342.375 C121.88380859 343.43847656 121.88380859 343.43847656 121.19140625 344.5234375 C120.79824219 345.01070313 120.40507812 345.49796875 120 346 C119.34 346 118.68 346 118 346 C117.80019531 346.680625 117.60039062 347.36125 117.39453125 348.0625 C115.49131385 352.07151817 112.74803399 354.82568694 109.6875 358 C109.06593018 358.65355469 108.44436035 359.30710937 107.80395508 359.98046875 C105.87863019 361.99619935 103.9411668 363.99953075 102 366 C101.41089844 366.61101562 100.82179688 367.22203125 100.21484375 367.8515625 C86.8097521 381.71468689 86.8097521 381.71468689 80 386 C79.34 386 78.68 386 78 386 C78 386.66 78 387.32 78 388 C75.88690212 389.59943362 73.7823399 391.0609143 71.5625 392.5 C70.88727295 392.94142334 70.2120459 393.38284668 69.51635742 393.83764648 C67.35293289 395.23926332 65.17925682 396.62314126 63 398 C62.32130859 398.42941895 61.64261719 398.85883789 60.94335938 399.30126953 C44.34514774 409.68918411 26.74681962 417.399327 8 423 C6.73800781 423.37898438 5.47601563 423.75796875 4.17578125 424.1484375 C-26.92900065 432.9410751 -58.17860184 433.47362238 -90 429 C-90.77327637 428.89316895 -91.54655273 428.78633789 -92.34326172 428.67626953 C-120.86972548 424.55660711 -147.08240605 412.48285813 -171.6875 398 C-172.32945312 397.62641357 -172.97140625 397.25282715 -173.6328125 396.86791992 C-175.12503227 395.96997086 -176.5689503 394.99253671 -178 394 C-178 393.34 -178 392.68 -178 392 C-178.7115625 391.74863281 -179.423125 391.49726563 -180.15625 391.23828125 C-187.28408167 388.13454136 -193.76956678 382.69194203 -199 377 C-201.37970005 374.56080744 -203.66483503 372.25578379 -206.375 370.1875 C-209.32372204 367.73023163 -211.68756466 365.0263089 -214.15625 362.09765625 C-215.50437852 360.56387444 -216.91695058 359.08608067 -218.36328125 357.64453125 C-227.91686135 348.06264425 -235.86919353 337.46833525 -243 326 C-243.42023438 325.33097656 -243.84046875 324.66195313 -244.2734375 323.97265625 C-253.51786201 309.15356363 -260.55388367 293.59857298 -266 277 C-266.61294922 275.25783203 -266.61294922 275.25783203 -267.23828125 273.48046875 C-284.02184486 223.61005003 -278.75829649 163.88752145 -255.97705078 116.88964844 C-249.02279606 102.89202268 -241.10969127 88.971476 -231 77 C-230.55897949 76.47696289 -230.11795898 75.95392578 -229.66357422 75.41503906 C-226.60435911 71.79565755 -223.51639161 68.20231784 -220.40869141 64.62451172 C-219.17681487 63.20390401 -217.95295878 61.77634942 -216.73046875 60.34765625 C-212.4731756 55.43539492 -207.96907012 51.17853624 -203 47 C-201.86323435 46.01457484 -200.7279426 45.02744807 -199.59375 44.0390625 C-198.35429268 42.96339645 -197.1147085 41.88787656 -195.875 40.8125 C-195.28895996 40.30098389 -194.70291992 39.78946777 -194.09912109 39.26245117 C-190.55769165 36.20975297 -186.94821787 33.52427044 -183 31 C-182.24460937 30.49339844 -181.48921875 29.98679688 -180.7109375 29.46484375 C-167.31829481 20.70811584 -153.03559605 12.53215098 -138 7 C-137.05801758 6.65195312 -136.11603516 6.30390625 -135.14550781 5.9453125 C-120.42480764 0.59069712 -105.99521709 -3.53386655 -90.46582031 -5.65771484 C-88.27908117 -5.96126022 -86.10625021 -6.30756575 -83.9296875 -6.67578125 C-56.33325778 -10.91030648 -26.68363867 -7.89766019 0 0 Z " fill="#FEF8F1" transform="translate(306,38)"/>
<path d="M0 0 C0.33 0 0.66 0 1 0 C1 50.82 1 101.64 1 154 C11.53691321 149.95472914 11.53691321 149.95472914 21.9765625 145.69921875 C24 145 24 145 27 145 C27 149.29 27 153.58 27 158 C5.51162791 169 5.51162791 169 1 169 C1 175.6 1 182.2 1 189 C3.84625 187.906875 6.6925 186.81375 9.625 185.6875 C18.64132489 182.24337139 27.68752931 178.88313753 36.75 175.5625 C37.38339294 175.33040833 38.01678589 175.09831665 38.66937256 174.85919189 C48.68268075 171.19295066 58.71063724 167.56765808 68.75683594 163.99243164 C73.97391665 162.12733868 79.13586446 160.16989298 84.27148438 158.09155273 C89.31898146 156.07228292 94.40313516 154.14813394 99.48535156 152.21826172 C101.36615321 151.5033627 103.24557772 150.78492233 105.125 150.06640625 C126.73392504 141.85501473 126.73392504 141.85501473 133 141 C134.8125 142.3125 134.8125 142.3125 136 144 C136 144.66 136 145.32 136 146 C137.32 145.67 138.64 145.34 140 145 C140 145.66 140 146.32 140 147 C140.66 147 141.32 147 142 147 C142.33 146.01 142.66 145.02 143 144 C144.485 145.485 144.485 145.485 146 147 C146.08226668 143.95613276 145.97608217 141.92824652 145 139 C145.66 139 146.32 139 147 139 C147.33 138.34 147.66 137.68 148 137 C148.66 138.32 149.32 139.64 150 141 C150.7734375 140.4121875 150.7734375 140.4121875 151.5625 139.8125 C154 139 154 139 157.75 140.375 C158.8225 140.91125 159.895 141.4475 161 142 C160.67 142.99 160.34 143.98 160 145 C160.87483915 147.16715557 160.87483915 147.16715557 162 149 C162.33 147.35 162.66 145.7 163 144 C163.66 144 164.32 144 165 144 C165 144.66 165 145.32 165 146 C165.66 146 166.32 146 167 146 C167.33 145.34 167.66 144.68 168 144 C168.33 145.65 168.66 147.3 169 149 C169.763125 148.67 170.52625 148.34 171.3125 148 C174 147 174 147 177 147 C177.33 145.68 177.66 144.36 178 143 C178.99 143.66 179.98 144.32 181 145 C180.48050781 145.90621094 179.96101563 146.81242188 179.42578125 147.74609375 C175.57315925 154.47339291 171.73751649 161.20778253 168 168 C167.34 168 166.68 168 166 168 C165.64421875 169.04220703 165.64421875 169.04220703 165.28125 170.10546875 C163.7689473 173.52198185 161.74761633 176.35756671 159.5 179.3125 C159.09652344 179.86228516 158.69304687 180.41207031 158.27734375 180.97851562 C157.23731309 182.36007451 156.12366546 183.68556298 155 185 C154.34 185 153.68 185 153 185 C152.71125 185.598125 152.4225 186.19625 152.125 186.8125 C151 189 151 189 149 192 C148.34 192 147.68 192 147 192 C146.7525 192.61875 146.505 193.2375 146.25 193.875 C144.76259631 196.40358627 143.56321991 196.71839004 141 198 C140.67 198.66 140.34 199.32 140 200 C138.75491604 202.49016793 137.53283204 202.98686718 135 204 C135 204.66 135 205.32 135 206 C130.52941176 210 130.52941176 210 128 210 C128 210.66 128 211.32 128 212 C115.80788177 223 115.80788177 223 111 223 C111 223.66 111 224.32 111 225 C78.01342272 243.41872737 78.01342272 243.41872737 60.24609375 248.359375 C58.63289778 248.81948655 57.03852855 249.34760891 55.4609375 249.91796875 C50.44250335 251.48693744 45.33394843 252.50173356 40.1875 253.5625 C39.14529297 253.78357422 38.10308594 254.00464844 37.02929688 254.23242188 C36.00255859 254.44576172 34.97582031 254.65910156 33.91796875 254.87890625 C32.99781982 255.0704126 32.0776709 255.26191895 31.12963867 255.45922852 C24.26595898 256.6452064 17.47117576 257.16076009 10.51171875 257.203125 C9.73478165 257.21009399 8.95784454 257.21706299 8.15736389 257.22424316 C5.66735334 257.24152012 3.17756797 257.24796181 0.6875 257.25 C-0.16348267 257.25100708 -1.01446533 257.25201416 -1.89123535 257.25305176 C-14.52128581 257.24293296 -26.61957589 256.66126575 -39 254 C-40.52960595 253.70525101 -42.05956222 253.41231487 -43.58984375 253.12109375 C-58.03000367 250.25870874 -71.78381108 245.48239701 -85 239 C-85.61230469 238.70335449 -86.22460938 238.40670898 -86.85546875 238.10107422 C-105.86227662 228.87799313 -105.86227662 228.87799313 -111 225 C-111 224.34 -111 223.68 -111 223 C-112.04800781 222.64421875 -112.04800781 222.64421875 -113.1171875 222.28125 C-116.4962586 220.77944062 -119.23997079 218.77084202 -122.125 216.5 C-122.68977051 216.06075195 -123.25454102 215.62150391 -123.83642578 215.16894531 C-128.62085938 211.39987931 -133.12226881 207.38368731 -137.578125 203.23046875 C-139.54492466 201.41910971 -141.5398719 199.73155896 -143.625 198.0625 C-147.51199165 194.77706658 -150.52800084 190.81627306 -153.68359375 186.84375 C-155.83899855 184.1976544 -158.09451517 181.72934903 -160.4375 179.25 C-169.64206878 169.11535284 -176.47382703 156.96922059 -183 145 C-183.57234375 144.00871094 -184.1446875 143.01742187 -184.734375 141.99609375 C-195.70439399 121.89277914 -201.74891576 97.7326404 -204 75 C-201.625 73.4375 -201.625 73.4375 -199 72 C-198.34 72.33 -197.68 72.66 -197 73 C-196.01 73 -195.02 73 -194 73 C-194.66 72.34 -195.32 71.68 -196 71 C-195.63318342 68.06546739 -195.13562754 67.13562754 -193 65 C-193 65.99 -193 66.98 -193 68 C-191.68 66.68 -190.36 65.36 -189 64 C-189 64.66 -189 65.32 -189 66 C-187.02 66.33 -185.04 66.66 -183 67 C-183 67.66 -183 68.32 -183 69 C-184.485 69.495 -184.485 69.495 -186 70 C-185.67 70.99 -185.34 71.98 -185 73 C-184.34 73.33 -183.68 73.66 -183 74 C-183.33 74.99 -183.66 75.98 -184 77 C-186.475 77.495 -186.475 77.495 -189 78 C-189 78.66 -189 79.32 -189 80 C-188.01 80.33 -187.02 80.66 -186 81 C-186.375 83.4375 -186.375 83.4375 -187 86 C-187.99 86.495 -187.99 86.495 -189 87 C-189 88.65 -189 90.3 -189 92 C-188.01 91.505 -188.01 91.505 -187 91 C-187 90.01 -187 89.02 -187 88 C-186.34 88 -185.68 88 -185 88 C-185 87.34 -185 86.68 -185 86 C-184.21625 86.165 -183.4325 86.33 -182.625 86.5 C-180.11791961 87.0623707 -180.11791961 87.0623707 -178 87 C-177.505 85.515 -177.505 85.515 -177 84 C-177.66 84 -178.32 84 -179 84 C-179.33 84.66 -179.66 85.32 -180 86 C-180.99 85.01 -181.98 84.02 -183 83 C-178.05 82.505 -178.05 82.505 -173 82 C-173.33 82.66 -173.66 83.32 -174 84 C-172.68 84.33 -171.36 84.66 -170 85 C-170.33 86.65 -170.66 88.3 -171 90 C-171.61875 89.814375 -172.2375 89.62875 -172.875 89.4375 C-175.04160178 88.76313824 -175.04160178 88.76313824 -177 90 C-176.67 91.65 -176.34 93.3 -176 95 C-173.03 94.01 -173.03 94.01 -170 93 C-169.67 93.66 -169.34 94.32 -169 95 C-169.66 95.66 -170.32 96.32 -171 97 C-170.10664203 99.35785318 -170.10664203 99.35785318 -166.9375 100.125 C-165.968125 100.41375 -164.99875 100.7025 -164 101 C-163.505 99.02 -163.505 99.02 -163 97 C-162.34 97 -161.68 97 -161 97 C-161 96.01 -161 95.02 -161 94 C-160.34 93.67 -159.68 93.34 -159 93 C-159.99 92.34 -160.98 91.68 -162 91 C-162 90.34 -162 89.68 -162 89 C-162.99 88.505 -162.99 88.505 -164 88 C-164 86.35 -164 84.7 -164 83 C-164.99 82.67 -165.98 82.34 -167 82 C-166.67 82.99 -166.34 83.98 -166 85 C-166.99 85 -167.98 85 -169 85 C-169.99 84.01 -169.99 84.01 -171 83 C-171 82.01 -171 81.02 -171 80 C-169.02 79.01 -169.02 79.01 -167 78 C-168.32 77.34 -169.64 76.68 -171 76 C-170.67 75.38125 -170.34 74.7625 -170 74.125 C-168.85806765 72.08981656 -168.85806765 72.08981656 -169 70 C-167.02 69.505 -167.02 69.505 -165 69 C-165 69.66 -165 70.32 -165 71 C-164.2265625 71.185625 -164.2265625 71.185625 -163.4375 71.375 C-162.633125 71.58125 -161.82875 71.7875 -161 72 C-159.80375 72.28875 -158.6075 72.5775 -157.375 72.875 C-154 74 -154 74 -152 77 C-148.93443402 77.73343428 -148.93443402 77.73343428 -146 78 C-146 78.66 -146 79.32 -146 80 C-148.97 79.505 -148.97 79.505 -152 79 C-152 79.66 -152 80.32 -152 81 C-153.98 81 -155.96 81 -158 81 C-158 81.99 -158 82.98 -158 84 C-157.01 83.67 -156.02 83.34 -155 83 C-155 83.66 -155 84.32 -155 85 C-155.99 85.66 -156.98 86.32 -158 87 C-158 87.66 -158 88.32 -158 89 C-157.34 89 -156.68 89 -156 89 C-156 88.34 -156 87.68 -156 87 C-154.68 87 -153.36 87 -152 87 C-152 87.99 -152 88.98 -152 90 C-151.01 90.495 -151.01 90.495 -150 91 C-149.505 89.515 -149.505 89.515 -149 88 C-148.01 88 -147.02 88 -146 88 C-145.67 87.34 -145.34 86.68 -145 86 C-145 87.32 -145 88.64 -145 90 C-144.34 90 -143.68 90 -143 90 C-143 92.64 -143 95.28 -143 98 C-143.66 98 -144.32 98 -145 98 C-144.505 96.02 -144.505 96.02 -144 94 C-144.66 94 -145.32 94 -146 94 C-146.59070014 95.94603274 -146.59070014 95.94603274 -147 98 C-146.67 98.33 -146.34 98.66 -146 99 C-145.01 99 -144.02 99 -143 99 C-143 112.2 -143 125.4 -143 139 C-140.03 139.66 -137.06 140.32 -134 141 C-132.22566554 141.56915202 -130.46290081 142.17760763 -128.72265625 142.84375 C-127.79727051 143.19179688 -126.87188477 143.53984375 -125.91845703 143.8984375 C-124.95536621 144.26195312 -123.99227539 144.62546875 -123 145 C-120.93764047 145.74359647 -118.87379551 146.48308417 -116.80859375 147.21875 C-115.76123047 147.59386719 -114.71386719 147.96898437 -113.63476562 148.35546875 C-111.4997923 149.11972921 -109.36437348 149.88274628 -107.22851562 150.64453125 C-101.55804846 152.67793352 -95.93955641 154.79515462 -90.35668945 157.05761719 C-86.55860933 158.57637708 -82.7180172 159.9747647 -78.875 161.375 C-73.6166792 163.29924058 -68.36390793 165.23421739 -63.12988281 167.22363281 C-54.89111082 170.35222623 -46.5830173 173.26111761 -38.24316406 176.10913086 C-32.86962181 177.95517238 -27.5805205 179.93274488 -22.31689453 182.07177734 C-19.0318828 183.38785897 -15.71215769 184.57217964 -12.375 185.75 C-10.27125 186.4925 -8.1675 187.235 -6 188 C-5.67 181.73 -5.34 175.46 -5 169 C-6.98 168.67 -8.96 168.34 -11 168 C-13.01953125 167.16796875 -13.01953125 167.16796875 -14.8125 166.1875 C-19.12442256 163.91060472 -23.53273609 161.95442796 -28 160 C-28 155.38 -28 150.76 -28 146 C-20.4745346 147.37966866 -14.01446081 149.93621252 -7 153 C-6.67 146.4 -6.34 139.8 -6 133 C-5.67 133 -5.34 133 -5 133 C-5 135.64 -5 138.28 -5 141 C-3.35 141.33 -1.7 141.66 0 142 C0 95.14 0 48.28 0 0 Z " fill="#FEE3C9" transform="translate(252,195)"/>
<path d="M0 0 C4.6366103 0.6623729 8.12830559 1.21115144 12.4140625 2.63671875 C13.41252197 2.96389893 14.41098145 3.2910791 15.43969727 3.62817383 C16.49084717 3.97775146 17.54199707 4.3273291 18.625 4.6875 C27.73147377 7.66622804 36.85841523 10.47220097 46.09814453 13.00854492 C50.42146697 14.20761537 54.59007637 15.56809422 58.77319336 17.18530273 C63.61229555 18.95573185 68.5706462 20.37948964 73.5 21.875 C75.82949165 22.58702839 78.15891894 23.29926737 80.48828125 24.01171875 C81.60928223 24.35380371 82.7302832 24.69588867 83.88525391 25.04833984 C92.77077111 27.76316553 101.63465223 30.52581608 110.4375 33.5 C116.76061826 35.6301763 123.12852119 37.55182938 129.54272461 39.38867188 C134.80565294 40.90282647 134.80565294 40.90282647 137 42 C137.02349617 58.97835897 137.04106046 75.95671277 137.05181217 92.93508434 C137.05693995 100.82074214 137.06391449 108.70638976 137.07543945 116.59204102 C137.08549496 123.47561361 137.09187891 130.35917883 137.09408849 137.24275857 C137.09537741 140.87805205 137.09834501 144.51332444 137.10573006 148.14861107 C137.13697493 164.12794906 136.98175739 180.04677289 136 196 C128.54895558 193.57837392 121.24594052 190.98362257 114 188 C114 192.62 114 197.24 114 202 C115.258125 202.391875 116.51625 202.78375 117.8125 203.1875 C122.57939939 204.76639378 127.07619834 206.77940948 131.6171875 208.9140625 C134.06555292 210.08055484 134.06555292 210.08055484 137 211 C137.02690104 213.79173055 137.04679053 216.58320348 137.0625 219.375 C137.07087891 220.1690625 137.07925781 220.963125 137.08789062 221.78125 C137.11328125 227.7734375 137.11328125 227.7734375 136 230 C129.77779054 229.45893831 124.72887665 227.39982562 119 225 C102.87250809 218.64141178 86.56830917 212.78364467 70.15942383 207.19628906 C64.49264307 205.25619186 58.90371615 203.20858614 53.35668945 200.94897461 C49.5613612 199.42069936 45.71881826 198.02575141 41.875 196.625 C40.20949943 196.0146939 38.54413697 195.40401076 36.87890625 194.79296875 C36.05793457 194.49181152 35.23696289 194.1906543 34.39111328 193.88037109 C28.24882144 191.61887381 22.12659066 189.30359809 16 187 C10.72 185.02 5.44 183.04 0 181 C0 121.27 0 61.54 0 0 Z " fill="#DE8653" transform="translate(110,153)"/>
<path d="M0 0 C0 59.73 0 119.46 0 181 C-12.2173913 186.55335968 -12.2173913 186.55335968 -17.5 188.1875 C-28.38947198 191.66990511 -39.0541021 195.79718346 -49.76220703 199.79394531 C-54.90538024 201.70974049 -60.05715156 203.60200404 -65.20996094 205.49169922 C-69.92748531 207.22571434 -74.63464427 208.98676564 -79.33984375 210.75390625 C-87.84917853 213.94844057 -96.36748109 217.1183806 -104.89306641 220.26928711 C-106.55888603 220.88557155 -108.22424542 221.5031013 -109.88916016 222.12182617 C-118.52854959 225.33192088 -127.11815074 228.51272042 -136 231 C-136 224.4 -136 217.8 -136 211 C-129.19570046 207.866441 -122.36259907 204.86291457 -115.43359375 202.015625 C-113.93540613 201.39037816 -112.45203299 200.72601649 -111 200 C-110.53045739 196.95418731 -110.53045739 196.95418731 -110.375 193.4375 C-110.30023438 192.23996094 -110.22546875 191.04242188 -110.1484375 189.80859375 C-110.07496094 188.41833984 -110.07496094 188.41833984 -110 187 C-116.49402937 189.06578261 -122.82319743 191.19773132 -128.96484375 194.16796875 C-131 195 -131 195 -136 196 C-136 145.18 -136 94.36 -136 42 C-123.23088811 37.35668659 -123.23088811 37.35668659 -116.875 35.375 C-116.11147217 35.13483154 -115.34794434 34.89466309 -114.5612793 34.6472168 C-108.956422 32.89486284 -103.33717727 31.19129565 -97.71484375 29.49609375 C-96.9852948 29.2759259 -96.25574585 29.05575806 -95.50408936 28.82891846 C-91.82866562 27.72016009 -88.15227881 26.61479212 -84.47412109 25.51513672 C-77.89566284 23.54073806 -71.41213707 21.4708002 -65 19 C-63.17506139 18.47017911 -61.34224137 17.96610926 -59.5 17.5 C-56.33410773 16.66527704 -53.28698361 15.78389558 -50.25 14.5625 C-45.23644579 12.58401063 -39.99805957 11.37766208 -34.78125 10.0625 C-31.46325515 9.13017087 -28.33704281 8.0356527 -25.12890625 6.79833984 C-21.2152562 5.33072107 -17.23247062 4.07851303 -13.25 2.8125 C-12.41339844 2.53986328 -11.57679688 2.26722656 -10.71484375 1.98632812 C-9.90660156 1.72916016 -9.09835937 1.47199219 -8.265625 1.20703125 C-7.54149414 0.9747583 -6.81736328 0.74248535 -6.07128906 0.50317383 C-4 0 -4 0 0 0 Z " fill="#DE8653" transform="translate(389,153)"/>
<path d="M0 0 C1.43568034 0.39770648 2.87190514 0.79345137 4.30859375 1.1875 C18.68788333 5.1915791 31.77167564 11.1646109 45 18 C46.02738281 18.52851562 47.05476563 19.05703125 48.11328125 19.6015625 C54.4384047 22.94752597 60.22065557 26.7911296 66 31 C66.85078125 31.59425781 67.7015625 32.18851563 68.578125 32.80078125 C75.93410925 37.99513855 82.68958956 43.77212012 89.46411133 49.68725586 C90.85401588 50.87522546 92.28629864 52.0131678 93.72265625 53.14453125 C95.76408775 54.80779019 97.38084941 56.42400369 99.0625 58.4375 C101.65364808 61.48755551 104.34017726 64.40460993 107.11401367 67.28930664 C122.57777271 83.5176335 134.56031462 102.74391285 144 123 C144.33531738 123.71897461 144.67063477 124.43794922 145.01611328 125.17871094 C153.43948503 143.52688917 159.23820967 162.78197466 161.72363281 182.83105469 C161.98813514 184.90688387 162.29634425 186.97129357 162.6171875 189.0390625 C170.25283326 240.80861442 154.77719456 294.08181308 126 337 C125.09701172 338.41539062 125.09701172 338.41539062 124.17578125 339.859375 C123.64339844 340.68953125 123.11101562 341.5196875 122.5625 342.375 C121.88380859 343.43847656 121.88380859 343.43847656 121.19140625 344.5234375 C120.79824219 345.01070313 120.40507812 345.49796875 120 346 C119.34 346 118.68 346 118 346 C117.80019531 346.680625 117.60039062 347.36125 117.39453125 348.0625 C115.49131385 352.07151817 112.74803399 354.82568694 109.6875 358 C109.06593018 358.65355469 108.44436035 359.30710937 107.80395508 359.98046875 C105.87863019 361.99619935 103.9411668 363.99953075 102 366 C101.41089844 366.61101562 100.82179688 367.22203125 100.21484375 367.8515625 C86.8097521 381.71468689 86.8097521 381.71468689 80 386 C79.34 386 78.68 386 78 386 C78 386.66 78 387.32 78 388 C75.88690212 389.59943362 73.7823399 391.0609143 71.5625 392.5 C70.88727295 392.94142334 70.2120459 393.38284668 69.51635742 393.83764648 C67.35293289 395.23926332 65.17925682 396.62314126 63 398 C62.32130859 398.42941895 61.64261719 398.85883789 60.94335938 399.30126953 C44.34514774 409.68918411 26.74681962 417.399327 8 423 C6.73800781 423.37898438 5.47601563 423.75796875 4.17578125 424.1484375 C-26.92900065 432.9410751 -58.17860184 433.47362238 -90 429 C-90.77327637 428.89316895 -91.54655273 428.78633789 -92.34326172 428.67626953 C-120.86972548 424.55660711 -147.08240605 412.48285813 -171.6875 398 C-172.32945312 397.62641357 -172.97140625 397.25282715 -173.6328125 396.86791992 C-175.12503227 395.96997086 -176.5689503 394.99253671 -178 394 C-178 393.34 -178 392.68 -178 392 C-178.7115625 391.74863281 -179.423125 391.49726563 -180.15625 391.23828125 C-187.28408167 388.13454136 -193.76956678 382.69194203 -199 377 C-201.37970005 374.56080744 -203.66483503 372.25578379 -206.375 370.1875 C-209.32372204 367.73023163 -211.68756466 365.0263089 -214.15625 362.09765625 C-215.50437852 360.56387444 -216.91695058 359.08608067 -218.36328125 357.64453125 C-227.91686135 348.06264425 -235.86919353 337.46833525 -243 326 C-243.42023438 325.33097656 -243.84046875 324.66195313 -244.2734375 323.97265625 C-253.51786201 309.15356363 -260.55388367 293.59857298 -266 277 C-266.61294922 275.25783203 -266.61294922 275.25783203 -267.23828125 273.48046875 C-284.02184486 223.61005003 -278.75829649 163.88752145 -255.97705078 116.88964844 C-249.02279606 102.89202268 -241.10969127 88.971476 -231 77 C-230.55897949 76.47696289 -230.11795898 75.95392578 -229.66357422 75.41503906 C-226.60435911 71.79565755 -223.51639161 68.20231784 -220.40869141 64.62451172 C-219.17681487 63.20390401 -217.95295878 61.77634942 -216.73046875 60.34765625 C-212.4731756 55.43539492 -207.96907012 51.17853624 -203 47 C-201.86323435 46.01457484 -200.7279426 45.02744807 -199.59375 44.0390625 C-198.35429268 42.96339645 -197.1147085 41.88787656 -195.875 40.8125 C-195.28895996 40.30098389 -194.70291992 39.78946777 -194.09912109 39.26245117 C-190.55769165 36.20975297 -186.94821787 33.52427044 -183 31 C-182.24460937 30.49339844 -181.48921875 29.98679688 -180.7109375 29.46484375 C-167.31829481 20.70811584 -153.03559605 12.53215098 -138 7 C-137.05801758 6.65195312 -136.11603516 6.30390625 -135.14550781 5.9453125 C-120.42480764 0.59069712 -105.99521709 -3.53386655 -90.46582031 -5.65771484 C-88.27908117 -5.96126022 -86.10625021 -6.30756575 -83.9296875 -6.67578125 C-56.33325778 -10.91030648 -26.68363867 -7.89766019 0 0 Z M-151 32 C-151.75087891 32.40154297 -152.50175781 32.80308594 -153.27539062 33.21679688 C-166.77280798 40.15083229 -166.77280798 40.15083229 -179 49 C-179 49.66 -179 50.32 -179 51 C-179.66644531 51.185625 -180.33289063 51.37125 -181.01953125 51.5625 C-185.29832992 53.6261932 -188.29430364 56.71786537 -191.6875 60 C-192.39575928 60.67627441 -193.10401855 61.35254883 -193.83374023 62.04931641 C-195.89677603 64.02514857 -197.9492528 66.01142805 -200 68 C-200.52948242 68.50756836 -201.05896484 69.01513672 -201.60449219 69.53808594 C-207.21430025 74.91624329 -212.74135691 80.45691923 -217 87 C-217 87.66 -217 88.32 -217 89 C-217.99 89.33 -218.98 89.66 -220 90 C-221.3459206 91.66521474 -221.3459206 91.66521474 -222.5234375 93.75390625 C-222.9875 94.52669922 -223.4515625 95.29949219 -223.9296875 96.09570312 C-224.40664062 96.90974609 -224.88359375 97.72378906 -225.375 98.5625 C-226.31994276 100.14735592 -227.26525298 101.73199282 -228.2109375 103.31640625 C-228.67346924 104.09693359 -229.13600098 104.87746094 -229.61254883 105.68164062 C-231.33714084 108.56334496 -233.11278848 111.41066387 -234.90258789 114.25219727 C-245.98971299 131.91020141 -252.09560384 153.37257645 -255.59130859 173.7746582 C-256.01978527 176.10773163 -256.53098268 178.41101205 -257.0625 180.72265625 C-265.26845943 217.03973079 -257.30780147 265.84547526 -239 298 C-238.32710937 299.27423828 -238.32710937 299.27423828 -237.640625 300.57421875 C-228.92467597 316.99862808 -218.50331056 331.50269571 -206.3125 345.46435547 C-205.12581332 346.85279654 -203.98926411 348.28370836 -202.859375 349.71875 C-201.1783265 351.78121287 -199.53278585 353.42209606 -197.5 355.125 C-194.53971922 357.64287719 -191.68264723 360.23617016 -188.86279297 362.91040039 C-183.94731239 367.54276091 -178.86889247 371.75345268 -173.375 375.6875 C-172.77091309 376.12167236 -172.16682617 376.55584473 -171.54443359 377.00317383 C-168.5573535 379.28002784 -168.5573535 379.28002784 -165 380 C-165 380.66 -165 381.32 -165 382 C-150.94341087 389.89218432 -137.09950219 397.28802995 -122 403 C-120.87207031 403.43441406 -119.74414062 403.86882812 -118.58203125 404.31640625 C-101.50627068 410.47139791 -82.68608389 414.0924906 -64.51171875 414.203125 C-63.73478165 414.21009399 -62.95784454 414.21706299 -62.15736389 414.22424316 C-59.66735334 414.24152012 -57.17756797 414.24796181 -54.6875 414.25 C-53.411026 414.25151062 -53.411026 414.25151062 -52.10876465 414.25305176 C-39.4853795 414.2429383 -27.37093683 413.68594214 -15 411 C-13.3647393 410.67109861 -11.7293179 410.34299534 -10.09375 410.015625 C-2.79650291 408.50295745 4.05630873 406.72490364 11 404 C11.92941406 403.67 12.85882813 403.34 13.81640625 403 C21.36956885 400.24948844 28.61311631 396.93812058 35.875 393.5 C36.86185791 393.03722656 37.84871582 392.57445312 38.86547852 392.09765625 C44.34223091 389.47245914 49.12723785 386.61322311 54 383 C54.99 382.67 55.98 382.34 57 382 C57 381.34 57 380.68 57 380 C57.69480469 379.7628125 58.38960938 379.525625 59.10546875 379.28125 C62.52198185 377.7689473 65.35756671 375.74761633 68.3125 373.5 C68.86228516 373.09652344 69.41207031 372.69304687 69.97851562 372.27734375 C71.36007451 371.23731309 72.68556298 370.12366546 74 369 C74 368.34 74 367.68 74 367 C74.598125 366.71125 75.19625 366.4225 75.8125 366.125 C78.19327792 364.95257974 78.19327792 364.95257974 81 363 C81 362.34 81 361.68 81 361 C81.61875 360.7525 82.2375 360.505 82.875 360.25 C85.13746494 359.17856271 85.13746494 359.17856271 86 357 C87.26422764 354.47154472 88.52845528 354.23577236 91 353 C92.26804566 350.9664052 92.26804566 350.9664052 93 349 C93.66 349 94.32 349 95 349 C98.02517909 345.94441577 98.02517909 345.94441577 99 342 C99.99 341.67 100.98 341.34 102 341 C103.53193938 339.34708528 103.53193938 339.34708528 104.9375 337.3125 C105.71287109 336.23548828 105.71287109 336.23548828 106.50390625 335.13671875 C106.99761719 334.43160156 107.49132812 333.72648437 108 333 C108.63228516 332.11248047 108.63228516 332.11248047 109.27734375 331.20703125 C111.37948412 328.36913588 111.37948412 328.36913588 112 325 C112.66 325 113.32 325 114 325 C114.25652344 324.5359375 114.51304687 324.071875 114.77734375 323.59375 C115.16019531 322.9028125 115.54304688 322.211875 115.9375 321.5 C116.39382813 320.66984375 116.85015625 319.8396875 117.3203125 318.984375 C118.5326474 316.83036601 119.7822751 314.69719964 121.0546875 312.578125 C127.42984657 301.85989758 131.91330476 290.76339862 136 279 C136.25797363 278.26716797 136.51594727 277.53433594 136.78173828 276.77929688 C139.9240435 267.74543494 141.94678088 258.78767789 143.421875 249.3515625 C144 246 144 246 145 244 C146.77503069 230.81603568 147.31001703 217.34320805 146.75 204.0625 C146.69223389 202.65556885 146.69223389 202.65556885 146.63330078 201.22021484 C146.04147595 190.30153173 143.81462551 179.62924734 141.625 168.9375 C141.4290625 167.93912109 141.233125 166.94074219 141.03125 165.91210938 C139.61341418 158.99791636 137.58491554 152.56226629 135 146 C134.679104 145.16283447 134.35820801 144.32566895 134.02758789 143.46313477 C131.62934319 137.30890894 128.90705168 131.33418331 126.0625 125.375 C125.64548828 124.48554688 125.22847656 123.59609375 124.79882812 122.6796875 C122.19373962 117.20376729 119.32505801 112.06785171 116 107 C115.27725324 105.86464094 114.55459245 104.72922715 113.83203125 103.59375 C113.16558594 102.5728125 112.49914062 101.551875 111.8125 100.5 C110.80123047 98.93765625 110.80123047 98.93765625 109.76953125 97.34375 C109.18558594 96.5703125 108.60164063 95.796875 108 95 C107.34 95 106.68 95 106 95 C105.75894531 94.2884375 105.51789063 93.576875 105.26953125 92.84375 C103.81092601 89.57647425 101.98004756 87.24335103 99.6875 84.5 C98.92824219 83.5821875 98.16898437 82.664375 97.38671875 81.71875 C95.02291643 79.02610447 92.55930656 76.50641151 90 74 C82 66 82 66 79.734375 63.65234375 C76.39482249 60.41297781 72.86655023 57.48538961 69.25 54.5625 C68.18048096 53.69709595 68.18048096 53.69709595 67.08935547 52.81420898 C62.23039139 48.91519739 57.3313506 45.23509176 52 42 C51.20464844 41.51402344 50.40929687 41.02804688 49.58984375 40.52734375 C47.89921668 39.50565104 46.20250319 38.49396529 44.5 37.4921875 C42.91901234 36.54853549 41.35371864 35.57760897 39.8125 34.5703125 C15.31842955 18.83627419 -18.2369067 9.95242388 -47.1796875 9.796875 C-48.03192902 9.79117493 -48.88417053 9.78547485 -49.76223755 9.77960205 C-51.55892726 9.77021515 -53.3556337 9.76364342 -55.15234375 9.75976562 C-57.83365984 9.75014828 -60.5141784 9.71910084 -63.1953125 9.6875 C-93.89187754 9.50023641 -124.04254056 17.38204241 -151 32 Z " fill="#DE8754" transform="translate(306,38)"/>
<path d="M0 0 C1.30326485 -0.0049926 1.30326485 -0.0049926 2.63285828 -0.01008606 C4.45892819 -0.01511464 6.28500716 -0.01749566 8.11108398 -0.01733398 C10.86913567 -0.01951733 13.62678458 -0.03770824 16.38476562 -0.05664062 C25.66726602 -0.08661359 34.45889369 0.22182165 43.57421875 2.16796875 C45.14105189 2.43615392 46.70874225 2.69939057 48.27734375 2.95703125 C70.62668807 6.95797492 91.99476981 14.64635634 111.57421875 26.16796875 C112.35925781 26.6165625 113.14429688 27.06515625 113.953125 27.52734375 C126.10918191 34.60410927 137.66305115 43.18194339 147.57421875 53.16796875 C149.55424472 55.02336126 151.56343439 56.84601439 153.57421875 58.66796875 C164.3196733 68.40433239 164.3196733 68.40433239 165.57421875 72.16796875 C165.24421875 73.15796875 164.91421875 74.14796875 164.57421875 75.16796875 C165.56421875 75.49796875 166.55421875 75.82796875 167.57421875 76.16796875 C167.57421875 76.82796875 167.57421875 77.48796875 167.57421875 78.16796875 C166.08921875 78.66296875 166.08921875 78.66296875 164.57421875 79.16796875 C163.91421875 80.15796875 163.25421875 81.14796875 162.57421875 82.16796875 C161.25421875 81.83796875 159.93421875 81.50796875 158.57421875 81.16796875 C158.24421875 82.15796875 157.91421875 83.14796875 157.57421875 84.16796875 C154.57421875 83.16796875 154.57421875 83.16796875 152.57421875 81.16796875 C150.50547841 80.52544525 150.50547841 80.52544525 148.57421875 80.16796875 C148.37119141 80.99941406 148.37119141 80.99941406 148.1640625 81.84765625 C147.48047723 84.14810488 146.80113536 86.10046567 145.57421875 88.16796875 C141.94921875 89.48046875 141.94921875 89.48046875 138.57421875 90.16796875 C138.24421875 91.15796875 137.91421875 92.14796875 137.57421875 93.16796875 C137.24421875 91.51796875 136.91421875 89.86796875 136.57421875 88.16796875 C135.91421875 88.16796875 135.25421875 88.16796875 134.57421875 88.16796875 C134.75984375 88.80734375 134.94546875 89.44671875 135.13671875 90.10546875 C135.28109375 90.78609375 135.42546875 91.46671875 135.57421875 92.16796875 C135.24421875 92.49796875 134.91421875 92.82796875 134.57421875 93.16796875 C134.90421875 93.82796875 135.23421875 94.48796875 135.57421875 95.16796875 C128.8341912 94.65895162 122.49177427 93.58972785 115.94921875 91.91796875 C108.06430927 89.96636446 100.15992707 88.21943088 92.19921875 86.60546875 C84.71334016 85.07661298 77.34381206 83.37626216 69.98046875 81.328125 C62.37493241 79.27202045 54.67154933 77.58018466 46.99194336 75.82495117 C41.11136023 74.47799891 35.24670626 73.10891308 29.421875 71.53515625 C19.38226756 68.84543921 11.81500966 67.43285068 1.57421875 70.16796875 C-0.41154663 70.63410761 -2.3986747 71.0944585 -4.38671875 71.55078125 C-12.62186837 73.46142825 -20.83478104 75.43708177 -28.984375 77.6875 C-34.5815289 79.22954213 -40.20813596 80.60606819 -45.86328125 81.91796875 C-47.31250977 82.26794922 -47.31250977 82.26794922 -48.79101562 82.625 C-49.72107422 82.84027344 -50.65113281 83.05554688 -51.609375 83.27734375 C-52.85545532 83.5707666 -52.85545532 83.5707666 -54.12670898 83.87011719 C-56.57839946 84.18774089 -58.1257025 84.05675871 -60.42578125 83.16796875 C-60.75578125 82.50796875 -61.08578125 81.84796875 -61.42578125 81.16796875 C-63.4504138 80.51583583 -63.4504138 80.51583583 -65.42578125 80.16796875 C-65.09578125 79.50796875 -64.76578125 78.84796875 -64.42578125 78.16796875 C-61.86328125 77.54296875 -61.86328125 77.54296875 -59.42578125 77.16796875 C-58.93078125 75.18796875 -58.93078125 75.18796875 -58.42578125 73.16796875 C-58.42578125 73.82796875 -58.42578125 74.48796875 -58.42578125 75.16796875 C-57.76578125 75.16796875 -57.10578125 75.16796875 -56.42578125 75.16796875 C-56.42578125 74.17796875 -56.42578125 73.18796875 -56.42578125 72.16796875 C-55.43578125 72.49796875 -54.44578125 72.82796875 -53.42578125 73.16796875 C-54.08578125 75.14796875 -54.74578125 77.12796875 -55.42578125 79.16796875 C-54.43578125 78.83796875 -53.44578125 78.50796875 -52.42578125 78.16796875 C-52.09578125 78.82796875 -51.76578125 79.48796875 -51.42578125 80.16796875 C-51.32037199 77.95715024 -51.32037199 77.95715024 -52.42578125 75.16796875 C-51.43578125 74.83796875 -50.44578125 74.50796875 -49.42578125 74.16796875 C-48.69254329 72.15288517 -48.69254329 72.15288517 -48.42578125 70.16796875 C-47.76578125 70.16796875 -47.10578125 70.16796875 -46.42578125 70.16796875 C-47.78901868 68.12799685 -47.78901868 68.12799685 -49.42578125 66.16796875 C-50.08578125 66.16796875 -50.74578125 66.16796875 -51.42578125 66.16796875 C-52.41578125 65.17796875 -52.41578125 65.17796875 -53.42578125 64.16796875 C-53.05078125 61.04296875 -53.05078125 61.04296875 -52.42578125 58.16796875 C-53.41578125 58.16796875 -54.40578125 58.16796875 -55.42578125 58.16796875 C-55.42578125 57.50796875 -55.42578125 56.84796875 -55.42578125 56.16796875 C-57.40578125 56.66296875 -57.40578125 56.66296875 -59.42578125 57.16796875 C-59.69390625 56.52859375 -59.96203125 55.88921875 -60.23828125 55.23046875 C-61.31245877 52.83665189 -61.31245877 52.83665189 -64.42578125 52.16796875 C-65.08578125 53.48796875 -65.74578125 54.80796875 -66.42578125 56.16796875 C-65.10578125 56.82796875 -63.78578125 57.48796875 -62.42578125 58.16796875 C-62.42578125 59.15796875 -62.42578125 60.14796875 -62.42578125 61.16796875 C-64.40578125 61.66296875 -64.40578125 61.66296875 -66.42578125 62.16796875 C-66.42578125 60.84796875 -66.42578125 59.52796875 -66.42578125 58.16796875 C-68.40578125 58.82796875 -70.38578125 59.48796875 -72.42578125 60.16796875 C-72.75578125 59.50796875 -73.08578125 58.84796875 -73.42578125 58.16796875 C-74.74578125 58.16796875 -76.06578125 58.16796875 -77.42578125 58.16796875 C-78.48828125 56.29296875 -78.48828125 56.29296875 -79.42578125 54.16796875 C-79.09578125 53.50796875 -78.76578125 52.84796875 -78.42578125 52.16796875 C-79.08578125 52.16796875 -79.74578125 52.16796875 -80.42578125 52.16796875 C-79.327917 57.5758426 -79.327917 57.5758426 -75.42578125 61.16796875 C-76.08578125 61.16796875 -76.74578125 61.16796875 -77.42578125 61.16796875 C-77.09578125 62.81796875 -76.76578125 64.46796875 -76.42578125 66.16796875 C-78.4765625 65.90755208 -80.52734375 65.64713542 -82.578125 65.38671875 C-84.28119857 65.1483734 -84.28119857 65.1483734 -85.42578125 65.16796875 C-86.08578125 67.14796875 -86.74578125 69.12796875 -87.42578125 71.16796875 C-88.08578125 71.16796875 -88.74578125 71.16796875 -89.42578125 71.16796875 C-89.21953125 71.78671875 -89.01328125 72.40546875 -88.80078125 73.04296875 C-88.67703125 73.74421875 -88.55328125 74.44546875 -88.42578125 75.16796875 C-89.41578125 76.15796875 -89.41578125 76.15796875 -90.42578125 77.16796875 C-91.08578125 78.15796875 -91.74578125 79.14796875 -92.42578125 80.16796875 C-92.59368012 75.21495214 -92.62644478 71.70683728 -90.42578125 67.16796875 C-90.35124565 65.94436195 -90.35124565 65.94436195 -91.42578125 64.16796875 C-91.1463567 62.49142146 -90.81749878 60.82188721 -90.42578125 59.16796875 C-91.41578125 58.83796875 -92.40578125 58.50796875 -93.42578125 58.16796875 C-93.09578125 57.17796875 -92.76578125 56.18796875 -92.42578125 55.16796875 C-93.08578125 54.83796875 -93.74578125 54.50796875 -94.42578125 54.16796875 C-94.42578125 53.50796875 -94.42578125 52.84796875 -94.42578125 52.16796875 C-95.08578125 52.16796875 -95.74578125 52.16796875 -96.42578125 52.16796875 C-96.75578125 52.82796875 -97.08578125 53.48796875 -97.42578125 54.16796875 C-98.88640975 51.52057959 -99.42578125 50.27348541 -99.42578125 47.16796875 C-98.11240729 46.14189535 -96.7791402 45.1406955 -95.42578125 44.16796875 C-95.42578125 43.50796875 -95.42578125 42.84796875 -95.42578125 42.16796875 C-94.10578125 42.16796875 -92.78578125 42.16796875 -91.42578125 42.16796875 C-89.73880043 41.55452118 -88.06612318 40.89700961 -86.42578125 40.16796875 C-86.42578125 42.14796875 -86.42578125 44.12796875 -86.42578125 46.16796875 C-85.76578125 45.50796875 -85.10578125 44.84796875 -84.42578125 44.16796875 C-84.74619522 41.56516307 -84.74619522 41.56516307 -85.42578125 39.16796875 C-84.43578125 38.67296875 -84.43578125 38.67296875 -83.42578125 38.16796875 C-84.41578125 37.83796875 -85.40578125 37.50796875 -86.42578125 37.16796875 C-85.82394376 35.14751433 -85.15272029 33.14685836 -84.42578125 31.16796875 C-83.76578125 30.83796875 -83.10578125 30.50796875 -82.42578125 30.16796875 C-82.75578125 29.83796875 -83.08578125 29.50796875 -83.42578125 29.16796875 C-83.75578125 28.50796875 -84.08578125 27.84796875 -84.42578125 27.16796875 C-85.08578125 26.83796875 -85.74578125 26.50796875 -86.42578125 26.16796875 C-76.93894272 18.20244306 -64.9953313 14.18054538 -53.42578125 10.16796875 C-52.77593262 9.94222168 -52.12608398 9.71647461 -51.45654297 9.48388672 C-34.79846175 3.78870876 -17.64693391 0.02416295 0 0 Z " fill="#FEFBF8" transform="translate(236.42578125,47.83203125)"/>
<path d="M0 0 C2.47728359 0.54302192 4.95519375 1.0831902 7.43359375 1.62109375 C9.42836069 2.06924154 11.42191434 2.52248375 13.4152832 2.97680664 C15.43052763 3.43591158 17.44663035 3.89108263 19.46289062 4.34570312 C26.37235285 5.90915075 33.26119774 7.53713461 40.12915039 9.27416992 C52.89906249 12.50275642 65.68951313 15.63104722 78.625 18.125 C85.50000821 19.45115058 92.22844236 21.04137242 98.9765625 22.92578125 C102.14203375 23.79452543 105.32497952 24.5550722 108.5234375 25.29296875 C109.48064697 25.51412354 110.43785645 25.73527832 111.42407227 25.96313477 C113.32164592 26.39795196 115.22055061 26.8270083 117.12084961 27.24975586 C117.98460205 27.44835205 118.84835449 27.64694824 119.73828125 27.8515625 C120.51212158 28.02510254 121.28596191 28.19864258 122.08325195 28.37744141 C124 29 124 29 126 31 C109.36700337 36.22102748 109.36700337 36.22102748 102.50390625 38.2265625 C97.20434642 39.86355602 91.95869592 41.66982854 86.7109375 43.46484375 C78.38009064 46.30259487 70.06504614 48.90120836 61.52734375 51.04296875 C58.09985778 51.9729068 54.76500163 53.05005934 51.40356445 54.19018555 C47.1617996 55.6193307 42.89156153 56.95957601 38.625 58.3125 C37.19196533 58.76761963 37.19196533 58.76761963 35.72998047 59.23193359 C32.82028848 60.15557651 29.910232 61.07806009 27 62 C26.13890625 62.27279785 25.2778125 62.5455957 24.390625 62.82666016 C23.57078125 63.08624512 22.7509375 63.34583008 21.90625 63.61328125 C21.10807861 63.8661792 20.30990723 64.11907715 19.48754883 64.37963867 C17.92070727 64.87396205 16.35284003 65.36504681 14.78393555 65.8527832 C11.0336708 67.02098968 7.3117261 68.23078876 3.61328125 69.5546875 C-4.05853193 72.24875517 -10.08368601 73.97400544 -18 71 C-18.65871094 70.76410156 -19.31742187 70.52820313 -19.99609375 70.28515625 C-21.2941466 69.80197762 -22.58599112 69.30179347 -23.87109375 68.78515625 C-27.21040598 67.55359339 -30.64593257 66.71608935 -34.09375 65.84375 C-36.41834784 65.16886676 -38.60817979 64.41196558 -40.86328125 63.546875 C-44.74605623 62.06284898 -48.68771242 60.87439337 -52.6875 59.75 C-59.27179337 57.86049844 -65.76503266 55.76750932 -72.25 53.5625 C-79.14189694 51.2267525 -86.05185034 49.07503126 -93.0625 47.125 C-103.9217227 44.1026618 -114.62635795 40.63587362 -125.34375 37.1484375 C-131.87390941 35.02652255 -138.43145462 32.99953453 -145 31 C-144.67 30.34 -144.34 29.68 -144 29 C-141.65844727 28.25390625 -141.65844727 28.25390625 -138.56640625 27.5625 C-137.44169922 27.30726563 -136.31699219 27.05203125 -135.15820312 26.7890625 C-133.37833008 26.39847656 -133.37833008 26.39847656 -131.5625 26 C-129.83483398 25.60941406 -129.83483398 25.60941406 -128.07226562 25.2109375 C-122.90256744 24.04973473 -117.73089741 22.93627019 -112.52734375 21.9375 C-108.8900633 21.223956 -105.5154009 20.18501609 -102 19 C-98.05727185 17.99473488 -94.09191323 17.09190724 -90.125 16.1875 C-88.98111816 15.92469238 -87.83723633 15.66188477 -86.65869141 15.39111328 C-78.91569202 13.62606307 -71.15485114 11.96884755 -63.375 10.375 C-53.19034652 8.28714194 -43.11182337 5.91490409 -33.07128906 3.21142578 C-29.78172304 2.32892012 -26.48526609 1.47629335 -23.1875 0.625 C-22.14924072 0.33761963 -21.11098145 0.05023926 -20.04125977 -0.24584961 C-12.66602734 -2.11951279 -7.32255911 -1.84456384 0 0 Z " fill="#DE8653" transform="translate(259,117)"/>
<path d="M0 0 C0.99 0 1.98 0 3 0 C14.24863585 27.61899099 16.35281034 57.51258865 14 87 C13.93506348 87.8544873 13.87012695 88.70897461 13.80322266 89.58935547 C13.4047405 94.20664654 12.7314294 98.54479582 11.51757812 103.01611328 C10.97040742 105.1134289 10.54495247 107.21054244 10.140625 109.33984375 C7.10273811 125.15945993 2.09250177 139.53833858 -5 154 C-5.99 154 -6.98 154 -8 154 C-8.33 154.99 -8.66 155.98 -9 157 C-10.84765625 157.73046875 -10.84765625 157.73046875 -13.0625 158.1875 C-13.79597656 158.34605469 -14.52945313 158.50460937 -15.28515625 158.66796875 C-15.85105469 158.77753906 -16.41695313 158.88710938 -17 159 C-17.66 158.01 -18.32 157.02 -19 156 C-19.66 156 -20.32 156 -21 156 C-21 155.34 -21 154.68 -21 154 C-21.66 154 -22.32 154 -23 154 C-23 155.65 -23 157.3 -23 159 C-23.66 159.33 -24.32 159.66 -25 160 C-25.66 158.02 -26.32 156.04 -27 154 C-26.67 153.67 -26.34 153.34 -26 153 C-29.27682556 151.28577587 -29.27682556 151.28577587 -33 150 C-35.40686815 150.65682309 -35.40686815 150.65682309 -37 152 C-37.66 151.01 -38.32 150.02 -39 149 C-39.66 149 -40.32 149 -41 149 C-40.34 149.99 -39.68 150.98 -39 152 C-39.375 154.6875 -39.375 154.6875 -40 157 C-42 156 -42 156 -43 155 C-43.495 155.99 -43.495 155.99 -44 157 C-46.875 157.125 -46.875 157.125 -50 157 C-50.66 156.34 -51.32 155.68 -52 155 C-51.67 154.67 -51.34 154.34 -51 154 C-51.99 153.34 -52.98 152.68 -54 152 C-53 150 -53 150 -50 149 C-49.67 100.49 -49.34 51.98 -49 2 C-47.68 2.33 -46.36 2.66 -45 3 C-45.144375 3.680625 -45.28875 4.36125 -45.4375 5.0625 C-46.06945909 8.36273082 -46.54313941 11.67144426 -47 15 C-46.01 15 -45.02 15 -44 15 C-43.90847656 14.40703125 -43.81695312 13.8140625 -43.72265625 13.203125 C-42.82767887 10.47465343 -41.66093699 9.52874959 -39.4375 7.75 C-38.79683594 7.22921875 -38.15617187 6.7084375 -37.49609375 6.171875 C-37.00238281 5.78515625 -36.50867188 5.3984375 -36 5 C-36.66 4.67 -37.32 4.34 -38 4 C-38 3.34 -38 2.68 -38 2 C-36.68 2.33 -35.36 2.66 -34 3 C-33.3125 4.75 -33.3125 4.75 -33 7 C-34.4375 9.25 -34.4375 9.25 -36 11 C-35.34 11.33 -34.68 11.66 -34 12 C-34.33 12.99 -34.66 13.98 -35 15 C-35.66 15 -36.32 15 -37 15 C-36.67 15.66 -36.34 16.32 -36 17 C-33.97536745 17.65213292 -33.97536745 17.65213292 -32 18 C-31.67 17.01 -31.34 16.02 -31 15 C-30.34 15 -29.68 15 -29 15 C-29 14.34 -29 13.68 -29 13 C-29.66 12.67 -30.32 12.34 -31 12 C-27.535 11.505 -27.535 11.505 -24 11 C-23.67 10.01 -23.34 9.02 -23 8 C-22.401875 8.309375 -21.80375 8.61875 -21.1875 8.9375 C-18.91043228 10.10209704 -18.91043228 10.10209704 -16 11 C-15.06576355 7.98968256 -14.95550089 7.13349732 -16 4 C-16.66 4 -17.32 4 -18 4 C-17.67 3.01 -17.34 2.02 -17 1 C-14.525 1.495 -14.525 1.495 -12 2 C-11.505 5.465 -11.505 5.465 -11 9 C-10.01 9 -9.02 9 -8 9 C-7.34 10.32 -6.68 11.64 -6 13 C-5.87625 12.21625 -5.7525 11.4325 -5.625 10.625 C-5 8 -5 8 -3 6 C-1.96838392 4.01612292 -0.96476382 2.01723344 0 0 Z " fill="#FEF4E9" transform="translate(438,185)"/>
<path d="M0 0 C0.33 0.66 0.66 1.32 1 2 C4.02934491 2.65772428 4.02934491 2.65772428 7 3 C7 3.66 7 4.32 7 5 C6.01 5.33 5.02 5.66 4 6 C4.33 6.99 4.66 7.98 5 9 C5.66 9.33 6.32 9.66 7 10 C6.67 10.99 6.34 11.98 6 13 C4.35 13.33 2.7 13.66 1 14 C1 14.66 1 15.32 1 16 C1.99 16.33 2.98 16.66 4 17 C3.625 19.4375 3.625 19.4375 3 22 C2.34 22.33 1.68 22.66 1 23 C1 24.65 1 26.3 1 28 C1.66 27.67 2.32 27.34 3 27 C3 26.01 3 25.02 3 24 C3.66 24 4.32 24 5 24 C5 23.34 5 22.68 5 22 C5.78375 22.165 6.5675 22.33 7.375 22.5 C9.88208039 23.0623707 9.88208039 23.0623707 12 23 C12.33 22.01 12.66 21.02 13 20 C12.34 20 11.68 20 11 20 C10.67 20.66 10.34 21.32 10 22 C9.01 21.01 8.02 20.02 7 19 C10.3 18.67 13.6 18.34 17 18 C16.67 18.66 16.34 19.32 16 20 C17.32 20.33 18.64 20.66 20 21 C19.505 23.475 19.505 23.475 19 26 C18.38125 25.814375 17.7625 25.62875 17.125 25.4375 C14.95839822 24.76313824 14.95839822 24.76313824 13 26 C13.33 27.65 13.66 29.3 14 31 C15.98 30.34 17.96 29.68 20 29 C20.495 29.99 20.495 29.99 21 31 C20.34 31.66 19.68 32.32 19 33 C19.89335797 35.35785318 19.89335797 35.35785318 23.0625 36.125 C24.031875 36.41375 25.00125 36.7025 26 37 C26.33 35.68 26.66 34.36 27 33 C27.66 33 28.32 33 29 33 C29 32.01 29 31.02 29 30 C29.66 29.67 30.32 29.34 31 29 C30.01 28.34 29.02 27.68 28 27 C28 26.34 28 25.68 28 25 C27.34 24.67 26.68 24.34 26 24 C26 22.35 26 20.7 26 19 C25.01 18.67 24.02 18.34 23 18 C23.495 19.485 23.495 19.485 24 21 C23.01 21 22.02 21 21 21 C20.34 20.34 19.68 19.68 19 19 C19 18.01 19 17.02 19 16 C20.32 15.34 21.64 14.68 23 14 C21.68 13.34 20.36 12.68 19 12 C19.33 11.38125 19.66 10.7625 20 10.125 C21.14193235 8.08981656 21.14193235 8.08981656 21 6 C22.32 5.67 23.64 5.34 25 5 C25 5.66 25 6.32 25 7 C25.515625 7.12375 26.03125 7.2475 26.5625 7.375 C27.7690625 7.684375 27.7690625 7.684375 29 8 C30.19625 8.28875 31.3925 8.5775 32.625 8.875 C36 10 36 10 38 13 C41.06556598 13.73343428 41.06556598 13.73343428 44 14 C44 14.66 44 15.32 44 16 C42.02 15.67 40.04 15.34 38 15 C38 15.66 38 16.32 38 17 C36.02 17 34.04 17 32 17 C32 17.99 32 18.98 32 20 C32.99 19.67 33.98 19.34 35 19 C35 19.66 35 20.32 35 21 C34.01 21.66 33.02 22.32 32 23 C32 23.66 32 24.32 32 25 C32.66 25 33.32 25 34 25 C34 24.34 34 23.68 34 23 C35.32 23 36.64 23 38 23 C38 23.99 38 24.98 38 26 C38.66 26.33 39.32 26.66 40 27 C40.495 25.515 40.495 25.515 41 24 C41.99 24 42.98 24 44 24 C44.33 23.34 44.66 22.68 45 22 C45 23.32 45 24.64 45 26 C45.66 26 46.32 26 47 26 C47 28.64 47 31.28 47 34 C46.34 34 45.68 34 45 34 C45.33 32.68 45.66 31.36 46 30 C45.34 30 44.68 30 44 30 C43.40929986 31.94603274 43.40929986 31.94603274 43 34 C43.33 34.33 43.66 34.66 44 35 C44.99 35 45.98 35 47 35 C47 48.2 47 61.4 47 75 C49.97 75.66 52.94 76.32 56 77 C57.77433446 77.56915202 59.53709919 78.17760763 61.27734375 78.84375 C62.20272949 79.19179688 63.12811523 79.53984375 64.08154297 79.8984375 C65.04463379 80.26195312 66.00772461 80.62546875 67 81 C69.06235953 81.74359647 71.12620449 82.48308417 73.19140625 83.21875 C74.23876953 83.59386719 75.28613281 83.96898437 76.36523438 84.35546875 C78.5002077 85.11972921 80.63562652 85.88274628 82.77148438 86.64453125 C89.23931072 88.96386269 95.63673877 91.40853504 102 94 C103.41885457 94.56874788 104.83810432 95.13651126 106.2578125 95.703125 C111.62890625 97.8515625 111.62890625 97.8515625 117 100 C117 100.99 117 101.98 117 103 C116.01 103 115.02 103 114 103 C114.02320313 103.84304688 114.04640625 104.68609375 114.0703125 105.5546875 C114.08835938 106.65039062 114.10640625 107.74609375 114.125 108.875 C114.14820313 109.96554687 114.17140625 111.05609375 114.1953125 112.1796875 C114 115 114 115 112 117 C110.67607028 118.01241685 109.34400833 119.01439389 108 120 C107.34 119.34 106.68 118.68 106 118 C105.67 118.33 105.34 118.66 105 119 C104.34 119.66 103.68 120.32 103 121 C102.505 117.04 102.505 117.04 102 113 C103.65 112.34 105.3 111.68 107 111 C107 109.68 107 108.36 107 107 C106.01 107 105.02 107 104 107 C103.67 106.01 103.34 105.02 103 104 C102.01 104 101.02 104 100 104 C99.505 105.98 99.505 105.98 99 108 C98.01 108 97.02 108 96 108 C96 108.66 96 109.32 96 110 C93.53199953 108.84826645 91.95216435 107.95216435 90 106 C90 105.01 90 104.02 90 103 C89.4225 102.9175 88.845 102.835 88.25 102.75 C85.3460664 101.78202213 83.96259396 100.31305716 82 98 C82 97.34 82 96.68 82 96 C83.65 96.33 85.3 96.66 87 97 C87 96.34 87 95.68 87 95 C86.236875 94.54625 85.47375 94.0925 84.6875 93.625 C81.9717328 91.9829082 80.82635004 90.52210243 79 88 C78.34 88 77.68 88 77 88 C77.66 88.33 78.32 88.66 79 89 C79 89.66 79 90.32 79 91 C79.66 91.33 80.32 91.66 81 92 C80.67 92.33 80.34 92.66 80 93 C80.66 93.66 81.32 94.32 82 95 C79.33333333 96.33333333 76.66666667 97.66666667 74 99 C74.33 100.32 74.66 101.64 75 103 C73.02 104.65 71.04 106.3 69 108 C68.67 107.67 68.34 107.34 68 107 C68 107.99 68 108.98 68 110 C67.01 110 66.02 110 65 110 C65.33 108.02 65.66 106.04 66 104 C67.485 104.495 67.485 104.495 69 105 C68.938125 104.236875 68.87625 103.47375 68.8125 102.6875 C69 100 69 100 70.5 98.1875 C70.995 97.795625 71.49 97.40375 72 97 C70.515 96.505 70.515 96.505 69 96 C69.66 95.67 70.32 95.34 71 95 C70.34 94.67 69.68 94.34 69 94 C68.27306096 92.02111039 67.60183749 90.02045442 67 88 C66.34 88.66 65.68 89.32 65 90 C65 90.33 65 90.66 65 91 C62.125 91.125 62.125 91.125 59 91 C58.34 90.34 57.68 89.68 57 89 C55.02 89.99 55.02 89.99 53 91 C52.7763932 93.9254644 52.7763932 93.9254644 54 96 C52.63875 96.2165625 52.63875 96.2165625 51.25 96.4375 C47.57782273 97.03627124 47.57782273 97.03627124 44 98 C43.67 98.66 43.34 99.32 43 100 C42.01 99.67 41.02 99.34 40 99 C40 98.01 40 97.02 40 96 C39.34 96 38.68 96 38 96 C38 97.32 38 98.64 38 100 C37.195625 100.433125 36.39125 100.86625 35.5625 101.3125 C32.58444169 102.84672951 32.58444169 102.84672951 32.1875 106.6875 C32.0946875 108.3271875 32.0946875 108.3271875 32 110 C31.34 109.01 30.68 108.02 30 107 C29.01 107.33 28.02 107.66 27 108 C26.67 107.34 26.34 106.68 26 106 C25.38640625 105.88011719 24.7728125 105.76023437 24.140625 105.63671875 C16.73072616 103.4326795 11.60078324 89.4152771 7.96435547 82.75292969 C7.08197837 81.14901384 6.16941263 79.56180174 5.25390625 77.9765625 C-5.70738902 57.87663538 -11.74960389 33.72569128 -14 11 C-11.625 9.4375 -11.625 9.4375 -9 8 C-8.34 8.33 -7.68 8.66 -7 9 C-6.01 9 -5.02 9 -4 9 C-4.66 8.34 -5.32 7.68 -6 7 C-5.63318342 4.06546739 -5.13562754 3.13562754 -3 1 C-3 1.99 -3 2.98 -3 4 C-2.01 2.68 -1.02 1.36 0 0 Z M107 105 C108 107 108 107 108 107 Z " fill="#FEEBD7" transform="translate(62,259)"/>
<path d="M0 0 C3.65847946 4.29398998 6.48808402 8.92670155 9.375 13.75 C12.68279146 19.22204775 16.01419791 24.64804405 19.609375 29.9375 C24.67690563 37.45338812 29.38223051 45.20222808 34 53 C33.01 53.495 33.01 53.495 32 54 C26.06 52.02 20.12 50.04 14 48 C14 69.12 14 90.24 14 112 C2.89594669 108.2986489 -8.13245896 104.34701642 -19 100 C-19.33 79.54 -19.66 59.08 -20 38 C-23.3 37.34 -26.6 36.68 -30 36 C-32.68697566 35.05592747 -35.3624878 34.07454201 -38 33 C-38 32.34 -38 31.68 -38 31 C-36.48828125 29.66015625 -36.48828125 29.66015625 -34.3125 28.0625 C-30.30331185 25.03515384 -26.44362018 21.88566635 -22.625 18.625 C-15.18643611 12.28800167 -7.63753596 6.09639031 0 0 Z " fill="#FEEBD8" transform="translate(178,211)"/>
<path d="M0 0 C0.66 0.33 1.32 0.66 2 1 C1.67 1.66 1.34 2.32 1 3 C2.65 3 4.3 3 6 3 C6 3.99 6 4.98 6 6 C7.98 6.66 9.96 7.32 12 8 C12 8.99 12 9.98 12 11 C11.01 11.33 10.02 11.66 9 12 C9 12.66 9 13.32 9 14 C8.01 14 7.02 14 6 14 C6 14.66 6 15.32 6 16 C7.98 15.67 9.96 15.34 12 15 C9.00939539 34.69123553 4.02983571 53.17186282 -5 71 C-5.99 71 -6.98 71 -8 71 C-8.495 72.485 -8.495 72.485 -9 74 C-10.84765625 74.73046875 -10.84765625 74.73046875 -13.0625 75.1875 C-13.79597656 75.34605469 -14.52945313 75.50460937 -15.28515625 75.66796875 C-15.85105469 75.77753906 -16.41695313 75.88710938 -17 76 C-17.66 75.01 -18.32 74.02 -19 73 C-19.66 73 -20.32 73 -21 73 C-21 72.34 -21 71.68 -21 71 C-21.66 71 -22.32 71 -23 71 C-23 72.65 -23 74.3 -23 76 C-23.99 76.495 -23.99 76.495 -25 77 C-25.99 74.03 -25.99 74.03 -27 71 C-26.67 70.67 -26.34 70.34 -26 70 C-29.27682556 68.28577587 -29.27682556 68.28577587 -33 67 C-35.40686815 67.65682309 -35.40686815 67.65682309 -37 69 C-37.66 68.01 -38.32 67.02 -39 66 C-39.66 66 -40.32 66 -41 66 C-40.34 66.99 -39.68 67.98 -39 69 C-39.375 71.6875 -39.375 71.6875 -40 74 C-42 73 -42 73 -43 72 C-43.495 72.99 -43.495 72.99 -44 74 C-46.875 74.125 -46.875 74.125 -50 74 C-50.66 73.34 -51.32 72.68 -52 72 C-51.505 71.505 -51.505 71.505 -51 71 C-51.99 70.34 -52.98 69.68 -54 69 C-53 67 -53 67 -50 66 C-49.67 48.84 -49.34 31.68 -49 14 C-48.01 14 -47.02 14 -46 14 C-45.67 13.01 -45.34 12.02 -45 11 C-44.34 10.67 -43.68 10.34 -43 10 C-43.33 9.34 -43.66 8.68 -44 8 C-40.7 7.67 -37.4 7.34 -34 7 C-33.67 7.99 -33.34 8.98 -33 10 C-33.33 10.66 -33.66 11.32 -34 12 C-35.32 12 -36.64 12 -38 12 C-35.525 12.495 -35.525 12.495 -33 13 C-32.67 12.34 -32.34 11.68 -32 11 C-30.68 11.99 -29.36 12.98 -28 14 C-27.67 13.34 -27.34 12.68 -27 12 C-26.34 12 -25.68 12 -25 12 C-25 11.34 -25 10.68 -25 10 C-21.33776842 10.49489616 -19.33006074 11.05676537 -17 14 C-17 14.33 -17 14.66 -17 15 C-16.01 14.67 -15.02 14.34 -14 14 C-13.67 10.37 -13.34 6.74 -13 3 C-11.02 3.33 -9.04 3.66 -7 4 C-7 4.99 -7 5.98 -7 7 C-5.02 7 -3.04 7 -1 7 C-1.66 7.99 -2.32 8.98 -3 10 C-3.99 10 -4.98 10 -6 10 C-3.525 10.99 -3.525 10.99 -1 12 C-1.01160156 11.38511719 -1.02320313 10.77023437 -1.03515625 10.13671875 C-1.04417969 9.32847656 -1.05320312 8.52023437 -1.0625 7.6875 C-1.07410156 6.88699219 -1.08570313 6.08648437 -1.09765625 5.26171875 C-1 3 -1 3 0 0 Z " fill="#FEECDA" transform="translate(438,268)"/>
<path d="M0 0 C0 10.89 0 21.78 0 33 C-4.0425 34.19625 -8.085 35.3925 -12.25 36.625 C-20.87689836 39.18109868 -29.50371921 41.73750805 -38.125 44.3125 C-38.8974707 44.54211426 -39.66994141 44.77172852 -40.46582031 45.00830078 C-44.96528831 46.35538198 -49.41878207 47.7970826 -53.85498047 49.34057617 C-56.19209845 50.05905508 -58.60241861 50.52048372 -61 51 C-61 40.11 -61 29.22 -61 18 C-48.0625 14.1875 -48.0625 14.1875 -44.03930664 13.00463867 C-38.40295297 11.33897755 -32.78873162 9.64259534 -27.22338867 7.75268555 C-22.70663538 6.22362544 -18.16463444 4.77188584 -13.625 3.3125 C-12.64144531 2.99216797 -11.65789062 2.67183594 -10.64453125 2.34179688 C-9.70222656 2.03951172 -8.75992188 1.73722656 -7.7890625 1.42578125 C-6.94037598 1.15161377 -6.09168945 0.87744629 -5.21728516 0.5949707 C-3 0 -3 0 0 0 Z " fill="#FEEBD9" transform="translate(332,190)"/>
<path d="M0 0 C7.56774298 2.48608063 15.11248372 4.91839148 22.82470703 6.92016602 C24.98499893 7.52340609 27.03942954 8.24078412 29.125 9.0625 C33.15513375 10.64812639 37.27419516 11.71504401 41.46484375 12.79296875 C43.84621313 13.4818524 45.94100874 14.34479088 48.1875 15.375 C54.55841086 17.89190306 61.12550823 15.03287896 67.125 12.5625 C68.445 12.5625 69.765 12.5625 71.125 12.5625 C71.125 13.2225 71.125 13.8825 71.125 14.5625 C70.485625 14.68625 69.84625 14.81 69.1875 14.9375 C68.506875 15.14375 67.82625 15.35 67.125 15.5625 C66.795 16.2225 66.465 16.8825 66.125 17.5625 C65.465 17.5625 64.805 17.5625 64.125 17.5625 C64.125 18.5525 64.125 19.5425 64.125 20.5625 C61.21899739 21.81914978 59.32895416 22.5625 56.125 22.5625 C56.125 69.4225 56.125 116.2825 56.125 164.5625 C54.475 164.2325 52.825 163.9025 51.125 163.5625 C51.125 117.0325 51.125 70.5025 51.125 22.5625 C44.89873116 20.86442668 38.68201989 19.18269976 32.4375 17.5625 C27.18842288 16.18151085 22.18039398 14.53324681 17.125 12.5625 C15.60965191 12.09052031 14.08964924 11.6333424 12.56640625 11.1875 C7.14298074 9.57903724 1.75974795 7.8577537 -3.625 6.125 C-12.00061101 3.44250824 -20.39358463 0.89271821 -28.875 -1.4375 C-28.215 -1.7675 -27.555 -2.0975 -26.875 -2.4375 C-26.875 -3.0975 -26.875 -3.7575 -26.875 -4.4375 C-19.34714768 -8.88121277 -7.65806995 -2.52414553 0 0 Z " fill="#FEF5EC" transform="translate(195.875,172.4375)"/>
<path d="M0 0 C0.66 0 1.32 0 2 0 C2 22.77 2 45.54 2 69 C0.35 68.67 -1.3 68.34 -3 68 C-3 48.53 -3 29.06 -3 9 C-2.01 9 -1.02 9 0 9 C0 6.03 0 3.06 0 0 Z " fill="#FFECD9" transform="translate(250,268)"/>
<path d="M0 0 C9.10714286 1.875 9.10714286 1.875 13 4 C13 5.32 13 6.64 13 8 C13.99 8.66 14.98 9.32 16 10 C15.67 10.99 15.34 11.98 15 13 C14.34 13 13.68 13 13 13 C13.33 14.98 13.66 16.96 14 19 C8.89731263 18.34158873 4.62746541 16.14106609 0 14 C0 9.38 0 4.76 0 0 Z " fill="#FDE6D0" transform="translate(224,341)"/>
<path d="M0 0 C2.97 0.495 2.97 0.495 6 1 C6 2.98 6 4.96 6 7 C6.66 7.33 7.32 7.66 8 8 C7.7452486 9.31571603 7.47065859 10.62760376 7.1875 11.9375 C7.03667969 12.66839844 6.88585937 13.39929688 6.73046875 14.15234375 C6.48941406 14.76207031 6.24835938 15.37179687 6 16 C5.01 16.33 4.02 16.66 3 17 C3 16.34 3 15.68 3 15 C1.68 15 0.36 15 -1 15 C-1.66 16.32 -2.32 17.64 -3 19 C-3.66 18.67 -4.32 18.34 -5 18 C-5 17.01 -5 16.02 -5 15 C-6.32 15.33 -7.64 15.66 -9 16 C-8.67 14.68 -8.34 13.36 -8 12 C-7.34 12 -6.68 12 -6 12 C-6 11.01 -6 10.02 -6 9 C-6.639375 8.87625 -7.27875 8.7525 -7.9375 8.625 C-8.618125 8.41875 -9.29875 8.2125 -10 8 C-10.33 7.34 -10.66 6.68 -11 6 C-10.29875 5.87625 -9.5975 5.7525 -8.875 5.625 C-5.82343613 4.96161655 -2.94659062 4.02788045 0 3 C0 2.01 0 1.02 0 0 Z " fill="#FFE9D3" transform="translate(119,351)"/>
<path d="M0 0 C0.33 0 0.66 0 1 0 C1 2.64 1 5.28 1 8 C2.65 8.33 4.3 8.66 6 9 C6.33 12.96 6.66 16.92 7 21 C7.99 20.67 8.98 20.34 10 20 C10 22.31 10 24.62 10 27 C8.35 26.67 6.7 26.34 5 26 C5.33 24.68 5.66 23.36 6 22 C5.34 21.67 4.68 21.34 4 21 C3.67 21.66 3.34 22.32 3 23 C2.01 22.34 1.02 21.68 0 21 C-0.34057617 18.84521484 -0.34057617 18.84521484 -0.29296875 16.2109375 C-0.2784668 14.79941406 -0.2784668 14.79941406 -0.26367188 13.359375 C-0.23853516 12.37453125 -0.21339844 11.3896875 -0.1875 10.375 C-0.17396484 9.38242187 -0.16042969 8.38984375 -0.14648438 7.3671875 C-0.11105743 4.91091928 -0.06166196 2.45572715 0 0 Z " fill="#FFE9D4" transform="translate(246,328)"/>
<path d="M0 0 C-1.8125 2 -1.8125 2 -4 4 C-6.62113708 4 -8.50935112 3.68707555 -11 3 C-11.33 4.32 -11.66 5.64 -12 7 C-10.35 6.67 -8.7 6.34 -7 6 C-7.50603992 8.16874252 -7.99983813 9.99967627 -9 12 C-9.66 12 -10.32 12 -11 12 C-11.28875 12.598125 -11.5775 13.19625 -11.875 13.8125 C-13 16 -13 16 -15 19 C-15 17.68 -15 16.36 -15 15 C-15.44896307 13.23621652 -15.95193264 11.48554665 -16.5 9.75 C-16.7784375 8.85796875 -17.056875 7.9659375 -17.34375 7.046875 C-17.66859375 6.03367187 -17.66859375 6.03367187 -18 5 C-16.06305322 4.18618205 -14.12542289 3.37399084 -12.1875 2.5625 C-11.10855469 2.11003906 -10.02960938 1.65757812 -8.91796875 1.19140625 C-3.3032491 -1.10108303 -3.3032491 -1.10108303 0 0 Z " fill="#FEE9D3" transform="translate(326,359)"/>
<path d="M0 0 C1.65 1.32 3.3 2.64 5 4 C5 3.34 5 2.68 5 2 C5.99 1.67 6.98 1.34 8 1 C8.33 2.65 8.66 4.3 9 6 C3.76579213 9.27137992 0.83394389 9.10643764 -5 8 C-4.28436734 10.0162233 -4.28436734 10.0162233 -3 12 C-1.68 12.33 -0.36 12.66 1 13 C-2.3 13.66 -5.6 14.32 -9 15 C-9 12.03 -9 9.06 -9 6 C-7.02 6 -5.04 6 -3 6 C-2.67 4.68 -2.34 3.36 -2 2 C-1.34 2 -0.68 2 0 2 C0 1.34 0 0.68 0 0 Z " fill="#FFEEDD" transform="translate(422,262)"/>
<path d="M0 0 C0.33 0 0.66 0 1 0 C1 6.6 1 13.2 1 20 C1.99 19.67 2.98 19.34 4 19 C6.00875442 19.27571139 8.01178687 19.60235737 10 20 C10 22.31 10 24.62 10 27 C8.35 26.67 6.7 26.34 5 26 C5.33 24.68 5.66 23.36 6 22 C5.34 21.67 4.68 21.34 4 21 C3.67 21.66 3.34 22.32 3 23 C2.01 22.34 1.02 21.68 0 21 C-0.34057617 18.84521484 -0.34057617 18.84521484 -0.29296875 16.2109375 C-0.2784668 14.79941406 -0.2784668 14.79941406 -0.26367188 13.359375 C-0.23853516 12.37453125 -0.21339844 11.3896875 -0.1875 10.375 C-0.17396484 9.38242187 -0.16042969 8.38984375 -0.14648438 7.3671875 C-0.11105743 4.91091928 -0.06166196 2.45572715 0 0 Z " fill="#F8D5B9" transform="translate(246,328)"/>
<path d="M0 0 C-0.33 1.65 -0.66 3.3 -1 5 C-2.65 5 -4.3 5 -6 5 C-6 4.34 -6 3.68 -6 3 C-6.556875 3.33 -7.11375 3.66 -7.6875 4 C-10.30284522 5.1309601 -12.1806646 5.15662974 -15 5 C-14.34 4.67 -13.68 4.34 -13 4 C-12.67 3.34 -12.34 2.68 -12 2 C-10.0085944 1.61866701 -8.00720923 1.28674418 -6 1 C-4 0 -4 0 0 0 Z " fill="#FFFDFB" transform="translate(100,176)"/>
<path d="M0 0 C1.32 0.33 2.64 0.66 4 1 C3.34 2.32 2.68 3.64 2 5 C3.65 5 5.3 5 7 5 C7.33 5.99 7.66 6.98 8 8 C6.55989519 7.74337755 5.1229313 7.46909179 3.6875 7.1875 C2.88699219 7.03667969 2.08648437 6.88585937 1.26171875 6.73046875 C-1.23445587 5.92427764 -2.32422106 4.97947998 -4 3 C-3.01 3 -2.02 3 -1 3 C-0.67 2.01 -0.34 1.02 0 0 Z " fill="#FEFAF6" transform="translate(179,168)"/>
<path d="M0 0 C0.804375 0.495 0.804375 0.495 1.625 1 C4.5391061 2.22699204 6.86867708 2.14233286 10 2 C10.33 2.66 10.66 3.32 11 4 C10.01 4.66 9.02 5.32 8 6 C7.34 6.66 6.68 7.32 6 8 C3.36 6.68 0.72 5.36 -2 4 C-1.34 2.68 -0.68 1.36 0 0 Z " fill="#FFE6CD" transform="translate(87,340)"/>
<path d="M0 0 C0.66 0.33 1.32 0.66 2 1 C2 1.66 2 2.32 2 3 C3.32 3.33 4.64 3.66 6 4 C5.34 6.31 4.68 8.62 4 11 C3.67 10.34 3.34 9.68 3 9 C2.34 9 1.68 9 1 9 C0.67 9.66 0.34 10.32 0 11 C-1 8 -1 8 0 5 C0.03874921 3.33378384 0.0450286 1.66605828 0 0 Z " fill="#FFFBF6" transform="translate(395,200)"/>
<path d="M0 0 C0.99 0.495 0.99 0.495 2 1 C2 1.66 2 2.32 2 3 C3.32 2.67 4.64 2.34 6 2 C6 2.99 6 3.98 6 5 C6.66 5.33 7.32 5.66 8 6 C5.29120665 7.35439668 2.99066732 7.06501451 0 7 C0 4.69 0 2.38 0 0 Z " fill="#FFF4E8" transform="translate(88,269)"/>
<path d="M0 0 C0.042721 1.66611905 0.04063832 3.33382885 0 5 C-1 6 -1 6 -3.5625 6.0625 C-4.7690625 6.0315625 -4.7690625 6.0315625 -6 6 C-6 4.35 -6 2.7 -6 1 C-3 0 -3 0 0 0 Z " fill="#FFF5EA" transform="translate(419,170)"/>
<path d="M0 0 C0.33 0.99 0.66 1.98 1 3 C1.66 3 2.32 3 3 3 C2.67 3.66 2.34 4.32 2 5 C2.99 5.99 3.98 6.98 5 8 C4.360625 8.28875 3.72125 8.5775 3.0625 8.875 C0.84793921 9.82823451 0.84793921 9.82823451 0 12 C-0.19573608 10.56359829 -0.38127816 9.12580496 -0.5625 7.6875 C-0.66691406 6.88699219 -0.77132812 6.08648437 -0.87890625 5.26171875 C-1 3 -1 3 0 0 Z " fill="#FEF4E9" transform="translate(110,141)"/>
<path d="M0 0 C0.33 1.98 0.66 3.96 1 6 C0.01 6.495 0.01 6.495 -1 7 C-1.33 6.34 -1.66 5.68 -2 5 C-2.99 4.67 -3.98 4.34 -5 4 C-5.6875 1.9375 -5.6875 1.9375 -6 0 C-3.50907189 -1.24546405 -2.58919267 -0.7767578 0 0 Z " fill="#FDF0E4" transform="translate(217,179)"/>
<path d="M0 0 C3 0 3 0 4.6875 1.5 C5.120625 1.995 5.55375 2.49 6 3 C5.67 3.66 5.34 4.32 5 5 C4.34 4.67 3.68 4.34 3 4 C3.33 6.64 3.66 9.28 4 12 C1.57869669 9.57869669 1.47159496 8.19888623 0.875 4.875 C0.70742187 3.96492187 0.53984375 3.05484375 0.3671875 2.1171875 C0.24601562 1.41851562 0.12484375 0.71984375 0 0 Z " fill="#FFF5EA" transform="translate(100,131)"/>
<path d="M0 0 C0.66 0 1.32 0 2 0 C2.1546875 1.175625 2.1546875 1.175625 2.3125 2.375 C2.77595022 5.33045181 2.77595022 5.33045181 6 7 C6.1875 9.625 6.1875 9.625 6 12 C5.01 12 4.02 12 3 12 C2.814375 11.071875 2.814375 11.071875 2.625 10.125 C2.12802644 7.80879168 2.12802644 7.80879168 0 6 C-0.125 2.875 -0.125 2.875 0 0 Z " fill="#FFF5EA" transform="translate(156,100)"/>
<path d="M0 0 C2.625 0.375 2.625 0.375 5 1 C4.67 2.32 4.34 3.64 4 5 C2.35 5 0.7 5 -1 5 C-1.33 5.66 -1.66 6.32 -2 7 C-2.125 4.625 -2.125 4.625 -2 2 C-1.34 1.34 -0.68 0.68 0 0 Z " fill="#FDE3C9" transform="translate(127,340)"/>
<path d="M0 0 C0 1.98 0 3.96 0 6 C-0.66 6 -1.32 6 -2 6 C-2 5.34 -2 4.68 -2 4 C-3.32 4.33 -4.64 4.66 -6 5 C-5.625 3.0625 -5.625 3.0625 -5 1 C-3 0 -3 0 0 0 Z " fill="#FFF5EA" transform="translate(388,119)"/>
<path d="M0 0 C0.33 0 0.66 0 1 0 C1 1.98 1 3.96 1 6 C1.66 6.33 2.32 6.66 3 7 C2.67 7.99 2.34 8.98 2 10 C-1 9 -1 9 -3 7 C-2.01 4.69 -1.02 2.38 0 0 Z " fill="#FFEDDB" transform="translate(78,258)"/>
<path d="M0 0 C0.33 0.66 0.66 1.32 1 2 C1.66 2.33 2.32 2.66 3 3 C3 3.99 3 4.98 3 6 C2 6 1 6 0 6 C-0.99 6.33 -1.98 6.66 -3 7 C-3.33 5.02 -3.66 3.04 -4 1 C-2.68 0.67 -1.36 0.34 0 0 Z " fill="#FFE6CD" transform="translate(425,335)"/>
<path d="M0 0 C1.65 0 3.3 0 5 0 C4.01 1.485 4.01 1.485 3 3 C2.83286431 5.62531524 2.83286431 5.62531524 3 8 C1.68 7.67 0.36 7.34 -1 7 C-1 5.68 -1 4.36 -1 3 C-0.34 3 0.32 3 1 3 C0.67 2.01 0.34 1.02 0 0 Z " fill="#FFE9D3" transform="translate(138,359)"/>
<path d="M0 0 C0.33 0.66 0.66 1.32 1 2 C1.99 2.33 2.98 2.66 4 3 C4 3.66 4 4.32 4 5 C3.01 5 2.02 5 1 5 C0.67 5.66 0.34 6.32 0 7 C-0.99 6.34 -1.98 5.68 -3 5 C-2.625 3.0625 -2.625 3.0625 -2 1 C-1.34 0.67 -0.68 0.34 0 0 Z " fill="#FFF4E9" transform="translate(87,276)"/>
<path d="M0 0 C0.99 0 1.98 0 3 0 C3 0.66 3 1.32 3 2 C2.34 2 1.68 2 1 2 C1.99 3.32 2.98 4.64 4 6 C3.01 6.66 2.02 7.32 1 8 C0.67 7.34 0.34 6.68 0 6 C-0.66 6 -1.32 6 -2 6 C-1.34 4.02 -0.68 2.04 0 0 Z " fill="#FFF5EA" transform="translate(183,121)"/>
<path d="M0 0 C1.9375 0.75 1.9375 0.75 4 2 C4.75 4.125 4.75 4.125 5 6 C4.67 5.34 4.34 4.68 4 4 C2.68 4.99 1.36 5.98 0 7 C-0.66 6.34 -1.32 5.68 -2 5 C-1.46428571 1.46428571 -1.46428571 1.46428571 0 0 Z " fill="#FFF6ED" transform="translate(363,113)"/>
<path d="M0 0 C2.125 0.375 2.125 0.375 4 1 C3.67 2.32 3.34 3.64 3 5 C3.66 5 4.32 5 5 5 C5 5.66 5 6.32 5 7 C4.01 7 3.02 7 2 7 C1.67 6.01 1.34 5.02 1 4 C0.01 3.34 -0.98 2.68 -2 2 C-1.34 1.34 -0.68 0.68 0 0 Z " fill="#FFECD9" transform="translate(164,359)"/>
<path d="M0 0 C0.66 0.33 1.32 0.66 2 1 C1.67 1.33 1.34 1.66 1 2 C1.66 2.33 2.32 2.66 3 3 C3 3.99 3 4.98 3 6 C1.02 6 -0.96 6 -3 6 C-2.34 5.34 -1.68 4.68 -1 4 C-1.66 3.34 -2.32 2.68 -3 2 C-2.01 1.34 -1.02 0.68 0 0 Z " fill="#FFECD9" transform="translate(53,267)"/>
<path d="M0 0 C0.99 0.33 1.98 0.66 3 1 C2.01 1.495 2.01 1.495 1 2 C1 3.32 1 4.64 1 6 C-2.75 7.125 -2.75 7.125 -5 6 C-4 4 -4 4 -1 3 C-1.33 2.34 -1.66 1.68 -2 1 C-1.34 0.67 -0.68 0.34 0 0 Z " fill="#FFF5EC" transform="translate(424,152)"/>
<path d="M0 0 C1.98 0.495 1.98 0.495 4 1 C4 2.65 4 4.3 4 6 C3.01 6.33 2.02 6.66 1 7 C-1 4 -1 4 -0.625 1.8125 C-0.41875 1.214375 -0.2125 0.61625 0 0 Z " fill="#FFF5EB" transform="translate(79,149)"/>
<path d="M0 0 C0.86625 0.495 0.86625 0.495 1.75 1 C4.19883862 2.27075898 4.19883862 2.27075898 8 2 C6.25 3.5625 6.25 3.5625 4 5 C1.75 4.6875 1.75 4.6875 0 4 C0 2.68 0 1.36 0 0 Z " fill="#FFF6EC" transform="translate(347,102)"/>
<path d="M0 0 C-0.33 1.32 -0.66 2.64 -1 4 C-2.65 4 -4.3 4 -6 4 C-6 2.68 -6 1.36 -6 0 C-3.50907189 -1.24546405 -2.58919267 -0.7767578 0 0 Z " fill="#FFE9D3" transform="translate(156,369)"/>
<path d="M0 0 C2.97 0.495 2.97 0.495 6 1 C6.33 2.65 6.66 4.3 7 6 C5.68 5.34 4.36 4.68 3 4 C3.33 3.34 3.66 2.68 4 2 C2.68 1.67 1.36 1.34 0 1 C0 0.67 0 0.34 0 0 Z " fill="#FFEAD6" transform="translate(180,360)"/>
<path d="M0 0 C2.475 0.99 2.475 0.99 5 2 C4.01 2.495 4.01 2.495 3 3 C3 3.66 3 4.32 3 5 C1.35 4.67 -0.3 4.34 -2 4 C-1.34 2.68 -0.68 1.36 0 0 Z " fill="#FFEFDE" transform="translate(87,259)"/>
<path d="M0 0 C0.66 0.66 1.32 1.32 2 2 C2.99 1.67 3.98 1.34 5 1 C5.33 1.99 5.66 2.98 6 4 C3.69 4.66 1.38 5.32 -1 6 C-0.67 4.02 -0.34 2.04 0 0 Z " fill="#FFFDFC" transform="translate(98,190)"/>
<path d="M0 0 C1.32 0.66 2.64 1.32 4 2 C3.01 2.33 2.02 2.66 1 3 C1.33 4.32 1.66 5.64 2 7 C0.68 6.67 -0.64 6.34 -2 6 C-1.34 4.02 -0.68 2.04 0 0 Z " fill="#FDF2E8" transform="translate(205,176)"/>
<path d="M0 0 C1.65 0.33 3.3 0.66 5 1 C4.34 2.32 3.68 3.64 3 5 C1.35 4.67 -0.3 4.34 -2 4 C-1.34 2.68 -0.68 1.36 0 0 Z " fill="#FDEFE3" transform="translate(183,169)"/>
<path d="M0 0 C1.32 0.33 2.64 0.66 4 1 C3.6875 2.9375 3.6875 2.9375 3 5 C2.01 5.33 1.02 5.66 0 6 C0 4.02 0 2.04 0 0 Z " fill="#FEE3C9" transform="translate(269,352)"/>
<path d="M0 0 C2.31 0.33 4.62 0.66 7 1 C5.68 1.33 4.36 1.66 3 2 C3 2.66 3 3.32 3 4 C1.35 3.67 -0.3 3.34 -2 3 C-1.34 2.67 -0.68 2.34 0 2 C0 1.34 0 0.68 0 0 Z " fill="#FFFBF7" transform="translate(225,183)"/>
<path d="M0 0 C1.32 0 2.64 0 4 0 C4 1.32 4 2.64 4 4 C1.03 3.505 1.03 3.505 -2 3 C-1.34 2.01 -0.68 1.02 0 0 Z " fill="#FFF5EA" transform="translate(96,169)"/>
<path d="M0 0 C1.98 0 3.96 0 6 0 C6.33 1.65 6.66 3.3 7 5 C5.35 4.67 3.7 4.34 2 4 C2 3.34 2 2.68 2 2 C1.34 1.34 0.68 0.68 0 0 Z " fill="#FEF2E6" transform="translate(150,162)"/>
<path d="M0 0 C2 2 2 2 3 5 C3.99 5.66 4.98 6.32 6 7 C6 7.99 6 8.98 6 10 C3 9 3 9 1.3125 6.125 C0 3 0 3 0 0 Z " fill="#FFF4E8" transform="translate(388,150)"/>
<path d="M0 0 C2.97 0.495 2.97 0.495 6 1 C6 1.66 6 2.32 6 3 C6.66 3.33 7.32 3.66 8 4 C7.34 4 6.68 4 6 4 C6 4.66 6 5.32 6 6 C4 5 2 4 0 3 C0 2.01 0 1.02 0 0 Z " fill="#FFF3E7" transform="translate(170,127)"/>
<path d="M0 0 C0.66 0 1.32 0 2 0 C2 0.66 2 1.32 2 2 C2.99 2 3.98 2 5 2 C5 2.66 5 3.32 5 4 C3.02 4.66 1.04 5.32 -1 6 C-0.67 4.02 -0.34 2.04 0 0 Z " fill="#FFF5EA" transform="translate(298,121)"/>
<path d="M0 0 C0.66 0.66 1.32 1.32 2 2 C1.67 2.99 1.34 3.98 1 5 C-1.0625 5.6875 -1.0625 5.6875 -3 6 C-3 4.68 -3 3.36 -3 2 C-2.01 1.34 -1.02 0.68 0 0 Z " fill="#FFE9D4" transform="translate(397,367)"/>
<path d="M0 0 C0.99 0.33 1.98 0.66 3 1 C3 1.99 3 2.98 3 4 C1.35 4 -0.3 4 -2 4 C-2 3.01 -2 2.02 -2 1 C-1.34 0.67 -0.68 0.34 0 0 Z " fill="#FFECD9" transform="translate(377,352)"/>
<path d="M0 0 C0.33 1.65 0.66 3.3 1 5 C-0.65 4.67 -2.3 4.34 -4 4 C-4.33 3.01 -4.66 2.02 -5 1 C-2 0 -2 0 0 0 Z " fill="#FDE2C8" transform="translate(360,345)"/>
<path d="M0 0 C1.98 0 3.96 0 6 0 C6 1.98 6 3.96 6 6 C4 5 4 5 2 2 C1.34 2 0.68 2 0 2 C0 1.34 0 0.68 0 0 Z " fill="#FFF5EA" transform="translate(425,294)"/>
<path d="M0 0 C0.66 0.33 1.32 0.66 2 1 C1.67 1.99 1.34 2.98 1 4 C0.01 4 -0.98 4 -2 4 C-1 1 -1 1 0 0 Z M-4 4 C-3.01 4.33 -2.02 4.66 -1 5 C-1 5.66 -1 6.32 -1 7 C-1.99 7 -2.98 7 -4 7 C-4 6.01 -4 5.02 -4 4 Z " fill="#FFF3E6" transform="translate(398,289)"/>
<path d="M0 0 C1.65 0.33 3.3 0.66 5 1 C5 1.99 5 2.98 5 4 C2.03 3.505 2.03 3.505 -1 3 C-0.67 2.01 -0.34 1.02 0 0 Z " fill="#FFF5EA" transform="translate(439,275)"/>
<path d="M0 0 C1.65 0 3.3 0 5 0 C5.33 1.32 5.66 2.64 6 4 C4.125 4.625 4.125 4.625 2 5 C1.34 4.34 0.68 3.68 0 3 C0 2.01 0 1.02 0 0 Z " fill="#FFFCF9" transform="translate(63,196)"/>
<path d="M0 0 C1.98 0 3.96 0 6 0 C6 0.66 6 1.32 6 2 C4.02 2.66 2.04 3.32 0 4 C0 2.68 0 1.36 0 0 Z " fill="#FFE4C9" transform="translate(388,356)"/>
<path d="M0 0 C1.32 0.33 2.64 0.66 4 1 C4 1.66 4 2.32 4 3 C4.66 3.33 5.32 3.66 6 4 C4.02 4.66 2.04 5.32 0 6 C0 4.02 0 2.04 0 0 Z " fill="#FFECD9" transform="translate(369,349)"/>
<path d="M0 0 C2.31 0.33 4.62 0.66 7 1 C5.625 3 5.625 3 4 5 C3.34 5 2.68 5 2 5 C1.34 3.35 0.68 1.7 0 0 Z " fill="#FFECD9" transform="translate(225,342)"/>
<path d="M0 0 C2 3 2 3 3 6 C2.01 6.33 1.02 6.66 0 7 C-0.33 5.35 -0.66 3.7 -1 2 C-1.99 1.67 -2.98 1.34 -4 1 C-2.68 0.67 -1.36 0.34 0 0 Z " fill="#FCEFE4" transform="translate(296,175)"/>
<path d="M0 0 C0.99 0.33 1.98 0.66 3 1 C2.67 2.32 2.34 3.64 2 5 C0.35 5 -1.3 5 -3 5 C-2 2 -2 2 0 0 Z " fill="#FFF5EB" transform="translate(98,136)"/>
<path d="M0 0 C0.66 1.65 1.32 3.3 2 5 C0.35 4.67 -1.3 4.34 -3 4 C-3.33 3.01 -3.66 2.02 -4 1 C-2 0 -2 0 0 0 Z " fill="#FEF1E5" transform="translate(161,131)"/>
<path d="M0 0 C1.9375 0.75 1.9375 0.75 4 2 C4.75 4.125 4.75 4.125 5 6 C4.01 5.67 3.02 5.34 2 5 C2 4.34 2 3.68 2 3 C1.34 3 0.68 3 0 3 C0 2.01 0 1.02 0 0 Z " fill="#FFF6ED" transform="translate(264,91)"/>
</svg>
