<?xml version="1.0" encoding="UTF-8"?>
<svg version="1.1" xmlns="http://www.w3.org/2000/svg" width="2048" height="2048">
<path d="M0 0 C675.84 0 1351.68 0 2048 0 C2048 675.84 2048 1351.68 2048 2048 C1372.16 2048 696.32 2048 0 2048 C0 1372.16 0 696.32 0 0 Z " fill="#FFFEFE" transform="translate(0,0)"/>
<path d="M0 0 C1.30909332 0.07854218 2.61818665 0.15708435 3.96694946 0.23800659 C16.18153739 0.98391979 28.34228494 1.86490819 40.49462891 3.31030273 C45.3870469 3.88671351 50.28911102 4.33609213 55.1953125 4.77734375 C56.51018646 4.89595764 56.51018646 4.89595764 57.85162354 5.01696777 C59.64790424 5.17866947 61.44420991 5.340094 63.24053955 5.50125122 C79.48982633 6.96602679 95.72783185 8.4406753 111.875 10.8125 C112.60009766 10.91884766 113.32519531 11.02519531 114.07226562 11.13476562 C119.0366179 11.88749997 123.95681315 12.80297744 128.875 13.8125 C129.82568359 14.00682617 130.77636719 14.20115234 131.75585938 14.40136719 C181.26478065 24.71958162 222.86596613 47.89090062 251.44677734 90.61767578 C263.05825896 108.46164496 270.98047561 127.85024619 275.8125 148.5625 C276.19317627 150.18248901 276.19317627 150.18248901 276.58154297 151.83520508 C277.35569326 155.15882908 278.11717145 158.48512015 278.875 161.8125 C279.21797119 163.29919189 279.21797119 163.29919189 279.56787109 164.81591797 C283.13134666 180.40645183 285.40898043 196.05005174 287.38232422 211.91308594 C287.88154939 215.86433686 288.40554121 219.81140961 288.94140625 223.7578125 C289.20715454 225.71920166 289.20715454 225.71920166 289.47827148 227.72021484 C289.81178108 230.17635618 290.14587108 232.63241883 290.48071289 235.08837891 C292.75197096 251.99570516 294.31215557 268.85053209 295.375 285.875 C295.63157913 289.88948839 295.89143537 293.90375959 296.15234375 297.91796875 C296.2149791 298.88522888 296.27761444 299.85248901 296.34214783 300.84906006 C296.79689902 307.80245191 297.33564917 314.74526301 297.9375 321.6875 C298.81714372 332.09313028 299.39581058 342.5098826 299.9375 352.9375 C299.97779327 353.69770447 300.01808655 354.45790894 300.05960083 355.2411499 C301.42474264 381.23972851 302.03432931 407.21982605 302.0093255 433.25244474 C302.00671751 436.8438037 302.00916136 440.43516067 302.01071167 444.02651978 C302.01250631 450.03135653 302.01019621 456.03618079 302.00537109 462.04101562 C301.99989868 468.92992178 302.00172358 475.81879846 302.0071975 482.70770395 C302.01176524 488.7026028 302.01236244 494.69749291 302.00975883 500.69239295 C302.00822049 504.23878501 302.00793428 507.7851633 302.01129532 511.33155441 C302.02193192 524.30509623 302.02772681 537.23152039 301.1206665 550.17727661 C300.71429164 556.19056449 300.58789468 562.21045646 300.42578125 568.234375 C299.9187815 585.19367558 299.04004606 602.12451547 298.0625 619.0625 C298.01906841 619.82020187 297.97563683 620.57790375 297.93088913 621.35856628 C296.46561833 646.90149799 294.68268367 672.37736654 291.875 697.8125 C291.77554077 698.71957703 291.67608154 699.62665405 291.5736084 700.56121826 C290.84230731 707.21012327 290.08611392 713.85589163 289.3125 720.5 C289.21244659 721.36637085 289.11239319 722.2327417 289.00930786 723.12536621 C287.87462782 732.86268638 286.47731033 742.47235603 284.59155273 752.09301758 C283.91859877 755.58618749 283.32563838 759.08031608 282.76953125 762.59375 C278.64021768 788.4687463 273.60401384 814.18623904 261.875 837.8125 C261.54000488 838.50569336 261.20500977 839.19888672 260.85986328 839.91308594 C240.82870995 881.09211194 203.3145485 910.75421205 160.6640625 925.9375 C84.81901744 951.36561732 -8.15300271 947.64833333 -110.57177734 951.21777344 C-111.70640411 951.25197891 -112.84103088 951.28618439 -114.01004028 951.32142639 C-116.06292362 951.38230338 -118.11587655 951.44091531 -120.16891479 951.49632263 C-125.0858024 951.63961551 -129.98862833 951.85711323 -134.89781284 952.17171955 C-145.9132425 952.87429494 -156.92256372 953.11129441 -167.95703125 953.3125 C-170.04368225 953.35318333 -172.13032664 953.39420673 -174.21696472 953.43554688 C-179.68558683 953.54318641 -185.15427196 953.64714081 -190.62298584 953.75 C-199.30124266 953.91364119 -207.97940311 954.08220101 -216.65753746 954.25219727 C-219.61857464 954.30957483 -222.5796438 954.36490932 -225.54072571 954.41992188 C-227.46441327 954.45666975 -229.38809387 954.49378373 -231.31176758 954.53125 C-232.2926897 954.55034518 -233.27361181 954.56944036 -234.28425884 954.58911419 C-240.26597387 954.71261005 -246.24582267 954.87232175 -252.22583008 955.0605011 C-274.17598864 955.74486372 -296.10391812 955.97567518 -318.06422973 955.97952962 C-321.86880813 955.98081871 -325.67338056 955.98537524 -329.47795647 955.98973483 C-341.76109662 956.00341791 -354.0442196 956.00363468 -366.3273654 956.00059986 C-369.50963702 955.99999818 -372.69190817 955.99994984 -375.87417984 956.00008392 C-446.31078985 956.00230988 -516.70728294 955.56612468 -587.125 953.8125 C-588.01472755 953.79056076 -588.90445511 953.76862152 -589.8211441 953.74601746 C-609.83668333 953.25213875 -629.84682848 952.66389849 -649.85522461 951.93103027 C-653.05245178 951.81512989 -656.24980801 951.70406799 -659.44726562 951.59472656 C-686.36831962 950.66974232 -713.26482215 949.32883694 -740.16226196 947.8854599 C-741.84053449 947.79543329 -743.51881814 947.70561367 -745.19711304 947.61600494 C-749.99201784 947.35998505 -754.78674526 947.10101453 -759.58123589 946.83734703 C-761.05093487 946.75679704 -762.52067719 946.67703307 -763.99046516 946.59812355 C-770.75748777 946.23376721 -777.50223124 945.84969297 -784.23243713 945.03245544 C-787.15247817 944.69308552 -790.07777566 944.52139195 -793.01171875 944.34765625 C-794.89612671 944.23272827 -794.89612671 944.23272827 -796.81860352 944.11547852 C-797.46983185 944.07641388 -798.12106018 944.03734924 -798.79202271 943.99710083 C-811.2733009 943.24283626 -823.72747518 942.3299587 -836.171875 941.10107422 C-839.48864664 940.77696509 -842.80675256 940.46877835 -846.125 940.16015625 C-909.9629847 934.12362508 -972.53644334 923.4134186 -1015.9375 871.5 C-1022.29912882 863.6836868 -1027.97826911 855.47337086 -1033.125 846.8125 C-1033.4662793 846.23983398 -1033.80755859 845.66716797 -1034.15917969 845.07714844 C-1046.87388413 823.3830642 -1052.87479159 799.37785328 -1057.53125 774.90234375 C-1058.05426022 772.1806261 -1058.60019611 769.46510689 -1059.15625 766.75 C-1065.46388612 735.1613583 -1067.83075498 702.75903487 -1070.44969177 670.70344543 C-1070.95242269 664.63521097 -1071.54330195 658.57979906 -1072.171875 652.5234375 C-1073.08931763 643.60805893 -1073.70997234 634.69862534 -1074.1875 625.75 C-1074.27129316 624.24283243 -1074.35519825 622.73567108 -1074.43920898 621.22851562 C-1075.0166954 610.69049469 -1075.46823919 600.15076314 -1075.78344727 589.60131836 C-1075.81494873 588.5985083 -1075.8464502 587.59569824 -1075.87890625 586.5625 C-1075.90283447 585.71171875 -1075.9267627 584.8609375 -1075.95141602 583.984375 C-1076.09803882 581.30515779 -1076.33635031 578.66748284 -1076.60571289 575.99902344 C-1077.31270778 568.37096907 -1077.49227389 560.73251809 -1077.6796875 553.078125 C-1077.70062344 552.25271461 -1077.72155937 551.42730423 -1077.74312973 550.57688141 C-1078.30092149 527.99052309 -1078.276848 505.39994696 -1078.25537109 482.80810547 C-1078.2496873 476.78420034 -1078.2530645 470.7603395 -1078.25880146 464.73643589 C-1078.28968007 426.71723312 -1078.01637914 388.72163471 -1075.87768555 350.75366211 C-1075.68410243 347.3146419 -1075.50053612 343.87518866 -1075.31835938 340.43554688 C-1073.98333844 315.62312806 -1072.16655031 290.86136902 -1069.8125 266.125 C-1069.70584015 264.99816803 -1069.5991803 263.87133606 -1069.48928833 262.71035767 C-1066.66380855 233.00151029 -1063.75137943 203.14526556 -1058.125 173.8125 C-1057.90199219 172.64799316 -1057.67898438 171.48348633 -1057.44921875 170.28369141 C-1047.27349461 117.84742308 -1024.67319415 72.56277708 -979.79296875 41.4765625 C-939.47421621 14.32383985 -894.12113388 10.28179577 -847.0625 5.0625 C-846.1111618 4.95558838 -845.15982361 4.84867676 -844.17965698 4.73852539 C-833.40084442 3.53505724 -822.66327338 2.5567222 -811.82249451 2.14117432 C-807.66727092 1.9769954 -803.62391226 1.6274801 -799.49833679 1.07397461 C-793.77402881 0.44331772 -788.00720792 0.24614331 -782.2578125 -0.0546875 C-780.76789351 -0.13460234 -779.2779849 -0.21471085 -777.78808594 -0.29499817 C-773.77656076 -0.51020295 -769.76483184 -0.72134514 -765.75302887 -0.93130112 C-763.24284409 -1.06287508 -760.7327135 -1.19544154 -758.22259521 -1.32827759 C-734.92295487 -2.5600338 -711.62042514 -3.7209014 -688.31233978 -4.78116608 C-686.28896162 -4.87322729 -684.26560478 -4.96574707 -682.24224854 -5.05828857 C-678.41419885 -5.23247864 -674.58603852 -5.40395157 -670.7578125 -5.57421875 C-669.70182861 -5.62197952 -668.64584473 -5.6697403 -667.55786133 -5.71894836 C-575.22545649 -9.75715634 -482.72096849 -10.58549072 0 0 Z " fill="#FF0000" transform="translate(1412.125,551.1875)"/>
<path d="M0 0 C7.25606619 3.95785429 14.49349184 7.93260625 21.6875 12 C22.67661377 12.55905029 23.66572754 13.11810059 24.68481445 13.6940918 C32.7180333 18.2474948 40.69742201 22.88924316 48.66479492 27.55664062 C56.41355728 32.09031187 64.19961641 36.5560619 72 41 C81.67490784 46.51246859 91.31282363 52.08424699 100.921875 57.7109375 C108.58573974 62.19166265 116.28685835 66.60494224 124 71 C133.72124506 76.53985933 143.40894868 82.13374932 153.06689453 87.78344727 C163.59084625 93.93766742 174.15380137 100.02369996 184.71777344 106.10888672 C190.14659942 109.23680148 195.57319281 112.36858448 201 115.5 C203.16665583 116.75001879 205.3333225 118.00001878 207.5 119.25 C237.83333333 136.75 268.16666667 154.25 298.5 171.75 C299.57338623 172.3692334 300.64677246 172.9884668 301.75268555 173.62646484 C303.91049803 174.87141282 306.06821353 176.1165289 308.22583008 177.36181641 C313.77716592 180.56552651 319.33036541 183.7659363 324.88671875 186.9609375 C336.32032959 193.53921282 347.73299389 200.13939727 359 207 C355.59166354 209.8455204 352.16533016 212.18211602 348.30078125 214.36328125 C347.18767578 214.99492188 346.07457031 215.6265625 344.92773438 216.27734375 C344.04541138 216.77403564 344.04541138 216.77403564 343.14526367 217.28076172 C340.63143941 218.6958971 338.12305265 220.12055205 335.61422729 221.54452515 C334.31659948 222.28088741 333.01868436 223.0167436 331.7204895 223.75210571 C325.4599667 227.29958137 319.22818157 230.89608193 313 234.5 C304.01488215 239.69290681 295.01354434 244.85666316 286 250 C272.64161987 257.62338204 259.31676114 265.30416025 246 273 C232.09571421 281.03537392 218.1796502 289.04902998 204.23205566 297.00897217 C191.4635186 304.29689554 178.72924124 311.64369169 166 319 C152.09506913 327.03574672 138.17876895 335.0505128 124.2300415 343.00997925 C114.73444767 348.42889381 105.25921566 353.88238875 95.79345703 359.35327148 C87.83561246 363.94943607 79.85822801 368.51065947 71.875 373.0625 C63.22303975 377.99596828 54.59531713 382.96834962 46 388 C37.60619201 392.91202686 29.19010828 397.78341378 20.74951172 402.61450195 C19.51416856 403.32163053 18.27913481 404.02929997 17.04443359 404.73754883 C15.31968895 405.72652525 13.59346326 406.71291735 11.8671875 407.69921875 C10.87831543 408.26471436 9.88944336 408.83020996 8.87060547 409.4128418 C5.95741116 411.02354738 2.97739128 412.51130436 0 414 C0 277.38 0 140.76 0 0 Z " fill="#FFFEFE" transform="translate(886,817)"/>
</svg>
